%TF.GenerationSoftware,KiCad,Pcbnew,7.0.1*%
%TF.CreationDate,2023-09-13T21:21:14+01:00*%
%TF.ProjectId,101 PCB,31303120-5043-4422-9e6b-696361645f70,rev?*%
%TF.SameCoordinates,Original*%
%TF.FileFunction,Drillmap*%
%TF.FilePolarity,Positive*%
%FSLAX45Y45*%
G04 Gerber Fmt 4.5, Leading zero omitted, Abs format (unit mm)*
G04 Created by KiCad (PCBNEW 7.0.1) date 2023-09-13 21:21:14*
%MOMM*%
%LPD*%
G01*
G04 APERTURE LIST*
%ADD10C,0.200000*%
%ADD11C,0.020000*%
%ADD12C,0.060000*%
%ADD13C,0.080000*%
%ADD14C,0.090000*%
%ADD15C,0.100000*%
%ADD16C,0.152000*%
G04 APERTURE END LIST*
D10*
D11*
X11140000Y-9240000D02*
X11160000Y-9260000D01*
X11160000Y-9240000D02*
X11140000Y-9260000D01*
X11140000Y-9390000D02*
X11160000Y-9410000D01*
X11160000Y-9390000D02*
X11140000Y-9410000D01*
X11290000Y-9240000D02*
X11310000Y-9260000D01*
X11310000Y-9240000D02*
X11290000Y-9260000D01*
X11290000Y-9390000D02*
X11310000Y-9410000D01*
X11310000Y-9390000D02*
X11290000Y-9410000D01*
X11383321Y-8715000D02*
X11403321Y-8735000D01*
X11403321Y-8715000D02*
X11383321Y-8735000D01*
X11385233Y-8815000D02*
X11405233Y-8835000D01*
X11405233Y-8815000D02*
X11385233Y-8835000D01*
X11440000Y-9240000D02*
X11460000Y-9260000D01*
X11460000Y-9240000D02*
X11440000Y-9260000D01*
X11440000Y-9390000D02*
X11460000Y-9410000D01*
X11460000Y-9390000D02*
X11440000Y-9410000D01*
X11455354Y-8815000D02*
X11475354Y-8835000D01*
X11475354Y-8815000D02*
X11455354Y-8835000D01*
X11550000Y-7440000D02*
X11570000Y-7460000D01*
X11570000Y-7440000D02*
X11550000Y-7460000D01*
X11550000Y-8080000D02*
X11570000Y-8100000D01*
X11570000Y-8080000D02*
X11550000Y-8100000D01*
X11590000Y-7670000D02*
X11610000Y-7690000D01*
X11610000Y-7670000D02*
X11590000Y-7690000D01*
X11590000Y-7860000D02*
X11610000Y-7880000D01*
X11610000Y-7860000D02*
X11590000Y-7880000D01*
X11590000Y-9390000D02*
X11610000Y-9410000D01*
X11610000Y-9390000D02*
X11590000Y-9410000D01*
X11594950Y-7770000D02*
X11614950Y-7790000D01*
X11614950Y-7770000D02*
X11594950Y-7790000D01*
X11615000Y-6340000D02*
X11635000Y-6360000D01*
X11635000Y-6340000D02*
X11615000Y-6360000D01*
X11715000Y-6340000D02*
X11735000Y-6360000D01*
X11735000Y-6340000D02*
X11715000Y-6360000D01*
X11720000Y-7370000D02*
X11740000Y-7390000D01*
X11740000Y-7370000D02*
X11720000Y-7390000D01*
X11740000Y-9390000D02*
X11760000Y-9410000D01*
X11760000Y-9390000D02*
X11740000Y-9410000D01*
X11760000Y-7597550D02*
X11780000Y-7617550D01*
X11780000Y-7597550D02*
X11760000Y-7617550D01*
X11815000Y-6340000D02*
X11835000Y-6360000D01*
X11835000Y-6340000D02*
X11815000Y-6360000D01*
X11910000Y-7600000D02*
X11930000Y-7620000D01*
X11930000Y-7600000D02*
X11910000Y-7620000D01*
X11915000Y-6340000D02*
X11935000Y-6360000D01*
X11935000Y-6340000D02*
X11915000Y-6360000D01*
X11915000Y-6440000D02*
X11935000Y-6460000D01*
X11935000Y-6440000D02*
X11915000Y-6460000D01*
X11915000Y-6540000D02*
X11935000Y-6560000D01*
X11935000Y-6540000D02*
X11915000Y-6560000D01*
X12015000Y-6340000D02*
X12035000Y-6360000D01*
X12035000Y-6340000D02*
X12015000Y-6360000D01*
X12015000Y-6440000D02*
X12035000Y-6460000D01*
X12035000Y-6440000D02*
X12015000Y-6460000D01*
X12015000Y-6540000D02*
X12035000Y-6560000D01*
X12035000Y-6540000D02*
X12015000Y-6560000D01*
X12064736Y-7764736D02*
X12084736Y-7784736D01*
X12084736Y-7764736D02*
X12064736Y-7784736D01*
X12115000Y-10186521D02*
X12135000Y-10206521D01*
X12135000Y-10186521D02*
X12115000Y-10206521D01*
X12125345Y-7735000D02*
X12145345Y-7755000D01*
X12145345Y-7735000D02*
X12125345Y-7755000D01*
X12125345Y-7800000D02*
X12145345Y-7820000D01*
X12145345Y-7800000D02*
X12125345Y-7820000D01*
X12170000Y-6980000D02*
X12190000Y-7000000D01*
X12190000Y-6980000D02*
X12170000Y-7000000D01*
X12170000Y-7040000D02*
X12190000Y-7060000D01*
X12190000Y-7040000D02*
X12170000Y-7060000D01*
X12170000Y-7100000D02*
X12190000Y-7120000D01*
X12190000Y-7100000D02*
X12170000Y-7120000D01*
X12170000Y-8950000D02*
X12190000Y-8970000D01*
X12190000Y-8950000D02*
X12170000Y-8970000D01*
X12170000Y-9010000D02*
X12190000Y-9030000D01*
X12190000Y-9010000D02*
X12170000Y-9030000D01*
X12170000Y-10860000D02*
X12190000Y-10880000D01*
X12190000Y-10860000D02*
X12170000Y-10880000D01*
X12170000Y-10920000D02*
X12190000Y-10940000D01*
X12190000Y-10920000D02*
X12170000Y-10940000D01*
X12170000Y-10980000D02*
X12190000Y-11000000D01*
X12190000Y-10980000D02*
X12170000Y-11000000D01*
X12230000Y-8950000D02*
X12250000Y-8970000D01*
X12250000Y-8950000D02*
X12230000Y-8970000D01*
X12230000Y-9010000D02*
X12250000Y-9030000D01*
X12250000Y-9010000D02*
X12230000Y-9030000D01*
X12290000Y-8780000D02*
X12310000Y-8800000D01*
X12310000Y-8780000D02*
X12290000Y-8800000D01*
X12290000Y-8950000D02*
X12310000Y-8970000D01*
X12310000Y-8950000D02*
X12290000Y-8970000D01*
X12290000Y-9010000D02*
X12310000Y-9030000D01*
X12310000Y-9010000D02*
X12290000Y-9030000D01*
X12435000Y-7215000D02*
X12455000Y-7235000D01*
X12455000Y-7215000D02*
X12435000Y-7235000D01*
X12440000Y-7300000D02*
X12460000Y-7320000D01*
X12460000Y-7300000D02*
X12440000Y-7320000D01*
X12480000Y-7150000D02*
X12500000Y-7170000D01*
X12500000Y-7150000D02*
X12480000Y-7170000D01*
X12540000Y-9740000D02*
X12560000Y-9760000D01*
X12560000Y-9740000D02*
X12540000Y-9760000D01*
X12540000Y-9840000D02*
X12560000Y-9860000D01*
X12560000Y-9840000D02*
X12540000Y-9860000D01*
X12580000Y-7920000D02*
X12600000Y-7940000D01*
X12600000Y-7920000D02*
X12580000Y-7940000D01*
X12580000Y-7990000D02*
X12600000Y-8010000D01*
X12600000Y-7990000D02*
X12580000Y-8010000D01*
X12630000Y-7140000D02*
X12650000Y-7160000D01*
X12650000Y-7140000D02*
X12630000Y-7160000D01*
X12640000Y-9740000D02*
X12660000Y-9760000D01*
X12660000Y-9740000D02*
X12640000Y-9760000D01*
X12686250Y-7325000D02*
X12706250Y-7345000D01*
X12706250Y-7325000D02*
X12686250Y-7345000D01*
X12710000Y-10640000D02*
X12730000Y-10660000D01*
X12730000Y-10640000D02*
X12710000Y-10660000D01*
X12721562Y-8607900D02*
X12741562Y-8627900D01*
X12741562Y-8607900D02*
X12721562Y-8627900D01*
X12723051Y-8734900D02*
X12743051Y-8754900D01*
X12743051Y-8734900D02*
X12723051Y-8754900D01*
X12730000Y-9890000D02*
X12750000Y-9910000D01*
X12750000Y-9890000D02*
X12730000Y-9910000D01*
X12755900Y-6994100D02*
X12775900Y-7014100D01*
X12775900Y-6994100D02*
X12755900Y-7014100D01*
X12850000Y-9890000D02*
X12870000Y-9910000D01*
X12870000Y-9890000D02*
X12850000Y-9910000D01*
X12860000Y-6990000D02*
X12880000Y-7010000D01*
X12880000Y-6990000D02*
X12860000Y-7010000D01*
X12862000Y-7549203D02*
X12882000Y-7569203D01*
X12882000Y-7549203D02*
X12862000Y-7569203D01*
X12870000Y-10040000D02*
X12890000Y-10060000D01*
X12890000Y-10040000D02*
X12870000Y-10060000D01*
X12880000Y-7251250D02*
X12900000Y-7271250D01*
X12900000Y-7251250D02*
X12880000Y-7271250D01*
X12886323Y-9153677D02*
X12906323Y-9173677D01*
X12906323Y-9153677D02*
X12886323Y-9173677D01*
X12930000Y-8250000D02*
X12950000Y-8270000D01*
X12950000Y-8250000D02*
X12930000Y-8270000D01*
X12940000Y-7251250D02*
X12960000Y-7271250D01*
X12960000Y-7251250D02*
X12940000Y-7271250D01*
X12940000Y-10040000D02*
X12960000Y-10060000D01*
X12960000Y-10040000D02*
X12940000Y-10060000D01*
X12948750Y-6990000D02*
X12968750Y-7010000D01*
X12968750Y-6990000D02*
X12948750Y-7010000D01*
X12957764Y-7549217D02*
X12977764Y-7569217D01*
X12977764Y-7549217D02*
X12957764Y-7569217D01*
X12970000Y-10220000D02*
X12990000Y-10240000D01*
X12990000Y-10220000D02*
X12970000Y-10240000D01*
X12978885Y-9887220D02*
X12998885Y-9907220D01*
X12998885Y-9887220D02*
X12978885Y-9907220D01*
X12990000Y-7670000D02*
X13010000Y-7690000D01*
X13010000Y-7670000D02*
X12990000Y-7690000D01*
X12990000Y-7870000D02*
X13010000Y-7890000D01*
X13010000Y-7870000D02*
X12990000Y-7890000D01*
X12990000Y-8320000D02*
X13010000Y-8340000D01*
X13010000Y-8320000D02*
X12990000Y-8340000D01*
X13010000Y-7110000D02*
X13030000Y-7130000D01*
X13030000Y-7110000D02*
X13010000Y-7130000D01*
X13010000Y-10040000D02*
X13030000Y-10060000D01*
X13030000Y-10040000D02*
X13010000Y-10060000D01*
X13032500Y-6985600D02*
X13052500Y-7005600D01*
X13052500Y-6985600D02*
X13032500Y-7005600D01*
X13050000Y-7400000D02*
X13070000Y-7420000D01*
X13070000Y-7400000D02*
X13050000Y-7420000D01*
X13060000Y-7470000D02*
X13080000Y-7490000D01*
X13080000Y-7470000D02*
X13060000Y-7490000D01*
X13070000Y-7610000D02*
X13090000Y-7630000D01*
X13090000Y-7610000D02*
X13070000Y-7630000D01*
X13080000Y-9970000D02*
X13100000Y-9990000D01*
X13100000Y-9970000D02*
X13080000Y-9990000D01*
X13080000Y-10040000D02*
X13100000Y-10060000D01*
X13100000Y-10040000D02*
X13080000Y-10060000D01*
X13080000Y-10110000D02*
X13100000Y-10130000D01*
X13100000Y-10110000D02*
X13080000Y-10130000D01*
X13115816Y-9742000D02*
X13135816Y-9762000D01*
X13135816Y-9742000D02*
X13115816Y-9762000D01*
X13120000Y-7520000D02*
X13140000Y-7540000D01*
X13140000Y-7520000D02*
X13120000Y-7540000D01*
X13131000Y-8080000D02*
X13151000Y-8100000D01*
X13151000Y-8080000D02*
X13131000Y-8100000D01*
X13160000Y-7211250D02*
X13180000Y-7231250D01*
X13180000Y-7211250D02*
X13160000Y-7231250D01*
X13160000Y-7860000D02*
X13180000Y-7880000D01*
X13180000Y-7860000D02*
X13160000Y-7880000D01*
X13160000Y-7930000D02*
X13180000Y-7950000D01*
X13180000Y-7930000D02*
X13160000Y-7950000D01*
X13160000Y-8000000D02*
X13180000Y-8020000D01*
X13180000Y-8000000D02*
X13160000Y-8020000D01*
X13220000Y-7540000D02*
X13240000Y-7560000D01*
X13240000Y-7540000D02*
X13220000Y-7560000D01*
X13220000Y-7640000D02*
X13240000Y-7660000D01*
X13240000Y-7640000D02*
X13220000Y-7660000D01*
X13230000Y-7860000D02*
X13250000Y-7880000D01*
X13250000Y-7860000D02*
X13230000Y-7880000D01*
X13230000Y-7930000D02*
X13250000Y-7950000D01*
X13250000Y-7930000D02*
X13230000Y-7950000D01*
X13230000Y-8000000D02*
X13250000Y-8020000D01*
X13250000Y-8000000D02*
X13230000Y-8020000D01*
X13232641Y-7423000D02*
X13252641Y-7443000D01*
X13252641Y-7423000D02*
X13232641Y-7443000D01*
X13233949Y-7327000D02*
X13253949Y-7347000D01*
X13253949Y-7327000D02*
X13233949Y-7347000D01*
X13240000Y-8280000D02*
X13260000Y-8300000D01*
X13260000Y-8280000D02*
X13240000Y-8300000D01*
X13240000Y-8380000D02*
X13260000Y-8400000D01*
X13260000Y-8380000D02*
X13240000Y-8400000D01*
X13265000Y-11207963D02*
X13285000Y-11227963D01*
X13285000Y-11207963D02*
X13265000Y-11227963D01*
X13300000Y-8000000D02*
X13320000Y-8020000D01*
X13320000Y-8000000D02*
X13300000Y-8020000D01*
X13300000Y-10220000D02*
X13320000Y-10240000D01*
X13320000Y-10220000D02*
X13300000Y-10240000D01*
X13340000Y-8280000D02*
X13360000Y-8300000D01*
X13360000Y-8280000D02*
X13340000Y-8300000D01*
X13340000Y-8380000D02*
X13360000Y-8400000D01*
X13360000Y-8380000D02*
X13340000Y-8400000D01*
X13369000Y-8178000D02*
X13389000Y-8198000D01*
X13389000Y-8178000D02*
X13369000Y-8198000D01*
X13370300Y-9182500D02*
X13390300Y-9202500D01*
X13390300Y-9182500D02*
X13370300Y-9202500D01*
X13395051Y-9068345D02*
X13415051Y-9088345D01*
X13415051Y-9068345D02*
X13395051Y-9088345D01*
X13400000Y-10220000D02*
X13420000Y-10240000D01*
X13420000Y-10220000D02*
X13400000Y-10240000D01*
X13430000Y-9350000D02*
X13450000Y-9370000D01*
X13450000Y-9350000D02*
X13430000Y-9370000D01*
X13430000Y-9410000D02*
X13450000Y-9430000D01*
X13450000Y-9410000D02*
X13430000Y-9430000D01*
X13440000Y-8280000D02*
X13460000Y-8300000D01*
X13460000Y-8280000D02*
X13440000Y-8300000D01*
X13440000Y-8380000D02*
X13460000Y-8400000D01*
X13460000Y-8380000D02*
X13440000Y-8400000D01*
X13470000Y-8670000D02*
X13490000Y-8690000D01*
X13490000Y-8670000D02*
X13470000Y-8690000D01*
X13470000Y-8790000D02*
X13490000Y-8810000D01*
X13490000Y-8790000D02*
X13470000Y-8810000D01*
X13470000Y-8860000D02*
X13490000Y-8880000D01*
X13490000Y-8860000D02*
X13470000Y-8880000D01*
X13470000Y-8930000D02*
X13490000Y-8950000D01*
X13490000Y-8930000D02*
X13470000Y-8950000D01*
X13470000Y-9000000D02*
X13490000Y-9020000D01*
X13490000Y-9000000D02*
X13470000Y-9020000D01*
X13470000Y-9070000D02*
X13490000Y-9090000D01*
X13490000Y-9070000D02*
X13470000Y-9090000D01*
X13490000Y-9350000D02*
X13510000Y-9370000D01*
X13510000Y-9350000D02*
X13490000Y-9370000D01*
X13490000Y-9410000D02*
X13510000Y-9430000D01*
X13510000Y-9410000D02*
X13490000Y-9430000D01*
X13500000Y-10220000D02*
X13520000Y-10240000D01*
X13520000Y-10220000D02*
X13500000Y-10240000D01*
X13500000Y-10320000D02*
X13520000Y-10340000D01*
X13520000Y-10320000D02*
X13500000Y-10340000D01*
X13500000Y-10420000D02*
X13520000Y-10440000D01*
X13520000Y-10420000D02*
X13500000Y-10440000D01*
X13500000Y-10520000D02*
X13520000Y-10540000D01*
X13520000Y-10520000D02*
X13500000Y-10540000D01*
X13562000Y-8265560D02*
X13582000Y-8285560D01*
X13582000Y-8265560D02*
X13562000Y-8285560D01*
X13658000Y-8266761D02*
X13678000Y-8286761D01*
X13678000Y-8266761D02*
X13658000Y-8286761D01*
X13730000Y-8610000D02*
X13750000Y-8630000D01*
X13750000Y-8610000D02*
X13730000Y-8630000D01*
X13730000Y-8810000D02*
X13750000Y-8830000D01*
X13750000Y-8810000D02*
X13730000Y-8830000D01*
X13730000Y-9010000D02*
X13750000Y-9030000D01*
X13750000Y-9010000D02*
X13730000Y-9030000D01*
X13740000Y-9740000D02*
X13760000Y-9760000D01*
X13760000Y-9740000D02*
X13740000Y-9760000D01*
X13740000Y-9840000D02*
X13760000Y-9860000D01*
X13760000Y-9840000D02*
X13740000Y-9860000D01*
X13780100Y-6529800D02*
X13800100Y-6549800D01*
X13800100Y-6529800D02*
X13780100Y-6549800D01*
X13840000Y-9740000D02*
X13860000Y-9760000D01*
X13860000Y-9740000D02*
X13840000Y-9760000D01*
X13910000Y-10640000D02*
X13930000Y-10660000D01*
X13930000Y-10640000D02*
X13910000Y-10660000D01*
X13930000Y-8610000D02*
X13950000Y-8630000D01*
X13950000Y-8610000D02*
X13930000Y-8630000D01*
X13930000Y-8810000D02*
X13950000Y-8830000D01*
X13950000Y-8810000D02*
X13930000Y-8830000D01*
X13930000Y-9010000D02*
X13950000Y-9030000D01*
X13950000Y-9010000D02*
X13930000Y-9030000D01*
X13930000Y-9260000D02*
X13950000Y-9280000D01*
X13950000Y-9260000D02*
X13930000Y-9280000D01*
X13930000Y-9350000D02*
X13950000Y-9370000D01*
X13950000Y-9350000D02*
X13930000Y-9370000D01*
X13930000Y-9440000D02*
X13950000Y-9460000D01*
X13950000Y-9440000D02*
X13930000Y-9460000D01*
X13930000Y-9890000D02*
X13950000Y-9910000D01*
X13950000Y-9890000D02*
X13930000Y-9910000D01*
X13990000Y-10110000D02*
X14010000Y-10130000D01*
X14010000Y-10110000D02*
X13990000Y-10130000D01*
X14050000Y-9890000D02*
X14070000Y-9910000D01*
X14070000Y-9890000D02*
X14050000Y-9910000D01*
X14070000Y-10040000D02*
X14090000Y-10060000D01*
X14090000Y-10040000D02*
X14070000Y-10060000D01*
X14076100Y-8248200D02*
X14096100Y-8268200D01*
X14096100Y-8248200D02*
X14076100Y-8268200D01*
X14130000Y-8610000D02*
X14150000Y-8630000D01*
X14150000Y-8610000D02*
X14130000Y-8630000D01*
X14130000Y-8810000D02*
X14150000Y-8830000D01*
X14150000Y-8810000D02*
X14130000Y-8830000D01*
X14130000Y-9010000D02*
X14150000Y-9030000D01*
X14150000Y-9010000D02*
X14130000Y-9030000D01*
X14140000Y-10040000D02*
X14160000Y-10060000D01*
X14160000Y-10040000D02*
X14140000Y-10060000D01*
X14170000Y-10220000D02*
X14190000Y-10240000D01*
X14190000Y-10220000D02*
X14170000Y-10240000D01*
X14178885Y-9887220D02*
X14198885Y-9907220D01*
X14198885Y-9887220D02*
X14178885Y-9907220D01*
X14210000Y-10040000D02*
X14230000Y-10060000D01*
X14230000Y-10040000D02*
X14210000Y-10060000D01*
X14275000Y-9155000D02*
X14295000Y-9175000D01*
X14295000Y-9155000D02*
X14275000Y-9175000D01*
X14280000Y-9970000D02*
X14300000Y-9990000D01*
X14300000Y-9970000D02*
X14280000Y-9990000D01*
X14280000Y-10040000D02*
X14300000Y-10060000D01*
X14300000Y-10040000D02*
X14280000Y-10060000D01*
X14280000Y-10110000D02*
X14300000Y-10130000D01*
X14300000Y-10110000D02*
X14280000Y-10130000D01*
X14285100Y-6534800D02*
X14305100Y-6554800D01*
X14305100Y-6534800D02*
X14285100Y-6554800D01*
X14315816Y-9742000D02*
X14335816Y-9762000D01*
X14335816Y-9742000D02*
X14315816Y-9762000D01*
X14337200Y-8310000D02*
X14357200Y-8330000D01*
X14357200Y-8310000D02*
X14337200Y-8330000D01*
X14410000Y-10610000D02*
X14430000Y-10630000D01*
X14430000Y-10610000D02*
X14410000Y-10630000D01*
X14410000Y-10710000D02*
X14430000Y-10730000D01*
X14430000Y-10710000D02*
X14410000Y-10730000D01*
X14410000Y-10810000D02*
X14430000Y-10830000D01*
X14430000Y-10810000D02*
X14410000Y-10830000D01*
X14430000Y-8380000D02*
X14450000Y-8400000D01*
X14450000Y-8380000D02*
X14430000Y-8400000D01*
X14510000Y-10610000D02*
X14530000Y-10630000D01*
X14530000Y-10610000D02*
X14510000Y-10630000D01*
X14510000Y-10710000D02*
X14530000Y-10730000D01*
X14530000Y-10710000D02*
X14510000Y-10730000D01*
X14510000Y-10810000D02*
X14530000Y-10830000D01*
X14530000Y-10810000D02*
X14510000Y-10830000D01*
X14520000Y-9730000D02*
X14540000Y-9750000D01*
X14540000Y-9730000D02*
X14520000Y-9750000D01*
X14520000Y-9810000D02*
X14540000Y-9830000D01*
X14540000Y-9810000D02*
X14520000Y-9830000D01*
X14525757Y-8380292D02*
X14545757Y-8400292D01*
X14545757Y-8380292D02*
X14525757Y-8400292D01*
X14540000Y-9420000D02*
X14560000Y-9440000D01*
X14560000Y-9420000D02*
X14540000Y-9440000D01*
X14570000Y-8240000D02*
X14590000Y-8260000D01*
X14590000Y-8240000D02*
X14570000Y-8260000D01*
X14602318Y-8453750D02*
X14622318Y-8473750D01*
X14622318Y-8453750D02*
X14602318Y-8473750D01*
X14604247Y-8556044D02*
X14624247Y-8576044D01*
X14624247Y-8556044D02*
X14604247Y-8576044D01*
X14604329Y-8851750D02*
X14624329Y-8871750D01*
X14624329Y-8851750D02*
X14604329Y-8871750D01*
X14604551Y-8651901D02*
X14624551Y-8671901D01*
X14624551Y-8651901D02*
X14604551Y-8671901D01*
X14610000Y-9810000D02*
X14630000Y-9830000D01*
X14630000Y-9810000D02*
X14610000Y-9830000D01*
X14610000Y-9900000D02*
X14630000Y-9920000D01*
X14630000Y-9900000D02*
X14610000Y-9920000D01*
X14610000Y-9990000D02*
X14630000Y-10010000D01*
X14630000Y-9990000D02*
X14610000Y-10010000D01*
X14610000Y-10080000D02*
X14630000Y-10100000D01*
X14630000Y-10080000D02*
X14610000Y-10100000D01*
X14610000Y-10170000D02*
X14630000Y-10190000D01*
X14630000Y-10170000D02*
X14610000Y-10190000D01*
X14610000Y-10610000D02*
X14630000Y-10630000D01*
X14630000Y-10610000D02*
X14610000Y-10630000D01*
X14610000Y-10710000D02*
X14630000Y-10730000D01*
X14630000Y-10710000D02*
X14610000Y-10730000D01*
X14640000Y-8170000D02*
X14660000Y-8190000D01*
X14660000Y-8170000D02*
X14640000Y-8190000D01*
X14660000Y-6940000D02*
X14680000Y-6960000D01*
X14680000Y-6940000D02*
X14660000Y-6960000D01*
X14660000Y-7040000D02*
X14680000Y-7060000D01*
X14680000Y-7040000D02*
X14660000Y-7060000D01*
X14660000Y-7140000D02*
X14680000Y-7160000D01*
X14680000Y-7140000D02*
X14660000Y-7160000D01*
X14722000Y-9515000D02*
X14742000Y-9535000D01*
X14742000Y-9515000D02*
X14722000Y-9535000D01*
X14760000Y-6940000D02*
X14780000Y-6960000D01*
X14780000Y-6940000D02*
X14760000Y-6960000D01*
X14760000Y-7040000D02*
X14780000Y-7060000D01*
X14780000Y-7040000D02*
X14760000Y-7060000D01*
X14760000Y-7140000D02*
X14780000Y-7160000D01*
X14780000Y-7140000D02*
X14760000Y-7160000D01*
X14795000Y-9150000D02*
X14815000Y-9170000D01*
X14815000Y-9150000D02*
X14795000Y-9170000D01*
X14795100Y-6534800D02*
X14815100Y-6554800D01*
X14815100Y-6534800D02*
X14795100Y-6554800D01*
X14850000Y-10960000D02*
X14870000Y-10980000D01*
X14870000Y-10960000D02*
X14850000Y-10980000D01*
X14850000Y-11060000D02*
X14870000Y-11080000D01*
X14870000Y-11060000D02*
X14850000Y-11080000D01*
X14860000Y-6940000D02*
X14880000Y-6960000D01*
X14880000Y-6940000D02*
X14860000Y-6960000D01*
X14860000Y-7040000D02*
X14880000Y-7060000D01*
X14880000Y-7040000D02*
X14860000Y-7060000D01*
X14860000Y-7140000D02*
X14880000Y-7160000D01*
X14880000Y-7140000D02*
X14860000Y-7160000D01*
X14950000Y-8570000D02*
X14970000Y-8590000D01*
X14970000Y-8570000D02*
X14950000Y-8590000D01*
X14950000Y-8660000D02*
X14970000Y-8680000D01*
X14970000Y-8660000D02*
X14950000Y-8680000D01*
X14950000Y-10960000D02*
X14970000Y-10980000D01*
X14970000Y-10960000D02*
X14950000Y-10980000D01*
X14950000Y-11060000D02*
X14970000Y-11080000D01*
X14970000Y-11060000D02*
X14950000Y-11080000D01*
X14959671Y-8995934D02*
X14979671Y-9015934D01*
X14979671Y-8995934D02*
X14959671Y-9015934D01*
X14960000Y-7040000D02*
X14980000Y-7060000D01*
X14980000Y-7040000D02*
X14960000Y-7060000D01*
X14960000Y-7140000D02*
X14980000Y-7160000D01*
X14980000Y-7140000D02*
X14960000Y-7160000D01*
X14961205Y-8869000D02*
X14981205Y-8889000D01*
X14981205Y-8869000D02*
X14961205Y-8889000D01*
X14990000Y-10390000D02*
X15010000Y-10410000D01*
X15010000Y-10390000D02*
X14990000Y-10410000D01*
X14990000Y-10490000D02*
X15010000Y-10510000D01*
X15010000Y-10490000D02*
X14990000Y-10510000D01*
X15000000Y-8360000D02*
X15020000Y-8380000D01*
X15020000Y-8360000D02*
X15000000Y-8380000D01*
X15000000Y-8450000D02*
X15020000Y-8470000D01*
X15020000Y-8450000D02*
X15000000Y-8470000D01*
X15050000Y-10960000D02*
X15070000Y-10980000D01*
X15070000Y-10960000D02*
X15050000Y-10980000D01*
X15050000Y-11060000D02*
X15070000Y-11080000D01*
X15070000Y-11060000D02*
X15050000Y-11080000D01*
X15090000Y-10490000D02*
X15110000Y-10510000D01*
X15110000Y-10490000D02*
X15090000Y-10510000D01*
X15090000Y-10590000D02*
X15110000Y-10610000D01*
X15110000Y-10590000D02*
X15090000Y-10610000D01*
X15150000Y-10960000D02*
X15170000Y-10980000D01*
X15170000Y-10960000D02*
X15150000Y-10980000D01*
X15150000Y-11060000D02*
X15170000Y-11080000D01*
X15170000Y-11060000D02*
X15150000Y-11080000D01*
X15190000Y-8869000D02*
X15210000Y-8889000D01*
X15210000Y-8869000D02*
X15190000Y-8889000D01*
X15190000Y-10590000D02*
X15210000Y-10610000D01*
X15210000Y-10590000D02*
X15190000Y-10610000D01*
X15194582Y-10012000D02*
X15214582Y-10032000D01*
X15214582Y-10012000D02*
X15194582Y-10032000D01*
X15202500Y-8447989D02*
X15222500Y-8467989D01*
X15222500Y-8447989D02*
X15202500Y-8467989D01*
X15202500Y-10432706D02*
X15222500Y-10452706D01*
X15222500Y-10432706D02*
X15202500Y-10452706D01*
X15206000Y-9939950D02*
X15226000Y-9959950D01*
X15226000Y-9939950D02*
X15206000Y-9959950D01*
X15250000Y-10960000D02*
X15270000Y-10980000D01*
X15270000Y-10960000D02*
X15250000Y-10980000D01*
X15250000Y-11060000D02*
X15270000Y-11080000D01*
X15270000Y-11060000D02*
X15250000Y-11080000D01*
X15265000Y-10485000D02*
X15285000Y-10505000D01*
X15285000Y-10485000D02*
X15265000Y-10505000D01*
X15290000Y-10590000D02*
X15310000Y-10610000D01*
X15310000Y-10590000D02*
X15290000Y-10610000D01*
X15329500Y-8447022D02*
X15349500Y-8467022D01*
X15349500Y-8447022D02*
X15329500Y-8467022D01*
X15329500Y-10433095D02*
X15349500Y-10453095D01*
X15349500Y-10433095D02*
X15329500Y-10453095D01*
X15350000Y-10960000D02*
X15370000Y-10980000D01*
X15370000Y-10960000D02*
X15350000Y-10980000D01*
X15350000Y-11060000D02*
X15370000Y-11080000D01*
X15370000Y-11060000D02*
X15350000Y-11080000D01*
X15390000Y-10590000D02*
X15410000Y-10610000D01*
X15410000Y-10590000D02*
X15390000Y-10610000D01*
X15395000Y-10485000D02*
X15415000Y-10505000D01*
X15415000Y-10485000D02*
X15395000Y-10505000D01*
X15445000Y-10965000D02*
X15465000Y-10985000D01*
X15465000Y-10965000D02*
X15445000Y-10985000D01*
X15450000Y-11060000D02*
X15470000Y-11080000D01*
X15470000Y-11060000D02*
X15450000Y-11080000D01*
X15456500Y-10432631D02*
X15476500Y-10452631D01*
X15476500Y-10432631D02*
X15456500Y-10452631D01*
X15459700Y-6535400D02*
X15479700Y-6555400D01*
X15479700Y-6535400D02*
X15459700Y-6555400D01*
X15490000Y-10590000D02*
X15510000Y-10610000D01*
X15510000Y-10590000D02*
X15490000Y-10610000D01*
X15520000Y-10485000D02*
X15540000Y-10505000D01*
X15540000Y-10485000D02*
X15520000Y-10505000D01*
X15545000Y-11065000D02*
X15565000Y-11085000D01*
X15565000Y-11065000D02*
X15545000Y-11085000D01*
X15550000Y-10960000D02*
X15570000Y-10980000D01*
X15570000Y-10960000D02*
X15550000Y-10980000D01*
X15583500Y-10432778D02*
X15603500Y-10452778D01*
X15603500Y-10432778D02*
X15583500Y-10452778D01*
X15590000Y-10590000D02*
X15610000Y-10610000D01*
X15610000Y-10590000D02*
X15590000Y-10610000D01*
X15650000Y-10485000D02*
X15670000Y-10505000D01*
X15670000Y-10485000D02*
X15650000Y-10505000D01*
X15650000Y-10960000D02*
X15670000Y-10980000D01*
X15670000Y-10960000D02*
X15650000Y-10980000D01*
X15650000Y-11060000D02*
X15670000Y-11080000D01*
X15670000Y-11060000D02*
X15650000Y-11080000D01*
X15690000Y-10590000D02*
X15710000Y-10610000D01*
X15710000Y-10590000D02*
X15690000Y-10610000D01*
X15710500Y-10432313D02*
X15730500Y-10452313D01*
X15730500Y-10432313D02*
X15710500Y-10452313D01*
X15750000Y-10960000D02*
X15770000Y-10980000D01*
X15770000Y-10960000D02*
X15750000Y-10980000D01*
X15750000Y-11060000D02*
X15770000Y-11080000D01*
X15770000Y-11060000D02*
X15750000Y-11080000D01*
X15760000Y-9033784D02*
X15780000Y-9053784D01*
X15780000Y-9033784D02*
X15760000Y-9053784D01*
X15760000Y-9118312D02*
X15780000Y-9138312D01*
X15780000Y-9118312D02*
X15760000Y-9138312D01*
X15775000Y-10485000D02*
X15795000Y-10505000D01*
X15795000Y-10485000D02*
X15775000Y-10505000D01*
X15790000Y-10590000D02*
X15810000Y-10610000D01*
X15810000Y-10590000D02*
X15790000Y-10610000D01*
X15837500Y-10432166D02*
X15857500Y-10452166D01*
X15857500Y-10432166D02*
X15837500Y-10452166D01*
X15890000Y-10590000D02*
X15910000Y-10610000D01*
X15910000Y-10590000D02*
X15890000Y-10610000D01*
X15900000Y-10485000D02*
X15920000Y-10505000D01*
X15920000Y-10485000D02*
X15900000Y-10505000D01*
X15964500Y-10432608D02*
X15984500Y-10452608D01*
X15984500Y-10432608D02*
X15964500Y-10452608D01*
X15965100Y-6534800D02*
X15985100Y-6554800D01*
X15985100Y-6534800D02*
X15965100Y-6554800D01*
X15980000Y-10540000D02*
X16000000Y-10560000D01*
X16000000Y-10540000D02*
X15980000Y-10560000D01*
X16038500Y-10850000D02*
X16058500Y-10870000D01*
X16058500Y-10850000D02*
X16038500Y-10870000D01*
X16050000Y-10460000D02*
X16070000Y-10480000D01*
X16070000Y-10460000D02*
X16050000Y-10480000D01*
X16130000Y-10460000D02*
X16150000Y-10480000D01*
X16150000Y-10460000D02*
X16130000Y-10480000D01*
X16290000Y-10040000D02*
X16310000Y-10060000D01*
X16310000Y-10040000D02*
X16290000Y-10060000D01*
X16290000Y-10550000D02*
X16310000Y-10570000D01*
X16310000Y-10550000D02*
X16290000Y-10570000D01*
X16320000Y-8700000D02*
X16340000Y-8720000D01*
X16340000Y-8700000D02*
X16320000Y-8720000D01*
X16345500Y-8448284D02*
X16365500Y-8468284D01*
X16365500Y-8448284D02*
X16345500Y-8468284D01*
X16345500Y-10433230D02*
X16365500Y-10453230D01*
X16365500Y-10433230D02*
X16345500Y-10453230D01*
X16365000Y-10515000D02*
X16385000Y-10535000D01*
X16385000Y-10515000D02*
X16365000Y-10535000D01*
X16410000Y-8700000D02*
X16430000Y-8720000D01*
X16430000Y-8700000D02*
X16410000Y-8720000D01*
X16449179Y-8447446D02*
X16469179Y-8467446D01*
X16469179Y-8447446D02*
X16449179Y-8467446D01*
X16470100Y-6534800D02*
X16490100Y-6554800D01*
X16490100Y-6534800D02*
X16470100Y-6554800D01*
X16472500Y-10121220D02*
X16492500Y-10141220D01*
X16492500Y-10121220D02*
X16472500Y-10141220D01*
X16490000Y-8765000D02*
X16510000Y-8785000D01*
X16510000Y-8765000D02*
X16490000Y-8785000D01*
X16536200Y-10549600D02*
X16556200Y-10569600D01*
X16556200Y-10549600D02*
X16536200Y-10569600D01*
X16551900Y-10156900D02*
X16571900Y-10176900D01*
X16571900Y-10156900D02*
X16551900Y-10176900D01*
X16565000Y-8840000D02*
X16585000Y-8860000D01*
X16585000Y-8840000D02*
X16565000Y-8860000D01*
X16599500Y-10610000D02*
X16619500Y-10630000D01*
X16619500Y-10610000D02*
X16599500Y-10630000D01*
X16599558Y-8447587D02*
X16619558Y-8467587D01*
X16619558Y-8447587D02*
X16599558Y-8467587D01*
X16640000Y-8915000D02*
X16660000Y-8935000D01*
X16660000Y-8915000D02*
X16640000Y-8935000D01*
X16853500Y-8446920D02*
X16873500Y-8466920D01*
X16873500Y-8446920D02*
X16853500Y-8466920D01*
X16853500Y-8682650D02*
X16873500Y-8702650D01*
X16873500Y-8682650D02*
X16853500Y-8702650D01*
X16853500Y-10196627D02*
X16873500Y-10216627D01*
X16873500Y-10196627D02*
X16853500Y-10216627D01*
X16853500Y-10432859D02*
X16873500Y-10452859D01*
X16873500Y-10432859D02*
X16853500Y-10452859D01*
X16980100Y-6534800D02*
X17000100Y-6554800D01*
X17000100Y-6534800D02*
X16980100Y-6554800D01*
X15987000Y-9305750D02*
G75*
G03*
X15987000Y-9305750I-10000J0D01*
G01*
X15987000Y-9458250D02*
G75*
G03*
X15987000Y-9458250I-10000J0D01*
G01*
X16063250Y-9229500D02*
G75*
G03*
X16063250Y-9229500I-10000J0D01*
G01*
X16063250Y-9382000D02*
G75*
G03*
X16063250Y-9382000I-10000J0D01*
G01*
X16063250Y-9534500D02*
G75*
G03*
X16063250Y-9534500I-10000J0D01*
G01*
X16139500Y-9305750D02*
G75*
G03*
X16139500Y-9305750I-10000J0D01*
G01*
X16139500Y-9458250D02*
G75*
G03*
X16139500Y-9458250I-10000J0D01*
G01*
X16215750Y-9229500D02*
G75*
G03*
X16215750Y-9229500I-10000J0D01*
G01*
X16215750Y-9382000D02*
G75*
G03*
X16215750Y-9382000I-10000J0D01*
G01*
X16215750Y-9534500D02*
G75*
G03*
X16215750Y-9534500I-10000J0D01*
G01*
X16292000Y-9305750D02*
G75*
G03*
X16292000Y-9305750I-10000J0D01*
G01*
X16292000Y-9458250D02*
G75*
G03*
X16292000Y-9458250I-10000J0D01*
G01*
D12*
X10980000Y-7307500D02*
X10980000Y-7367500D01*
X10950000Y-7337500D02*
X11010000Y-7337500D01*
D10*
X11020000Y-7307500D02*
X10940000Y-7307500D01*
X10940000Y-7307500D02*
G75*
G03*
X10940000Y-7367500I0J-30000D01*
G01*
X10940000Y-7367500D02*
X11020000Y-7367500D01*
X11020000Y-7367500D02*
G75*
G03*
X11020000Y-7307500I0J30000D01*
G01*
D12*
X10980000Y-8172500D02*
X10980000Y-8232500D01*
X10950000Y-8202500D02*
X11010000Y-8202500D01*
D10*
X11020000Y-8172500D02*
X10940000Y-8172500D01*
X10940000Y-8172500D02*
G75*
G03*
X10940000Y-8232500I0J-30000D01*
G01*
X10940000Y-8232500D02*
X11020000Y-8232500D01*
X11020000Y-8232500D02*
G75*
G03*
X11020000Y-8172500I0J30000D01*
G01*
D12*
X11397000Y-7307500D02*
X11397000Y-7367500D01*
X11367000Y-7337500D02*
X11427000Y-7337500D01*
D10*
X11452000Y-7307500D02*
X11342000Y-7307500D01*
X11342000Y-7307500D02*
G75*
G03*
X11342000Y-7367500I0J-30000D01*
G01*
X11342000Y-7367500D02*
X11452000Y-7367500D01*
X11452000Y-7367500D02*
G75*
G03*
X11452000Y-7307500I0J30000D01*
G01*
D12*
X11397000Y-8172500D02*
X11397000Y-8232500D01*
X11367000Y-8202500D02*
X11427000Y-8202500D01*
D10*
X11452000Y-8172500D02*
X11342000Y-8172500D01*
X11342000Y-8172500D02*
G75*
G03*
X11342000Y-8232500I0J-30000D01*
G01*
X11342000Y-8232500D02*
X11452000Y-8232500D01*
X11452000Y-8232500D02*
G75*
G03*
X11452000Y-8172500I0J30000D01*
G01*
D13*
X11718796Y-9198285D02*
X11718796Y-9141716D01*
X11662227Y-9141716D01*
X11662227Y-9198285D01*
X11718796Y-9198285D01*
X11968796Y-9198285D02*
X11968796Y-9141716D01*
X11912227Y-9141716D01*
X11912227Y-9198285D01*
X11968796Y-9198285D01*
D14*
X12200000Y-8455000D02*
X12245000Y-8410000D01*
X12200000Y-8365000D01*
X12155000Y-8410000D01*
X12200000Y-8455000D01*
X12454000Y-8455000D02*
X12499000Y-8410000D01*
X12454000Y-8365000D01*
X12409000Y-8410000D01*
X12454000Y-8455000D01*
D15*
X12596000Y-6450100D02*
X12696000Y-6550100D01*
X12696000Y-6450100D02*
X12596000Y-6550100D01*
X12696000Y-6500100D02*
G75*
G03*
X12696000Y-6500100I-50000J0D01*
G01*
X12850000Y-6450100D02*
X12950000Y-6550100D01*
X12950000Y-6450100D02*
X12850000Y-6550100D01*
X12950000Y-6500100D02*
G75*
G03*
X12950000Y-6500100I-50000J0D01*
G01*
X13104000Y-6450100D02*
X13204000Y-6550100D01*
X13204000Y-6450100D02*
X13104000Y-6550100D01*
X13204000Y-6500100D02*
G75*
G03*
X13204000Y-6500100I-50000J0D01*
G01*
X13358000Y-6450100D02*
X13458000Y-6550100D01*
X13458000Y-6450100D02*
X13358000Y-6550100D01*
X13458000Y-6500100D02*
G75*
G03*
X13458000Y-6500100I-50000J0D01*
G01*
X13509700Y-11276400D02*
X13609700Y-11376400D01*
X13609700Y-11276400D02*
X13509700Y-11376400D01*
X13609700Y-11326400D02*
G75*
G03*
X13609700Y-11326400I-50000J0D01*
G01*
X13612000Y-6450100D02*
X13712000Y-6550100D01*
X13712000Y-6450100D02*
X13612000Y-6550100D01*
X13712000Y-6500100D02*
G75*
G03*
X13712000Y-6500100I-50000J0D01*
G01*
X13716000Y-7271000D02*
X13816000Y-7371000D01*
X13816000Y-7271000D02*
X13716000Y-7371000D01*
X13816000Y-7321000D02*
G75*
G03*
X13816000Y-7321000I-50000J0D01*
G01*
X13716000Y-7525000D02*
X13816000Y-7625000D01*
X13816000Y-7525000D02*
X13716000Y-7625000D01*
X13816000Y-7575000D02*
G75*
G03*
X13816000Y-7575000I-50000J0D01*
G01*
X13716000Y-7779000D02*
X13816000Y-7879000D01*
X13816000Y-7779000D02*
X13716000Y-7879000D01*
X13816000Y-7829000D02*
G75*
G03*
X13816000Y-7829000I-50000J0D01*
G01*
X13763700Y-11276400D02*
X13863700Y-11376400D01*
X13863700Y-11276400D02*
X13763700Y-11376400D01*
X13863700Y-11326400D02*
G75*
G03*
X13863700Y-11326400I-50000J0D01*
G01*
X13866000Y-6450100D02*
X13966000Y-6550100D01*
X13966000Y-6450100D02*
X13866000Y-6550100D01*
X13966000Y-6500100D02*
G75*
G03*
X13966000Y-6500100I-50000J0D01*
G01*
X14017700Y-11276400D02*
X14117700Y-11376400D01*
X14117700Y-11276400D02*
X14017700Y-11376400D01*
X14117700Y-11326400D02*
G75*
G03*
X14117700Y-11326400I-50000J0D01*
G01*
X14097000Y-7271000D02*
X14197000Y-7371000D01*
X14197000Y-7271000D02*
X14097000Y-7371000D01*
X14197000Y-7321000D02*
G75*
G03*
X14197000Y-7321000I-50000J0D01*
G01*
X14097000Y-7525000D02*
X14197000Y-7625000D01*
X14197000Y-7525000D02*
X14097000Y-7625000D01*
X14197000Y-7575000D02*
G75*
G03*
X14197000Y-7575000I-50000J0D01*
G01*
X14097000Y-7779000D02*
X14197000Y-7879000D01*
X14197000Y-7779000D02*
X14097000Y-7879000D01*
X14197000Y-7829000D02*
G75*
G03*
X14197000Y-7829000I-50000J0D01*
G01*
X14120000Y-6450100D02*
X14220000Y-6550100D01*
X14220000Y-6450100D02*
X14120000Y-6550100D01*
X14220000Y-6500100D02*
G75*
G03*
X14220000Y-6500100I-50000J0D01*
G01*
X14271700Y-11276400D02*
X14371700Y-11376400D01*
X14371700Y-11276400D02*
X14271700Y-11376400D01*
X14371700Y-11326400D02*
G75*
G03*
X14371700Y-11326400I-50000J0D01*
G01*
X14351000Y-7271000D02*
X14451000Y-7371000D01*
X14451000Y-7271000D02*
X14351000Y-7371000D01*
X14451000Y-7321000D02*
G75*
G03*
X14451000Y-7321000I-50000J0D01*
G01*
X14351000Y-7525000D02*
X14451000Y-7625000D01*
X14451000Y-7525000D02*
X14351000Y-7625000D01*
X14451000Y-7575000D02*
G75*
G03*
X14451000Y-7575000I-50000J0D01*
G01*
X14351000Y-7779000D02*
X14451000Y-7879000D01*
X14451000Y-7779000D02*
X14351000Y-7879000D01*
X14451000Y-7829000D02*
G75*
G03*
X14451000Y-7829000I-50000J0D01*
G01*
X14374000Y-6450100D02*
X14474000Y-6550100D01*
X14474000Y-6450100D02*
X14374000Y-6550100D01*
X14474000Y-6500100D02*
G75*
G03*
X14474000Y-6500100I-50000J0D01*
G01*
X14525700Y-11276400D02*
X14625700Y-11376400D01*
X14625700Y-11276400D02*
X14525700Y-11376400D01*
X14625700Y-11326400D02*
G75*
G03*
X14625700Y-11326400I-50000J0D01*
G01*
X14605000Y-7271000D02*
X14705000Y-7371000D01*
X14705000Y-7271000D02*
X14605000Y-7371000D01*
X14705000Y-7321000D02*
G75*
G03*
X14705000Y-7321000I-50000J0D01*
G01*
X14605000Y-7525000D02*
X14705000Y-7625000D01*
X14705000Y-7525000D02*
X14605000Y-7625000D01*
X14705000Y-7575000D02*
G75*
G03*
X14705000Y-7575000I-50000J0D01*
G01*
X14605000Y-7779000D02*
X14705000Y-7879000D01*
X14705000Y-7779000D02*
X14605000Y-7879000D01*
X14705000Y-7829000D02*
G75*
G03*
X14705000Y-7829000I-50000J0D01*
G01*
X14628000Y-6450100D02*
X14728000Y-6550100D01*
X14728000Y-6450100D02*
X14628000Y-6550100D01*
X14728000Y-6500100D02*
G75*
G03*
X14728000Y-6500100I-50000J0D01*
G01*
X14779700Y-11276400D02*
X14879700Y-11376400D01*
X14879700Y-11276400D02*
X14779700Y-11376400D01*
X14879700Y-11326400D02*
G75*
G03*
X14879700Y-11326400I-50000J0D01*
G01*
X14859000Y-7271000D02*
X14959000Y-7371000D01*
X14959000Y-7271000D02*
X14859000Y-7371000D01*
X14959000Y-7321000D02*
G75*
G03*
X14959000Y-7321000I-50000J0D01*
G01*
X14859000Y-7525000D02*
X14959000Y-7625000D01*
X14959000Y-7525000D02*
X14859000Y-7625000D01*
X14959000Y-7575000D02*
G75*
G03*
X14959000Y-7575000I-50000J0D01*
G01*
X14859000Y-7779000D02*
X14959000Y-7879000D01*
X14959000Y-7779000D02*
X14859000Y-7879000D01*
X14959000Y-7829000D02*
G75*
G03*
X14959000Y-7829000I-50000J0D01*
G01*
X14882000Y-6450100D02*
X14982000Y-6550100D01*
X14982000Y-6450100D02*
X14882000Y-6550100D01*
X14982000Y-6500100D02*
G75*
G03*
X14982000Y-6500100I-50000J0D01*
G01*
X15033700Y-11276400D02*
X15133700Y-11376400D01*
X15133700Y-11276400D02*
X15033700Y-11376400D01*
X15133700Y-11326400D02*
G75*
G03*
X15133700Y-11326400I-50000J0D01*
G01*
X15287700Y-11276400D02*
X15387700Y-11376400D01*
X15387700Y-11276400D02*
X15287700Y-11376400D01*
X15387700Y-11326400D02*
G75*
G03*
X15387700Y-11326400I-50000J0D01*
G01*
X15288200Y-6450300D02*
X15388200Y-6550300D01*
X15388200Y-6450300D02*
X15288200Y-6550300D01*
X15388200Y-6500300D02*
G75*
G03*
X15388200Y-6500300I-50000J0D01*
G01*
X15470000Y-7271000D02*
X15570000Y-7371000D01*
X15570000Y-7271000D02*
X15470000Y-7371000D01*
X15570000Y-7321000D02*
G75*
G03*
X15570000Y-7321000I-50000J0D01*
G01*
X15470000Y-7525000D02*
X15570000Y-7625000D01*
X15570000Y-7525000D02*
X15470000Y-7625000D01*
X15570000Y-7575000D02*
G75*
G03*
X15570000Y-7575000I-50000J0D01*
G01*
X15470000Y-7779000D02*
X15570000Y-7879000D01*
X15570000Y-7779000D02*
X15470000Y-7879000D01*
X15570000Y-7829000D02*
G75*
G03*
X15570000Y-7829000I-50000J0D01*
G01*
X15542200Y-6450300D02*
X15642200Y-6550300D01*
X15642200Y-6450300D02*
X15542200Y-6550300D01*
X15642200Y-6500300D02*
G75*
G03*
X15642200Y-6500300I-50000J0D01*
G01*
X15795500Y-11276000D02*
X15895500Y-11376000D01*
X15895500Y-11276000D02*
X15795500Y-11376000D01*
X15895500Y-11326000D02*
G75*
G03*
X15895500Y-11326000I-50000J0D01*
G01*
X15796200Y-6450300D02*
X15896200Y-6550300D01*
X15896200Y-6450300D02*
X15796200Y-6550300D01*
X15896200Y-6500300D02*
G75*
G03*
X15896200Y-6500300I-50000J0D01*
G01*
X15851000Y-7271000D02*
X15951000Y-7371000D01*
X15951000Y-7271000D02*
X15851000Y-7371000D01*
X15951000Y-7321000D02*
G75*
G03*
X15951000Y-7321000I-50000J0D01*
G01*
X15851000Y-7525000D02*
X15951000Y-7625000D01*
X15951000Y-7525000D02*
X15851000Y-7625000D01*
X15951000Y-7575000D02*
G75*
G03*
X15951000Y-7575000I-50000J0D01*
G01*
X15851000Y-7779000D02*
X15951000Y-7879000D01*
X15951000Y-7779000D02*
X15851000Y-7879000D01*
X15951000Y-7829000D02*
G75*
G03*
X15951000Y-7829000I-50000J0D01*
G01*
X16049500Y-11276000D02*
X16149500Y-11376000D01*
X16149500Y-11276000D02*
X16049500Y-11376000D01*
X16149500Y-11326000D02*
G75*
G03*
X16149500Y-11326000I-50000J0D01*
G01*
X16050200Y-6450300D02*
X16150200Y-6550300D01*
X16150200Y-6450300D02*
X16050200Y-6550300D01*
X16150200Y-6500300D02*
G75*
G03*
X16150200Y-6500300I-50000J0D01*
G01*
X16105000Y-7271000D02*
X16205000Y-7371000D01*
X16205000Y-7271000D02*
X16105000Y-7371000D01*
X16205000Y-7321000D02*
G75*
G03*
X16205000Y-7321000I-50000J0D01*
G01*
X16105000Y-7525000D02*
X16205000Y-7625000D01*
X16205000Y-7525000D02*
X16105000Y-7625000D01*
X16205000Y-7575000D02*
G75*
G03*
X16205000Y-7575000I-50000J0D01*
G01*
X16105000Y-7779000D02*
X16205000Y-7879000D01*
X16205000Y-7779000D02*
X16105000Y-7879000D01*
X16205000Y-7829000D02*
G75*
G03*
X16205000Y-7829000I-50000J0D01*
G01*
X16303500Y-11276000D02*
X16403500Y-11376000D01*
X16403500Y-11276000D02*
X16303500Y-11376000D01*
X16403500Y-11326000D02*
G75*
G03*
X16403500Y-11326000I-50000J0D01*
G01*
X16304200Y-6450300D02*
X16404200Y-6550300D01*
X16404200Y-6450300D02*
X16304200Y-6550300D01*
X16404200Y-6500300D02*
G75*
G03*
X16404200Y-6500300I-50000J0D01*
G01*
X16359000Y-7271000D02*
X16459000Y-7371000D01*
X16459000Y-7271000D02*
X16359000Y-7371000D01*
X16459000Y-7321000D02*
G75*
G03*
X16459000Y-7321000I-50000J0D01*
G01*
X16359000Y-7525000D02*
X16459000Y-7625000D01*
X16459000Y-7525000D02*
X16359000Y-7625000D01*
X16459000Y-7575000D02*
G75*
G03*
X16459000Y-7575000I-50000J0D01*
G01*
X16359000Y-7779000D02*
X16459000Y-7879000D01*
X16459000Y-7779000D02*
X16359000Y-7879000D01*
X16459000Y-7829000D02*
G75*
G03*
X16459000Y-7829000I-50000J0D01*
G01*
X16557500Y-11276000D02*
X16657500Y-11376000D01*
X16657500Y-11276000D02*
X16557500Y-11376000D01*
X16657500Y-11326000D02*
G75*
G03*
X16657500Y-11326000I-50000J0D01*
G01*
X16558200Y-6450300D02*
X16658200Y-6550300D01*
X16658200Y-6450300D02*
X16558200Y-6550300D01*
X16658200Y-6500300D02*
G75*
G03*
X16658200Y-6500300I-50000J0D01*
G01*
X16613000Y-7271000D02*
X16713000Y-7371000D01*
X16713000Y-7271000D02*
X16613000Y-7371000D01*
X16713000Y-7321000D02*
G75*
G03*
X16713000Y-7321000I-50000J0D01*
G01*
X16613000Y-7525000D02*
X16713000Y-7625000D01*
X16713000Y-7525000D02*
X16613000Y-7625000D01*
X16713000Y-7575000D02*
G75*
G03*
X16713000Y-7575000I-50000J0D01*
G01*
X16613000Y-7779000D02*
X16713000Y-7879000D01*
X16713000Y-7779000D02*
X16613000Y-7879000D01*
X16713000Y-7829000D02*
G75*
G03*
X16713000Y-7829000I-50000J0D01*
G01*
X16811500Y-11276000D02*
X16911500Y-11376000D01*
X16911500Y-11276000D02*
X16811500Y-11376000D01*
X16911500Y-11326000D02*
G75*
G03*
X16911500Y-11326000I-50000J0D01*
G01*
X16812200Y-6450300D02*
X16912200Y-6550300D01*
X16912200Y-6450300D02*
X16812200Y-6550300D01*
X16912200Y-6500300D02*
G75*
G03*
X16912200Y-6500300I-50000J0D01*
G01*
X17065500Y-11276000D02*
X17165500Y-11376000D01*
X17165500Y-11276000D02*
X17065500Y-11376000D01*
X17165500Y-11326000D02*
G75*
G03*
X17165500Y-11326000I-50000J0D01*
G01*
X17066200Y-6450300D02*
X17166200Y-6550300D01*
X17166200Y-6450300D02*
X17066200Y-6550300D01*
X17166200Y-6500300D02*
G75*
G03*
X17166200Y-6500300I-50000J0D01*
G01*
D16*
X11020000Y-6624000D02*
X11172000Y-6776000D01*
X11172000Y-6624000D02*
X11020000Y-6776000D01*
X11096000Y-6624000D02*
X11096000Y-6776000D01*
X11020000Y-6700000D02*
X11172000Y-6700000D01*
X11020000Y-11074000D02*
X11172000Y-11226000D01*
X11172000Y-11074000D02*
X11020000Y-11226000D01*
X11096000Y-11074000D02*
X11096000Y-11226000D01*
X11020000Y-11150000D02*
X11172000Y-11150000D01*
X11174000Y-9695000D02*
X11326000Y-9847000D01*
X11326000Y-9695000D02*
X11174000Y-9847000D01*
X11250000Y-9695000D02*
X11250000Y-9847000D01*
X11174000Y-9771000D02*
X11326000Y-9771000D01*
X11174000Y-10203000D02*
X11326000Y-10355000D01*
X11326000Y-10203000D02*
X11174000Y-10355000D01*
X11250000Y-10203000D02*
X11250000Y-10355000D01*
X11174000Y-10279000D02*
X11326000Y-10279000D01*
X11528000Y-6624000D02*
X11680000Y-6776000D01*
X11680000Y-6624000D02*
X11528000Y-6776000D01*
X11604000Y-6624000D02*
X11604000Y-6776000D01*
X11528000Y-6700000D02*
X11680000Y-6700000D01*
X11528000Y-11074000D02*
X11680000Y-11226000D01*
X11680000Y-11074000D02*
X11528000Y-11226000D01*
X11604000Y-11074000D02*
X11604000Y-11226000D01*
X11528000Y-11150000D02*
X11680000Y-11150000D01*
D10*
X247619Y-312524D02*
X247619Y-112524D01*
X247619Y-112524D02*
X295238Y-112524D01*
X295238Y-112524D02*
X323810Y-122048D01*
X323810Y-122048D02*
X342857Y-141095D01*
X342857Y-141095D02*
X352381Y-160143D01*
X352381Y-160143D02*
X361905Y-198238D01*
X361905Y-198238D02*
X361905Y-226809D01*
X361905Y-226809D02*
X352381Y-264905D01*
X352381Y-264905D02*
X342857Y-283952D01*
X342857Y-283952D02*
X323810Y-303000D01*
X323810Y-303000D02*
X295238Y-312524D01*
X295238Y-312524D02*
X247619Y-312524D01*
X447619Y-312524D02*
X447619Y-179190D01*
X447619Y-217286D02*
X457143Y-198238D01*
X457143Y-198238D02*
X466667Y-188714D01*
X466667Y-188714D02*
X485714Y-179190D01*
X485714Y-179190D02*
X504762Y-179190D01*
X571429Y-312524D02*
X571429Y-179190D01*
X571429Y-112524D02*
X561905Y-122048D01*
X561905Y-122048D02*
X571429Y-131571D01*
X571429Y-131571D02*
X580952Y-122048D01*
X580952Y-122048D02*
X571429Y-112524D01*
X571429Y-112524D02*
X571429Y-131571D01*
X695238Y-312524D02*
X676190Y-303000D01*
X676190Y-303000D02*
X666667Y-283952D01*
X666667Y-283952D02*
X666667Y-112524D01*
X800000Y-312524D02*
X780952Y-303000D01*
X780952Y-303000D02*
X771428Y-283952D01*
X771428Y-283952D02*
X771428Y-112524D01*
X1028571Y-312524D02*
X1028571Y-112524D01*
X1028571Y-112524D02*
X1095238Y-255381D01*
X1095238Y-255381D02*
X1161905Y-112524D01*
X1161905Y-112524D02*
X1161905Y-312524D01*
X1342857Y-312524D02*
X1342857Y-207762D01*
X1342857Y-207762D02*
X1333333Y-188714D01*
X1333333Y-188714D02*
X1314286Y-179190D01*
X1314286Y-179190D02*
X1276190Y-179190D01*
X1276190Y-179190D02*
X1257143Y-188714D01*
X1342857Y-303000D02*
X1323810Y-312524D01*
X1323810Y-312524D02*
X1276190Y-312524D01*
X1276190Y-312524D02*
X1257143Y-303000D01*
X1257143Y-303000D02*
X1247619Y-283952D01*
X1247619Y-283952D02*
X1247619Y-264905D01*
X1247619Y-264905D02*
X1257143Y-245857D01*
X1257143Y-245857D02*
X1276190Y-236333D01*
X1276190Y-236333D02*
X1323810Y-236333D01*
X1323810Y-236333D02*
X1342857Y-226809D01*
X1438095Y-179190D02*
X1438095Y-379190D01*
X1438095Y-188714D02*
X1457143Y-179190D01*
X1457143Y-179190D02*
X1495238Y-179190D01*
X1495238Y-179190D02*
X1514286Y-188714D01*
X1514286Y-188714D02*
X1523809Y-198238D01*
X1523809Y-198238D02*
X1533333Y-217286D01*
X1533333Y-217286D02*
X1533333Y-274429D01*
X1533333Y-274429D02*
X1523809Y-293476D01*
X1523809Y-293476D02*
X1514286Y-303000D01*
X1514286Y-303000D02*
X1495238Y-312524D01*
X1495238Y-312524D02*
X1457143Y-312524D01*
X1457143Y-312524D02*
X1438095Y-303000D01*
X1619048Y-293476D02*
X1628571Y-303000D01*
X1628571Y-303000D02*
X1619048Y-312524D01*
X1619048Y-312524D02*
X1609524Y-303000D01*
X1609524Y-303000D02*
X1619048Y-293476D01*
X1619048Y-293476D02*
X1619048Y-312524D01*
X1619048Y-188714D02*
X1628571Y-198238D01*
X1628571Y-198238D02*
X1619048Y-207762D01*
X1619048Y-207762D02*
X1609524Y-198238D01*
X1609524Y-198238D02*
X1619048Y-188714D01*
X1619048Y-188714D02*
X1619048Y-207762D01*
D11*
X-20000Y-630000D02*
X0Y-650000D01*
X0Y-630000D02*
X-20000Y-650000D01*
D10*
X285714Y-532524D02*
X304762Y-532524D01*
X304762Y-532524D02*
X323810Y-542048D01*
X323810Y-542048D02*
X333333Y-551571D01*
X333333Y-551571D02*
X342857Y-570619D01*
X342857Y-570619D02*
X352381Y-608714D01*
X352381Y-608714D02*
X352381Y-656333D01*
X352381Y-656333D02*
X342857Y-694429D01*
X342857Y-694429D02*
X333333Y-713476D01*
X333333Y-713476D02*
X323810Y-723000D01*
X323810Y-723000D02*
X304762Y-732524D01*
X304762Y-732524D02*
X285714Y-732524D01*
X285714Y-732524D02*
X266667Y-723000D01*
X266667Y-723000D02*
X257143Y-713476D01*
X257143Y-713476D02*
X247619Y-694429D01*
X247619Y-694429D02*
X238095Y-656333D01*
X238095Y-656333D02*
X238095Y-608714D01*
X238095Y-608714D02*
X247619Y-570619D01*
X247619Y-570619D02*
X257143Y-551571D01*
X257143Y-551571D02*
X266667Y-542048D01*
X266667Y-542048D02*
X285714Y-532524D01*
X438095Y-713476D02*
X447619Y-723000D01*
X447619Y-723000D02*
X438095Y-732524D01*
X438095Y-732524D02*
X428571Y-723000D01*
X428571Y-723000D02*
X438095Y-713476D01*
X438095Y-713476D02*
X438095Y-732524D01*
X523809Y-551571D02*
X533333Y-542048D01*
X533333Y-542048D02*
X552381Y-532524D01*
X552381Y-532524D02*
X600000Y-532524D01*
X600000Y-532524D02*
X619048Y-542048D01*
X619048Y-542048D02*
X628571Y-551571D01*
X628571Y-551571D02*
X638095Y-570619D01*
X638095Y-570619D02*
X638095Y-589667D01*
X638095Y-589667D02*
X628571Y-618238D01*
X628571Y-618238D02*
X514286Y-732524D01*
X514286Y-732524D02*
X638095Y-732524D01*
X761905Y-532524D02*
X780952Y-532524D01*
X780952Y-532524D02*
X800000Y-542048D01*
X800000Y-542048D02*
X809524Y-551571D01*
X809524Y-551571D02*
X819048Y-570619D01*
X819048Y-570619D02*
X828571Y-608714D01*
X828571Y-608714D02*
X828571Y-656333D01*
X828571Y-656333D02*
X819048Y-694429D01*
X819048Y-694429D02*
X809524Y-713476D01*
X809524Y-713476D02*
X800000Y-723000D01*
X800000Y-723000D02*
X780952Y-732524D01*
X780952Y-732524D02*
X761905Y-732524D01*
X761905Y-732524D02*
X742857Y-723000D01*
X742857Y-723000D02*
X733333Y-713476D01*
X733333Y-713476D02*
X723809Y-694429D01*
X723809Y-694429D02*
X714286Y-656333D01*
X714286Y-656333D02*
X714286Y-608714D01*
X714286Y-608714D02*
X723809Y-570619D01*
X723809Y-570619D02*
X733333Y-551571D01*
X733333Y-551571D02*
X742857Y-542048D01*
X742857Y-542048D02*
X761905Y-532524D01*
X952381Y-532524D02*
X971429Y-532524D01*
X971429Y-532524D02*
X990476Y-542048D01*
X990476Y-542048D02*
X1000000Y-551571D01*
X1000000Y-551571D02*
X1009524Y-570619D01*
X1009524Y-570619D02*
X1019048Y-608714D01*
X1019048Y-608714D02*
X1019048Y-656333D01*
X1019048Y-656333D02*
X1009524Y-694429D01*
X1009524Y-694429D02*
X1000000Y-713476D01*
X1000000Y-713476D02*
X990476Y-723000D01*
X990476Y-723000D02*
X971429Y-732524D01*
X971429Y-732524D02*
X952381Y-732524D01*
X952381Y-732524D02*
X933333Y-723000D01*
X933333Y-723000D02*
X923809Y-713476D01*
X923809Y-713476D02*
X914286Y-694429D01*
X914286Y-694429D02*
X904762Y-656333D01*
X904762Y-656333D02*
X904762Y-608714D01*
X904762Y-608714D02*
X914286Y-570619D01*
X914286Y-570619D02*
X923809Y-551571D01*
X923809Y-551571D02*
X933333Y-542048D01*
X933333Y-542048D02*
X952381Y-532524D01*
X1104762Y-732524D02*
X1104762Y-599190D01*
X1104762Y-618238D02*
X1114286Y-608714D01*
X1114286Y-608714D02*
X1133333Y-599190D01*
X1133333Y-599190D02*
X1161905Y-599190D01*
X1161905Y-599190D02*
X1180952Y-608714D01*
X1180952Y-608714D02*
X1190476Y-627762D01*
X1190476Y-627762D02*
X1190476Y-732524D01*
X1190476Y-627762D02*
X1200000Y-608714D01*
X1200000Y-608714D02*
X1219048Y-599190D01*
X1219048Y-599190D02*
X1247619Y-599190D01*
X1247619Y-599190D02*
X1266667Y-608714D01*
X1266667Y-608714D02*
X1276191Y-627762D01*
X1276191Y-627762D02*
X1276191Y-732524D01*
X1371429Y-732524D02*
X1371429Y-599190D01*
X1371429Y-618238D02*
X1380952Y-608714D01*
X1380952Y-608714D02*
X1400000Y-599190D01*
X1400000Y-599190D02*
X1428571Y-599190D01*
X1428571Y-599190D02*
X1447619Y-608714D01*
X1447619Y-608714D02*
X1457143Y-627762D01*
X1457143Y-627762D02*
X1457143Y-732524D01*
X1457143Y-627762D02*
X1466667Y-608714D01*
X1466667Y-608714D02*
X1485714Y-599190D01*
X1485714Y-599190D02*
X1514286Y-599190D01*
X1514286Y-599190D02*
X1533333Y-608714D01*
X1533333Y-608714D02*
X1542857Y-627762D01*
X1542857Y-627762D02*
X1542857Y-732524D01*
X1933333Y-523000D02*
X1761905Y-780143D01*
X2190476Y-532524D02*
X2209524Y-532524D01*
X2209524Y-532524D02*
X2228572Y-542048D01*
X2228572Y-542048D02*
X2238095Y-551571D01*
X2238095Y-551571D02*
X2247619Y-570619D01*
X2247619Y-570619D02*
X2257143Y-608714D01*
X2257143Y-608714D02*
X2257143Y-656333D01*
X2257143Y-656333D02*
X2247619Y-694429D01*
X2247619Y-694429D02*
X2238095Y-713476D01*
X2238095Y-713476D02*
X2228572Y-723000D01*
X2228572Y-723000D02*
X2209524Y-732524D01*
X2209524Y-732524D02*
X2190476Y-732524D01*
X2190476Y-732524D02*
X2171429Y-723000D01*
X2171429Y-723000D02*
X2161905Y-713476D01*
X2161905Y-713476D02*
X2152381Y-694429D01*
X2152381Y-694429D02*
X2142857Y-656333D01*
X2142857Y-656333D02*
X2142857Y-608714D01*
X2142857Y-608714D02*
X2152381Y-570619D01*
X2152381Y-570619D02*
X2161905Y-551571D01*
X2161905Y-551571D02*
X2171429Y-542048D01*
X2171429Y-542048D02*
X2190476Y-532524D01*
X2342857Y-713476D02*
X2352381Y-723000D01*
X2352381Y-723000D02*
X2342857Y-732524D01*
X2342857Y-732524D02*
X2333334Y-723000D01*
X2333334Y-723000D02*
X2342857Y-713476D01*
X2342857Y-713476D02*
X2342857Y-732524D01*
X2476191Y-532524D02*
X2495238Y-532524D01*
X2495238Y-532524D02*
X2514286Y-542048D01*
X2514286Y-542048D02*
X2523810Y-551571D01*
X2523810Y-551571D02*
X2533334Y-570619D01*
X2533334Y-570619D02*
X2542857Y-608714D01*
X2542857Y-608714D02*
X2542857Y-656333D01*
X2542857Y-656333D02*
X2533334Y-694429D01*
X2533334Y-694429D02*
X2523810Y-713476D01*
X2523810Y-713476D02*
X2514286Y-723000D01*
X2514286Y-723000D02*
X2495238Y-732524D01*
X2495238Y-732524D02*
X2476191Y-732524D01*
X2476191Y-732524D02*
X2457143Y-723000D01*
X2457143Y-723000D02*
X2447619Y-713476D01*
X2447619Y-713476D02*
X2438095Y-694429D01*
X2438095Y-694429D02*
X2428572Y-656333D01*
X2428572Y-656333D02*
X2428572Y-608714D01*
X2428572Y-608714D02*
X2438095Y-570619D01*
X2438095Y-570619D02*
X2447619Y-551571D01*
X2447619Y-551571D02*
X2457143Y-542048D01*
X2457143Y-542048D02*
X2476191Y-532524D01*
X2666667Y-532524D02*
X2685715Y-532524D01*
X2685715Y-532524D02*
X2704762Y-542048D01*
X2704762Y-542048D02*
X2714286Y-551571D01*
X2714286Y-551571D02*
X2723810Y-570619D01*
X2723810Y-570619D02*
X2733334Y-608714D01*
X2733334Y-608714D02*
X2733334Y-656333D01*
X2733334Y-656333D02*
X2723810Y-694429D01*
X2723810Y-694429D02*
X2714286Y-713476D01*
X2714286Y-713476D02*
X2704762Y-723000D01*
X2704762Y-723000D02*
X2685715Y-732524D01*
X2685715Y-732524D02*
X2666667Y-732524D01*
X2666667Y-732524D02*
X2647619Y-723000D01*
X2647619Y-723000D02*
X2638095Y-713476D01*
X2638095Y-713476D02*
X2628572Y-694429D01*
X2628572Y-694429D02*
X2619048Y-656333D01*
X2619048Y-656333D02*
X2619048Y-608714D01*
X2619048Y-608714D02*
X2628572Y-570619D01*
X2628572Y-570619D02*
X2638095Y-551571D01*
X2638095Y-551571D02*
X2647619Y-542048D01*
X2647619Y-542048D02*
X2666667Y-532524D01*
X2800000Y-532524D02*
X2933333Y-532524D01*
X2933333Y-532524D02*
X2847619Y-732524D01*
X3019048Y-732524D02*
X3057143Y-732524D01*
X3057143Y-732524D02*
X3076191Y-723000D01*
X3076191Y-723000D02*
X3085714Y-713476D01*
X3085714Y-713476D02*
X3104762Y-684905D01*
X3104762Y-684905D02*
X3114286Y-646810D01*
X3114286Y-646810D02*
X3114286Y-570619D01*
X3114286Y-570619D02*
X3104762Y-551571D01*
X3104762Y-551571D02*
X3095238Y-542048D01*
X3095238Y-542048D02*
X3076191Y-532524D01*
X3076191Y-532524D02*
X3038095Y-532524D01*
X3038095Y-532524D02*
X3019048Y-542048D01*
X3019048Y-542048D02*
X3009524Y-551571D01*
X3009524Y-551571D02*
X3000000Y-570619D01*
X3000000Y-570619D02*
X3000000Y-618238D01*
X3000000Y-618238D02*
X3009524Y-637286D01*
X3009524Y-637286D02*
X3019048Y-646810D01*
X3019048Y-646810D02*
X3038095Y-656333D01*
X3038095Y-656333D02*
X3076191Y-656333D01*
X3076191Y-656333D02*
X3095238Y-646810D01*
X3095238Y-646810D02*
X3104762Y-637286D01*
X3104762Y-637286D02*
X3114286Y-618238D01*
X3190476Y-532524D02*
X3190476Y-570619D01*
X3266667Y-532524D02*
X3266667Y-570619D01*
X3561905Y-808714D02*
X3552381Y-799190D01*
X3552381Y-799190D02*
X3533334Y-770619D01*
X3533334Y-770619D02*
X3523810Y-751571D01*
X3523810Y-751571D02*
X3514286Y-723000D01*
X3514286Y-723000D02*
X3504762Y-675381D01*
X3504762Y-675381D02*
X3504762Y-637286D01*
X3504762Y-637286D02*
X3514286Y-589667D01*
X3514286Y-589667D02*
X3523810Y-561095D01*
X3523810Y-561095D02*
X3533334Y-542048D01*
X3533334Y-542048D02*
X3552381Y-513476D01*
X3552381Y-513476D02*
X3561905Y-503952D01*
X3628572Y-551571D02*
X3638095Y-542048D01*
X3638095Y-542048D02*
X3657143Y-532524D01*
X3657143Y-532524D02*
X3704762Y-532524D01*
X3704762Y-532524D02*
X3723810Y-542048D01*
X3723810Y-542048D02*
X3733334Y-551571D01*
X3733334Y-551571D02*
X3742857Y-570619D01*
X3742857Y-570619D02*
X3742857Y-589667D01*
X3742857Y-589667D02*
X3733334Y-618238D01*
X3733334Y-618238D02*
X3619048Y-732524D01*
X3619048Y-732524D02*
X3742857Y-732524D01*
X3857143Y-618238D02*
X3838095Y-608714D01*
X3838095Y-608714D02*
X3828572Y-599190D01*
X3828572Y-599190D02*
X3819048Y-580143D01*
X3819048Y-580143D02*
X3819048Y-570619D01*
X3819048Y-570619D02*
X3828572Y-551571D01*
X3828572Y-551571D02*
X3838095Y-542048D01*
X3838095Y-542048D02*
X3857143Y-532524D01*
X3857143Y-532524D02*
X3895238Y-532524D01*
X3895238Y-532524D02*
X3914286Y-542048D01*
X3914286Y-542048D02*
X3923810Y-551571D01*
X3923810Y-551571D02*
X3933334Y-570619D01*
X3933334Y-570619D02*
X3933334Y-580143D01*
X3933334Y-580143D02*
X3923810Y-599190D01*
X3923810Y-599190D02*
X3914286Y-608714D01*
X3914286Y-608714D02*
X3895238Y-618238D01*
X3895238Y-618238D02*
X3857143Y-618238D01*
X3857143Y-618238D02*
X3838095Y-627762D01*
X3838095Y-627762D02*
X3828572Y-637286D01*
X3828572Y-637286D02*
X3819048Y-656333D01*
X3819048Y-656333D02*
X3819048Y-694429D01*
X3819048Y-694429D02*
X3828572Y-713476D01*
X3828572Y-713476D02*
X3838095Y-723000D01*
X3838095Y-723000D02*
X3857143Y-732524D01*
X3857143Y-732524D02*
X3895238Y-732524D01*
X3895238Y-732524D02*
X3914286Y-723000D01*
X3914286Y-723000D02*
X3923810Y-713476D01*
X3923810Y-713476D02*
X3933334Y-694429D01*
X3933334Y-694429D02*
X3933334Y-656333D01*
X3933334Y-656333D02*
X3923810Y-637286D01*
X3923810Y-637286D02*
X3914286Y-627762D01*
X3914286Y-627762D02*
X3895238Y-618238D01*
X4114286Y-532524D02*
X4019048Y-532524D01*
X4019048Y-532524D02*
X4009524Y-627762D01*
X4009524Y-627762D02*
X4019048Y-618238D01*
X4019048Y-618238D02*
X4038095Y-608714D01*
X4038095Y-608714D02*
X4085715Y-608714D01*
X4085715Y-608714D02*
X4104762Y-618238D01*
X4104762Y-618238D02*
X4114286Y-627762D01*
X4114286Y-627762D02*
X4123810Y-646810D01*
X4123810Y-646810D02*
X4123810Y-694429D01*
X4123810Y-694429D02*
X4114286Y-713476D01*
X4114286Y-713476D02*
X4104762Y-723000D01*
X4104762Y-723000D02*
X4085715Y-732524D01*
X4085715Y-732524D02*
X4038095Y-732524D01*
X4038095Y-732524D02*
X4019048Y-723000D01*
X4019048Y-723000D02*
X4009524Y-713476D01*
X4361905Y-732524D02*
X4361905Y-532524D01*
X4447619Y-732524D02*
X4447619Y-627762D01*
X4447619Y-627762D02*
X4438096Y-608714D01*
X4438096Y-608714D02*
X4419048Y-599190D01*
X4419048Y-599190D02*
X4390477Y-599190D01*
X4390477Y-599190D02*
X4371429Y-608714D01*
X4371429Y-608714D02*
X4361905Y-618238D01*
X4571429Y-732524D02*
X4552381Y-723000D01*
X4552381Y-723000D02*
X4542858Y-713476D01*
X4542858Y-713476D02*
X4533334Y-694429D01*
X4533334Y-694429D02*
X4533334Y-637286D01*
X4533334Y-637286D02*
X4542858Y-618238D01*
X4542858Y-618238D02*
X4552381Y-608714D01*
X4552381Y-608714D02*
X4571429Y-599190D01*
X4571429Y-599190D02*
X4600000Y-599190D01*
X4600000Y-599190D02*
X4619048Y-608714D01*
X4619048Y-608714D02*
X4628572Y-618238D01*
X4628572Y-618238D02*
X4638096Y-637286D01*
X4638096Y-637286D02*
X4638096Y-694429D01*
X4638096Y-694429D02*
X4628572Y-713476D01*
X4628572Y-713476D02*
X4619048Y-723000D01*
X4619048Y-723000D02*
X4600000Y-732524D01*
X4600000Y-732524D02*
X4571429Y-732524D01*
X4752381Y-732524D02*
X4733334Y-723000D01*
X4733334Y-723000D02*
X4723810Y-703952D01*
X4723810Y-703952D02*
X4723810Y-532524D01*
X4904762Y-723000D02*
X4885715Y-732524D01*
X4885715Y-732524D02*
X4847619Y-732524D01*
X4847619Y-732524D02*
X4828572Y-723000D01*
X4828572Y-723000D02*
X4819048Y-703952D01*
X4819048Y-703952D02*
X4819048Y-627762D01*
X4819048Y-627762D02*
X4828572Y-608714D01*
X4828572Y-608714D02*
X4847619Y-599190D01*
X4847619Y-599190D02*
X4885715Y-599190D01*
X4885715Y-599190D02*
X4904762Y-608714D01*
X4904762Y-608714D02*
X4914286Y-627762D01*
X4914286Y-627762D02*
X4914286Y-646810D01*
X4914286Y-646810D02*
X4819048Y-665857D01*
X4990477Y-723000D02*
X5009524Y-732524D01*
X5009524Y-732524D02*
X5047619Y-732524D01*
X5047619Y-732524D02*
X5066667Y-723000D01*
X5066667Y-723000D02*
X5076191Y-703952D01*
X5076191Y-703952D02*
X5076191Y-694429D01*
X5076191Y-694429D02*
X5066667Y-675381D01*
X5066667Y-675381D02*
X5047619Y-665857D01*
X5047619Y-665857D02*
X5019048Y-665857D01*
X5019048Y-665857D02*
X5000000Y-656333D01*
X5000000Y-656333D02*
X4990477Y-637286D01*
X4990477Y-637286D02*
X4990477Y-627762D01*
X4990477Y-627762D02*
X5000000Y-608714D01*
X5000000Y-608714D02*
X5019048Y-599190D01*
X5019048Y-599190D02*
X5047619Y-599190D01*
X5047619Y-599190D02*
X5066667Y-608714D01*
X5142858Y-808714D02*
X5152381Y-799190D01*
X5152381Y-799190D02*
X5171429Y-770619D01*
X5171429Y-770619D02*
X5180953Y-751571D01*
X5180953Y-751571D02*
X5190477Y-723000D01*
X5190477Y-723000D02*
X5200000Y-675381D01*
X5200000Y-675381D02*
X5200000Y-637286D01*
X5200000Y-637286D02*
X5190477Y-589667D01*
X5190477Y-589667D02*
X5180953Y-561095D01*
X5180953Y-561095D02*
X5171429Y-542048D01*
X5171429Y-542048D02*
X5152381Y-513476D01*
X5152381Y-513476D02*
X5142858Y-503952D01*
D11*
X0Y-904000D02*
G75*
G03*
X0Y-904000I-10000J0D01*
G01*
D10*
X285714Y-796524D02*
X304762Y-796524D01*
X304762Y-796524D02*
X323810Y-806048D01*
X323810Y-806048D02*
X333333Y-815571D01*
X333333Y-815571D02*
X342857Y-834619D01*
X342857Y-834619D02*
X352381Y-872714D01*
X352381Y-872714D02*
X352381Y-920333D01*
X352381Y-920333D02*
X342857Y-958428D01*
X342857Y-958428D02*
X333333Y-977476D01*
X333333Y-977476D02*
X323810Y-987000D01*
X323810Y-987000D02*
X304762Y-996524D01*
X304762Y-996524D02*
X285714Y-996524D01*
X285714Y-996524D02*
X266667Y-987000D01*
X266667Y-987000D02*
X257143Y-977476D01*
X257143Y-977476D02*
X247619Y-958428D01*
X247619Y-958428D02*
X238095Y-920333D01*
X238095Y-920333D02*
X238095Y-872714D01*
X238095Y-872714D02*
X247619Y-834619D01*
X247619Y-834619D02*
X257143Y-815571D01*
X257143Y-815571D02*
X266667Y-806048D01*
X266667Y-806048D02*
X285714Y-796524D01*
X438095Y-977476D02*
X447619Y-987000D01*
X447619Y-987000D02*
X438095Y-996524D01*
X438095Y-996524D02*
X428571Y-987000D01*
X428571Y-987000D02*
X438095Y-977476D01*
X438095Y-977476D02*
X438095Y-996524D01*
X523809Y-815571D02*
X533333Y-806048D01*
X533333Y-806048D02*
X552381Y-796524D01*
X552381Y-796524D02*
X600000Y-796524D01*
X600000Y-796524D02*
X619048Y-806048D01*
X619048Y-806048D02*
X628571Y-815571D01*
X628571Y-815571D02*
X638095Y-834619D01*
X638095Y-834619D02*
X638095Y-853667D01*
X638095Y-853667D02*
X628571Y-882238D01*
X628571Y-882238D02*
X514286Y-996524D01*
X514286Y-996524D02*
X638095Y-996524D01*
X761905Y-796524D02*
X780952Y-796524D01*
X780952Y-796524D02*
X800000Y-806048D01*
X800000Y-806048D02*
X809524Y-815571D01*
X809524Y-815571D02*
X819048Y-834619D01*
X819048Y-834619D02*
X828571Y-872714D01*
X828571Y-872714D02*
X828571Y-920333D01*
X828571Y-920333D02*
X819048Y-958428D01*
X819048Y-958428D02*
X809524Y-977476D01*
X809524Y-977476D02*
X800000Y-987000D01*
X800000Y-987000D02*
X780952Y-996524D01*
X780952Y-996524D02*
X761905Y-996524D01*
X761905Y-996524D02*
X742857Y-987000D01*
X742857Y-987000D02*
X733333Y-977476D01*
X733333Y-977476D02*
X723809Y-958428D01*
X723809Y-958428D02*
X714286Y-920333D01*
X714286Y-920333D02*
X714286Y-872714D01*
X714286Y-872714D02*
X723809Y-834619D01*
X723809Y-834619D02*
X733333Y-815571D01*
X733333Y-815571D02*
X742857Y-806048D01*
X742857Y-806048D02*
X761905Y-796524D01*
X952381Y-796524D02*
X971429Y-796524D01*
X971429Y-796524D02*
X990476Y-806048D01*
X990476Y-806048D02*
X1000000Y-815571D01*
X1000000Y-815571D02*
X1009524Y-834619D01*
X1009524Y-834619D02*
X1019048Y-872714D01*
X1019048Y-872714D02*
X1019048Y-920333D01*
X1019048Y-920333D02*
X1009524Y-958428D01*
X1009524Y-958428D02*
X1000000Y-977476D01*
X1000000Y-977476D02*
X990476Y-987000D01*
X990476Y-987000D02*
X971429Y-996524D01*
X971429Y-996524D02*
X952381Y-996524D01*
X952381Y-996524D02*
X933333Y-987000D01*
X933333Y-987000D02*
X923809Y-977476D01*
X923809Y-977476D02*
X914286Y-958428D01*
X914286Y-958428D02*
X904762Y-920333D01*
X904762Y-920333D02*
X904762Y-872714D01*
X904762Y-872714D02*
X914286Y-834619D01*
X914286Y-834619D02*
X923809Y-815571D01*
X923809Y-815571D02*
X933333Y-806048D01*
X933333Y-806048D02*
X952381Y-796524D01*
X1104762Y-996524D02*
X1104762Y-863190D01*
X1104762Y-882238D02*
X1114286Y-872714D01*
X1114286Y-872714D02*
X1133333Y-863190D01*
X1133333Y-863190D02*
X1161905Y-863190D01*
X1161905Y-863190D02*
X1180952Y-872714D01*
X1180952Y-872714D02*
X1190476Y-891762D01*
X1190476Y-891762D02*
X1190476Y-996524D01*
X1190476Y-891762D02*
X1200000Y-872714D01*
X1200000Y-872714D02*
X1219048Y-863190D01*
X1219048Y-863190D02*
X1247619Y-863190D01*
X1247619Y-863190D02*
X1266667Y-872714D01*
X1266667Y-872714D02*
X1276191Y-891762D01*
X1276191Y-891762D02*
X1276191Y-996524D01*
X1371429Y-996524D02*
X1371429Y-863190D01*
X1371429Y-882238D02*
X1380952Y-872714D01*
X1380952Y-872714D02*
X1400000Y-863190D01*
X1400000Y-863190D02*
X1428571Y-863190D01*
X1428571Y-863190D02*
X1447619Y-872714D01*
X1447619Y-872714D02*
X1457143Y-891762D01*
X1457143Y-891762D02*
X1457143Y-996524D01*
X1457143Y-891762D02*
X1466667Y-872714D01*
X1466667Y-872714D02*
X1485714Y-863190D01*
X1485714Y-863190D02*
X1514286Y-863190D01*
X1514286Y-863190D02*
X1533333Y-872714D01*
X1533333Y-872714D02*
X1542857Y-891762D01*
X1542857Y-891762D02*
X1542857Y-996524D01*
X1933333Y-787000D02*
X1761905Y-1044143D01*
X2190476Y-796524D02*
X2209524Y-796524D01*
X2209524Y-796524D02*
X2228572Y-806048D01*
X2228572Y-806048D02*
X2238095Y-815571D01*
X2238095Y-815571D02*
X2247619Y-834619D01*
X2247619Y-834619D02*
X2257143Y-872714D01*
X2257143Y-872714D02*
X2257143Y-920333D01*
X2257143Y-920333D02*
X2247619Y-958428D01*
X2247619Y-958428D02*
X2238095Y-977476D01*
X2238095Y-977476D02*
X2228572Y-987000D01*
X2228572Y-987000D02*
X2209524Y-996524D01*
X2209524Y-996524D02*
X2190476Y-996524D01*
X2190476Y-996524D02*
X2171429Y-987000D01*
X2171429Y-987000D02*
X2161905Y-977476D01*
X2161905Y-977476D02*
X2152381Y-958428D01*
X2152381Y-958428D02*
X2142857Y-920333D01*
X2142857Y-920333D02*
X2142857Y-872714D01*
X2142857Y-872714D02*
X2152381Y-834619D01*
X2152381Y-834619D02*
X2161905Y-815571D01*
X2161905Y-815571D02*
X2171429Y-806048D01*
X2171429Y-806048D02*
X2190476Y-796524D01*
X2342857Y-977476D02*
X2352381Y-987000D01*
X2352381Y-987000D02*
X2342857Y-996524D01*
X2342857Y-996524D02*
X2333334Y-987000D01*
X2333334Y-987000D02*
X2342857Y-977476D01*
X2342857Y-977476D02*
X2342857Y-996524D01*
X2476191Y-796524D02*
X2495238Y-796524D01*
X2495238Y-796524D02*
X2514286Y-806048D01*
X2514286Y-806048D02*
X2523810Y-815571D01*
X2523810Y-815571D02*
X2533334Y-834619D01*
X2533334Y-834619D02*
X2542857Y-872714D01*
X2542857Y-872714D02*
X2542857Y-920333D01*
X2542857Y-920333D02*
X2533334Y-958428D01*
X2533334Y-958428D02*
X2523810Y-977476D01*
X2523810Y-977476D02*
X2514286Y-987000D01*
X2514286Y-987000D02*
X2495238Y-996524D01*
X2495238Y-996524D02*
X2476191Y-996524D01*
X2476191Y-996524D02*
X2457143Y-987000D01*
X2457143Y-987000D02*
X2447619Y-977476D01*
X2447619Y-977476D02*
X2438095Y-958428D01*
X2438095Y-958428D02*
X2428572Y-920333D01*
X2428572Y-920333D02*
X2428572Y-872714D01*
X2428572Y-872714D02*
X2438095Y-834619D01*
X2438095Y-834619D02*
X2447619Y-815571D01*
X2447619Y-815571D02*
X2457143Y-806048D01*
X2457143Y-806048D02*
X2476191Y-796524D01*
X2666667Y-796524D02*
X2685715Y-796524D01*
X2685715Y-796524D02*
X2704762Y-806048D01*
X2704762Y-806048D02*
X2714286Y-815571D01*
X2714286Y-815571D02*
X2723810Y-834619D01*
X2723810Y-834619D02*
X2733334Y-872714D01*
X2733334Y-872714D02*
X2733334Y-920333D01*
X2733334Y-920333D02*
X2723810Y-958428D01*
X2723810Y-958428D02*
X2714286Y-977476D01*
X2714286Y-977476D02*
X2704762Y-987000D01*
X2704762Y-987000D02*
X2685715Y-996524D01*
X2685715Y-996524D02*
X2666667Y-996524D01*
X2666667Y-996524D02*
X2647619Y-987000D01*
X2647619Y-987000D02*
X2638095Y-977476D01*
X2638095Y-977476D02*
X2628572Y-958428D01*
X2628572Y-958428D02*
X2619048Y-920333D01*
X2619048Y-920333D02*
X2619048Y-872714D01*
X2619048Y-872714D02*
X2628572Y-834619D01*
X2628572Y-834619D02*
X2638095Y-815571D01*
X2638095Y-815571D02*
X2647619Y-806048D01*
X2647619Y-806048D02*
X2666667Y-796524D01*
X2800000Y-796524D02*
X2933333Y-796524D01*
X2933333Y-796524D02*
X2847619Y-996524D01*
X3019048Y-996524D02*
X3057143Y-996524D01*
X3057143Y-996524D02*
X3076191Y-987000D01*
X3076191Y-987000D02*
X3085714Y-977476D01*
X3085714Y-977476D02*
X3104762Y-948905D01*
X3104762Y-948905D02*
X3114286Y-910809D01*
X3114286Y-910809D02*
X3114286Y-834619D01*
X3114286Y-834619D02*
X3104762Y-815571D01*
X3104762Y-815571D02*
X3095238Y-806048D01*
X3095238Y-806048D02*
X3076191Y-796524D01*
X3076191Y-796524D02*
X3038095Y-796524D01*
X3038095Y-796524D02*
X3019048Y-806048D01*
X3019048Y-806048D02*
X3009524Y-815571D01*
X3009524Y-815571D02*
X3000000Y-834619D01*
X3000000Y-834619D02*
X3000000Y-882238D01*
X3000000Y-882238D02*
X3009524Y-901286D01*
X3009524Y-901286D02*
X3019048Y-910809D01*
X3019048Y-910809D02*
X3038095Y-920333D01*
X3038095Y-920333D02*
X3076191Y-920333D01*
X3076191Y-920333D02*
X3095238Y-910809D01*
X3095238Y-910809D02*
X3104762Y-901286D01*
X3104762Y-901286D02*
X3114286Y-882238D01*
X3190476Y-796524D02*
X3190476Y-834619D01*
X3266667Y-796524D02*
X3266667Y-834619D01*
X3561905Y-1072714D02*
X3552381Y-1063190D01*
X3552381Y-1063190D02*
X3533334Y-1034619D01*
X3533334Y-1034619D02*
X3523810Y-1015571D01*
X3523810Y-1015571D02*
X3514286Y-987000D01*
X3514286Y-987000D02*
X3504762Y-939381D01*
X3504762Y-939381D02*
X3504762Y-901286D01*
X3504762Y-901286D02*
X3514286Y-853667D01*
X3514286Y-853667D02*
X3523810Y-825095D01*
X3523810Y-825095D02*
X3533334Y-806048D01*
X3533334Y-806048D02*
X3552381Y-777476D01*
X3552381Y-777476D02*
X3561905Y-767952D01*
X3742857Y-996524D02*
X3628572Y-996524D01*
X3685714Y-996524D02*
X3685714Y-796524D01*
X3685714Y-796524D02*
X3666667Y-825095D01*
X3666667Y-825095D02*
X3647619Y-844143D01*
X3647619Y-844143D02*
X3628572Y-853667D01*
X3819048Y-815571D02*
X3828572Y-806048D01*
X3828572Y-806048D02*
X3847619Y-796524D01*
X3847619Y-796524D02*
X3895238Y-796524D01*
X3895238Y-796524D02*
X3914286Y-806048D01*
X3914286Y-806048D02*
X3923810Y-815571D01*
X3923810Y-815571D02*
X3933334Y-834619D01*
X3933334Y-834619D02*
X3933334Y-853667D01*
X3933334Y-853667D02*
X3923810Y-882238D01*
X3923810Y-882238D02*
X3809524Y-996524D01*
X3809524Y-996524D02*
X3933334Y-996524D01*
X4171429Y-996524D02*
X4171429Y-796524D01*
X4257143Y-996524D02*
X4257143Y-891762D01*
X4257143Y-891762D02*
X4247619Y-872714D01*
X4247619Y-872714D02*
X4228572Y-863190D01*
X4228572Y-863190D02*
X4200000Y-863190D01*
X4200000Y-863190D02*
X4180953Y-872714D01*
X4180953Y-872714D02*
X4171429Y-882238D01*
X4380953Y-996524D02*
X4361905Y-987000D01*
X4361905Y-987000D02*
X4352381Y-977476D01*
X4352381Y-977476D02*
X4342858Y-958428D01*
X4342858Y-958428D02*
X4342858Y-901286D01*
X4342858Y-901286D02*
X4352381Y-882238D01*
X4352381Y-882238D02*
X4361905Y-872714D01*
X4361905Y-872714D02*
X4380953Y-863190D01*
X4380953Y-863190D02*
X4409524Y-863190D01*
X4409524Y-863190D02*
X4428572Y-872714D01*
X4428572Y-872714D02*
X4438096Y-882238D01*
X4438096Y-882238D02*
X4447619Y-901286D01*
X4447619Y-901286D02*
X4447619Y-958428D01*
X4447619Y-958428D02*
X4438096Y-977476D01*
X4438096Y-977476D02*
X4428572Y-987000D01*
X4428572Y-987000D02*
X4409524Y-996524D01*
X4409524Y-996524D02*
X4380953Y-996524D01*
X4561905Y-996524D02*
X4542858Y-987000D01*
X4542858Y-987000D02*
X4533334Y-967952D01*
X4533334Y-967952D02*
X4533334Y-796524D01*
X4714286Y-987000D02*
X4695239Y-996524D01*
X4695239Y-996524D02*
X4657143Y-996524D01*
X4657143Y-996524D02*
X4638096Y-987000D01*
X4638096Y-987000D02*
X4628572Y-967952D01*
X4628572Y-967952D02*
X4628572Y-891762D01*
X4628572Y-891762D02*
X4638096Y-872714D01*
X4638096Y-872714D02*
X4657143Y-863190D01*
X4657143Y-863190D02*
X4695239Y-863190D01*
X4695239Y-863190D02*
X4714286Y-872714D01*
X4714286Y-872714D02*
X4723810Y-891762D01*
X4723810Y-891762D02*
X4723810Y-910809D01*
X4723810Y-910809D02*
X4628572Y-929857D01*
X4800000Y-987000D02*
X4819048Y-996524D01*
X4819048Y-996524D02*
X4857143Y-996524D01*
X4857143Y-996524D02*
X4876191Y-987000D01*
X4876191Y-987000D02*
X4885715Y-967952D01*
X4885715Y-967952D02*
X4885715Y-958428D01*
X4885715Y-958428D02*
X4876191Y-939381D01*
X4876191Y-939381D02*
X4857143Y-929857D01*
X4857143Y-929857D02*
X4828572Y-929857D01*
X4828572Y-929857D02*
X4809524Y-920333D01*
X4809524Y-920333D02*
X4800000Y-901286D01*
X4800000Y-901286D02*
X4800000Y-891762D01*
X4800000Y-891762D02*
X4809524Y-872714D01*
X4809524Y-872714D02*
X4828572Y-863190D01*
X4828572Y-863190D02*
X4857143Y-863190D01*
X4857143Y-863190D02*
X4876191Y-872714D01*
X4952381Y-1072714D02*
X4961905Y-1063190D01*
X4961905Y-1063190D02*
X4980953Y-1034619D01*
X4980953Y-1034619D02*
X4990477Y-1015571D01*
X4990477Y-1015571D02*
X5000000Y-987000D01*
X5000000Y-987000D02*
X5009524Y-939381D01*
X5009524Y-939381D02*
X5009524Y-901286D01*
X5009524Y-901286D02*
X5000000Y-853667D01*
X5000000Y-853667D02*
X4990477Y-825095D01*
X4990477Y-825095D02*
X4980953Y-806048D01*
X4980953Y-806048D02*
X4961905Y-777476D01*
X4961905Y-777476D02*
X4952381Y-767952D01*
D12*
X-30000Y-1138000D02*
X-30000Y-1198000D01*
X-60000Y-1168000D02*
X0Y-1168000D01*
D10*
X285714Y-1060524D02*
X304762Y-1060524D01*
X304762Y-1060524D02*
X323810Y-1070048D01*
X323810Y-1070048D02*
X333333Y-1079571D01*
X333333Y-1079571D02*
X342857Y-1098619D01*
X342857Y-1098619D02*
X352381Y-1136714D01*
X352381Y-1136714D02*
X352381Y-1184333D01*
X352381Y-1184333D02*
X342857Y-1222429D01*
X342857Y-1222429D02*
X333333Y-1241476D01*
X333333Y-1241476D02*
X323810Y-1251000D01*
X323810Y-1251000D02*
X304762Y-1260524D01*
X304762Y-1260524D02*
X285714Y-1260524D01*
X285714Y-1260524D02*
X266667Y-1251000D01*
X266667Y-1251000D02*
X257143Y-1241476D01*
X257143Y-1241476D02*
X247619Y-1222429D01*
X247619Y-1222429D02*
X238095Y-1184333D01*
X238095Y-1184333D02*
X238095Y-1136714D01*
X238095Y-1136714D02*
X247619Y-1098619D01*
X247619Y-1098619D02*
X257143Y-1079571D01*
X257143Y-1079571D02*
X266667Y-1070048D01*
X266667Y-1070048D02*
X285714Y-1060524D01*
X438095Y-1241476D02*
X447619Y-1251000D01*
X447619Y-1251000D02*
X438095Y-1260524D01*
X438095Y-1260524D02*
X428571Y-1251000D01*
X428571Y-1251000D02*
X438095Y-1241476D01*
X438095Y-1241476D02*
X438095Y-1260524D01*
X619048Y-1060524D02*
X580952Y-1060524D01*
X580952Y-1060524D02*
X561905Y-1070048D01*
X561905Y-1070048D02*
X552381Y-1079571D01*
X552381Y-1079571D02*
X533333Y-1108143D01*
X533333Y-1108143D02*
X523809Y-1146238D01*
X523809Y-1146238D02*
X523809Y-1222429D01*
X523809Y-1222429D02*
X533333Y-1241476D01*
X533333Y-1241476D02*
X542857Y-1251000D01*
X542857Y-1251000D02*
X561905Y-1260524D01*
X561905Y-1260524D02*
X600000Y-1260524D01*
X600000Y-1260524D02*
X619048Y-1251000D01*
X619048Y-1251000D02*
X628571Y-1241476D01*
X628571Y-1241476D02*
X638095Y-1222429D01*
X638095Y-1222429D02*
X638095Y-1174810D01*
X638095Y-1174810D02*
X628571Y-1155762D01*
X628571Y-1155762D02*
X619048Y-1146238D01*
X619048Y-1146238D02*
X600000Y-1136714D01*
X600000Y-1136714D02*
X561905Y-1136714D01*
X561905Y-1136714D02*
X542857Y-1146238D01*
X542857Y-1146238D02*
X533333Y-1155762D01*
X533333Y-1155762D02*
X523809Y-1174810D01*
X761905Y-1060524D02*
X780952Y-1060524D01*
X780952Y-1060524D02*
X800000Y-1070048D01*
X800000Y-1070048D02*
X809524Y-1079571D01*
X809524Y-1079571D02*
X819048Y-1098619D01*
X819048Y-1098619D02*
X828571Y-1136714D01*
X828571Y-1136714D02*
X828571Y-1184333D01*
X828571Y-1184333D02*
X819048Y-1222429D01*
X819048Y-1222429D02*
X809524Y-1241476D01*
X809524Y-1241476D02*
X800000Y-1251000D01*
X800000Y-1251000D02*
X780952Y-1260524D01*
X780952Y-1260524D02*
X761905Y-1260524D01*
X761905Y-1260524D02*
X742857Y-1251000D01*
X742857Y-1251000D02*
X733333Y-1241476D01*
X733333Y-1241476D02*
X723809Y-1222429D01*
X723809Y-1222429D02*
X714286Y-1184333D01*
X714286Y-1184333D02*
X714286Y-1136714D01*
X714286Y-1136714D02*
X723809Y-1098619D01*
X723809Y-1098619D02*
X733333Y-1079571D01*
X733333Y-1079571D02*
X742857Y-1070048D01*
X742857Y-1070048D02*
X761905Y-1060524D01*
X952381Y-1060524D02*
X971429Y-1060524D01*
X971429Y-1060524D02*
X990476Y-1070048D01*
X990476Y-1070048D02*
X1000000Y-1079571D01*
X1000000Y-1079571D02*
X1009524Y-1098619D01*
X1009524Y-1098619D02*
X1019048Y-1136714D01*
X1019048Y-1136714D02*
X1019048Y-1184333D01*
X1019048Y-1184333D02*
X1009524Y-1222429D01*
X1009524Y-1222429D02*
X1000000Y-1241476D01*
X1000000Y-1241476D02*
X990476Y-1251000D01*
X990476Y-1251000D02*
X971429Y-1260524D01*
X971429Y-1260524D02*
X952381Y-1260524D01*
X952381Y-1260524D02*
X933333Y-1251000D01*
X933333Y-1251000D02*
X923809Y-1241476D01*
X923809Y-1241476D02*
X914286Y-1222429D01*
X914286Y-1222429D02*
X904762Y-1184333D01*
X904762Y-1184333D02*
X904762Y-1136714D01*
X904762Y-1136714D02*
X914286Y-1098619D01*
X914286Y-1098619D02*
X923809Y-1079571D01*
X923809Y-1079571D02*
X933333Y-1070048D01*
X933333Y-1070048D02*
X952381Y-1060524D01*
X1104762Y-1260524D02*
X1104762Y-1127190D01*
X1104762Y-1146238D02*
X1114286Y-1136714D01*
X1114286Y-1136714D02*
X1133333Y-1127190D01*
X1133333Y-1127190D02*
X1161905Y-1127190D01*
X1161905Y-1127190D02*
X1180952Y-1136714D01*
X1180952Y-1136714D02*
X1190476Y-1155762D01*
X1190476Y-1155762D02*
X1190476Y-1260524D01*
X1190476Y-1155762D02*
X1200000Y-1136714D01*
X1200000Y-1136714D02*
X1219048Y-1127190D01*
X1219048Y-1127190D02*
X1247619Y-1127190D01*
X1247619Y-1127190D02*
X1266667Y-1136714D01*
X1266667Y-1136714D02*
X1276191Y-1155762D01*
X1276191Y-1155762D02*
X1276191Y-1260524D01*
X1371429Y-1260524D02*
X1371429Y-1127190D01*
X1371429Y-1146238D02*
X1380952Y-1136714D01*
X1380952Y-1136714D02*
X1400000Y-1127190D01*
X1400000Y-1127190D02*
X1428571Y-1127190D01*
X1428571Y-1127190D02*
X1447619Y-1136714D01*
X1447619Y-1136714D02*
X1457143Y-1155762D01*
X1457143Y-1155762D02*
X1457143Y-1260524D01*
X1457143Y-1155762D02*
X1466667Y-1136714D01*
X1466667Y-1136714D02*
X1485714Y-1127190D01*
X1485714Y-1127190D02*
X1514286Y-1127190D01*
X1514286Y-1127190D02*
X1533333Y-1136714D01*
X1533333Y-1136714D02*
X1542857Y-1155762D01*
X1542857Y-1155762D02*
X1542857Y-1260524D01*
X1933333Y-1051000D02*
X1761905Y-1308143D01*
X2190476Y-1060524D02*
X2209524Y-1060524D01*
X2209524Y-1060524D02*
X2228572Y-1070048D01*
X2228572Y-1070048D02*
X2238095Y-1079571D01*
X2238095Y-1079571D02*
X2247619Y-1098619D01*
X2247619Y-1098619D02*
X2257143Y-1136714D01*
X2257143Y-1136714D02*
X2257143Y-1184333D01*
X2257143Y-1184333D02*
X2247619Y-1222429D01*
X2247619Y-1222429D02*
X2238095Y-1241476D01*
X2238095Y-1241476D02*
X2228572Y-1251000D01*
X2228572Y-1251000D02*
X2209524Y-1260524D01*
X2209524Y-1260524D02*
X2190476Y-1260524D01*
X2190476Y-1260524D02*
X2171429Y-1251000D01*
X2171429Y-1251000D02*
X2161905Y-1241476D01*
X2161905Y-1241476D02*
X2152381Y-1222429D01*
X2152381Y-1222429D02*
X2142857Y-1184333D01*
X2142857Y-1184333D02*
X2142857Y-1136714D01*
X2142857Y-1136714D02*
X2152381Y-1098619D01*
X2152381Y-1098619D02*
X2161905Y-1079571D01*
X2161905Y-1079571D02*
X2171429Y-1070048D01*
X2171429Y-1070048D02*
X2190476Y-1060524D01*
X2342857Y-1241476D02*
X2352381Y-1251000D01*
X2352381Y-1251000D02*
X2342857Y-1260524D01*
X2342857Y-1260524D02*
X2333334Y-1251000D01*
X2333334Y-1251000D02*
X2342857Y-1241476D01*
X2342857Y-1241476D02*
X2342857Y-1260524D01*
X2476191Y-1060524D02*
X2495238Y-1060524D01*
X2495238Y-1060524D02*
X2514286Y-1070048D01*
X2514286Y-1070048D02*
X2523810Y-1079571D01*
X2523810Y-1079571D02*
X2533334Y-1098619D01*
X2533334Y-1098619D02*
X2542857Y-1136714D01*
X2542857Y-1136714D02*
X2542857Y-1184333D01*
X2542857Y-1184333D02*
X2533334Y-1222429D01*
X2533334Y-1222429D02*
X2523810Y-1241476D01*
X2523810Y-1241476D02*
X2514286Y-1251000D01*
X2514286Y-1251000D02*
X2495238Y-1260524D01*
X2495238Y-1260524D02*
X2476191Y-1260524D01*
X2476191Y-1260524D02*
X2457143Y-1251000D01*
X2457143Y-1251000D02*
X2447619Y-1241476D01*
X2447619Y-1241476D02*
X2438095Y-1222429D01*
X2438095Y-1222429D02*
X2428572Y-1184333D01*
X2428572Y-1184333D02*
X2428572Y-1136714D01*
X2428572Y-1136714D02*
X2438095Y-1098619D01*
X2438095Y-1098619D02*
X2447619Y-1079571D01*
X2447619Y-1079571D02*
X2457143Y-1070048D01*
X2457143Y-1070048D02*
X2476191Y-1060524D01*
X2619048Y-1079571D02*
X2628572Y-1070048D01*
X2628572Y-1070048D02*
X2647619Y-1060524D01*
X2647619Y-1060524D02*
X2695238Y-1060524D01*
X2695238Y-1060524D02*
X2714286Y-1070048D01*
X2714286Y-1070048D02*
X2723810Y-1079571D01*
X2723810Y-1079571D02*
X2733334Y-1098619D01*
X2733334Y-1098619D02*
X2733334Y-1117667D01*
X2733334Y-1117667D02*
X2723810Y-1146238D01*
X2723810Y-1146238D02*
X2609524Y-1260524D01*
X2609524Y-1260524D02*
X2733334Y-1260524D01*
X2800000Y-1060524D02*
X2923810Y-1060524D01*
X2923810Y-1060524D02*
X2857143Y-1136714D01*
X2857143Y-1136714D02*
X2885714Y-1136714D01*
X2885714Y-1136714D02*
X2904762Y-1146238D01*
X2904762Y-1146238D02*
X2914286Y-1155762D01*
X2914286Y-1155762D02*
X2923810Y-1174810D01*
X2923810Y-1174810D02*
X2923810Y-1222429D01*
X2923810Y-1222429D02*
X2914286Y-1241476D01*
X2914286Y-1241476D02*
X2904762Y-1251000D01*
X2904762Y-1251000D02*
X2885714Y-1260524D01*
X2885714Y-1260524D02*
X2828572Y-1260524D01*
X2828572Y-1260524D02*
X2809524Y-1251000D01*
X2809524Y-1251000D02*
X2800000Y-1241476D01*
X3095238Y-1060524D02*
X3057143Y-1060524D01*
X3057143Y-1060524D02*
X3038095Y-1070048D01*
X3038095Y-1070048D02*
X3028572Y-1079571D01*
X3028572Y-1079571D02*
X3009524Y-1108143D01*
X3009524Y-1108143D02*
X3000000Y-1146238D01*
X3000000Y-1146238D02*
X3000000Y-1222429D01*
X3000000Y-1222429D02*
X3009524Y-1241476D01*
X3009524Y-1241476D02*
X3019048Y-1251000D01*
X3019048Y-1251000D02*
X3038095Y-1260524D01*
X3038095Y-1260524D02*
X3076191Y-1260524D01*
X3076191Y-1260524D02*
X3095238Y-1251000D01*
X3095238Y-1251000D02*
X3104762Y-1241476D01*
X3104762Y-1241476D02*
X3114286Y-1222429D01*
X3114286Y-1222429D02*
X3114286Y-1174810D01*
X3114286Y-1174810D02*
X3104762Y-1155762D01*
X3104762Y-1155762D02*
X3095238Y-1146238D01*
X3095238Y-1146238D02*
X3076191Y-1136714D01*
X3076191Y-1136714D02*
X3038095Y-1136714D01*
X3038095Y-1136714D02*
X3019048Y-1146238D01*
X3019048Y-1146238D02*
X3009524Y-1155762D01*
X3009524Y-1155762D02*
X3000000Y-1174810D01*
X3190476Y-1060524D02*
X3190476Y-1098619D01*
X3266667Y-1060524D02*
X3266667Y-1098619D01*
X3561905Y-1336714D02*
X3552381Y-1327190D01*
X3552381Y-1327190D02*
X3533334Y-1298619D01*
X3533334Y-1298619D02*
X3523810Y-1279571D01*
X3523810Y-1279571D02*
X3514286Y-1251000D01*
X3514286Y-1251000D02*
X3504762Y-1203381D01*
X3504762Y-1203381D02*
X3504762Y-1165286D01*
X3504762Y-1165286D02*
X3514286Y-1117667D01*
X3514286Y-1117667D02*
X3523810Y-1089095D01*
X3523810Y-1089095D02*
X3533334Y-1070048D01*
X3533334Y-1070048D02*
X3552381Y-1041476D01*
X3552381Y-1041476D02*
X3561905Y-1031952D01*
X3676191Y-1060524D02*
X3695238Y-1060524D01*
X3695238Y-1060524D02*
X3714286Y-1070048D01*
X3714286Y-1070048D02*
X3723810Y-1079571D01*
X3723810Y-1079571D02*
X3733334Y-1098619D01*
X3733334Y-1098619D02*
X3742857Y-1136714D01*
X3742857Y-1136714D02*
X3742857Y-1184333D01*
X3742857Y-1184333D02*
X3733334Y-1222429D01*
X3733334Y-1222429D02*
X3723810Y-1241476D01*
X3723810Y-1241476D02*
X3714286Y-1251000D01*
X3714286Y-1251000D02*
X3695238Y-1260524D01*
X3695238Y-1260524D02*
X3676191Y-1260524D01*
X3676191Y-1260524D02*
X3657143Y-1251000D01*
X3657143Y-1251000D02*
X3647619Y-1241476D01*
X3647619Y-1241476D02*
X3638095Y-1222429D01*
X3638095Y-1222429D02*
X3628572Y-1184333D01*
X3628572Y-1184333D02*
X3628572Y-1136714D01*
X3628572Y-1136714D02*
X3638095Y-1098619D01*
X3638095Y-1098619D02*
X3647619Y-1079571D01*
X3647619Y-1079571D02*
X3657143Y-1070048D01*
X3657143Y-1070048D02*
X3676191Y-1060524D01*
X3980953Y-1260524D02*
X3980953Y-1060524D01*
X4066667Y-1260524D02*
X4066667Y-1155762D01*
X4066667Y-1155762D02*
X4057143Y-1136714D01*
X4057143Y-1136714D02*
X4038096Y-1127190D01*
X4038096Y-1127190D02*
X4009524Y-1127190D01*
X4009524Y-1127190D02*
X3990476Y-1136714D01*
X3990476Y-1136714D02*
X3980953Y-1146238D01*
X4190476Y-1260524D02*
X4171429Y-1251000D01*
X4171429Y-1251000D02*
X4161905Y-1241476D01*
X4161905Y-1241476D02*
X4152381Y-1222429D01*
X4152381Y-1222429D02*
X4152381Y-1165286D01*
X4152381Y-1165286D02*
X4161905Y-1146238D01*
X4161905Y-1146238D02*
X4171429Y-1136714D01*
X4171429Y-1136714D02*
X4190476Y-1127190D01*
X4190476Y-1127190D02*
X4219048Y-1127190D01*
X4219048Y-1127190D02*
X4238096Y-1136714D01*
X4238096Y-1136714D02*
X4247619Y-1146238D01*
X4247619Y-1146238D02*
X4257143Y-1165286D01*
X4257143Y-1165286D02*
X4257143Y-1222429D01*
X4257143Y-1222429D02*
X4247619Y-1241476D01*
X4247619Y-1241476D02*
X4238096Y-1251000D01*
X4238096Y-1251000D02*
X4219048Y-1260524D01*
X4219048Y-1260524D02*
X4190476Y-1260524D01*
X4371429Y-1260524D02*
X4352381Y-1251000D01*
X4352381Y-1251000D02*
X4342858Y-1231952D01*
X4342858Y-1231952D02*
X4342858Y-1060524D01*
X4523810Y-1251000D02*
X4504762Y-1260524D01*
X4504762Y-1260524D02*
X4466667Y-1260524D01*
X4466667Y-1260524D02*
X4447619Y-1251000D01*
X4447619Y-1251000D02*
X4438096Y-1231952D01*
X4438096Y-1231952D02*
X4438096Y-1155762D01*
X4438096Y-1155762D02*
X4447619Y-1136714D01*
X4447619Y-1136714D02*
X4466667Y-1127190D01*
X4466667Y-1127190D02*
X4504762Y-1127190D01*
X4504762Y-1127190D02*
X4523810Y-1136714D01*
X4523810Y-1136714D02*
X4533334Y-1155762D01*
X4533334Y-1155762D02*
X4533334Y-1174810D01*
X4533334Y-1174810D02*
X4438096Y-1193857D01*
X4609524Y-1251000D02*
X4628572Y-1260524D01*
X4628572Y-1260524D02*
X4666667Y-1260524D01*
X4666667Y-1260524D02*
X4685715Y-1251000D01*
X4685715Y-1251000D02*
X4695239Y-1231952D01*
X4695239Y-1231952D02*
X4695239Y-1222429D01*
X4695239Y-1222429D02*
X4685715Y-1203381D01*
X4685715Y-1203381D02*
X4666667Y-1193857D01*
X4666667Y-1193857D02*
X4638096Y-1193857D01*
X4638096Y-1193857D02*
X4619048Y-1184333D01*
X4619048Y-1184333D02*
X4609524Y-1165286D01*
X4609524Y-1165286D02*
X4609524Y-1155762D01*
X4609524Y-1155762D02*
X4619048Y-1136714D01*
X4619048Y-1136714D02*
X4638096Y-1127190D01*
X4638096Y-1127190D02*
X4666667Y-1127190D01*
X4666667Y-1127190D02*
X4685715Y-1136714D01*
X4933334Y-1184333D02*
X5085715Y-1184333D01*
X5009524Y-1260524D02*
X5009524Y-1108143D01*
X5419048Y-1127190D02*
X5419048Y-1260524D01*
X5371429Y-1051000D02*
X5323810Y-1193857D01*
X5323810Y-1193857D02*
X5447620Y-1193857D01*
X5666667Y-1251000D02*
X5685715Y-1260524D01*
X5685715Y-1260524D02*
X5723810Y-1260524D01*
X5723810Y-1260524D02*
X5742858Y-1251000D01*
X5742858Y-1251000D02*
X5752381Y-1231952D01*
X5752381Y-1231952D02*
X5752381Y-1222429D01*
X5752381Y-1222429D02*
X5742858Y-1203381D01*
X5742858Y-1203381D02*
X5723810Y-1193857D01*
X5723810Y-1193857D02*
X5695239Y-1193857D01*
X5695239Y-1193857D02*
X5676191Y-1184333D01*
X5676191Y-1184333D02*
X5666667Y-1165286D01*
X5666667Y-1165286D02*
X5666667Y-1155762D01*
X5666667Y-1155762D02*
X5676191Y-1136714D01*
X5676191Y-1136714D02*
X5695239Y-1127190D01*
X5695239Y-1127190D02*
X5723810Y-1127190D01*
X5723810Y-1127190D02*
X5742858Y-1136714D01*
X5866667Y-1260524D02*
X5847620Y-1251000D01*
X5847620Y-1251000D02*
X5838096Y-1231952D01*
X5838096Y-1231952D02*
X5838096Y-1060524D01*
X5971429Y-1260524D02*
X5952381Y-1251000D01*
X5952381Y-1251000D02*
X5942858Y-1241476D01*
X5942858Y-1241476D02*
X5933334Y-1222429D01*
X5933334Y-1222429D02*
X5933334Y-1165286D01*
X5933334Y-1165286D02*
X5942858Y-1146238D01*
X5942858Y-1146238D02*
X5952381Y-1136714D01*
X5952381Y-1136714D02*
X5971429Y-1127190D01*
X5971429Y-1127190D02*
X6000001Y-1127190D01*
X6000001Y-1127190D02*
X6019048Y-1136714D01*
X6019048Y-1136714D02*
X6028572Y-1146238D01*
X6028572Y-1146238D02*
X6038096Y-1165286D01*
X6038096Y-1165286D02*
X6038096Y-1222429D01*
X6038096Y-1222429D02*
X6028572Y-1241476D01*
X6028572Y-1241476D02*
X6019048Y-1251000D01*
X6019048Y-1251000D02*
X6000001Y-1260524D01*
X6000001Y-1260524D02*
X5971429Y-1260524D01*
X6095239Y-1127190D02*
X6171429Y-1127190D01*
X6123810Y-1060524D02*
X6123810Y-1231952D01*
X6123810Y-1231952D02*
X6133334Y-1251000D01*
X6133334Y-1251000D02*
X6152381Y-1260524D01*
X6152381Y-1260524D02*
X6171429Y-1260524D01*
X6228572Y-1251000D02*
X6247620Y-1260524D01*
X6247620Y-1260524D02*
X6285715Y-1260524D01*
X6285715Y-1260524D02*
X6304762Y-1251000D01*
X6304762Y-1251000D02*
X6314286Y-1231952D01*
X6314286Y-1231952D02*
X6314286Y-1222429D01*
X6314286Y-1222429D02*
X6304762Y-1203381D01*
X6304762Y-1203381D02*
X6285715Y-1193857D01*
X6285715Y-1193857D02*
X6257143Y-1193857D01*
X6257143Y-1193857D02*
X6238096Y-1184333D01*
X6238096Y-1184333D02*
X6228572Y-1165286D01*
X6228572Y-1165286D02*
X6228572Y-1155762D01*
X6228572Y-1155762D02*
X6238096Y-1136714D01*
X6238096Y-1136714D02*
X6257143Y-1127190D01*
X6257143Y-1127190D02*
X6285715Y-1127190D01*
X6285715Y-1127190D02*
X6304762Y-1136714D01*
X6380953Y-1336714D02*
X6390477Y-1327190D01*
X6390477Y-1327190D02*
X6409524Y-1298619D01*
X6409524Y-1298619D02*
X6419048Y-1279571D01*
X6419048Y-1279571D02*
X6428572Y-1251000D01*
X6428572Y-1251000D02*
X6438096Y-1203381D01*
X6438096Y-1203381D02*
X6438096Y-1165286D01*
X6438096Y-1165286D02*
X6428572Y-1117667D01*
X6428572Y-1117667D02*
X6419048Y-1089095D01*
X6419048Y-1089095D02*
X6409524Y-1070048D01*
X6409524Y-1070048D02*
X6390477Y-1041476D01*
X6390477Y-1041476D02*
X6380953Y-1031952D01*
D13*
X-11715Y-1460284D02*
X-11715Y-1403715D01*
X-68285Y-1403715D01*
X-68285Y-1460284D01*
X-11715Y-1460284D01*
D10*
X285714Y-1324524D02*
X304762Y-1324524D01*
X304762Y-1324524D02*
X323810Y-1334048D01*
X323810Y-1334048D02*
X333333Y-1343571D01*
X333333Y-1343571D02*
X342857Y-1362619D01*
X342857Y-1362619D02*
X352381Y-1400714D01*
X352381Y-1400714D02*
X352381Y-1448333D01*
X352381Y-1448333D02*
X342857Y-1486428D01*
X342857Y-1486428D02*
X333333Y-1505476D01*
X333333Y-1505476D02*
X323810Y-1515000D01*
X323810Y-1515000D02*
X304762Y-1524524D01*
X304762Y-1524524D02*
X285714Y-1524524D01*
X285714Y-1524524D02*
X266667Y-1515000D01*
X266667Y-1515000D02*
X257143Y-1505476D01*
X257143Y-1505476D02*
X247619Y-1486428D01*
X247619Y-1486428D02*
X238095Y-1448333D01*
X238095Y-1448333D02*
X238095Y-1400714D01*
X238095Y-1400714D02*
X247619Y-1362619D01*
X247619Y-1362619D02*
X257143Y-1343571D01*
X257143Y-1343571D02*
X266667Y-1334048D01*
X266667Y-1334048D02*
X285714Y-1324524D01*
X438095Y-1505476D02*
X447619Y-1515000D01*
X447619Y-1515000D02*
X438095Y-1524524D01*
X438095Y-1524524D02*
X428571Y-1515000D01*
X428571Y-1515000D02*
X438095Y-1505476D01*
X438095Y-1505476D02*
X438095Y-1524524D01*
X561905Y-1410238D02*
X542857Y-1400714D01*
X542857Y-1400714D02*
X533333Y-1391190D01*
X533333Y-1391190D02*
X523809Y-1372143D01*
X523809Y-1372143D02*
X523809Y-1362619D01*
X523809Y-1362619D02*
X533333Y-1343571D01*
X533333Y-1343571D02*
X542857Y-1334048D01*
X542857Y-1334048D02*
X561905Y-1324524D01*
X561905Y-1324524D02*
X600000Y-1324524D01*
X600000Y-1324524D02*
X619048Y-1334048D01*
X619048Y-1334048D02*
X628571Y-1343571D01*
X628571Y-1343571D02*
X638095Y-1362619D01*
X638095Y-1362619D02*
X638095Y-1372143D01*
X638095Y-1372143D02*
X628571Y-1391190D01*
X628571Y-1391190D02*
X619048Y-1400714D01*
X619048Y-1400714D02*
X600000Y-1410238D01*
X600000Y-1410238D02*
X561905Y-1410238D01*
X561905Y-1410238D02*
X542857Y-1419762D01*
X542857Y-1419762D02*
X533333Y-1429286D01*
X533333Y-1429286D02*
X523809Y-1448333D01*
X523809Y-1448333D02*
X523809Y-1486428D01*
X523809Y-1486428D02*
X533333Y-1505476D01*
X533333Y-1505476D02*
X542857Y-1515000D01*
X542857Y-1515000D02*
X561905Y-1524524D01*
X561905Y-1524524D02*
X600000Y-1524524D01*
X600000Y-1524524D02*
X619048Y-1515000D01*
X619048Y-1515000D02*
X628571Y-1505476D01*
X628571Y-1505476D02*
X638095Y-1486428D01*
X638095Y-1486428D02*
X638095Y-1448333D01*
X638095Y-1448333D02*
X628571Y-1429286D01*
X628571Y-1429286D02*
X619048Y-1419762D01*
X619048Y-1419762D02*
X600000Y-1410238D01*
X761905Y-1324524D02*
X780952Y-1324524D01*
X780952Y-1324524D02*
X800000Y-1334048D01*
X800000Y-1334048D02*
X809524Y-1343571D01*
X809524Y-1343571D02*
X819048Y-1362619D01*
X819048Y-1362619D02*
X828571Y-1400714D01*
X828571Y-1400714D02*
X828571Y-1448333D01*
X828571Y-1448333D02*
X819048Y-1486428D01*
X819048Y-1486428D02*
X809524Y-1505476D01*
X809524Y-1505476D02*
X800000Y-1515000D01*
X800000Y-1515000D02*
X780952Y-1524524D01*
X780952Y-1524524D02*
X761905Y-1524524D01*
X761905Y-1524524D02*
X742857Y-1515000D01*
X742857Y-1515000D02*
X733333Y-1505476D01*
X733333Y-1505476D02*
X723809Y-1486428D01*
X723809Y-1486428D02*
X714286Y-1448333D01*
X714286Y-1448333D02*
X714286Y-1400714D01*
X714286Y-1400714D02*
X723809Y-1362619D01*
X723809Y-1362619D02*
X733333Y-1343571D01*
X733333Y-1343571D02*
X742857Y-1334048D01*
X742857Y-1334048D02*
X761905Y-1324524D01*
X952381Y-1324524D02*
X971429Y-1324524D01*
X971429Y-1324524D02*
X990476Y-1334048D01*
X990476Y-1334048D02*
X1000000Y-1343571D01*
X1000000Y-1343571D02*
X1009524Y-1362619D01*
X1009524Y-1362619D02*
X1019048Y-1400714D01*
X1019048Y-1400714D02*
X1019048Y-1448333D01*
X1019048Y-1448333D02*
X1009524Y-1486428D01*
X1009524Y-1486428D02*
X1000000Y-1505476D01*
X1000000Y-1505476D02*
X990476Y-1515000D01*
X990476Y-1515000D02*
X971429Y-1524524D01*
X971429Y-1524524D02*
X952381Y-1524524D01*
X952381Y-1524524D02*
X933333Y-1515000D01*
X933333Y-1515000D02*
X923809Y-1505476D01*
X923809Y-1505476D02*
X914286Y-1486428D01*
X914286Y-1486428D02*
X904762Y-1448333D01*
X904762Y-1448333D02*
X904762Y-1400714D01*
X904762Y-1400714D02*
X914286Y-1362619D01*
X914286Y-1362619D02*
X923809Y-1343571D01*
X923809Y-1343571D02*
X933333Y-1334048D01*
X933333Y-1334048D02*
X952381Y-1324524D01*
X1104762Y-1524524D02*
X1104762Y-1391190D01*
X1104762Y-1410238D02*
X1114286Y-1400714D01*
X1114286Y-1400714D02*
X1133333Y-1391190D01*
X1133333Y-1391190D02*
X1161905Y-1391190D01*
X1161905Y-1391190D02*
X1180952Y-1400714D01*
X1180952Y-1400714D02*
X1190476Y-1419762D01*
X1190476Y-1419762D02*
X1190476Y-1524524D01*
X1190476Y-1419762D02*
X1200000Y-1400714D01*
X1200000Y-1400714D02*
X1219048Y-1391190D01*
X1219048Y-1391190D02*
X1247619Y-1391190D01*
X1247619Y-1391190D02*
X1266667Y-1400714D01*
X1266667Y-1400714D02*
X1276191Y-1419762D01*
X1276191Y-1419762D02*
X1276191Y-1524524D01*
X1371429Y-1524524D02*
X1371429Y-1391190D01*
X1371429Y-1410238D02*
X1380952Y-1400714D01*
X1380952Y-1400714D02*
X1400000Y-1391190D01*
X1400000Y-1391190D02*
X1428571Y-1391190D01*
X1428571Y-1391190D02*
X1447619Y-1400714D01*
X1447619Y-1400714D02*
X1457143Y-1419762D01*
X1457143Y-1419762D02*
X1457143Y-1524524D01*
X1457143Y-1419762D02*
X1466667Y-1400714D01*
X1466667Y-1400714D02*
X1485714Y-1391190D01*
X1485714Y-1391190D02*
X1514286Y-1391190D01*
X1514286Y-1391190D02*
X1533333Y-1400714D01*
X1533333Y-1400714D02*
X1542857Y-1419762D01*
X1542857Y-1419762D02*
X1542857Y-1524524D01*
X1933333Y-1315000D02*
X1761905Y-1572143D01*
X2190476Y-1324524D02*
X2209524Y-1324524D01*
X2209524Y-1324524D02*
X2228572Y-1334048D01*
X2228572Y-1334048D02*
X2238095Y-1343571D01*
X2238095Y-1343571D02*
X2247619Y-1362619D01*
X2247619Y-1362619D02*
X2257143Y-1400714D01*
X2257143Y-1400714D02*
X2257143Y-1448333D01*
X2257143Y-1448333D02*
X2247619Y-1486428D01*
X2247619Y-1486428D02*
X2238095Y-1505476D01*
X2238095Y-1505476D02*
X2228572Y-1515000D01*
X2228572Y-1515000D02*
X2209524Y-1524524D01*
X2209524Y-1524524D02*
X2190476Y-1524524D01*
X2190476Y-1524524D02*
X2171429Y-1515000D01*
X2171429Y-1515000D02*
X2161905Y-1505476D01*
X2161905Y-1505476D02*
X2152381Y-1486428D01*
X2152381Y-1486428D02*
X2142857Y-1448333D01*
X2142857Y-1448333D02*
X2142857Y-1400714D01*
X2142857Y-1400714D02*
X2152381Y-1362619D01*
X2152381Y-1362619D02*
X2161905Y-1343571D01*
X2161905Y-1343571D02*
X2171429Y-1334048D01*
X2171429Y-1334048D02*
X2190476Y-1324524D01*
X2342857Y-1505476D02*
X2352381Y-1515000D01*
X2352381Y-1515000D02*
X2342857Y-1524524D01*
X2342857Y-1524524D02*
X2333334Y-1515000D01*
X2333334Y-1515000D02*
X2342857Y-1505476D01*
X2342857Y-1505476D02*
X2342857Y-1524524D01*
X2476191Y-1324524D02*
X2495238Y-1324524D01*
X2495238Y-1324524D02*
X2514286Y-1334048D01*
X2514286Y-1334048D02*
X2523810Y-1343571D01*
X2523810Y-1343571D02*
X2533334Y-1362619D01*
X2533334Y-1362619D02*
X2542857Y-1400714D01*
X2542857Y-1400714D02*
X2542857Y-1448333D01*
X2542857Y-1448333D02*
X2533334Y-1486428D01*
X2533334Y-1486428D02*
X2523810Y-1505476D01*
X2523810Y-1505476D02*
X2514286Y-1515000D01*
X2514286Y-1515000D02*
X2495238Y-1524524D01*
X2495238Y-1524524D02*
X2476191Y-1524524D01*
X2476191Y-1524524D02*
X2457143Y-1515000D01*
X2457143Y-1515000D02*
X2447619Y-1505476D01*
X2447619Y-1505476D02*
X2438095Y-1486428D01*
X2438095Y-1486428D02*
X2428572Y-1448333D01*
X2428572Y-1448333D02*
X2428572Y-1400714D01*
X2428572Y-1400714D02*
X2438095Y-1362619D01*
X2438095Y-1362619D02*
X2447619Y-1343571D01*
X2447619Y-1343571D02*
X2457143Y-1334048D01*
X2457143Y-1334048D02*
X2476191Y-1324524D01*
X2609524Y-1324524D02*
X2733334Y-1324524D01*
X2733334Y-1324524D02*
X2666667Y-1400714D01*
X2666667Y-1400714D02*
X2695238Y-1400714D01*
X2695238Y-1400714D02*
X2714286Y-1410238D01*
X2714286Y-1410238D02*
X2723810Y-1419762D01*
X2723810Y-1419762D02*
X2733334Y-1438809D01*
X2733334Y-1438809D02*
X2733334Y-1486428D01*
X2733334Y-1486428D02*
X2723810Y-1505476D01*
X2723810Y-1505476D02*
X2714286Y-1515000D01*
X2714286Y-1515000D02*
X2695238Y-1524524D01*
X2695238Y-1524524D02*
X2638095Y-1524524D01*
X2638095Y-1524524D02*
X2619048Y-1515000D01*
X2619048Y-1515000D02*
X2609524Y-1505476D01*
X2923810Y-1524524D02*
X2809524Y-1524524D01*
X2866667Y-1524524D02*
X2866667Y-1324524D01*
X2866667Y-1324524D02*
X2847619Y-1353095D01*
X2847619Y-1353095D02*
X2828572Y-1372143D01*
X2828572Y-1372143D02*
X2809524Y-1381667D01*
X3104762Y-1324524D02*
X3009524Y-1324524D01*
X3009524Y-1324524D02*
X3000000Y-1419762D01*
X3000000Y-1419762D02*
X3009524Y-1410238D01*
X3009524Y-1410238D02*
X3028572Y-1400714D01*
X3028572Y-1400714D02*
X3076191Y-1400714D01*
X3076191Y-1400714D02*
X3095238Y-1410238D01*
X3095238Y-1410238D02*
X3104762Y-1419762D01*
X3104762Y-1419762D02*
X3114286Y-1438809D01*
X3114286Y-1438809D02*
X3114286Y-1486428D01*
X3114286Y-1486428D02*
X3104762Y-1505476D01*
X3104762Y-1505476D02*
X3095238Y-1515000D01*
X3095238Y-1515000D02*
X3076191Y-1524524D01*
X3076191Y-1524524D02*
X3028572Y-1524524D01*
X3028572Y-1524524D02*
X3009524Y-1515000D01*
X3009524Y-1515000D02*
X3000000Y-1505476D01*
X3190476Y-1324524D02*
X3190476Y-1362619D01*
X3266667Y-1324524D02*
X3266667Y-1362619D01*
X3561905Y-1600714D02*
X3552381Y-1591190D01*
X3552381Y-1591190D02*
X3533334Y-1562619D01*
X3533334Y-1562619D02*
X3523810Y-1543571D01*
X3523810Y-1543571D02*
X3514286Y-1515000D01*
X3514286Y-1515000D02*
X3504762Y-1467381D01*
X3504762Y-1467381D02*
X3504762Y-1429286D01*
X3504762Y-1429286D02*
X3514286Y-1381667D01*
X3514286Y-1381667D02*
X3523810Y-1353095D01*
X3523810Y-1353095D02*
X3533334Y-1334048D01*
X3533334Y-1334048D02*
X3552381Y-1305476D01*
X3552381Y-1305476D02*
X3561905Y-1295952D01*
X3628572Y-1343571D02*
X3638095Y-1334048D01*
X3638095Y-1334048D02*
X3657143Y-1324524D01*
X3657143Y-1324524D02*
X3704762Y-1324524D01*
X3704762Y-1324524D02*
X3723810Y-1334048D01*
X3723810Y-1334048D02*
X3733334Y-1343571D01*
X3733334Y-1343571D02*
X3742857Y-1362619D01*
X3742857Y-1362619D02*
X3742857Y-1381667D01*
X3742857Y-1381667D02*
X3733334Y-1410238D01*
X3733334Y-1410238D02*
X3619048Y-1524524D01*
X3619048Y-1524524D02*
X3742857Y-1524524D01*
X3980953Y-1524524D02*
X3980953Y-1324524D01*
X4066667Y-1524524D02*
X4066667Y-1419762D01*
X4066667Y-1419762D02*
X4057143Y-1400714D01*
X4057143Y-1400714D02*
X4038096Y-1391190D01*
X4038096Y-1391190D02*
X4009524Y-1391190D01*
X4009524Y-1391190D02*
X3990476Y-1400714D01*
X3990476Y-1400714D02*
X3980953Y-1410238D01*
X4190476Y-1524524D02*
X4171429Y-1515000D01*
X4171429Y-1515000D02*
X4161905Y-1505476D01*
X4161905Y-1505476D02*
X4152381Y-1486428D01*
X4152381Y-1486428D02*
X4152381Y-1429286D01*
X4152381Y-1429286D02*
X4161905Y-1410238D01*
X4161905Y-1410238D02*
X4171429Y-1400714D01*
X4171429Y-1400714D02*
X4190476Y-1391190D01*
X4190476Y-1391190D02*
X4219048Y-1391190D01*
X4219048Y-1391190D02*
X4238096Y-1400714D01*
X4238096Y-1400714D02*
X4247619Y-1410238D01*
X4247619Y-1410238D02*
X4257143Y-1429286D01*
X4257143Y-1429286D02*
X4257143Y-1486428D01*
X4257143Y-1486428D02*
X4247619Y-1505476D01*
X4247619Y-1505476D02*
X4238096Y-1515000D01*
X4238096Y-1515000D02*
X4219048Y-1524524D01*
X4219048Y-1524524D02*
X4190476Y-1524524D01*
X4371429Y-1524524D02*
X4352381Y-1515000D01*
X4352381Y-1515000D02*
X4342858Y-1495952D01*
X4342858Y-1495952D02*
X4342858Y-1324524D01*
X4523810Y-1515000D02*
X4504762Y-1524524D01*
X4504762Y-1524524D02*
X4466667Y-1524524D01*
X4466667Y-1524524D02*
X4447619Y-1515000D01*
X4447619Y-1515000D02*
X4438096Y-1495952D01*
X4438096Y-1495952D02*
X4438096Y-1419762D01*
X4438096Y-1419762D02*
X4447619Y-1400714D01*
X4447619Y-1400714D02*
X4466667Y-1391190D01*
X4466667Y-1391190D02*
X4504762Y-1391190D01*
X4504762Y-1391190D02*
X4523810Y-1400714D01*
X4523810Y-1400714D02*
X4533334Y-1419762D01*
X4533334Y-1419762D02*
X4533334Y-1438809D01*
X4533334Y-1438809D02*
X4438096Y-1457857D01*
X4609524Y-1515000D02*
X4628572Y-1524524D01*
X4628572Y-1524524D02*
X4666667Y-1524524D01*
X4666667Y-1524524D02*
X4685715Y-1515000D01*
X4685715Y-1515000D02*
X4695239Y-1495952D01*
X4695239Y-1495952D02*
X4695239Y-1486428D01*
X4695239Y-1486428D02*
X4685715Y-1467381D01*
X4685715Y-1467381D02*
X4666667Y-1457857D01*
X4666667Y-1457857D02*
X4638096Y-1457857D01*
X4638096Y-1457857D02*
X4619048Y-1448333D01*
X4619048Y-1448333D02*
X4609524Y-1429286D01*
X4609524Y-1429286D02*
X4609524Y-1419762D01*
X4609524Y-1419762D02*
X4619048Y-1400714D01*
X4619048Y-1400714D02*
X4638096Y-1391190D01*
X4638096Y-1391190D02*
X4666667Y-1391190D01*
X4666667Y-1391190D02*
X4685715Y-1400714D01*
X4761905Y-1600714D02*
X4771429Y-1591190D01*
X4771429Y-1591190D02*
X4790477Y-1562619D01*
X4790477Y-1562619D02*
X4800000Y-1543571D01*
X4800000Y-1543571D02*
X4809524Y-1515000D01*
X4809524Y-1515000D02*
X4819048Y-1467381D01*
X4819048Y-1467381D02*
X4819048Y-1429286D01*
X4819048Y-1429286D02*
X4809524Y-1381667D01*
X4809524Y-1381667D02*
X4800000Y-1353095D01*
X4800000Y-1353095D02*
X4790477Y-1334048D01*
X4790477Y-1334048D02*
X4771429Y-1305476D01*
X4771429Y-1305476D02*
X4761905Y-1295952D01*
D14*
X-45000Y-1741000D02*
X0Y-1696000D01*
X-45000Y-1651000D01*
X-90000Y-1696000D01*
X-45000Y-1741000D01*
D10*
X285714Y-1588524D02*
X304762Y-1588524D01*
X304762Y-1588524D02*
X323810Y-1598048D01*
X323810Y-1598048D02*
X333333Y-1607571D01*
X333333Y-1607571D02*
X342857Y-1626619D01*
X342857Y-1626619D02*
X352381Y-1664714D01*
X352381Y-1664714D02*
X352381Y-1712333D01*
X352381Y-1712333D02*
X342857Y-1750428D01*
X342857Y-1750428D02*
X333333Y-1769476D01*
X333333Y-1769476D02*
X323810Y-1779000D01*
X323810Y-1779000D02*
X304762Y-1788524D01*
X304762Y-1788524D02*
X285714Y-1788524D01*
X285714Y-1788524D02*
X266667Y-1779000D01*
X266667Y-1779000D02*
X257143Y-1769476D01*
X257143Y-1769476D02*
X247619Y-1750428D01*
X247619Y-1750428D02*
X238095Y-1712333D01*
X238095Y-1712333D02*
X238095Y-1664714D01*
X238095Y-1664714D02*
X247619Y-1626619D01*
X247619Y-1626619D02*
X257143Y-1607571D01*
X257143Y-1607571D02*
X266667Y-1598048D01*
X266667Y-1598048D02*
X285714Y-1588524D01*
X438095Y-1769476D02*
X447619Y-1779000D01*
X447619Y-1779000D02*
X438095Y-1788524D01*
X438095Y-1788524D02*
X428571Y-1779000D01*
X428571Y-1779000D02*
X438095Y-1769476D01*
X438095Y-1769476D02*
X438095Y-1788524D01*
X542857Y-1788524D02*
X580952Y-1788524D01*
X580952Y-1788524D02*
X600000Y-1779000D01*
X600000Y-1779000D02*
X609524Y-1769476D01*
X609524Y-1769476D02*
X628571Y-1740905D01*
X628571Y-1740905D02*
X638095Y-1702809D01*
X638095Y-1702809D02*
X638095Y-1626619D01*
X638095Y-1626619D02*
X628571Y-1607571D01*
X628571Y-1607571D02*
X619048Y-1598048D01*
X619048Y-1598048D02*
X600000Y-1588524D01*
X600000Y-1588524D02*
X561905Y-1588524D01*
X561905Y-1588524D02*
X542857Y-1598048D01*
X542857Y-1598048D02*
X533333Y-1607571D01*
X533333Y-1607571D02*
X523809Y-1626619D01*
X523809Y-1626619D02*
X523809Y-1674238D01*
X523809Y-1674238D02*
X533333Y-1693286D01*
X533333Y-1693286D02*
X542857Y-1702809D01*
X542857Y-1702809D02*
X561905Y-1712333D01*
X561905Y-1712333D02*
X600000Y-1712333D01*
X600000Y-1712333D02*
X619048Y-1702809D01*
X619048Y-1702809D02*
X628571Y-1693286D01*
X628571Y-1693286D02*
X638095Y-1674238D01*
X761905Y-1588524D02*
X780952Y-1588524D01*
X780952Y-1588524D02*
X800000Y-1598048D01*
X800000Y-1598048D02*
X809524Y-1607571D01*
X809524Y-1607571D02*
X819048Y-1626619D01*
X819048Y-1626619D02*
X828571Y-1664714D01*
X828571Y-1664714D02*
X828571Y-1712333D01*
X828571Y-1712333D02*
X819048Y-1750428D01*
X819048Y-1750428D02*
X809524Y-1769476D01*
X809524Y-1769476D02*
X800000Y-1779000D01*
X800000Y-1779000D02*
X780952Y-1788524D01*
X780952Y-1788524D02*
X761905Y-1788524D01*
X761905Y-1788524D02*
X742857Y-1779000D01*
X742857Y-1779000D02*
X733333Y-1769476D01*
X733333Y-1769476D02*
X723809Y-1750428D01*
X723809Y-1750428D02*
X714286Y-1712333D01*
X714286Y-1712333D02*
X714286Y-1664714D01*
X714286Y-1664714D02*
X723809Y-1626619D01*
X723809Y-1626619D02*
X733333Y-1607571D01*
X733333Y-1607571D02*
X742857Y-1598048D01*
X742857Y-1598048D02*
X761905Y-1588524D01*
X952381Y-1588524D02*
X971429Y-1588524D01*
X971429Y-1588524D02*
X990476Y-1598048D01*
X990476Y-1598048D02*
X1000000Y-1607571D01*
X1000000Y-1607571D02*
X1009524Y-1626619D01*
X1009524Y-1626619D02*
X1019048Y-1664714D01*
X1019048Y-1664714D02*
X1019048Y-1712333D01*
X1019048Y-1712333D02*
X1009524Y-1750428D01*
X1009524Y-1750428D02*
X1000000Y-1769476D01*
X1000000Y-1769476D02*
X990476Y-1779000D01*
X990476Y-1779000D02*
X971429Y-1788524D01*
X971429Y-1788524D02*
X952381Y-1788524D01*
X952381Y-1788524D02*
X933333Y-1779000D01*
X933333Y-1779000D02*
X923809Y-1769476D01*
X923809Y-1769476D02*
X914286Y-1750428D01*
X914286Y-1750428D02*
X904762Y-1712333D01*
X904762Y-1712333D02*
X904762Y-1664714D01*
X904762Y-1664714D02*
X914286Y-1626619D01*
X914286Y-1626619D02*
X923809Y-1607571D01*
X923809Y-1607571D02*
X933333Y-1598048D01*
X933333Y-1598048D02*
X952381Y-1588524D01*
X1104762Y-1788524D02*
X1104762Y-1655190D01*
X1104762Y-1674238D02*
X1114286Y-1664714D01*
X1114286Y-1664714D02*
X1133333Y-1655190D01*
X1133333Y-1655190D02*
X1161905Y-1655190D01*
X1161905Y-1655190D02*
X1180952Y-1664714D01*
X1180952Y-1664714D02*
X1190476Y-1683762D01*
X1190476Y-1683762D02*
X1190476Y-1788524D01*
X1190476Y-1683762D02*
X1200000Y-1664714D01*
X1200000Y-1664714D02*
X1219048Y-1655190D01*
X1219048Y-1655190D02*
X1247619Y-1655190D01*
X1247619Y-1655190D02*
X1266667Y-1664714D01*
X1266667Y-1664714D02*
X1276191Y-1683762D01*
X1276191Y-1683762D02*
X1276191Y-1788524D01*
X1371429Y-1788524D02*
X1371429Y-1655190D01*
X1371429Y-1674238D02*
X1380952Y-1664714D01*
X1380952Y-1664714D02*
X1400000Y-1655190D01*
X1400000Y-1655190D02*
X1428571Y-1655190D01*
X1428571Y-1655190D02*
X1447619Y-1664714D01*
X1447619Y-1664714D02*
X1457143Y-1683762D01*
X1457143Y-1683762D02*
X1457143Y-1788524D01*
X1457143Y-1683762D02*
X1466667Y-1664714D01*
X1466667Y-1664714D02*
X1485714Y-1655190D01*
X1485714Y-1655190D02*
X1514286Y-1655190D01*
X1514286Y-1655190D02*
X1533333Y-1664714D01*
X1533333Y-1664714D02*
X1542857Y-1683762D01*
X1542857Y-1683762D02*
X1542857Y-1788524D01*
X1933333Y-1579000D02*
X1761905Y-1836143D01*
X2190476Y-1588524D02*
X2209524Y-1588524D01*
X2209524Y-1588524D02*
X2228572Y-1598048D01*
X2228572Y-1598048D02*
X2238095Y-1607571D01*
X2238095Y-1607571D02*
X2247619Y-1626619D01*
X2247619Y-1626619D02*
X2257143Y-1664714D01*
X2257143Y-1664714D02*
X2257143Y-1712333D01*
X2257143Y-1712333D02*
X2247619Y-1750428D01*
X2247619Y-1750428D02*
X2238095Y-1769476D01*
X2238095Y-1769476D02*
X2228572Y-1779000D01*
X2228572Y-1779000D02*
X2209524Y-1788524D01*
X2209524Y-1788524D02*
X2190476Y-1788524D01*
X2190476Y-1788524D02*
X2171429Y-1779000D01*
X2171429Y-1779000D02*
X2161905Y-1769476D01*
X2161905Y-1769476D02*
X2152381Y-1750428D01*
X2152381Y-1750428D02*
X2142857Y-1712333D01*
X2142857Y-1712333D02*
X2142857Y-1664714D01*
X2142857Y-1664714D02*
X2152381Y-1626619D01*
X2152381Y-1626619D02*
X2161905Y-1607571D01*
X2161905Y-1607571D02*
X2171429Y-1598048D01*
X2171429Y-1598048D02*
X2190476Y-1588524D01*
X2342857Y-1769476D02*
X2352381Y-1779000D01*
X2352381Y-1779000D02*
X2342857Y-1788524D01*
X2342857Y-1788524D02*
X2333334Y-1779000D01*
X2333334Y-1779000D02*
X2342857Y-1769476D01*
X2342857Y-1769476D02*
X2342857Y-1788524D01*
X2476191Y-1588524D02*
X2495238Y-1588524D01*
X2495238Y-1588524D02*
X2514286Y-1598048D01*
X2514286Y-1598048D02*
X2523810Y-1607571D01*
X2523810Y-1607571D02*
X2533334Y-1626619D01*
X2533334Y-1626619D02*
X2542857Y-1664714D01*
X2542857Y-1664714D02*
X2542857Y-1712333D01*
X2542857Y-1712333D02*
X2533334Y-1750428D01*
X2533334Y-1750428D02*
X2523810Y-1769476D01*
X2523810Y-1769476D02*
X2514286Y-1779000D01*
X2514286Y-1779000D02*
X2495238Y-1788524D01*
X2495238Y-1788524D02*
X2476191Y-1788524D01*
X2476191Y-1788524D02*
X2457143Y-1779000D01*
X2457143Y-1779000D02*
X2447619Y-1769476D01*
X2447619Y-1769476D02*
X2438095Y-1750428D01*
X2438095Y-1750428D02*
X2428572Y-1712333D01*
X2428572Y-1712333D02*
X2428572Y-1664714D01*
X2428572Y-1664714D02*
X2438095Y-1626619D01*
X2438095Y-1626619D02*
X2447619Y-1607571D01*
X2447619Y-1607571D02*
X2457143Y-1598048D01*
X2457143Y-1598048D02*
X2476191Y-1588524D01*
X2609524Y-1588524D02*
X2733334Y-1588524D01*
X2733334Y-1588524D02*
X2666667Y-1664714D01*
X2666667Y-1664714D02*
X2695238Y-1664714D01*
X2695238Y-1664714D02*
X2714286Y-1674238D01*
X2714286Y-1674238D02*
X2723810Y-1683762D01*
X2723810Y-1683762D02*
X2733334Y-1702809D01*
X2733334Y-1702809D02*
X2733334Y-1750428D01*
X2733334Y-1750428D02*
X2723810Y-1769476D01*
X2723810Y-1769476D02*
X2714286Y-1779000D01*
X2714286Y-1779000D02*
X2695238Y-1788524D01*
X2695238Y-1788524D02*
X2638095Y-1788524D01*
X2638095Y-1788524D02*
X2619048Y-1779000D01*
X2619048Y-1779000D02*
X2609524Y-1769476D01*
X2914286Y-1588524D02*
X2819048Y-1588524D01*
X2819048Y-1588524D02*
X2809524Y-1683762D01*
X2809524Y-1683762D02*
X2819048Y-1674238D01*
X2819048Y-1674238D02*
X2838095Y-1664714D01*
X2838095Y-1664714D02*
X2885714Y-1664714D01*
X2885714Y-1664714D02*
X2904762Y-1674238D01*
X2904762Y-1674238D02*
X2914286Y-1683762D01*
X2914286Y-1683762D02*
X2923810Y-1702809D01*
X2923810Y-1702809D02*
X2923810Y-1750428D01*
X2923810Y-1750428D02*
X2914286Y-1769476D01*
X2914286Y-1769476D02*
X2904762Y-1779000D01*
X2904762Y-1779000D02*
X2885714Y-1788524D01*
X2885714Y-1788524D02*
X2838095Y-1788524D01*
X2838095Y-1788524D02*
X2819048Y-1779000D01*
X2819048Y-1779000D02*
X2809524Y-1769476D01*
X3095238Y-1655190D02*
X3095238Y-1788524D01*
X3047619Y-1579000D02*
X3000000Y-1721857D01*
X3000000Y-1721857D02*
X3123810Y-1721857D01*
X3190476Y-1588524D02*
X3190476Y-1626619D01*
X3266667Y-1588524D02*
X3266667Y-1626619D01*
X3561905Y-1864714D02*
X3552381Y-1855190D01*
X3552381Y-1855190D02*
X3533334Y-1826619D01*
X3533334Y-1826619D02*
X3523810Y-1807571D01*
X3523810Y-1807571D02*
X3514286Y-1779000D01*
X3514286Y-1779000D02*
X3504762Y-1731381D01*
X3504762Y-1731381D02*
X3504762Y-1693286D01*
X3504762Y-1693286D02*
X3514286Y-1645667D01*
X3514286Y-1645667D02*
X3523810Y-1617095D01*
X3523810Y-1617095D02*
X3533334Y-1598048D01*
X3533334Y-1598048D02*
X3552381Y-1569476D01*
X3552381Y-1569476D02*
X3561905Y-1559952D01*
X3628572Y-1607571D02*
X3638095Y-1598048D01*
X3638095Y-1598048D02*
X3657143Y-1588524D01*
X3657143Y-1588524D02*
X3704762Y-1588524D01*
X3704762Y-1588524D02*
X3723810Y-1598048D01*
X3723810Y-1598048D02*
X3733334Y-1607571D01*
X3733334Y-1607571D02*
X3742857Y-1626619D01*
X3742857Y-1626619D02*
X3742857Y-1645667D01*
X3742857Y-1645667D02*
X3733334Y-1674238D01*
X3733334Y-1674238D02*
X3619048Y-1788524D01*
X3619048Y-1788524D02*
X3742857Y-1788524D01*
X3980953Y-1788524D02*
X3980953Y-1588524D01*
X4066667Y-1788524D02*
X4066667Y-1683762D01*
X4066667Y-1683762D02*
X4057143Y-1664714D01*
X4057143Y-1664714D02*
X4038096Y-1655190D01*
X4038096Y-1655190D02*
X4009524Y-1655190D01*
X4009524Y-1655190D02*
X3990476Y-1664714D01*
X3990476Y-1664714D02*
X3980953Y-1674238D01*
X4190476Y-1788524D02*
X4171429Y-1779000D01*
X4171429Y-1779000D02*
X4161905Y-1769476D01*
X4161905Y-1769476D02*
X4152381Y-1750428D01*
X4152381Y-1750428D02*
X4152381Y-1693286D01*
X4152381Y-1693286D02*
X4161905Y-1674238D01*
X4161905Y-1674238D02*
X4171429Y-1664714D01*
X4171429Y-1664714D02*
X4190476Y-1655190D01*
X4190476Y-1655190D02*
X4219048Y-1655190D01*
X4219048Y-1655190D02*
X4238096Y-1664714D01*
X4238096Y-1664714D02*
X4247619Y-1674238D01*
X4247619Y-1674238D02*
X4257143Y-1693286D01*
X4257143Y-1693286D02*
X4257143Y-1750428D01*
X4257143Y-1750428D02*
X4247619Y-1769476D01*
X4247619Y-1769476D02*
X4238096Y-1779000D01*
X4238096Y-1779000D02*
X4219048Y-1788524D01*
X4219048Y-1788524D02*
X4190476Y-1788524D01*
X4371429Y-1788524D02*
X4352381Y-1779000D01*
X4352381Y-1779000D02*
X4342858Y-1759952D01*
X4342858Y-1759952D02*
X4342858Y-1588524D01*
X4523810Y-1779000D02*
X4504762Y-1788524D01*
X4504762Y-1788524D02*
X4466667Y-1788524D01*
X4466667Y-1788524D02*
X4447619Y-1779000D01*
X4447619Y-1779000D02*
X4438096Y-1759952D01*
X4438096Y-1759952D02*
X4438096Y-1683762D01*
X4438096Y-1683762D02*
X4447619Y-1664714D01*
X4447619Y-1664714D02*
X4466667Y-1655190D01*
X4466667Y-1655190D02*
X4504762Y-1655190D01*
X4504762Y-1655190D02*
X4523810Y-1664714D01*
X4523810Y-1664714D02*
X4533334Y-1683762D01*
X4533334Y-1683762D02*
X4533334Y-1702809D01*
X4533334Y-1702809D02*
X4438096Y-1721857D01*
X4609524Y-1779000D02*
X4628572Y-1788524D01*
X4628572Y-1788524D02*
X4666667Y-1788524D01*
X4666667Y-1788524D02*
X4685715Y-1779000D01*
X4685715Y-1779000D02*
X4695239Y-1759952D01*
X4695239Y-1759952D02*
X4695239Y-1750428D01*
X4695239Y-1750428D02*
X4685715Y-1731381D01*
X4685715Y-1731381D02*
X4666667Y-1721857D01*
X4666667Y-1721857D02*
X4638096Y-1721857D01*
X4638096Y-1721857D02*
X4619048Y-1712333D01*
X4619048Y-1712333D02*
X4609524Y-1693286D01*
X4609524Y-1693286D02*
X4609524Y-1683762D01*
X4609524Y-1683762D02*
X4619048Y-1664714D01*
X4619048Y-1664714D02*
X4638096Y-1655190D01*
X4638096Y-1655190D02*
X4666667Y-1655190D01*
X4666667Y-1655190D02*
X4685715Y-1664714D01*
X4761905Y-1864714D02*
X4771429Y-1855190D01*
X4771429Y-1855190D02*
X4790477Y-1826619D01*
X4790477Y-1826619D02*
X4800000Y-1807571D01*
X4800000Y-1807571D02*
X4809524Y-1779000D01*
X4809524Y-1779000D02*
X4819048Y-1731381D01*
X4819048Y-1731381D02*
X4819048Y-1693286D01*
X4819048Y-1693286D02*
X4809524Y-1645667D01*
X4809524Y-1645667D02*
X4800000Y-1617095D01*
X4800000Y-1617095D02*
X4790477Y-1598048D01*
X4790477Y-1598048D02*
X4771429Y-1569476D01*
X4771429Y-1569476D02*
X4761905Y-1559952D01*
D15*
X-100000Y-1910000D02*
X0Y-2010000D01*
X0Y-1910000D02*
X-100000Y-2010000D01*
X0Y-1960000D02*
G75*
G03*
X0Y-1960000I-50000J0D01*
G01*
D10*
X352381Y-2052524D02*
X238095Y-2052524D01*
X295238Y-2052524D02*
X295238Y-1852524D01*
X295238Y-1852524D02*
X276190Y-1881095D01*
X276190Y-1881095D02*
X257143Y-1900143D01*
X257143Y-1900143D02*
X238095Y-1909667D01*
X438095Y-2033476D02*
X447619Y-2043000D01*
X447619Y-2043000D02*
X438095Y-2052524D01*
X438095Y-2052524D02*
X428571Y-2043000D01*
X428571Y-2043000D02*
X438095Y-2033476D01*
X438095Y-2033476D02*
X438095Y-2052524D01*
X571429Y-1852524D02*
X590476Y-1852524D01*
X590476Y-1852524D02*
X609524Y-1862048D01*
X609524Y-1862048D02*
X619048Y-1871571D01*
X619048Y-1871571D02*
X628571Y-1890619D01*
X628571Y-1890619D02*
X638095Y-1928714D01*
X638095Y-1928714D02*
X638095Y-1976333D01*
X638095Y-1976333D02*
X628571Y-2014428D01*
X628571Y-2014428D02*
X619048Y-2033476D01*
X619048Y-2033476D02*
X609524Y-2043000D01*
X609524Y-2043000D02*
X590476Y-2052524D01*
X590476Y-2052524D02*
X571429Y-2052524D01*
X571429Y-2052524D02*
X552381Y-2043000D01*
X552381Y-2043000D02*
X542857Y-2033476D01*
X542857Y-2033476D02*
X533333Y-2014428D01*
X533333Y-2014428D02*
X523809Y-1976333D01*
X523809Y-1976333D02*
X523809Y-1928714D01*
X523809Y-1928714D02*
X533333Y-1890619D01*
X533333Y-1890619D02*
X542857Y-1871571D01*
X542857Y-1871571D02*
X552381Y-1862048D01*
X552381Y-1862048D02*
X571429Y-1852524D01*
X761905Y-1852524D02*
X780952Y-1852524D01*
X780952Y-1852524D02*
X800000Y-1862048D01*
X800000Y-1862048D02*
X809524Y-1871571D01*
X809524Y-1871571D02*
X819048Y-1890619D01*
X819048Y-1890619D02*
X828571Y-1928714D01*
X828571Y-1928714D02*
X828571Y-1976333D01*
X828571Y-1976333D02*
X819048Y-2014428D01*
X819048Y-2014428D02*
X809524Y-2033476D01*
X809524Y-2033476D02*
X800000Y-2043000D01*
X800000Y-2043000D02*
X780952Y-2052524D01*
X780952Y-2052524D02*
X761905Y-2052524D01*
X761905Y-2052524D02*
X742857Y-2043000D01*
X742857Y-2043000D02*
X733333Y-2033476D01*
X733333Y-2033476D02*
X723809Y-2014428D01*
X723809Y-2014428D02*
X714286Y-1976333D01*
X714286Y-1976333D02*
X714286Y-1928714D01*
X714286Y-1928714D02*
X723809Y-1890619D01*
X723809Y-1890619D02*
X733333Y-1871571D01*
X733333Y-1871571D02*
X742857Y-1862048D01*
X742857Y-1862048D02*
X761905Y-1852524D01*
X952381Y-1852524D02*
X971429Y-1852524D01*
X971429Y-1852524D02*
X990476Y-1862048D01*
X990476Y-1862048D02*
X1000000Y-1871571D01*
X1000000Y-1871571D02*
X1009524Y-1890619D01*
X1009524Y-1890619D02*
X1019048Y-1928714D01*
X1019048Y-1928714D02*
X1019048Y-1976333D01*
X1019048Y-1976333D02*
X1009524Y-2014428D01*
X1009524Y-2014428D02*
X1000000Y-2033476D01*
X1000000Y-2033476D02*
X990476Y-2043000D01*
X990476Y-2043000D02*
X971429Y-2052524D01*
X971429Y-2052524D02*
X952381Y-2052524D01*
X952381Y-2052524D02*
X933333Y-2043000D01*
X933333Y-2043000D02*
X923809Y-2033476D01*
X923809Y-2033476D02*
X914286Y-2014428D01*
X914286Y-2014428D02*
X904762Y-1976333D01*
X904762Y-1976333D02*
X904762Y-1928714D01*
X904762Y-1928714D02*
X914286Y-1890619D01*
X914286Y-1890619D02*
X923809Y-1871571D01*
X923809Y-1871571D02*
X933333Y-1862048D01*
X933333Y-1862048D02*
X952381Y-1852524D01*
X1104762Y-2052524D02*
X1104762Y-1919190D01*
X1104762Y-1938238D02*
X1114286Y-1928714D01*
X1114286Y-1928714D02*
X1133333Y-1919190D01*
X1133333Y-1919190D02*
X1161905Y-1919190D01*
X1161905Y-1919190D02*
X1180952Y-1928714D01*
X1180952Y-1928714D02*
X1190476Y-1947762D01*
X1190476Y-1947762D02*
X1190476Y-2052524D01*
X1190476Y-1947762D02*
X1200000Y-1928714D01*
X1200000Y-1928714D02*
X1219048Y-1919190D01*
X1219048Y-1919190D02*
X1247619Y-1919190D01*
X1247619Y-1919190D02*
X1266667Y-1928714D01*
X1266667Y-1928714D02*
X1276191Y-1947762D01*
X1276191Y-1947762D02*
X1276191Y-2052524D01*
X1371429Y-2052524D02*
X1371429Y-1919190D01*
X1371429Y-1938238D02*
X1380952Y-1928714D01*
X1380952Y-1928714D02*
X1400000Y-1919190D01*
X1400000Y-1919190D02*
X1428571Y-1919190D01*
X1428571Y-1919190D02*
X1447619Y-1928714D01*
X1447619Y-1928714D02*
X1457143Y-1947762D01*
X1457143Y-1947762D02*
X1457143Y-2052524D01*
X1457143Y-1947762D02*
X1466667Y-1928714D01*
X1466667Y-1928714D02*
X1485714Y-1919190D01*
X1485714Y-1919190D02*
X1514286Y-1919190D01*
X1514286Y-1919190D02*
X1533333Y-1928714D01*
X1533333Y-1928714D02*
X1542857Y-1947762D01*
X1542857Y-1947762D02*
X1542857Y-2052524D01*
X1933333Y-1843000D02*
X1761905Y-2100143D01*
X2190476Y-1852524D02*
X2209524Y-1852524D01*
X2209524Y-1852524D02*
X2228572Y-1862048D01*
X2228572Y-1862048D02*
X2238095Y-1871571D01*
X2238095Y-1871571D02*
X2247619Y-1890619D01*
X2247619Y-1890619D02*
X2257143Y-1928714D01*
X2257143Y-1928714D02*
X2257143Y-1976333D01*
X2257143Y-1976333D02*
X2247619Y-2014428D01*
X2247619Y-2014428D02*
X2238095Y-2033476D01*
X2238095Y-2033476D02*
X2228572Y-2043000D01*
X2228572Y-2043000D02*
X2209524Y-2052524D01*
X2209524Y-2052524D02*
X2190476Y-2052524D01*
X2190476Y-2052524D02*
X2171429Y-2043000D01*
X2171429Y-2043000D02*
X2161905Y-2033476D01*
X2161905Y-2033476D02*
X2152381Y-2014428D01*
X2152381Y-2014428D02*
X2142857Y-1976333D01*
X2142857Y-1976333D02*
X2142857Y-1928714D01*
X2142857Y-1928714D02*
X2152381Y-1890619D01*
X2152381Y-1890619D02*
X2161905Y-1871571D01*
X2161905Y-1871571D02*
X2171429Y-1862048D01*
X2171429Y-1862048D02*
X2190476Y-1852524D01*
X2342857Y-2033476D02*
X2352381Y-2043000D01*
X2352381Y-2043000D02*
X2342857Y-2052524D01*
X2342857Y-2052524D02*
X2333334Y-2043000D01*
X2333334Y-2043000D02*
X2342857Y-2033476D01*
X2342857Y-2033476D02*
X2342857Y-2052524D01*
X2476191Y-1852524D02*
X2495238Y-1852524D01*
X2495238Y-1852524D02*
X2514286Y-1862048D01*
X2514286Y-1862048D02*
X2523810Y-1871571D01*
X2523810Y-1871571D02*
X2533334Y-1890619D01*
X2533334Y-1890619D02*
X2542857Y-1928714D01*
X2542857Y-1928714D02*
X2542857Y-1976333D01*
X2542857Y-1976333D02*
X2533334Y-2014428D01*
X2533334Y-2014428D02*
X2523810Y-2033476D01*
X2523810Y-2033476D02*
X2514286Y-2043000D01*
X2514286Y-2043000D02*
X2495238Y-2052524D01*
X2495238Y-2052524D02*
X2476191Y-2052524D01*
X2476191Y-2052524D02*
X2457143Y-2043000D01*
X2457143Y-2043000D02*
X2447619Y-2033476D01*
X2447619Y-2033476D02*
X2438095Y-2014428D01*
X2438095Y-2014428D02*
X2428572Y-1976333D01*
X2428572Y-1976333D02*
X2428572Y-1928714D01*
X2428572Y-1928714D02*
X2438095Y-1890619D01*
X2438095Y-1890619D02*
X2447619Y-1871571D01*
X2447619Y-1871571D02*
X2457143Y-1862048D01*
X2457143Y-1862048D02*
X2476191Y-1852524D01*
X2609524Y-1852524D02*
X2733334Y-1852524D01*
X2733334Y-1852524D02*
X2666667Y-1928714D01*
X2666667Y-1928714D02*
X2695238Y-1928714D01*
X2695238Y-1928714D02*
X2714286Y-1938238D01*
X2714286Y-1938238D02*
X2723810Y-1947762D01*
X2723810Y-1947762D02*
X2733334Y-1966809D01*
X2733334Y-1966809D02*
X2733334Y-2014428D01*
X2733334Y-2014428D02*
X2723810Y-2033476D01*
X2723810Y-2033476D02*
X2714286Y-2043000D01*
X2714286Y-2043000D02*
X2695238Y-2052524D01*
X2695238Y-2052524D02*
X2638095Y-2052524D01*
X2638095Y-2052524D02*
X2619048Y-2043000D01*
X2619048Y-2043000D02*
X2609524Y-2033476D01*
X2828572Y-2052524D02*
X2866667Y-2052524D01*
X2866667Y-2052524D02*
X2885714Y-2043000D01*
X2885714Y-2043000D02*
X2895238Y-2033476D01*
X2895238Y-2033476D02*
X2914286Y-2004905D01*
X2914286Y-2004905D02*
X2923810Y-1966809D01*
X2923810Y-1966809D02*
X2923810Y-1890619D01*
X2923810Y-1890619D02*
X2914286Y-1871571D01*
X2914286Y-1871571D02*
X2904762Y-1862048D01*
X2904762Y-1862048D02*
X2885714Y-1852524D01*
X2885714Y-1852524D02*
X2847619Y-1852524D01*
X2847619Y-1852524D02*
X2828572Y-1862048D01*
X2828572Y-1862048D02*
X2819048Y-1871571D01*
X2819048Y-1871571D02*
X2809524Y-1890619D01*
X2809524Y-1890619D02*
X2809524Y-1938238D01*
X2809524Y-1938238D02*
X2819048Y-1957286D01*
X2819048Y-1957286D02*
X2828572Y-1966809D01*
X2828572Y-1966809D02*
X2847619Y-1976333D01*
X2847619Y-1976333D02*
X2885714Y-1976333D01*
X2885714Y-1976333D02*
X2904762Y-1966809D01*
X2904762Y-1966809D02*
X2914286Y-1957286D01*
X2914286Y-1957286D02*
X2923810Y-1938238D01*
X3095238Y-1919190D02*
X3095238Y-2052524D01*
X3047619Y-1843000D02*
X3000000Y-1985857D01*
X3000000Y-1985857D02*
X3123810Y-1985857D01*
X3190476Y-1852524D02*
X3190476Y-1890619D01*
X3266667Y-1852524D02*
X3266667Y-1890619D01*
X3561905Y-2128714D02*
X3552381Y-2119190D01*
X3552381Y-2119190D02*
X3533334Y-2090619D01*
X3533334Y-2090619D02*
X3523810Y-2071571D01*
X3523810Y-2071571D02*
X3514286Y-2043000D01*
X3514286Y-2043000D02*
X3504762Y-1995381D01*
X3504762Y-1995381D02*
X3504762Y-1957286D01*
X3504762Y-1957286D02*
X3514286Y-1909667D01*
X3514286Y-1909667D02*
X3523810Y-1881095D01*
X3523810Y-1881095D02*
X3533334Y-1862048D01*
X3533334Y-1862048D02*
X3552381Y-1833476D01*
X3552381Y-1833476D02*
X3561905Y-1823952D01*
X3723810Y-1852524D02*
X3685714Y-1852524D01*
X3685714Y-1852524D02*
X3666667Y-1862048D01*
X3666667Y-1862048D02*
X3657143Y-1871571D01*
X3657143Y-1871571D02*
X3638095Y-1900143D01*
X3638095Y-1900143D02*
X3628572Y-1938238D01*
X3628572Y-1938238D02*
X3628572Y-2014428D01*
X3628572Y-2014428D02*
X3638095Y-2033476D01*
X3638095Y-2033476D02*
X3647619Y-2043000D01*
X3647619Y-2043000D02*
X3666667Y-2052524D01*
X3666667Y-2052524D02*
X3704762Y-2052524D01*
X3704762Y-2052524D02*
X3723810Y-2043000D01*
X3723810Y-2043000D02*
X3733334Y-2033476D01*
X3733334Y-2033476D02*
X3742857Y-2014428D01*
X3742857Y-2014428D02*
X3742857Y-1966809D01*
X3742857Y-1966809D02*
X3733334Y-1947762D01*
X3733334Y-1947762D02*
X3723810Y-1938238D01*
X3723810Y-1938238D02*
X3704762Y-1928714D01*
X3704762Y-1928714D02*
X3666667Y-1928714D01*
X3666667Y-1928714D02*
X3647619Y-1938238D01*
X3647619Y-1938238D02*
X3638095Y-1947762D01*
X3638095Y-1947762D02*
X3628572Y-1966809D01*
X3819048Y-1871571D02*
X3828572Y-1862048D01*
X3828572Y-1862048D02*
X3847619Y-1852524D01*
X3847619Y-1852524D02*
X3895238Y-1852524D01*
X3895238Y-1852524D02*
X3914286Y-1862048D01*
X3914286Y-1862048D02*
X3923810Y-1871571D01*
X3923810Y-1871571D02*
X3933334Y-1890619D01*
X3933334Y-1890619D02*
X3933334Y-1909667D01*
X3933334Y-1909667D02*
X3923810Y-1938238D01*
X3923810Y-1938238D02*
X3809524Y-2052524D01*
X3809524Y-2052524D02*
X3933334Y-2052524D01*
X4171429Y-2052524D02*
X4171429Y-1852524D01*
X4257143Y-2052524D02*
X4257143Y-1947762D01*
X4257143Y-1947762D02*
X4247619Y-1928714D01*
X4247619Y-1928714D02*
X4228572Y-1919190D01*
X4228572Y-1919190D02*
X4200000Y-1919190D01*
X4200000Y-1919190D02*
X4180953Y-1928714D01*
X4180953Y-1928714D02*
X4171429Y-1938238D01*
X4380953Y-2052524D02*
X4361905Y-2043000D01*
X4361905Y-2043000D02*
X4352381Y-2033476D01*
X4352381Y-2033476D02*
X4342858Y-2014428D01*
X4342858Y-2014428D02*
X4342858Y-1957286D01*
X4342858Y-1957286D02*
X4352381Y-1938238D01*
X4352381Y-1938238D02*
X4361905Y-1928714D01*
X4361905Y-1928714D02*
X4380953Y-1919190D01*
X4380953Y-1919190D02*
X4409524Y-1919190D01*
X4409524Y-1919190D02*
X4428572Y-1928714D01*
X4428572Y-1928714D02*
X4438096Y-1938238D01*
X4438096Y-1938238D02*
X4447619Y-1957286D01*
X4447619Y-1957286D02*
X4447619Y-2014428D01*
X4447619Y-2014428D02*
X4438096Y-2033476D01*
X4438096Y-2033476D02*
X4428572Y-2043000D01*
X4428572Y-2043000D02*
X4409524Y-2052524D01*
X4409524Y-2052524D02*
X4380953Y-2052524D01*
X4561905Y-2052524D02*
X4542858Y-2043000D01*
X4542858Y-2043000D02*
X4533334Y-2023952D01*
X4533334Y-2023952D02*
X4533334Y-1852524D01*
X4714286Y-2043000D02*
X4695239Y-2052524D01*
X4695239Y-2052524D02*
X4657143Y-2052524D01*
X4657143Y-2052524D02*
X4638096Y-2043000D01*
X4638096Y-2043000D02*
X4628572Y-2023952D01*
X4628572Y-2023952D02*
X4628572Y-1947762D01*
X4628572Y-1947762D02*
X4638096Y-1928714D01*
X4638096Y-1928714D02*
X4657143Y-1919190D01*
X4657143Y-1919190D02*
X4695239Y-1919190D01*
X4695239Y-1919190D02*
X4714286Y-1928714D01*
X4714286Y-1928714D02*
X4723810Y-1947762D01*
X4723810Y-1947762D02*
X4723810Y-1966809D01*
X4723810Y-1966809D02*
X4628572Y-1985857D01*
X4800000Y-2043000D02*
X4819048Y-2052524D01*
X4819048Y-2052524D02*
X4857143Y-2052524D01*
X4857143Y-2052524D02*
X4876191Y-2043000D01*
X4876191Y-2043000D02*
X4885715Y-2023952D01*
X4885715Y-2023952D02*
X4885715Y-2014428D01*
X4885715Y-2014428D02*
X4876191Y-1995381D01*
X4876191Y-1995381D02*
X4857143Y-1985857D01*
X4857143Y-1985857D02*
X4828572Y-1985857D01*
X4828572Y-1985857D02*
X4809524Y-1976333D01*
X4809524Y-1976333D02*
X4800000Y-1957286D01*
X4800000Y-1957286D02*
X4800000Y-1947762D01*
X4800000Y-1947762D02*
X4809524Y-1928714D01*
X4809524Y-1928714D02*
X4828572Y-1919190D01*
X4828572Y-1919190D02*
X4857143Y-1919190D01*
X4857143Y-1919190D02*
X4876191Y-1928714D01*
X4952381Y-2128714D02*
X4961905Y-2119190D01*
X4961905Y-2119190D02*
X4980953Y-2090619D01*
X4980953Y-2090619D02*
X4990477Y-2071571D01*
X4990477Y-2071571D02*
X5000000Y-2043000D01*
X5000000Y-2043000D02*
X5009524Y-1995381D01*
X5009524Y-1995381D02*
X5009524Y-1957286D01*
X5009524Y-1957286D02*
X5000000Y-1909667D01*
X5000000Y-1909667D02*
X4990477Y-1881095D01*
X4990477Y-1881095D02*
X4980953Y-1862048D01*
X4980953Y-1862048D02*
X4961905Y-1833476D01*
X4961905Y-1833476D02*
X4952381Y-1823952D01*
D16*
X-152000Y-2148000D02*
X0Y-2300000D01*
X0Y-2148000D02*
X-152000Y-2300000D01*
X-76000Y-2148000D02*
X-76000Y-2300000D01*
X-152000Y-2224000D02*
X0Y-2224000D01*
D10*
X352381Y-2316524D02*
X238095Y-2316524D01*
X295238Y-2316524D02*
X295238Y-2116524D01*
X295238Y-2116524D02*
X276190Y-2145095D01*
X276190Y-2145095D02*
X257143Y-2164143D01*
X257143Y-2164143D02*
X238095Y-2173667D01*
X438095Y-2297476D02*
X447619Y-2307000D01*
X447619Y-2307000D02*
X438095Y-2316524D01*
X438095Y-2316524D02*
X428571Y-2307000D01*
X428571Y-2307000D02*
X438095Y-2297476D01*
X438095Y-2297476D02*
X438095Y-2316524D01*
X628571Y-2116524D02*
X533333Y-2116524D01*
X533333Y-2116524D02*
X523809Y-2211762D01*
X523809Y-2211762D02*
X533333Y-2202238D01*
X533333Y-2202238D02*
X552381Y-2192714D01*
X552381Y-2192714D02*
X600000Y-2192714D01*
X600000Y-2192714D02*
X619048Y-2202238D01*
X619048Y-2202238D02*
X628571Y-2211762D01*
X628571Y-2211762D02*
X638095Y-2230810D01*
X638095Y-2230810D02*
X638095Y-2278429D01*
X638095Y-2278429D02*
X628571Y-2297476D01*
X628571Y-2297476D02*
X619048Y-2307000D01*
X619048Y-2307000D02*
X600000Y-2316524D01*
X600000Y-2316524D02*
X552381Y-2316524D01*
X552381Y-2316524D02*
X533333Y-2307000D01*
X533333Y-2307000D02*
X523809Y-2297476D01*
X714286Y-2135571D02*
X723809Y-2126048D01*
X723809Y-2126048D02*
X742857Y-2116524D01*
X742857Y-2116524D02*
X790476Y-2116524D01*
X790476Y-2116524D02*
X809524Y-2126048D01*
X809524Y-2126048D02*
X819048Y-2135571D01*
X819048Y-2135571D02*
X828571Y-2154619D01*
X828571Y-2154619D02*
X828571Y-2173667D01*
X828571Y-2173667D02*
X819048Y-2202238D01*
X819048Y-2202238D02*
X704762Y-2316524D01*
X704762Y-2316524D02*
X828571Y-2316524D01*
X952381Y-2116524D02*
X971429Y-2116524D01*
X971429Y-2116524D02*
X990476Y-2126048D01*
X990476Y-2126048D02*
X1000000Y-2135571D01*
X1000000Y-2135571D02*
X1009524Y-2154619D01*
X1009524Y-2154619D02*
X1019048Y-2192714D01*
X1019048Y-2192714D02*
X1019048Y-2240333D01*
X1019048Y-2240333D02*
X1009524Y-2278429D01*
X1009524Y-2278429D02*
X1000000Y-2297476D01*
X1000000Y-2297476D02*
X990476Y-2307000D01*
X990476Y-2307000D02*
X971429Y-2316524D01*
X971429Y-2316524D02*
X952381Y-2316524D01*
X952381Y-2316524D02*
X933333Y-2307000D01*
X933333Y-2307000D02*
X923809Y-2297476D01*
X923809Y-2297476D02*
X914286Y-2278429D01*
X914286Y-2278429D02*
X904762Y-2240333D01*
X904762Y-2240333D02*
X904762Y-2192714D01*
X904762Y-2192714D02*
X914286Y-2154619D01*
X914286Y-2154619D02*
X923809Y-2135571D01*
X923809Y-2135571D02*
X933333Y-2126048D01*
X933333Y-2126048D02*
X952381Y-2116524D01*
X1104762Y-2316524D02*
X1104762Y-2183190D01*
X1104762Y-2202238D02*
X1114286Y-2192714D01*
X1114286Y-2192714D02*
X1133333Y-2183190D01*
X1133333Y-2183190D02*
X1161905Y-2183190D01*
X1161905Y-2183190D02*
X1180952Y-2192714D01*
X1180952Y-2192714D02*
X1190476Y-2211762D01*
X1190476Y-2211762D02*
X1190476Y-2316524D01*
X1190476Y-2211762D02*
X1200000Y-2192714D01*
X1200000Y-2192714D02*
X1219048Y-2183190D01*
X1219048Y-2183190D02*
X1247619Y-2183190D01*
X1247619Y-2183190D02*
X1266667Y-2192714D01*
X1266667Y-2192714D02*
X1276191Y-2211762D01*
X1276191Y-2211762D02*
X1276191Y-2316524D01*
X1371429Y-2316524D02*
X1371429Y-2183190D01*
X1371429Y-2202238D02*
X1380952Y-2192714D01*
X1380952Y-2192714D02*
X1400000Y-2183190D01*
X1400000Y-2183190D02*
X1428571Y-2183190D01*
X1428571Y-2183190D02*
X1447619Y-2192714D01*
X1447619Y-2192714D02*
X1457143Y-2211762D01*
X1457143Y-2211762D02*
X1457143Y-2316524D01*
X1457143Y-2211762D02*
X1466667Y-2192714D01*
X1466667Y-2192714D02*
X1485714Y-2183190D01*
X1485714Y-2183190D02*
X1514286Y-2183190D01*
X1514286Y-2183190D02*
X1533333Y-2192714D01*
X1533333Y-2192714D02*
X1542857Y-2211762D01*
X1542857Y-2211762D02*
X1542857Y-2316524D01*
X1933333Y-2107000D02*
X1761905Y-2364143D01*
X2190476Y-2116524D02*
X2209524Y-2116524D01*
X2209524Y-2116524D02*
X2228572Y-2126048D01*
X2228572Y-2126048D02*
X2238095Y-2135571D01*
X2238095Y-2135571D02*
X2247619Y-2154619D01*
X2247619Y-2154619D02*
X2257143Y-2192714D01*
X2257143Y-2192714D02*
X2257143Y-2240333D01*
X2257143Y-2240333D02*
X2247619Y-2278429D01*
X2247619Y-2278429D02*
X2238095Y-2297476D01*
X2238095Y-2297476D02*
X2228572Y-2307000D01*
X2228572Y-2307000D02*
X2209524Y-2316524D01*
X2209524Y-2316524D02*
X2190476Y-2316524D01*
X2190476Y-2316524D02*
X2171429Y-2307000D01*
X2171429Y-2307000D02*
X2161905Y-2297476D01*
X2161905Y-2297476D02*
X2152381Y-2278429D01*
X2152381Y-2278429D02*
X2142857Y-2240333D01*
X2142857Y-2240333D02*
X2142857Y-2192714D01*
X2142857Y-2192714D02*
X2152381Y-2154619D01*
X2152381Y-2154619D02*
X2161905Y-2135571D01*
X2161905Y-2135571D02*
X2171429Y-2126048D01*
X2171429Y-2126048D02*
X2190476Y-2116524D01*
X2342857Y-2297476D02*
X2352381Y-2307000D01*
X2352381Y-2307000D02*
X2342857Y-2316524D01*
X2342857Y-2316524D02*
X2333334Y-2307000D01*
X2333334Y-2307000D02*
X2342857Y-2297476D01*
X2342857Y-2297476D02*
X2342857Y-2316524D01*
X2476191Y-2116524D02*
X2495238Y-2116524D01*
X2495238Y-2116524D02*
X2514286Y-2126048D01*
X2514286Y-2126048D02*
X2523810Y-2135571D01*
X2523810Y-2135571D02*
X2533334Y-2154619D01*
X2533334Y-2154619D02*
X2542857Y-2192714D01*
X2542857Y-2192714D02*
X2542857Y-2240333D01*
X2542857Y-2240333D02*
X2533334Y-2278429D01*
X2533334Y-2278429D02*
X2523810Y-2297476D01*
X2523810Y-2297476D02*
X2514286Y-2307000D01*
X2514286Y-2307000D02*
X2495238Y-2316524D01*
X2495238Y-2316524D02*
X2476191Y-2316524D01*
X2476191Y-2316524D02*
X2457143Y-2307000D01*
X2457143Y-2307000D02*
X2447619Y-2297476D01*
X2447619Y-2297476D02*
X2438095Y-2278429D01*
X2438095Y-2278429D02*
X2428572Y-2240333D01*
X2428572Y-2240333D02*
X2428572Y-2192714D01*
X2428572Y-2192714D02*
X2438095Y-2154619D01*
X2438095Y-2154619D02*
X2447619Y-2135571D01*
X2447619Y-2135571D02*
X2457143Y-2126048D01*
X2457143Y-2126048D02*
X2476191Y-2116524D01*
X2723810Y-2116524D02*
X2628572Y-2116524D01*
X2628572Y-2116524D02*
X2619048Y-2211762D01*
X2619048Y-2211762D02*
X2628572Y-2202238D01*
X2628572Y-2202238D02*
X2647619Y-2192714D01*
X2647619Y-2192714D02*
X2695238Y-2192714D01*
X2695238Y-2192714D02*
X2714286Y-2202238D01*
X2714286Y-2202238D02*
X2723810Y-2211762D01*
X2723810Y-2211762D02*
X2733334Y-2230810D01*
X2733334Y-2230810D02*
X2733334Y-2278429D01*
X2733334Y-2278429D02*
X2723810Y-2297476D01*
X2723810Y-2297476D02*
X2714286Y-2307000D01*
X2714286Y-2307000D02*
X2695238Y-2316524D01*
X2695238Y-2316524D02*
X2647619Y-2316524D01*
X2647619Y-2316524D02*
X2628572Y-2307000D01*
X2628572Y-2307000D02*
X2619048Y-2297476D01*
X2828572Y-2316524D02*
X2866667Y-2316524D01*
X2866667Y-2316524D02*
X2885714Y-2307000D01*
X2885714Y-2307000D02*
X2895238Y-2297476D01*
X2895238Y-2297476D02*
X2914286Y-2268905D01*
X2914286Y-2268905D02*
X2923810Y-2230810D01*
X2923810Y-2230810D02*
X2923810Y-2154619D01*
X2923810Y-2154619D02*
X2914286Y-2135571D01*
X2914286Y-2135571D02*
X2904762Y-2126048D01*
X2904762Y-2126048D02*
X2885714Y-2116524D01*
X2885714Y-2116524D02*
X2847619Y-2116524D01*
X2847619Y-2116524D02*
X2828572Y-2126048D01*
X2828572Y-2126048D02*
X2819048Y-2135571D01*
X2819048Y-2135571D02*
X2809524Y-2154619D01*
X2809524Y-2154619D02*
X2809524Y-2202238D01*
X2809524Y-2202238D02*
X2819048Y-2221286D01*
X2819048Y-2221286D02*
X2828572Y-2230810D01*
X2828572Y-2230810D02*
X2847619Y-2240333D01*
X2847619Y-2240333D02*
X2885714Y-2240333D01*
X2885714Y-2240333D02*
X2904762Y-2230810D01*
X2904762Y-2230810D02*
X2914286Y-2221286D01*
X2914286Y-2221286D02*
X2923810Y-2202238D01*
X3038095Y-2202238D02*
X3019048Y-2192714D01*
X3019048Y-2192714D02*
X3009524Y-2183190D01*
X3009524Y-2183190D02*
X3000000Y-2164143D01*
X3000000Y-2164143D02*
X3000000Y-2154619D01*
X3000000Y-2154619D02*
X3009524Y-2135571D01*
X3009524Y-2135571D02*
X3019048Y-2126048D01*
X3019048Y-2126048D02*
X3038095Y-2116524D01*
X3038095Y-2116524D02*
X3076191Y-2116524D01*
X3076191Y-2116524D02*
X3095238Y-2126048D01*
X3095238Y-2126048D02*
X3104762Y-2135571D01*
X3104762Y-2135571D02*
X3114286Y-2154619D01*
X3114286Y-2154619D02*
X3114286Y-2164143D01*
X3114286Y-2164143D02*
X3104762Y-2183190D01*
X3104762Y-2183190D02*
X3095238Y-2192714D01*
X3095238Y-2192714D02*
X3076191Y-2202238D01*
X3076191Y-2202238D02*
X3038095Y-2202238D01*
X3038095Y-2202238D02*
X3019048Y-2211762D01*
X3019048Y-2211762D02*
X3009524Y-2221286D01*
X3009524Y-2221286D02*
X3000000Y-2240333D01*
X3000000Y-2240333D02*
X3000000Y-2278429D01*
X3000000Y-2278429D02*
X3009524Y-2297476D01*
X3009524Y-2297476D02*
X3019048Y-2307000D01*
X3019048Y-2307000D02*
X3038095Y-2316524D01*
X3038095Y-2316524D02*
X3076191Y-2316524D01*
X3076191Y-2316524D02*
X3095238Y-2307000D01*
X3095238Y-2307000D02*
X3104762Y-2297476D01*
X3104762Y-2297476D02*
X3114286Y-2278429D01*
X3114286Y-2278429D02*
X3114286Y-2240333D01*
X3114286Y-2240333D02*
X3104762Y-2221286D01*
X3104762Y-2221286D02*
X3095238Y-2211762D01*
X3095238Y-2211762D02*
X3076191Y-2202238D01*
X3190476Y-2116524D02*
X3190476Y-2154619D01*
X3266667Y-2116524D02*
X3266667Y-2154619D01*
X3561905Y-2392714D02*
X3552381Y-2383190D01*
X3552381Y-2383190D02*
X3533334Y-2354619D01*
X3533334Y-2354619D02*
X3523810Y-2335571D01*
X3523810Y-2335571D02*
X3514286Y-2307000D01*
X3514286Y-2307000D02*
X3504762Y-2259381D01*
X3504762Y-2259381D02*
X3504762Y-2221286D01*
X3504762Y-2221286D02*
X3514286Y-2173667D01*
X3514286Y-2173667D02*
X3523810Y-2145095D01*
X3523810Y-2145095D02*
X3533334Y-2126048D01*
X3533334Y-2126048D02*
X3552381Y-2097476D01*
X3552381Y-2097476D02*
X3561905Y-2087952D01*
X3723810Y-2116524D02*
X3685714Y-2116524D01*
X3685714Y-2116524D02*
X3666667Y-2126048D01*
X3666667Y-2126048D02*
X3657143Y-2135571D01*
X3657143Y-2135571D02*
X3638095Y-2164143D01*
X3638095Y-2164143D02*
X3628572Y-2202238D01*
X3628572Y-2202238D02*
X3628572Y-2278429D01*
X3628572Y-2278429D02*
X3638095Y-2297476D01*
X3638095Y-2297476D02*
X3647619Y-2307000D01*
X3647619Y-2307000D02*
X3666667Y-2316524D01*
X3666667Y-2316524D02*
X3704762Y-2316524D01*
X3704762Y-2316524D02*
X3723810Y-2307000D01*
X3723810Y-2307000D02*
X3733334Y-2297476D01*
X3733334Y-2297476D02*
X3742857Y-2278429D01*
X3742857Y-2278429D02*
X3742857Y-2230810D01*
X3742857Y-2230810D02*
X3733334Y-2211762D01*
X3733334Y-2211762D02*
X3723810Y-2202238D01*
X3723810Y-2202238D02*
X3704762Y-2192714D01*
X3704762Y-2192714D02*
X3666667Y-2192714D01*
X3666667Y-2192714D02*
X3647619Y-2202238D01*
X3647619Y-2202238D02*
X3638095Y-2211762D01*
X3638095Y-2211762D02*
X3628572Y-2230810D01*
X3980953Y-2316524D02*
X3980953Y-2116524D01*
X4066667Y-2316524D02*
X4066667Y-2211762D01*
X4066667Y-2211762D02*
X4057143Y-2192714D01*
X4057143Y-2192714D02*
X4038096Y-2183190D01*
X4038096Y-2183190D02*
X4009524Y-2183190D01*
X4009524Y-2183190D02*
X3990476Y-2192714D01*
X3990476Y-2192714D02*
X3980953Y-2202238D01*
X4190476Y-2316524D02*
X4171429Y-2307000D01*
X4171429Y-2307000D02*
X4161905Y-2297476D01*
X4161905Y-2297476D02*
X4152381Y-2278429D01*
X4152381Y-2278429D02*
X4152381Y-2221286D01*
X4152381Y-2221286D02*
X4161905Y-2202238D01*
X4161905Y-2202238D02*
X4171429Y-2192714D01*
X4171429Y-2192714D02*
X4190476Y-2183190D01*
X4190476Y-2183190D02*
X4219048Y-2183190D01*
X4219048Y-2183190D02*
X4238096Y-2192714D01*
X4238096Y-2192714D02*
X4247619Y-2202238D01*
X4247619Y-2202238D02*
X4257143Y-2221286D01*
X4257143Y-2221286D02*
X4257143Y-2278429D01*
X4257143Y-2278429D02*
X4247619Y-2297476D01*
X4247619Y-2297476D02*
X4238096Y-2307000D01*
X4238096Y-2307000D02*
X4219048Y-2316524D01*
X4219048Y-2316524D02*
X4190476Y-2316524D01*
X4371429Y-2316524D02*
X4352381Y-2307000D01*
X4352381Y-2307000D02*
X4342858Y-2287952D01*
X4342858Y-2287952D02*
X4342858Y-2116524D01*
X4523810Y-2307000D02*
X4504762Y-2316524D01*
X4504762Y-2316524D02*
X4466667Y-2316524D01*
X4466667Y-2316524D02*
X4447619Y-2307000D01*
X4447619Y-2307000D02*
X4438096Y-2287952D01*
X4438096Y-2287952D02*
X4438096Y-2211762D01*
X4438096Y-2211762D02*
X4447619Y-2192714D01*
X4447619Y-2192714D02*
X4466667Y-2183190D01*
X4466667Y-2183190D02*
X4504762Y-2183190D01*
X4504762Y-2183190D02*
X4523810Y-2192714D01*
X4523810Y-2192714D02*
X4533334Y-2211762D01*
X4533334Y-2211762D02*
X4533334Y-2230810D01*
X4533334Y-2230810D02*
X4438096Y-2249857D01*
X4609524Y-2307000D02*
X4628572Y-2316524D01*
X4628572Y-2316524D02*
X4666667Y-2316524D01*
X4666667Y-2316524D02*
X4685715Y-2307000D01*
X4685715Y-2307000D02*
X4695239Y-2287952D01*
X4695239Y-2287952D02*
X4695239Y-2278429D01*
X4695239Y-2278429D02*
X4685715Y-2259381D01*
X4685715Y-2259381D02*
X4666667Y-2249857D01*
X4666667Y-2249857D02*
X4638096Y-2249857D01*
X4638096Y-2249857D02*
X4619048Y-2240333D01*
X4619048Y-2240333D02*
X4609524Y-2221286D01*
X4609524Y-2221286D02*
X4609524Y-2211762D01*
X4609524Y-2211762D02*
X4619048Y-2192714D01*
X4619048Y-2192714D02*
X4638096Y-2183190D01*
X4638096Y-2183190D02*
X4666667Y-2183190D01*
X4666667Y-2183190D02*
X4685715Y-2192714D01*
X4761905Y-2392714D02*
X4771429Y-2383190D01*
X4771429Y-2383190D02*
X4790477Y-2354619D01*
X4790477Y-2354619D02*
X4800000Y-2335571D01*
X4800000Y-2335571D02*
X4809524Y-2307000D01*
X4809524Y-2307000D02*
X4819048Y-2259381D01*
X4819048Y-2259381D02*
X4819048Y-2221286D01*
X4819048Y-2221286D02*
X4809524Y-2173667D01*
X4809524Y-2173667D02*
X4800000Y-2145095D01*
X4800000Y-2145095D02*
X4790477Y-2126048D01*
X4790477Y-2126048D02*
X4771429Y-2097476D01*
X4771429Y-2097476D02*
X4761905Y-2087952D01*
M02*
