M48
; DRILL file {KiCad 7.0.1} date Wed Sep 13 21:21:13 2023
; FORMAT={-:-/ absolute / inch / decimal}
; #@! TF.CreationDate,2023-09-13T21:21:13+01:00
; #@! TF.GenerationSoftware,Kicad,Pcbnew,7.0.1
; #@! TF.FileFunction,Plated,1,4,PTH
FMAT,2
INCH
; #@! TA.AperFunction,Plated,PTH,ViaDrill
T1C0.0079
; #@! TA.AperFunction,Plated,PTH,ComponentDrill
T2C0.0079
; #@! TA.AperFunction,Plated,PTH,ComponentDrill
T3C0.0236
; #@! TA.AperFunction,Plated,PTH,ComponentDrill
T4C0.0315
; #@! TA.AperFunction,Plated,PTH,ComponentDrill
T5C0.0354
; #@! TA.AperFunction,Plated,PTH,ComponentDrill
T6C0.0394
; #@! TA.AperFunction,Plated,PTH,ComponentDrill
T7C0.0598
%
G90
G05
T1
X4.3898Y-3.6417
X4.3898Y-3.7008
X4.4488Y-3.6417
X4.4488Y-3.7008
X4.4856Y-3.435
X4.4863Y-3.4744
X4.5079Y-3.6417
X4.5079Y-3.7008
X4.5139Y-3.4744
X4.5512Y-2.9331
X4.5512Y-3.185
X4.5669Y-3.0236
X4.5669Y-3.0984
X4.5669Y-3.7008
X4.5689Y-3.063
X4.5768Y-2.5
X4.6161Y-2.5
X4.6181Y-2.9055
X4.626Y-3.7008
X4.6339Y-2.9951
X4.6555Y-2.5
X4.6929Y-2.9961
X4.6949Y-2.5
X4.6949Y-2.5394
X4.6949Y-2.5787
X4.7343Y-2.5
X4.7343Y-2.5394
X4.7343Y-2.5787
X4.7538Y-3.0609
X4.7736Y-4.0144
X4.7777Y-3.0492
X4.7777Y-3.0748
X4.7953Y-2.752
X4.7953Y-2.7756
X4.7953Y-2.7992
X4.7953Y-3.5276
X4.7953Y-3.5512
X4.7953Y-4.2795
X4.7953Y-4.3031
X4.7953Y-4.3268
X4.8189Y-3.5276
X4.8189Y-3.5512
X4.8425Y-3.4606
X4.8425Y-3.5276
X4.8425Y-3.5512
X4.8996Y-2.8445
X4.9016Y-2.878
X4.9173Y-2.8189
X4.9409Y-3.8386
X4.9409Y-3.878
X4.9567Y-3.122
X4.9567Y-3.1496
X4.9764Y-2.815
X4.9803Y-3.8386
X4.9985Y-2.8878
X5.0079Y-4.1929
X5.0124Y-3.3929
X5.013Y-3.4429
X5.0157Y-3.8976
X5.0259Y-2.7575
X5.063Y-3.8976
X5.0669Y-2.7559
X5.0677Y-2.9761
X5.0709Y-3.9567
X5.0748Y-2.8588
X5.0773Y-3.6077
X5.0945Y-3.252
X5.0984Y-2.8588
X5.0984Y-3.9567
X5.1019Y-2.7559
X5.1054Y-2.9761
X5.1102Y-4.0276
X5.1137Y-3.8965
X5.1181Y-3.0236
X5.1181Y-3.1024
X5.1181Y-3.2795
X5.126Y-2.8031
X5.126Y-3.9567
X5.1348Y-2.7542
X5.1417Y-2.9173
X5.1457Y-2.9449
X5.1496Y-3.0
X5.1535Y-3.9291
X5.1535Y-3.9567
X5.1535Y-3.9843
X5.1676Y-3.8394
X5.1693Y-2.9646
X5.1736Y-3.185
X5.185Y-2.843
X5.185Y-3.0984
X5.185Y-3.126
X5.185Y-3.1535
X5.2087Y-2.9724
X5.2087Y-3.0118
X5.2126Y-3.0984
X5.2126Y-3.126
X5.2126Y-3.1535
X5.2136Y-2.9264
X5.2142Y-2.8886
X5.2165Y-3.2638
X5.2165Y-3.3031
X5.2264Y-4.4165
X5.2402Y-3.1535
X5.2402Y-4.0276
X5.2559Y-3.2638
X5.2559Y-3.3031
X5.2673Y-3.2236
X5.2678Y-3.6191
X5.2776Y-3.5742
X5.2795Y-4.0276
X5.2913Y-3.685
X5.2913Y-3.7087
X5.2953Y-3.2638
X5.2953Y-3.3031
X5.3071Y-3.4173
X5.3071Y-3.4646
X5.3071Y-3.4921
X5.3071Y-3.5197
X5.3071Y-3.5472
X5.3071Y-3.5748
X5.315Y-3.685
X5.315Y-3.7087
X5.3189Y-4.0276
X5.3189Y-4.0669
X5.3189Y-4.1063
X5.3189Y-4.1457
X5.3433Y-3.2581
X5.3811Y-3.2586
X5.4094Y-3.3937
X5.4094Y-3.4724
X5.4094Y-3.5512
X5.4134Y-3.8386
X5.4134Y-3.878
X5.4292Y-2.5747
X5.4528Y-3.8386
X5.4803Y-4.1929
X5.4882Y-3.3937
X5.4882Y-3.4724
X5.4882Y-3.5512
X5.4882Y-3.6496
X5.4882Y-3.685
X5.4882Y-3.7205
X5.4882Y-3.8976
X5.5118Y-3.9843
X5.5354Y-3.8976
X5.5433Y-3.9567
X5.5457Y-3.2513
X5.5669Y-3.3937
X5.5669Y-3.4724
X5.5669Y-3.5512
X5.5709Y-3.9567
X5.5827Y-4.0276
X5.5862Y-3.8965
X5.5984Y-3.9567
X5.624Y-3.6083
X5.626Y-3.9291
X5.626Y-3.9567
X5.626Y-3.9843
X5.628Y-2.5767
X5.6401Y-3.8394
X5.6485Y-3.2756
X5.6772Y-4.1811
X5.6772Y-4.2205
X5.6772Y-4.2598
X5.685Y-3.3031
X5.7165Y-4.1811
X5.7165Y-4.2205
X5.7165Y-4.2598
X5.7205Y-3.8346
X5.7205Y-3.8661
X5.7227Y-3.3033
X5.7283Y-3.7126
X5.7402Y-3.248
X5.7529Y-3.3322
X5.7536Y-3.3725
X5.7537Y-3.4889
X5.7538Y-3.4102
X5.7559Y-3.8661
X5.7559Y-3.9016
X5.7559Y-3.937
X5.7559Y-3.9724
X5.7559Y-4.0079
X5.7559Y-4.1811
X5.7559Y-4.2205
X5.7677Y-3.2205
X5.7756Y-2.7362
X5.7756Y-2.7756
X5.7756Y-2.815
X5.8Y-3.75
X5.815Y-2.7362
X5.815Y-2.7756
X5.815Y-2.815
X5.8287Y-3.6063
X5.8288Y-2.5767
X5.8504Y-4.3189
X5.8504Y-4.3583
X5.8543Y-2.7362
X5.8543Y-2.7756
X5.8543Y-2.815
X5.8898Y-3.378
X5.8898Y-3.4134
X5.8898Y-4.3189
X5.8898Y-4.3583
X5.8936Y-3.5456
X5.8937Y-2.7756
X5.8937Y-2.815
X5.8942Y-3.4957
X5.9055Y-4.0945
X5.9055Y-4.1339
X5.9094Y-3.2953
X5.9094Y-3.3307
X5.9291Y-4.3189
X5.9291Y-4.3583
X5.9449Y-4.1339
X5.9449Y-4.1732
X5.9685Y-4.3189
X5.9685Y-4.3583
X5.9843Y-3.4957
X5.9843Y-4.1732
X5.9861Y-3.9457
X5.9892Y-3.3299
X5.9892Y-4.1113
X5.9906Y-3.9173
X6.0079Y-4.3189
X6.0079Y-4.3583
X6.0138Y-4.1319
X6.0236Y-4.1732
X6.0392Y-3.3295
X6.0392Y-4.1115
X6.0472Y-4.3189
X6.0472Y-4.3583
X6.063Y-4.1732
X6.065Y-4.1319
X6.0846Y-4.3209
X6.0866Y-4.3583
X6.0892Y-4.1113
X6.0904Y-2.5769
X6.1024Y-4.1732
X6.1142Y-4.1319
X6.124Y-4.3602
X6.126Y-4.3189
X6.1392Y-4.1113
X6.1417Y-4.1732
X6.1654Y-4.1319
X6.1654Y-4.3189
X6.1654Y-4.3583
X6.1811Y-4.1732
X6.1892Y-4.1111
X6.2047Y-4.3189
X6.2047Y-4.3583
X6.2087Y-3.5605
X6.2087Y-3.5938
X6.2146Y-4.1319
X6.2205Y-4.1732
X6.2392Y-4.1111
X6.2598Y-4.1732
X6.2638Y-4.1319
X6.2892Y-4.1113
X6.2894Y-2.5767
X6.2953Y-4.1535
X6.3183Y-4.2756
X6.3228Y-4.122
X6.3543Y-4.122
X6.4173Y-3.9567
X6.4173Y-4.1575
X6.4291Y-3.4291
X6.4392Y-3.33
X6.4392Y-4.1115
X6.4469Y-4.1437
X6.4646Y-3.4291
X6.48Y-3.3297
X6.4882Y-2.5767
X6.4892Y-3.9887
X6.4961Y-3.4547
X6.5143Y-4.1573
X6.5204Y-4.0027
X6.5256Y-3.4843
X6.5392Y-4.1811
X6.5392Y-3.3298
X6.5551Y-3.5138
X6.6392Y-3.3295
X6.6392Y-3.4223
X6.6392Y-4.0184
X6.6392Y-4.1114
X6.689Y-2.5767
T2
X6.2902Y-3.6637
X6.2902Y-3.7237
X6.3202Y-3.6337
X6.3202Y-3.6937
X6.3202Y-3.7537
X6.3502Y-3.6637
X6.3502Y-3.7237
X6.3802Y-3.6337
X6.3802Y-3.6937
X6.3802Y-3.7537
X6.4102Y-3.6637
X6.4102Y-3.7237
T4
X4.6026Y-3.6102
X4.701Y-3.6102
T5
X4.8031Y-3.311
X4.9031Y-3.311
T6
X4.9787Y-2.5591
X5.0787Y-2.5591
X5.1787Y-2.5591
X5.2787Y-2.5591
X5.3385Y-4.4592
X5.3787Y-2.5591
X5.4197Y-2.8823
X5.4197Y-2.9823
X5.4197Y-3.0823
X5.4385Y-4.4592
X5.4787Y-2.5591
X5.5385Y-4.4592
X5.5697Y-2.8823
X5.5697Y-2.9823
X5.5697Y-3.0823
X5.5787Y-2.5591
X5.6385Y-4.4592
X5.6697Y-2.8823
X5.6697Y-2.9823
X5.6697Y-3.0823
X5.6787Y-2.5591
X5.7385Y-4.4592
X5.7697Y-2.8823
X5.7697Y-2.9823
X5.7697Y-3.0823
X5.7787Y-2.5591
X5.8385Y-4.4592
X5.8697Y-2.8823
X5.8697Y-2.9823
X5.8697Y-3.0823
X5.8787Y-2.5591
X5.9385Y-4.4592
X6.0385Y-4.4592
X6.0387Y-2.5592
X6.1102Y-2.8823
X6.1102Y-2.9823
X6.1102Y-3.0823
X6.1387Y-2.5592
X6.2384Y-4.4591
X6.2387Y-2.5592
X6.2602Y-2.8823
X6.2602Y-2.9823
X6.2602Y-3.0823
X6.3384Y-4.4591
X6.3387Y-2.5592
X6.3602Y-2.8823
X6.3602Y-2.9823
X6.3602Y-3.0823
X6.4384Y-4.4591
X6.4387Y-2.5592
X6.4602Y-2.8823
X6.4602Y-2.9823
X6.4602Y-3.0823
X6.5384Y-4.4591
X6.5387Y-2.5592
X6.5602Y-2.8823
X6.5602Y-2.9823
X6.5602Y-3.0823
X6.6384Y-4.4591
X6.6387Y-2.5592
X6.7384Y-4.4591
X6.7387Y-2.5592
T7
X4.3685Y-2.6378
X4.3685Y-4.3898
X4.4291Y-3.8469
X4.4291Y-4.0469
X4.5685Y-2.6378
X4.5685Y-4.3898
T3
G00X4.3386Y-2.8888
M15
G01X4.3071Y-2.8888
M16
G05
G00X4.3386Y-3.2293
M15
G01X4.3071Y-3.2293
M16
G05
G00X4.5087Y-2.8888
M15
G01X4.4654Y-2.8888
M16
G05
G00X4.5087Y-3.2293
M15
G01X4.4654Y-3.2293
M16
G05
T0
M30
