%TF.GenerationSoftware,KiCad,Pcbnew,7.0.1*%
%TF.CreationDate,2023-09-13T21:21:08+01:00*%
%TF.ProjectId,101 PCB,31303120-5043-4422-9e6b-696361645f70,rev?*%
%TF.SameCoordinates,Original*%
%TF.FileFunction,Soldermask,Bot*%
%TF.FilePolarity,Negative*%
%FSLAX46Y46*%
G04 Gerber Fmt 4.6, Leading zero omitted, Abs format (unit mm)*
G04 Created by KiCad (PCBNEW 7.0.1) date 2023-09-13 21:21:08*
%MOMM*%
%LPD*%
G01*
G04 APERTURE LIST*
%ADD10R,1.700000X1.700000*%
%ADD11O,1.700000X1.700000*%
%ADD12C,0.600000*%
%ADD13O,2.000000X0.900000*%
%ADD14O,1.700000X0.900000*%
%ADD15R,1.600000X1.600000*%
%ADD16C,1.600000*%
%ADD17R,3.000000X3.000000*%
%ADD18C,3.000000*%
%ADD19R,1.800000X1.800000*%
%ADD20C,1.800000*%
%ADD21C,3.200000*%
G04 APERTURE END LIST*
D10*
%TO.C,J106*%
X166630000Y-75750000D03*
D11*
X164090000Y-75750000D03*
X161550000Y-75750000D03*
X159010000Y-75750000D03*
%TD*%
D12*
%TO.C,J101*%
X113480000Y-74810000D03*
X113480000Y-80590000D03*
D13*
X113970000Y-73375000D03*
X113970000Y-82025000D03*
D14*
X109800000Y-73375000D03*
X109800000Y-82025000D03*
%TD*%
D10*
%TO.C,J108*%
X166630000Y-73210000D03*
D11*
X164090000Y-73210000D03*
X161550000Y-73210000D03*
X159010000Y-73210000D03*
%TD*%
D10*
%TO.C,J1*%
X126460000Y-65001000D03*
D11*
X129000000Y-65001000D03*
X131540000Y-65001000D03*
X134080000Y-65001000D03*
X136620000Y-65001000D03*
X139160000Y-65001000D03*
X141700000Y-65001000D03*
X144240000Y-65001000D03*
X146780000Y-65001000D03*
X149320000Y-65001000D03*
%TD*%
D10*
%TO.C,J109*%
X149090000Y-73210000D03*
D11*
X146550000Y-73210000D03*
X144010000Y-73210000D03*
X141470000Y-73210000D03*
%TD*%
D10*
%TO.C,JP102*%
X137660000Y-78290000D03*
D11*
X137660000Y-75750000D03*
X137660000Y-73210000D03*
%TD*%
D15*
%TO.C,C119*%
X119405113Y-91700000D03*
D16*
X116905113Y-91700000D03*
%TD*%
D10*
%TO.C,J5*%
X158455000Y-113260000D03*
D11*
X160995000Y-113260000D03*
X163535000Y-113260000D03*
X166075000Y-113260000D03*
X168615000Y-113260000D03*
X171155000Y-113260000D03*
%TD*%
D10*
%TO.C,J105*%
X149090000Y-78290000D03*
D11*
X146550000Y-78290000D03*
X144010000Y-78290000D03*
X141470000Y-78290000D03*
%TD*%
D17*
%TO.C,J102*%
X110960000Y-111500000D03*
D18*
X116040000Y-111500000D03*
%TD*%
D10*
%TO.C,J107*%
X149090000Y-75750000D03*
D11*
X146550000Y-75750000D03*
X144010000Y-75750000D03*
X141470000Y-75750000D03*
%TD*%
D10*
%TO.C,J104*%
X166630000Y-78290000D03*
D11*
X164090000Y-78290000D03*
X161550000Y-78290000D03*
X159010000Y-78290000D03*
%TD*%
D10*
%TO.C,J3*%
X153382000Y-65003000D03*
D11*
X155922000Y-65003000D03*
X158462000Y-65003000D03*
X161002000Y-65003000D03*
X163542000Y-65003000D03*
X166082000Y-65003000D03*
X168622000Y-65003000D03*
X171162000Y-65003000D03*
%TD*%
D10*
%TO.C,JP101*%
X155200000Y-78290000D03*
D11*
X155200000Y-75750000D03*
X155200000Y-73210000D03*
%TD*%
D10*
%TO.C,J4*%
X135597000Y-113264000D03*
D11*
X138137000Y-113264000D03*
X140677000Y-113264000D03*
X143217000Y-113264000D03*
X145757000Y-113264000D03*
X148297000Y-113264000D03*
X150837000Y-113264000D03*
X153377000Y-113264000D03*
%TD*%
D17*
%TO.C,J103*%
X116040000Y-67000000D03*
D18*
X110960000Y-67000000D03*
%TD*%
D17*
%TO.C,J110*%
X112500000Y-97710000D03*
D18*
X112500000Y-102790000D03*
%TD*%
D19*
%TO.C,D1*%
X122000000Y-84100000D03*
D20*
X124540000Y-84100000D03*
%TD*%
D21*
%TO.C,A101*%
X121630000Y-113260000D03*
X122900000Y-65000000D03*
X173700000Y-80240000D03*
X173700000Y-108180000D03*
%TD*%
M02*
