%TF.GenerationSoftware,KiCad,Pcbnew,7.0.1*%
%TF.CreationDate,2023-09-13T21:21:08+01:00*%
%TF.ProjectId,101 PCB,31303120-5043-4422-9e6b-696361645f70,rev?*%
%TF.SameCoordinates,Original*%
%TF.FileFunction,Soldermask,Top*%
%TF.FilePolarity,Negative*%
%FSLAX46Y46*%
G04 Gerber Fmt 4.6, Leading zero omitted, Abs format (unit mm)*
G04 Created by KiCad (PCBNEW 7.0.1) date 2023-09-13 21:21:08*
%MOMM*%
%LPD*%
G01*
G04 APERTURE LIST*
G04 Aperture macros list*
%AMRoundRect*
0 Rectangle with rounded corners*
0 $1 Rounding radius*
0 $2 $3 $4 $5 $6 $7 $8 $9 X,Y pos of 4 corners*
0 Add a 4 corners polygon primitive as box body*
4,1,4,$2,$3,$4,$5,$6,$7,$8,$9,$2,$3,0*
0 Add four circle primitives for the rounded corners*
1,1,$1+$1,$2,$3*
1,1,$1+$1,$4,$5*
1,1,$1+$1,$6,$7*
1,1,$1+$1,$8,$9*
0 Add four rect primitives between the rounded corners*
20,1,$1+$1,$2,$3,$4,$5,0*
20,1,$1+$1,$4,$5,$6,$7,0*
20,1,$1+$1,$6,$7,$8,$9,0*
20,1,$1+$1,$8,$9,$2,$3,0*%
G04 Aperture macros list end*
%ADD10C,0.010000*%
%ADD11R,1.700000X1.700000*%
%ADD12O,1.700000X1.700000*%
%ADD13RoundRect,0.140000X0.170000X-0.140000X0.170000X0.140000X-0.170000X0.140000X-0.170000X-0.140000X0*%
%ADD14RoundRect,0.140000X-0.170000X0.140000X-0.170000X-0.140000X0.170000X-0.140000X0.170000X0.140000X0*%
%ADD15RoundRect,0.140000X-0.140000X-0.170000X0.140000X-0.170000X0.140000X0.170000X-0.140000X0.170000X0*%
%ADD16RoundRect,0.087500X-0.225000X-0.087500X0.225000X-0.087500X0.225000X0.087500X-0.225000X0.087500X0*%
%ADD17RoundRect,0.087500X-0.087500X-0.225000X0.087500X-0.225000X0.087500X0.225000X-0.087500X0.225000X0*%
%ADD18RoundRect,0.225000X0.250000X-0.225000X0.250000X0.225000X-0.250000X0.225000X-0.250000X-0.225000X0*%
%ADD19RoundRect,0.140000X0.140000X0.170000X-0.140000X0.170000X-0.140000X-0.170000X0.140000X-0.170000X0*%
%ADD20C,0.600000*%
%ADD21O,2.000000X0.900000*%
%ADD22O,1.700000X0.900000*%
%ADD23RoundRect,0.135000X-0.135000X-0.185000X0.135000X-0.185000X0.135000X0.185000X-0.135000X0.185000X0*%
%ADD24R,0.700000X0.300000*%
%ADD25R,1.000000X1.700000*%
%ADD26R,0.300000X0.475000*%
%ADD27RoundRect,0.135000X0.135000X0.185000X-0.135000X0.185000X-0.135000X-0.185000X0.135000X-0.185000X0*%
%ADD28R,1.050000X0.650000*%
%ADD29RoundRect,0.135000X-0.185000X0.135000X-0.185000X-0.135000X0.185000X-0.135000X0.185000X0.135000X0*%
%ADD30R,0.900000X1.500000*%
%ADD31R,1.500000X0.900000*%
%ADD32R,4.200000X4.200000*%
%ADD33RoundRect,0.250000X0.600000X-0.400000X0.600000X0.400000X-0.600000X0.400000X-0.600000X-0.400000X0*%
%ADD34RoundRect,0.236111X0.613889X-0.813889X0.613889X0.813889X-0.613889X0.813889X-0.613889X-0.813889X0*%
%ADD35R,1.550000X0.600000*%
%ADD36R,1.800000X1.200000*%
%ADD37R,1.600000X1.600000*%
%ADD38C,1.600000*%
%ADD39RoundRect,0.218750X-0.218750X-0.256250X0.218750X-0.256250X0.218750X0.256250X-0.218750X0.256250X0*%
%ADD40R,0.650000X1.050000*%
%ADD41RoundRect,0.225000X0.225000X0.250000X-0.225000X0.250000X-0.225000X-0.250000X0.225000X-0.250000X0*%
%ADD42R,3.000000X3.000000*%
%ADD43C,3.000000*%
%ADD44R,1.500000X2.500000*%
%ADD45R,0.350000X0.400000*%
%ADD46R,0.500000X0.400000*%
%ADD47R,0.920000X0.285000*%
%ADD48R,1.600000X1.050000*%
%ADD49RoundRect,0.225000X-0.225000X-0.250000X0.225000X-0.250000X0.225000X0.250000X-0.225000X0.250000X0*%
%ADD50RoundRect,0.135000X0.185000X-0.135000X0.185000X0.135000X-0.185000X0.135000X-0.185000X-0.135000X0*%
%ADD51RoundRect,0.150000X0.512500X0.150000X-0.512500X0.150000X-0.512500X-0.150000X0.512500X-0.150000X0*%
%ADD52RoundRect,0.062500X0.062500X-0.375000X0.062500X0.375000X-0.062500X0.375000X-0.062500X-0.375000X0*%
%ADD53RoundRect,0.062500X0.375000X-0.062500X0.375000X0.062500X-0.375000X0.062500X-0.375000X-0.062500X0*%
%ADD54R,5.600000X5.600000*%
%ADD55R,2.400000X0.740000*%
%ADD56R,1.800000X1.800000*%
%ADD57C,1.800000*%
%ADD58C,3.200000*%
G04 APERTURE END LIST*
%TO.C,J101*%
D10*
X115170000Y-74850000D02*
X113930000Y-74850000D01*
X113930000Y-74150000D01*
X115170000Y-74150000D01*
X115170000Y-74850000D01*
G36*
X115170000Y-74850000D02*
G01*
X113930000Y-74850000D01*
X113930000Y-74150000D01*
X115170000Y-74150000D01*
X115170000Y-74850000D01*
G37*
X115170000Y-75650000D02*
X113930000Y-75650000D01*
X113930000Y-74950000D01*
X115170000Y-74950000D01*
X115170000Y-75650000D01*
G36*
X115170000Y-75650000D02*
G01*
X113930000Y-75650000D01*
X113930000Y-74950000D01*
X115170000Y-74950000D01*
X115170000Y-75650000D01*
G37*
X115170000Y-76150000D02*
X113930000Y-76150000D01*
X113930000Y-75750000D01*
X115170000Y-75750000D01*
X115170000Y-76150000D01*
G36*
X115170000Y-76150000D02*
G01*
X113930000Y-76150000D01*
X113930000Y-75750000D01*
X115170000Y-75750000D01*
X115170000Y-76150000D01*
G37*
X115170000Y-76650000D02*
X113930000Y-76650000D01*
X113930000Y-76250000D01*
X115170000Y-76250000D01*
X115170000Y-76650000D01*
G36*
X115170000Y-76650000D02*
G01*
X113930000Y-76650000D01*
X113930000Y-76250000D01*
X115170000Y-76250000D01*
X115170000Y-76650000D01*
G37*
X115170000Y-77150000D02*
X113930000Y-77150000D01*
X113930000Y-76750000D01*
X115170000Y-76750000D01*
X115170000Y-77150000D01*
G36*
X115170000Y-77150000D02*
G01*
X113930000Y-77150000D01*
X113930000Y-76750000D01*
X115170000Y-76750000D01*
X115170000Y-77150000D01*
G37*
X115170000Y-77650000D02*
X113930000Y-77650000D01*
X113930000Y-77250000D01*
X115170000Y-77250000D01*
X115170000Y-77650000D01*
G36*
X115170000Y-77650000D02*
G01*
X113930000Y-77650000D01*
X113930000Y-77250000D01*
X115170000Y-77250000D01*
X115170000Y-77650000D01*
G37*
X115170000Y-78150000D02*
X113930000Y-78150000D01*
X113930000Y-77750000D01*
X115170000Y-77750000D01*
X115170000Y-78150000D01*
G36*
X115170000Y-78150000D02*
G01*
X113930000Y-78150000D01*
X113930000Y-77750000D01*
X115170000Y-77750000D01*
X115170000Y-78150000D01*
G37*
X115170000Y-78650000D02*
X113930000Y-78650000D01*
X113930000Y-78250000D01*
X115170000Y-78250000D01*
X115170000Y-78650000D01*
G36*
X115170000Y-78650000D02*
G01*
X113930000Y-78650000D01*
X113930000Y-78250000D01*
X115170000Y-78250000D01*
X115170000Y-78650000D01*
G37*
X115170000Y-79150000D02*
X113930000Y-79150000D01*
X113930000Y-78750000D01*
X115170000Y-78750000D01*
X115170000Y-79150000D01*
G36*
X115170000Y-79150000D02*
G01*
X113930000Y-79150000D01*
X113930000Y-78750000D01*
X115170000Y-78750000D01*
X115170000Y-79150000D01*
G37*
X115170000Y-79650000D02*
X113930000Y-79650000D01*
X113930000Y-79250000D01*
X115170000Y-79250000D01*
X115170000Y-79650000D01*
G36*
X115170000Y-79650000D02*
G01*
X113930000Y-79650000D01*
X113930000Y-79250000D01*
X115170000Y-79250000D01*
X115170000Y-79650000D01*
G37*
X115170000Y-80450000D02*
X113930000Y-80450000D01*
X113930000Y-79750000D01*
X115170000Y-79750000D01*
X115170000Y-80450000D01*
G36*
X115170000Y-80450000D02*
G01*
X113930000Y-80450000D01*
X113930000Y-79750000D01*
X115170000Y-79750000D01*
X115170000Y-80450000D01*
G37*
X115170000Y-81250000D02*
X113930000Y-81250000D01*
X113930000Y-80550000D01*
X115170000Y-80550000D01*
X115170000Y-81250000D01*
G36*
X115170000Y-81250000D02*
G01*
X113930000Y-81250000D01*
X113930000Y-80550000D01*
X115170000Y-80550000D01*
X115170000Y-81250000D01*
G37*
%TD*%
D11*
%TO.C,J106*%
X166630000Y-75750000D03*
D12*
X164090000Y-75750000D03*
X161550000Y-75750000D03*
X159010000Y-75750000D03*
%TD*%
D13*
%TO.C,C125*%
X145400000Y-86617500D03*
X145400000Y-85657500D03*
%TD*%
D14*
%TO.C,C117*%
X134537500Y-91820000D03*
X134537500Y-92780000D03*
%TD*%
D15*
%TO.C,C116*%
X120270000Y-68500000D03*
X121230000Y-68500000D03*
%TD*%
D16*
%TO.C,U104*%
X128037500Y-71850000D03*
X128037500Y-72350000D03*
X128037500Y-72850000D03*
X128037500Y-73350000D03*
D17*
X128700000Y-73512500D03*
X129200000Y-73512500D03*
X129700000Y-73512500D03*
D16*
X130362500Y-73350000D03*
X130362500Y-72850000D03*
X130362500Y-72350000D03*
X130362500Y-71850000D03*
D17*
X129700000Y-71687500D03*
X129200000Y-71687500D03*
X128700000Y-71687500D03*
%TD*%
D14*
%TO.C,C126*%
X144400000Y-87657500D03*
X144400000Y-88617500D03*
%TD*%
D18*
%TO.C,C105*%
X126500000Y-100025000D03*
X126500000Y-98475000D03*
%TD*%
D14*
%TO.C,C1*%
X168500000Y-81420000D03*
X168500000Y-82380000D03*
%TD*%
D13*
%TO.C,C107*%
X140000000Y-100480000D03*
X140000000Y-99520000D03*
%TD*%
D19*
%TO.C,C122*%
X136645151Y-93137786D03*
X135685151Y-93137786D03*
%TD*%
D20*
%TO.C,J101*%
X113480000Y-74810000D03*
X113480000Y-80590000D03*
D21*
X113970000Y-73375000D03*
X113970000Y-82025000D03*
D22*
X109800000Y-73375000D03*
X109800000Y-82025000D03*
%TD*%
D11*
%TO.C,J108*%
X166630000Y-73210000D03*
D12*
X164090000Y-73210000D03*
X161550000Y-73210000D03*
X159010000Y-73210000D03*
%TD*%
D11*
%TO.C,J1*%
X126460000Y-65001000D03*
D12*
X129000000Y-65001000D03*
X131540000Y-65001000D03*
X134080000Y-65001000D03*
X136620000Y-65001000D03*
X139160000Y-65001000D03*
X141700000Y-65001000D03*
X144240000Y-65001000D03*
X146780000Y-65001000D03*
X149320000Y-65001000D03*
%TD*%
D23*
%TO.C,R106*%
X137490000Y-106500000D03*
X138510000Y-106500000D03*
%TD*%
D24*
%TO.C,IC105*%
X120750000Y-69750000D03*
X120750000Y-70250000D03*
X120750000Y-70750000D03*
X120750000Y-71250000D03*
X122850000Y-71250000D03*
X122850000Y-70750000D03*
X122850000Y-70250000D03*
X122850000Y-69750000D03*
D25*
X121800000Y-70500000D03*
%TD*%
D26*
%TO.C,IC101*%
X129250000Y-101338000D03*
X129750000Y-101338000D03*
X130250000Y-101338000D03*
X130250000Y-99662000D03*
X129750000Y-99662000D03*
X129250000Y-99662000D03*
%TD*%
D13*
%TO.C,C118*%
X132750000Y-113780000D03*
X132750000Y-112820000D03*
%TD*%
D23*
%TO.C,R109*%
X117990000Y-74810000D03*
X119010000Y-74810000D03*
%TD*%
D27*
%TO.C,R3*%
X123010000Y-88600000D03*
X121990000Y-88600000D03*
%TD*%
D28*
%TO.C,S101*%
X131075000Y-114325000D03*
X126925000Y-114325000D03*
X131075000Y-112175000D03*
X126925000Y-112175000D03*
%TD*%
D15*
%TO.C,C112*%
X128720000Y-74850000D03*
X129680000Y-74850000D03*
%TD*%
D23*
%TO.C,R114*%
X146290000Y-94300000D03*
X147310000Y-94300000D03*
%TD*%
D11*
%TO.C,J109*%
X149090000Y-73210000D03*
D12*
X146550000Y-73210000D03*
X144010000Y-73210000D03*
X141470000Y-73210000D03*
%TD*%
D29*
%TO.C,R104*%
X141250000Y-97490000D03*
X141250000Y-98510000D03*
%TD*%
D18*
%TO.C,C106*%
X138500000Y-100025000D03*
X138500000Y-98475000D03*
%TD*%
D11*
%TO.C,JP102*%
X137660000Y-78290000D03*
D12*
X137660000Y-75750000D03*
X137660000Y-73210000D03*
%TD*%
D23*
%TO.C,R111*%
X132090000Y-81880000D03*
X133110000Y-81880000D03*
%TD*%
D13*
%TO.C,C102*%
X128000000Y-100480000D03*
X128000000Y-99520000D03*
%TD*%
D30*
%TO.C,U101*%
X168635000Y-85750000D03*
X167365000Y-85750000D03*
X166095000Y-85750000D03*
X164825000Y-85750000D03*
X163555000Y-85750000D03*
X162285000Y-85750000D03*
X161015000Y-85750000D03*
X159745000Y-85750000D03*
X158475000Y-85750000D03*
X157205000Y-85750000D03*
X155935000Y-85750000D03*
X154665000Y-85750000D03*
X153395000Y-85750000D03*
X152125000Y-85750000D03*
D31*
X150875000Y-88790000D03*
X150875000Y-90060000D03*
X150875000Y-91330000D03*
X150875000Y-92600000D03*
X150875000Y-93870000D03*
X150875000Y-95140000D03*
X150875000Y-96410000D03*
X150875000Y-97680000D03*
X150875000Y-98950000D03*
X150875000Y-100220000D03*
D30*
X152125000Y-103250000D03*
X153395000Y-103250000D03*
X154665000Y-103250000D03*
X155935000Y-103250000D03*
X157205000Y-103250000D03*
X158475000Y-103250000D03*
X159745000Y-103250000D03*
X161015000Y-103250000D03*
X162285000Y-103250000D03*
X163555000Y-103250000D03*
X164825000Y-103250000D03*
X166095000Y-103250000D03*
X167365000Y-103250000D03*
X168635000Y-103250000D03*
D20*
X162057500Y-92295000D03*
X160532500Y-92295000D03*
X162820000Y-93057500D03*
X161295000Y-93057500D03*
X159770000Y-93057500D03*
X162057500Y-93820000D03*
D32*
X161295000Y-93820000D03*
D20*
X160532500Y-93820000D03*
X162820000Y-94582500D03*
X161295000Y-94582500D03*
X159770000Y-94582500D03*
X162057500Y-95345000D03*
X160532500Y-95345000D03*
%TD*%
D33*
%TO.C,D104*%
X119000000Y-103750000D03*
X119000000Y-100250000D03*
%TD*%
D19*
%TO.C,C113*%
X123280000Y-107300000D03*
X122320000Y-107300000D03*
%TD*%
D29*
%TO.C,R101*%
X129250000Y-97490000D03*
X129250000Y-98510000D03*
%TD*%
D27*
%TO.C,R4*%
X114010000Y-83900000D03*
X112990000Y-83900000D03*
%TD*%
D34*
%TO.C,D2*%
X117998980Y-85800560D03*
X117998980Y-81400560D03*
%TD*%
D35*
%TO.C,J111*%
X112750000Y-87250000D03*
X112750000Y-88250000D03*
X112750000Y-89250000D03*
X112750000Y-90250000D03*
D36*
X108875000Y-85950000D03*
X108875000Y-91550000D03*
%TD*%
D37*
%TO.C,C119*%
X119405113Y-91700000D03*
D38*
X116905113Y-91700000D03*
%TD*%
D39*
%TO.C,D101*%
X125212500Y-105250000D03*
X126787500Y-105250000D03*
%TD*%
D11*
%TO.C,J5*%
X158455000Y-113260000D03*
D12*
X160995000Y-113260000D03*
X163535000Y-113260000D03*
X166075000Y-113260000D03*
X168615000Y-113260000D03*
X171155000Y-113260000D03*
%TD*%
D23*
%TO.C,R1*%
X164890000Y-83600000D03*
X165910000Y-83600000D03*
%TD*%
D40*
%TO.C,S102*%
X172275000Y-72525000D03*
X172275000Y-76675000D03*
X170125000Y-72525000D03*
X170125000Y-76675000D03*
%TD*%
D11*
%TO.C,J105*%
X149090000Y-78290000D03*
D12*
X146550000Y-78290000D03*
X144010000Y-78290000D03*
X141470000Y-78290000D03*
%TD*%
D27*
%TO.C,R110*%
X119010000Y-73810000D03*
X117990000Y-73810000D03*
%TD*%
D41*
%TO.C,C104*%
X133275000Y-101000000D03*
X131725000Y-101000000D03*
%TD*%
D42*
%TO.C,J102*%
X110960000Y-111500000D03*
D43*
X116040000Y-111500000D03*
%TD*%
D23*
%TO.C,R103*%
X125490000Y-106500000D03*
X126510000Y-106500000D03*
%TD*%
D11*
%TO.C,J107*%
X149090000Y-75750000D03*
D12*
X146550000Y-75750000D03*
X144010000Y-75750000D03*
X141470000Y-75750000D03*
%TD*%
D11*
%TO.C,J104*%
X166630000Y-78290000D03*
D12*
X164090000Y-78290000D03*
X161550000Y-78290000D03*
X159010000Y-78290000D03*
%TD*%
D44*
%TO.C,L102*%
X141900000Y-104250000D03*
X145600000Y-104250000D03*
%TD*%
D29*
%TO.C,R108*%
X121250000Y-100240000D03*
X121250000Y-101260000D03*
%TD*%
D26*
%TO.C,IC103*%
X141250000Y-101338000D03*
X141750000Y-101338000D03*
X142250000Y-101338000D03*
X142250000Y-99662000D03*
X141750000Y-99662000D03*
X141250000Y-99662000D03*
%TD*%
D45*
%TO.C,Q101*%
X118525000Y-96450000D03*
X118525000Y-97100000D03*
D46*
X118600000Y-97750000D03*
X120400000Y-97750000D03*
D45*
X120475000Y-97100000D03*
X120475000Y-96450000D03*
D47*
X119500000Y-97750000D03*
D48*
X119500000Y-96775000D03*
%TD*%
D23*
%TO.C,R5*%
X110490000Y-83900000D03*
X111510000Y-83900000D03*
%TD*%
D29*
%TO.C,R102*%
X128000000Y-97470000D03*
X128000000Y-98490000D03*
%TD*%
D41*
%TO.C,C103*%
X133275000Y-99500000D03*
X131725000Y-99500000D03*
%TD*%
D44*
%TO.C,L101*%
X129900000Y-104250000D03*
X133600000Y-104250000D03*
%TD*%
D15*
%TO.C,C114*%
X120320000Y-107300000D03*
X121280000Y-107300000D03*
%TD*%
D19*
%TO.C,C124*%
X136680000Y-83500000D03*
X135720000Y-83500000D03*
%TD*%
D11*
%TO.C,J3*%
X153382000Y-65003000D03*
D12*
X155922000Y-65003000D03*
X158462000Y-65003000D03*
X161002000Y-65003000D03*
X163542000Y-65003000D03*
X166082000Y-65003000D03*
X168622000Y-65003000D03*
X171162000Y-65003000D03*
%TD*%
D41*
%TO.C,C110*%
X145275000Y-101000000D03*
X143725000Y-101000000D03*
%TD*%
%TO.C,C109*%
X145275000Y-99500000D03*
X143725000Y-99500000D03*
%TD*%
D49*
%TO.C,C2*%
X167225000Y-83600000D03*
X168775000Y-83600000D03*
%TD*%
D14*
%TO.C,C111*%
X131700000Y-73370000D03*
X131700000Y-74330000D03*
%TD*%
D15*
%TO.C,C120*%
X144400000Y-84637500D03*
X145360000Y-84637500D03*
%TD*%
D11*
%TO.C,JP101*%
X155200000Y-78290000D03*
D12*
X155200000Y-75750000D03*
X155200000Y-73210000D03*
%TD*%
D19*
%TO.C,C121*%
X136645151Y-94137786D03*
X135685151Y-94137786D03*
%TD*%
D11*
%TO.C,J4*%
X135597000Y-113264000D03*
D12*
X138137000Y-113264000D03*
X140677000Y-113264000D03*
X143217000Y-113264000D03*
X145757000Y-113264000D03*
X148297000Y-113264000D03*
X150837000Y-113264000D03*
X153377000Y-113264000D03*
%TD*%
D19*
%TO.C,C115*%
X123230000Y-68500000D03*
X122270000Y-68500000D03*
%TD*%
D42*
%TO.C,J103*%
X116040000Y-67000000D03*
D43*
X110960000Y-67000000D03*
%TD*%
D29*
%TO.C,R105*%
X140000000Y-97470000D03*
X140000000Y-98490000D03*
%TD*%
D23*
%TO.C,R2*%
X146240000Y-91600000D03*
X147260000Y-91600000D03*
%TD*%
D50*
%TO.C,R107*%
X125250000Y-113760000D03*
X125250000Y-112740000D03*
%TD*%
D51*
%TO.C,U103*%
X119637500Y-78700000D03*
X119637500Y-77750000D03*
X119637500Y-76800000D03*
X117362500Y-76800000D03*
X117362500Y-77750000D03*
X117362500Y-78700000D03*
%TD*%
D42*
%TO.C,J110*%
X112500000Y-97710000D03*
D43*
X112500000Y-102790000D03*
%TD*%
D13*
%TO.C,C101*%
X130500000Y-98480000D03*
X130500000Y-97520000D03*
%TD*%
D52*
%TO.C,U106*%
X136650000Y-91637500D03*
X137150000Y-91637500D03*
X137650000Y-91637500D03*
X138150000Y-91637500D03*
X138650000Y-91637500D03*
X139150000Y-91637500D03*
X139650000Y-91637500D03*
X140150000Y-91637500D03*
X140650000Y-91637500D03*
X141150000Y-91637500D03*
X141650000Y-91637500D03*
X142150000Y-91637500D03*
D53*
X142837500Y-90950000D03*
X142837500Y-90450000D03*
X142837500Y-89950000D03*
X142837500Y-89450000D03*
X142837500Y-88950000D03*
X142837500Y-88450000D03*
X142837500Y-87950000D03*
X142837500Y-87450000D03*
X142837500Y-86950000D03*
X142837500Y-86450000D03*
X142837500Y-85950000D03*
X142837500Y-85450000D03*
D52*
X142150000Y-84762500D03*
X141650000Y-84762500D03*
X141150000Y-84762500D03*
X140650000Y-84762500D03*
X140150000Y-84762500D03*
X139650000Y-84762500D03*
X139150000Y-84762500D03*
X138650000Y-84762500D03*
X138150000Y-84762500D03*
X137650000Y-84762500D03*
X137150000Y-84762500D03*
X136650000Y-84762500D03*
D53*
X135962500Y-85450000D03*
X135962500Y-85950000D03*
X135962500Y-86450000D03*
X135962500Y-86950000D03*
X135962500Y-87450000D03*
X135962500Y-87950000D03*
X135962500Y-88450000D03*
X135962500Y-88950000D03*
X135962500Y-89450000D03*
X135962500Y-89950000D03*
X135962500Y-90450000D03*
X135962500Y-90950000D03*
D54*
X139400000Y-88200000D03*
%TD*%
D13*
%TO.C,C108*%
X142500000Y-98480000D03*
X142500000Y-97520000D03*
%TD*%
%TO.C,C123*%
X144400000Y-86637500D03*
X144400000Y-85677500D03*
%TD*%
D39*
%TO.C,D102*%
X137212500Y-105250000D03*
X138787500Y-105250000D03*
%TD*%
D14*
%TO.C,C127*%
X145400000Y-87657500D03*
X145400000Y-88617500D03*
%TD*%
D55*
%TO.C,J2*%
X128944000Y-84909000D03*
X132844000Y-84909000D03*
X128944000Y-86179000D03*
X132844000Y-86179000D03*
X128944000Y-87449000D03*
X132844000Y-87449000D03*
X128944000Y-88719000D03*
X132844000Y-88719000D03*
X128944000Y-89989000D03*
X132844000Y-89989000D03*
%TD*%
D27*
%TO.C,R112*%
X133110000Y-80900000D03*
X132090000Y-80900000D03*
%TD*%
D24*
%TO.C,IC104*%
X120750000Y-108550000D03*
X120750000Y-109050000D03*
X120750000Y-109550000D03*
X120750000Y-110050000D03*
X122850000Y-110050000D03*
X122850000Y-109550000D03*
X122850000Y-109050000D03*
X122850000Y-108550000D03*
D25*
X121800000Y-109300000D03*
%TD*%
D56*
%TO.C,D1*%
X122000000Y-84100000D03*
D57*
X124540000Y-84100000D03*
%TD*%
D58*
%TO.C,A101*%
X121630000Y-113260000D03*
X122900000Y-65000000D03*
X173700000Y-80240000D03*
X173700000Y-108180000D03*
%TD*%
M02*
