%TF.GenerationSoftware,KiCad,Pcbnew,7.0.1*%
%TF.CreationDate,2023-09-13T21:21:14+01:00*%
%TF.ProjectId,101 PCB,31303120-5043-4422-9e6b-696361645f70,rev?*%
%TF.SameCoordinates,Original*%
%TF.FileFunction,Drillmap*%
%TF.FilePolarity,Positive*%
%FSLAX45Y45*%
G04 Gerber Fmt 4.5, Leading zero omitted, Abs format (unit mm)*
G04 Created by KiCad (PCBNEW 7.0.1) date 2023-09-13 21:21:14*
%MOMM*%
%LPD*%
G01*
G04 APERTURE LIST*
%ADD10C,0.200000*%
%ADD11C,0.060000*%
%ADD12C,0.320000*%
G04 APERTURE END LIST*
D10*
D11*
X11318000Y-7451000D02*
X11378000Y-7511000D01*
X11378000Y-7451000D02*
X11318000Y-7511000D01*
X11318000Y-8029000D02*
X11378000Y-8089000D01*
X11378000Y-8029000D02*
X11318000Y-8089000D01*
D12*
X12323000Y-11326000D02*
G75*
G03*
X12323000Y-11326000I-160000J0D01*
G01*
X12450000Y-6500000D02*
G75*
G03*
X12450000Y-6500000I-160000J0D01*
G01*
X17530000Y-8024000D02*
G75*
G03*
X17530000Y-8024000I-160000J0D01*
G01*
X17530000Y-10818000D02*
G75*
G03*
X17530000Y-10818000I-160000J0D01*
G01*
D10*
X247619Y-312524D02*
X247619Y-112524D01*
X247619Y-112524D02*
X295238Y-112524D01*
X295238Y-112524D02*
X323810Y-122048D01*
X323810Y-122048D02*
X342857Y-141095D01*
X342857Y-141095D02*
X352381Y-160143D01*
X352381Y-160143D02*
X361905Y-198238D01*
X361905Y-198238D02*
X361905Y-226809D01*
X361905Y-226809D02*
X352381Y-264905D01*
X352381Y-264905D02*
X342857Y-283952D01*
X342857Y-283952D02*
X323810Y-303000D01*
X323810Y-303000D02*
X295238Y-312524D01*
X295238Y-312524D02*
X247619Y-312524D01*
X447619Y-312524D02*
X447619Y-179190D01*
X447619Y-217286D02*
X457143Y-198238D01*
X457143Y-198238D02*
X466667Y-188714D01*
X466667Y-188714D02*
X485714Y-179190D01*
X485714Y-179190D02*
X504762Y-179190D01*
X571429Y-312524D02*
X571429Y-179190D01*
X571429Y-112524D02*
X561905Y-122048D01*
X561905Y-122048D02*
X571429Y-131571D01*
X571429Y-131571D02*
X580952Y-122048D01*
X580952Y-122048D02*
X571429Y-112524D01*
X571429Y-112524D02*
X571429Y-131571D01*
X695238Y-312524D02*
X676190Y-303000D01*
X676190Y-303000D02*
X666667Y-283952D01*
X666667Y-283952D02*
X666667Y-112524D01*
X800000Y-312524D02*
X780952Y-303000D01*
X780952Y-303000D02*
X771428Y-283952D01*
X771428Y-283952D02*
X771428Y-112524D01*
X1028571Y-312524D02*
X1028571Y-112524D01*
X1028571Y-112524D02*
X1095238Y-255381D01*
X1095238Y-255381D02*
X1161905Y-112524D01*
X1161905Y-112524D02*
X1161905Y-312524D01*
X1342857Y-312524D02*
X1342857Y-207762D01*
X1342857Y-207762D02*
X1333333Y-188714D01*
X1333333Y-188714D02*
X1314286Y-179190D01*
X1314286Y-179190D02*
X1276190Y-179190D01*
X1276190Y-179190D02*
X1257143Y-188714D01*
X1342857Y-303000D02*
X1323810Y-312524D01*
X1323810Y-312524D02*
X1276190Y-312524D01*
X1276190Y-312524D02*
X1257143Y-303000D01*
X1257143Y-303000D02*
X1247619Y-283952D01*
X1247619Y-283952D02*
X1247619Y-264905D01*
X1247619Y-264905D02*
X1257143Y-245857D01*
X1257143Y-245857D02*
X1276190Y-236333D01*
X1276190Y-236333D02*
X1323810Y-236333D01*
X1323810Y-236333D02*
X1342857Y-226809D01*
X1438095Y-179190D02*
X1438095Y-379190D01*
X1438095Y-188714D02*
X1457143Y-179190D01*
X1457143Y-179190D02*
X1495238Y-179190D01*
X1495238Y-179190D02*
X1514286Y-188714D01*
X1514286Y-188714D02*
X1523809Y-198238D01*
X1523809Y-198238D02*
X1533333Y-217286D01*
X1533333Y-217286D02*
X1533333Y-274429D01*
X1533333Y-274429D02*
X1523809Y-293476D01*
X1523809Y-293476D02*
X1514286Y-303000D01*
X1514286Y-303000D02*
X1495238Y-312524D01*
X1495238Y-312524D02*
X1457143Y-312524D01*
X1457143Y-312524D02*
X1438095Y-303000D01*
X1619048Y-293476D02*
X1628571Y-303000D01*
X1628571Y-303000D02*
X1619048Y-312524D01*
X1619048Y-312524D02*
X1609524Y-303000D01*
X1609524Y-303000D02*
X1619048Y-293476D01*
X1619048Y-293476D02*
X1619048Y-312524D01*
X1619048Y-188714D02*
X1628571Y-198238D01*
X1628571Y-198238D02*
X1619048Y-207762D01*
X1619048Y-207762D02*
X1609524Y-198238D01*
X1609524Y-198238D02*
X1619048Y-188714D01*
X1619048Y-188714D02*
X1619048Y-207762D01*
D11*
X-60000Y-610000D02*
X0Y-670000D01*
X0Y-610000D02*
X-60000Y-670000D01*
D10*
X285714Y-532524D02*
X304762Y-532524D01*
X304762Y-532524D02*
X323810Y-542048D01*
X323810Y-542048D02*
X333333Y-551571D01*
X333333Y-551571D02*
X342857Y-570619D01*
X342857Y-570619D02*
X352381Y-608714D01*
X352381Y-608714D02*
X352381Y-656333D01*
X352381Y-656333D02*
X342857Y-694429D01*
X342857Y-694429D02*
X333333Y-713476D01*
X333333Y-713476D02*
X323810Y-723000D01*
X323810Y-723000D02*
X304762Y-732524D01*
X304762Y-732524D02*
X285714Y-732524D01*
X285714Y-732524D02*
X266667Y-723000D01*
X266667Y-723000D02*
X257143Y-713476D01*
X257143Y-713476D02*
X247619Y-694429D01*
X247619Y-694429D02*
X238095Y-656333D01*
X238095Y-656333D02*
X238095Y-608714D01*
X238095Y-608714D02*
X247619Y-570619D01*
X247619Y-570619D02*
X257143Y-551571D01*
X257143Y-551571D02*
X266667Y-542048D01*
X266667Y-542048D02*
X285714Y-532524D01*
X438095Y-713476D02*
X447619Y-723000D01*
X447619Y-723000D02*
X438095Y-732524D01*
X438095Y-732524D02*
X428571Y-723000D01*
X428571Y-723000D02*
X438095Y-713476D01*
X438095Y-713476D02*
X438095Y-732524D01*
X619048Y-532524D02*
X580952Y-532524D01*
X580952Y-532524D02*
X561905Y-542048D01*
X561905Y-542048D02*
X552381Y-551571D01*
X552381Y-551571D02*
X533333Y-580143D01*
X533333Y-580143D02*
X523809Y-618238D01*
X523809Y-618238D02*
X523809Y-694429D01*
X523809Y-694429D02*
X533333Y-713476D01*
X533333Y-713476D02*
X542857Y-723000D01*
X542857Y-723000D02*
X561905Y-732524D01*
X561905Y-732524D02*
X600000Y-732524D01*
X600000Y-732524D02*
X619048Y-723000D01*
X619048Y-723000D02*
X628571Y-713476D01*
X628571Y-713476D02*
X638095Y-694429D01*
X638095Y-694429D02*
X638095Y-646810D01*
X638095Y-646810D02*
X628571Y-627762D01*
X628571Y-627762D02*
X619048Y-618238D01*
X619048Y-618238D02*
X600000Y-608714D01*
X600000Y-608714D02*
X561905Y-608714D01*
X561905Y-608714D02*
X542857Y-618238D01*
X542857Y-618238D02*
X533333Y-627762D01*
X533333Y-627762D02*
X523809Y-646810D01*
X761905Y-532524D02*
X780952Y-532524D01*
X780952Y-532524D02*
X800000Y-542048D01*
X800000Y-542048D02*
X809524Y-551571D01*
X809524Y-551571D02*
X819048Y-570619D01*
X819048Y-570619D02*
X828571Y-608714D01*
X828571Y-608714D02*
X828571Y-656333D01*
X828571Y-656333D02*
X819048Y-694429D01*
X819048Y-694429D02*
X809524Y-713476D01*
X809524Y-713476D02*
X800000Y-723000D01*
X800000Y-723000D02*
X780952Y-732524D01*
X780952Y-732524D02*
X761905Y-732524D01*
X761905Y-732524D02*
X742857Y-723000D01*
X742857Y-723000D02*
X733333Y-713476D01*
X733333Y-713476D02*
X723809Y-694429D01*
X723809Y-694429D02*
X714286Y-656333D01*
X714286Y-656333D02*
X714286Y-608714D01*
X714286Y-608714D02*
X723809Y-570619D01*
X723809Y-570619D02*
X733333Y-551571D01*
X733333Y-551571D02*
X742857Y-542048D01*
X742857Y-542048D02*
X761905Y-532524D01*
X952381Y-532524D02*
X971429Y-532524D01*
X971429Y-532524D02*
X990476Y-542048D01*
X990476Y-542048D02*
X1000000Y-551571D01*
X1000000Y-551571D02*
X1009524Y-570619D01*
X1009524Y-570619D02*
X1019048Y-608714D01*
X1019048Y-608714D02*
X1019048Y-656333D01*
X1019048Y-656333D02*
X1009524Y-694429D01*
X1009524Y-694429D02*
X1000000Y-713476D01*
X1000000Y-713476D02*
X990476Y-723000D01*
X990476Y-723000D02*
X971429Y-732524D01*
X971429Y-732524D02*
X952381Y-732524D01*
X952381Y-732524D02*
X933333Y-723000D01*
X933333Y-723000D02*
X923809Y-713476D01*
X923809Y-713476D02*
X914286Y-694429D01*
X914286Y-694429D02*
X904762Y-656333D01*
X904762Y-656333D02*
X904762Y-608714D01*
X904762Y-608714D02*
X914286Y-570619D01*
X914286Y-570619D02*
X923809Y-551571D01*
X923809Y-551571D02*
X933333Y-542048D01*
X933333Y-542048D02*
X952381Y-532524D01*
X1104762Y-732524D02*
X1104762Y-599190D01*
X1104762Y-618238D02*
X1114286Y-608714D01*
X1114286Y-608714D02*
X1133333Y-599190D01*
X1133333Y-599190D02*
X1161905Y-599190D01*
X1161905Y-599190D02*
X1180952Y-608714D01*
X1180952Y-608714D02*
X1190476Y-627762D01*
X1190476Y-627762D02*
X1190476Y-732524D01*
X1190476Y-627762D02*
X1200000Y-608714D01*
X1200000Y-608714D02*
X1219048Y-599190D01*
X1219048Y-599190D02*
X1247619Y-599190D01*
X1247619Y-599190D02*
X1266667Y-608714D01*
X1266667Y-608714D02*
X1276191Y-627762D01*
X1276191Y-627762D02*
X1276191Y-732524D01*
X1371429Y-732524D02*
X1371429Y-599190D01*
X1371429Y-618238D02*
X1380952Y-608714D01*
X1380952Y-608714D02*
X1400000Y-599190D01*
X1400000Y-599190D02*
X1428571Y-599190D01*
X1428571Y-599190D02*
X1447619Y-608714D01*
X1447619Y-608714D02*
X1457143Y-627762D01*
X1457143Y-627762D02*
X1457143Y-732524D01*
X1457143Y-627762D02*
X1466667Y-608714D01*
X1466667Y-608714D02*
X1485714Y-599190D01*
X1485714Y-599190D02*
X1514286Y-599190D01*
X1514286Y-599190D02*
X1533333Y-608714D01*
X1533333Y-608714D02*
X1542857Y-627762D01*
X1542857Y-627762D02*
X1542857Y-732524D01*
X1933333Y-523000D02*
X1761905Y-780143D01*
X2190476Y-532524D02*
X2209524Y-532524D01*
X2209524Y-532524D02*
X2228572Y-542048D01*
X2228572Y-542048D02*
X2238095Y-551571D01*
X2238095Y-551571D02*
X2247619Y-570619D01*
X2247619Y-570619D02*
X2257143Y-608714D01*
X2257143Y-608714D02*
X2257143Y-656333D01*
X2257143Y-656333D02*
X2247619Y-694429D01*
X2247619Y-694429D02*
X2238095Y-713476D01*
X2238095Y-713476D02*
X2228572Y-723000D01*
X2228572Y-723000D02*
X2209524Y-732524D01*
X2209524Y-732524D02*
X2190476Y-732524D01*
X2190476Y-732524D02*
X2171429Y-723000D01*
X2171429Y-723000D02*
X2161905Y-713476D01*
X2161905Y-713476D02*
X2152381Y-694429D01*
X2152381Y-694429D02*
X2142857Y-656333D01*
X2142857Y-656333D02*
X2142857Y-608714D01*
X2142857Y-608714D02*
X2152381Y-570619D01*
X2152381Y-570619D02*
X2161905Y-551571D01*
X2161905Y-551571D02*
X2171429Y-542048D01*
X2171429Y-542048D02*
X2190476Y-532524D01*
X2342857Y-713476D02*
X2352381Y-723000D01*
X2352381Y-723000D02*
X2342857Y-732524D01*
X2342857Y-732524D02*
X2333334Y-723000D01*
X2333334Y-723000D02*
X2342857Y-713476D01*
X2342857Y-713476D02*
X2342857Y-732524D01*
X2476191Y-532524D02*
X2495238Y-532524D01*
X2495238Y-532524D02*
X2514286Y-542048D01*
X2514286Y-542048D02*
X2523810Y-551571D01*
X2523810Y-551571D02*
X2533334Y-570619D01*
X2533334Y-570619D02*
X2542857Y-608714D01*
X2542857Y-608714D02*
X2542857Y-656333D01*
X2542857Y-656333D02*
X2533334Y-694429D01*
X2533334Y-694429D02*
X2523810Y-713476D01*
X2523810Y-713476D02*
X2514286Y-723000D01*
X2514286Y-723000D02*
X2495238Y-732524D01*
X2495238Y-732524D02*
X2476191Y-732524D01*
X2476191Y-732524D02*
X2457143Y-723000D01*
X2457143Y-723000D02*
X2447619Y-713476D01*
X2447619Y-713476D02*
X2438095Y-694429D01*
X2438095Y-694429D02*
X2428572Y-656333D01*
X2428572Y-656333D02*
X2428572Y-608714D01*
X2428572Y-608714D02*
X2438095Y-570619D01*
X2438095Y-570619D02*
X2447619Y-551571D01*
X2447619Y-551571D02*
X2457143Y-542048D01*
X2457143Y-542048D02*
X2476191Y-532524D01*
X2619048Y-551571D02*
X2628572Y-542048D01*
X2628572Y-542048D02*
X2647619Y-532524D01*
X2647619Y-532524D02*
X2695238Y-532524D01*
X2695238Y-532524D02*
X2714286Y-542048D01*
X2714286Y-542048D02*
X2723810Y-551571D01*
X2723810Y-551571D02*
X2733334Y-570619D01*
X2733334Y-570619D02*
X2733334Y-589667D01*
X2733334Y-589667D02*
X2723810Y-618238D01*
X2723810Y-618238D02*
X2609524Y-732524D01*
X2609524Y-732524D02*
X2733334Y-732524D01*
X2800000Y-532524D02*
X2923810Y-532524D01*
X2923810Y-532524D02*
X2857143Y-608714D01*
X2857143Y-608714D02*
X2885714Y-608714D01*
X2885714Y-608714D02*
X2904762Y-618238D01*
X2904762Y-618238D02*
X2914286Y-627762D01*
X2914286Y-627762D02*
X2923810Y-646810D01*
X2923810Y-646810D02*
X2923810Y-694429D01*
X2923810Y-694429D02*
X2914286Y-713476D01*
X2914286Y-713476D02*
X2904762Y-723000D01*
X2904762Y-723000D02*
X2885714Y-732524D01*
X2885714Y-732524D02*
X2828572Y-732524D01*
X2828572Y-732524D02*
X2809524Y-723000D01*
X2809524Y-723000D02*
X2800000Y-713476D01*
X3095238Y-532524D02*
X3057143Y-532524D01*
X3057143Y-532524D02*
X3038095Y-542048D01*
X3038095Y-542048D02*
X3028572Y-551571D01*
X3028572Y-551571D02*
X3009524Y-580143D01*
X3009524Y-580143D02*
X3000000Y-618238D01*
X3000000Y-618238D02*
X3000000Y-694429D01*
X3000000Y-694429D02*
X3009524Y-713476D01*
X3009524Y-713476D02*
X3019048Y-723000D01*
X3019048Y-723000D02*
X3038095Y-732524D01*
X3038095Y-732524D02*
X3076191Y-732524D01*
X3076191Y-732524D02*
X3095238Y-723000D01*
X3095238Y-723000D02*
X3104762Y-713476D01*
X3104762Y-713476D02*
X3114286Y-694429D01*
X3114286Y-694429D02*
X3114286Y-646810D01*
X3114286Y-646810D02*
X3104762Y-627762D01*
X3104762Y-627762D02*
X3095238Y-618238D01*
X3095238Y-618238D02*
X3076191Y-608714D01*
X3076191Y-608714D02*
X3038095Y-608714D01*
X3038095Y-608714D02*
X3019048Y-618238D01*
X3019048Y-618238D02*
X3009524Y-627762D01*
X3009524Y-627762D02*
X3000000Y-646810D01*
X3190476Y-532524D02*
X3190476Y-570619D01*
X3266667Y-532524D02*
X3266667Y-570619D01*
X3561905Y-808714D02*
X3552381Y-799190D01*
X3552381Y-799190D02*
X3533334Y-770619D01*
X3533334Y-770619D02*
X3523810Y-751571D01*
X3523810Y-751571D02*
X3514286Y-723000D01*
X3514286Y-723000D02*
X3504762Y-675381D01*
X3504762Y-675381D02*
X3504762Y-637286D01*
X3504762Y-637286D02*
X3514286Y-589667D01*
X3514286Y-589667D02*
X3523810Y-561095D01*
X3523810Y-561095D02*
X3533334Y-542048D01*
X3533334Y-542048D02*
X3552381Y-513476D01*
X3552381Y-513476D02*
X3561905Y-503952D01*
X3628572Y-551571D02*
X3638095Y-542048D01*
X3638095Y-542048D02*
X3657143Y-532524D01*
X3657143Y-532524D02*
X3704762Y-532524D01*
X3704762Y-532524D02*
X3723810Y-542048D01*
X3723810Y-542048D02*
X3733334Y-551571D01*
X3733334Y-551571D02*
X3742857Y-570619D01*
X3742857Y-570619D02*
X3742857Y-589667D01*
X3742857Y-589667D02*
X3733334Y-618238D01*
X3733334Y-618238D02*
X3619048Y-732524D01*
X3619048Y-732524D02*
X3742857Y-732524D01*
X3980953Y-732524D02*
X3980953Y-532524D01*
X4066667Y-732524D02*
X4066667Y-627762D01*
X4066667Y-627762D02*
X4057143Y-608714D01*
X4057143Y-608714D02*
X4038096Y-599190D01*
X4038096Y-599190D02*
X4009524Y-599190D01*
X4009524Y-599190D02*
X3990476Y-608714D01*
X3990476Y-608714D02*
X3980953Y-618238D01*
X4190476Y-732524D02*
X4171429Y-723000D01*
X4171429Y-723000D02*
X4161905Y-713476D01*
X4161905Y-713476D02*
X4152381Y-694429D01*
X4152381Y-694429D02*
X4152381Y-637286D01*
X4152381Y-637286D02*
X4161905Y-618238D01*
X4161905Y-618238D02*
X4171429Y-608714D01*
X4171429Y-608714D02*
X4190476Y-599190D01*
X4190476Y-599190D02*
X4219048Y-599190D01*
X4219048Y-599190D02*
X4238096Y-608714D01*
X4238096Y-608714D02*
X4247619Y-618238D01*
X4247619Y-618238D02*
X4257143Y-637286D01*
X4257143Y-637286D02*
X4257143Y-694429D01*
X4257143Y-694429D02*
X4247619Y-713476D01*
X4247619Y-713476D02*
X4238096Y-723000D01*
X4238096Y-723000D02*
X4219048Y-732524D01*
X4219048Y-732524D02*
X4190476Y-732524D01*
X4371429Y-732524D02*
X4352381Y-723000D01*
X4352381Y-723000D02*
X4342858Y-703952D01*
X4342858Y-703952D02*
X4342858Y-532524D01*
X4523810Y-723000D02*
X4504762Y-732524D01*
X4504762Y-732524D02*
X4466667Y-732524D01*
X4466667Y-732524D02*
X4447619Y-723000D01*
X4447619Y-723000D02*
X4438096Y-703952D01*
X4438096Y-703952D02*
X4438096Y-627762D01*
X4438096Y-627762D02*
X4447619Y-608714D01*
X4447619Y-608714D02*
X4466667Y-599190D01*
X4466667Y-599190D02*
X4504762Y-599190D01*
X4504762Y-599190D02*
X4523810Y-608714D01*
X4523810Y-608714D02*
X4533334Y-627762D01*
X4533334Y-627762D02*
X4533334Y-646810D01*
X4533334Y-646810D02*
X4438096Y-665857D01*
X4609524Y-723000D02*
X4628572Y-732524D01*
X4628572Y-732524D02*
X4666667Y-732524D01*
X4666667Y-732524D02*
X4685715Y-723000D01*
X4685715Y-723000D02*
X4695239Y-703952D01*
X4695239Y-703952D02*
X4695239Y-694429D01*
X4695239Y-694429D02*
X4685715Y-675381D01*
X4685715Y-675381D02*
X4666667Y-665857D01*
X4666667Y-665857D02*
X4638096Y-665857D01*
X4638096Y-665857D02*
X4619048Y-656333D01*
X4619048Y-656333D02*
X4609524Y-637286D01*
X4609524Y-637286D02*
X4609524Y-627762D01*
X4609524Y-627762D02*
X4619048Y-608714D01*
X4619048Y-608714D02*
X4638096Y-599190D01*
X4638096Y-599190D02*
X4666667Y-599190D01*
X4666667Y-599190D02*
X4685715Y-608714D01*
X4761905Y-808714D02*
X4771429Y-799190D01*
X4771429Y-799190D02*
X4790477Y-770619D01*
X4790477Y-770619D02*
X4800000Y-751571D01*
X4800000Y-751571D02*
X4809524Y-723000D01*
X4809524Y-723000D02*
X4819048Y-675381D01*
X4819048Y-675381D02*
X4819048Y-637286D01*
X4819048Y-637286D02*
X4809524Y-589667D01*
X4809524Y-589667D02*
X4800000Y-561095D01*
X4800000Y-561095D02*
X4790477Y-542048D01*
X4790477Y-542048D02*
X4771429Y-513476D01*
X4771429Y-513476D02*
X4761905Y-503952D01*
X5123810Y-808714D02*
X5114286Y-799190D01*
X5114286Y-799190D02*
X5095239Y-770619D01*
X5095239Y-770619D02*
X5085715Y-751571D01*
X5085715Y-751571D02*
X5076191Y-723000D01*
X5076191Y-723000D02*
X5066667Y-675381D01*
X5066667Y-675381D02*
X5066667Y-637286D01*
X5066667Y-637286D02*
X5076191Y-589667D01*
X5076191Y-589667D02*
X5085715Y-561095D01*
X5085715Y-561095D02*
X5095239Y-542048D01*
X5095239Y-542048D02*
X5114286Y-513476D01*
X5114286Y-513476D02*
X5123810Y-503952D01*
X5200000Y-599190D02*
X5200000Y-732524D01*
X5200000Y-618238D02*
X5209524Y-608714D01*
X5209524Y-608714D02*
X5228572Y-599190D01*
X5228572Y-599190D02*
X5257143Y-599190D01*
X5257143Y-599190D02*
X5276191Y-608714D01*
X5276191Y-608714D02*
X5285715Y-627762D01*
X5285715Y-627762D02*
X5285715Y-732524D01*
X5409524Y-732524D02*
X5390477Y-723000D01*
X5390477Y-723000D02*
X5380953Y-713476D01*
X5380953Y-713476D02*
X5371429Y-694429D01*
X5371429Y-694429D02*
X5371429Y-637286D01*
X5371429Y-637286D02*
X5380953Y-618238D01*
X5380953Y-618238D02*
X5390477Y-608714D01*
X5390477Y-608714D02*
X5409524Y-599190D01*
X5409524Y-599190D02*
X5438096Y-599190D01*
X5438096Y-599190D02*
X5457143Y-608714D01*
X5457143Y-608714D02*
X5466667Y-618238D01*
X5466667Y-618238D02*
X5476191Y-637286D01*
X5476191Y-637286D02*
X5476191Y-694429D01*
X5476191Y-694429D02*
X5466667Y-713476D01*
X5466667Y-713476D02*
X5457143Y-723000D01*
X5457143Y-723000D02*
X5438096Y-732524D01*
X5438096Y-732524D02*
X5409524Y-732524D01*
X5533334Y-599190D02*
X5609524Y-599190D01*
X5561905Y-532524D02*
X5561905Y-703952D01*
X5561905Y-703952D02*
X5571429Y-723000D01*
X5571429Y-723000D02*
X5590477Y-732524D01*
X5590477Y-732524D02*
X5609524Y-732524D01*
X5828572Y-599190D02*
X5828572Y-799190D01*
X5828572Y-608714D02*
X5847619Y-599190D01*
X5847619Y-599190D02*
X5885715Y-599190D01*
X5885715Y-599190D02*
X5904762Y-608714D01*
X5904762Y-608714D02*
X5914286Y-618238D01*
X5914286Y-618238D02*
X5923810Y-637286D01*
X5923810Y-637286D02*
X5923810Y-694429D01*
X5923810Y-694429D02*
X5914286Y-713476D01*
X5914286Y-713476D02*
X5904762Y-723000D01*
X5904762Y-723000D02*
X5885715Y-732524D01*
X5885715Y-732524D02*
X5847619Y-732524D01*
X5847619Y-732524D02*
X5828572Y-723000D01*
X6038096Y-732524D02*
X6019048Y-723000D01*
X6019048Y-723000D02*
X6009524Y-703952D01*
X6009524Y-703952D02*
X6009524Y-532524D01*
X6200000Y-732524D02*
X6200000Y-627762D01*
X6200000Y-627762D02*
X6190477Y-608714D01*
X6190477Y-608714D02*
X6171429Y-599190D01*
X6171429Y-599190D02*
X6133334Y-599190D01*
X6133334Y-599190D02*
X6114286Y-608714D01*
X6200000Y-723000D02*
X6180953Y-732524D01*
X6180953Y-732524D02*
X6133334Y-732524D01*
X6133334Y-732524D02*
X6114286Y-723000D01*
X6114286Y-723000D02*
X6104762Y-703952D01*
X6104762Y-703952D02*
X6104762Y-684905D01*
X6104762Y-684905D02*
X6114286Y-665857D01*
X6114286Y-665857D02*
X6133334Y-656333D01*
X6133334Y-656333D02*
X6180953Y-656333D01*
X6180953Y-656333D02*
X6200000Y-646810D01*
X6266667Y-599190D02*
X6342858Y-599190D01*
X6295239Y-532524D02*
X6295239Y-703952D01*
X6295239Y-703952D02*
X6304762Y-723000D01*
X6304762Y-723000D02*
X6323810Y-732524D01*
X6323810Y-732524D02*
X6342858Y-732524D01*
X6485715Y-723000D02*
X6466667Y-732524D01*
X6466667Y-732524D02*
X6428572Y-732524D01*
X6428572Y-732524D02*
X6409524Y-723000D01*
X6409524Y-723000D02*
X6400000Y-703952D01*
X6400000Y-703952D02*
X6400000Y-627762D01*
X6400000Y-627762D02*
X6409524Y-608714D01*
X6409524Y-608714D02*
X6428572Y-599190D01*
X6428572Y-599190D02*
X6466667Y-599190D01*
X6466667Y-599190D02*
X6485715Y-608714D01*
X6485715Y-608714D02*
X6495239Y-627762D01*
X6495239Y-627762D02*
X6495239Y-646810D01*
X6495239Y-646810D02*
X6400000Y-665857D01*
X6666667Y-732524D02*
X6666667Y-532524D01*
X6666667Y-723000D02*
X6647620Y-732524D01*
X6647620Y-732524D02*
X6609524Y-732524D01*
X6609524Y-732524D02*
X6590477Y-723000D01*
X6590477Y-723000D02*
X6580953Y-713476D01*
X6580953Y-713476D02*
X6571429Y-694429D01*
X6571429Y-694429D02*
X6571429Y-637286D01*
X6571429Y-637286D02*
X6580953Y-618238D01*
X6580953Y-618238D02*
X6590477Y-608714D01*
X6590477Y-608714D02*
X6609524Y-599190D01*
X6609524Y-599190D02*
X6647620Y-599190D01*
X6647620Y-599190D02*
X6666667Y-608714D01*
X6742858Y-808714D02*
X6752381Y-799190D01*
X6752381Y-799190D02*
X6771429Y-770619D01*
X6771429Y-770619D02*
X6780953Y-751571D01*
X6780953Y-751571D02*
X6790477Y-723000D01*
X6790477Y-723000D02*
X6800000Y-675381D01*
X6800000Y-675381D02*
X6800000Y-637286D01*
X6800000Y-637286D02*
X6790477Y-589667D01*
X6790477Y-589667D02*
X6780953Y-561095D01*
X6780953Y-561095D02*
X6771429Y-542048D01*
X6771429Y-542048D02*
X6752381Y-513476D01*
X6752381Y-513476D02*
X6742858Y-503952D01*
X0Y-904000D02*
G75*
G03*
X0Y-904000I-100000J0D01*
G01*
X228571Y-796524D02*
X352381Y-796524D01*
X352381Y-796524D02*
X285714Y-872714D01*
X285714Y-872714D02*
X314286Y-872714D01*
X314286Y-872714D02*
X333333Y-882238D01*
X333333Y-882238D02*
X342857Y-891762D01*
X342857Y-891762D02*
X352381Y-910809D01*
X352381Y-910809D02*
X352381Y-958428D01*
X352381Y-958428D02*
X342857Y-977476D01*
X342857Y-977476D02*
X333333Y-987000D01*
X333333Y-987000D02*
X314286Y-996524D01*
X314286Y-996524D02*
X257143Y-996524D01*
X257143Y-996524D02*
X238095Y-987000D01*
X238095Y-987000D02*
X228571Y-977476D01*
X438095Y-977476D02*
X447619Y-987000D01*
X447619Y-987000D02*
X438095Y-996524D01*
X438095Y-996524D02*
X428571Y-987000D01*
X428571Y-987000D02*
X438095Y-977476D01*
X438095Y-977476D02*
X438095Y-996524D01*
X523809Y-815571D02*
X533333Y-806048D01*
X533333Y-806048D02*
X552381Y-796524D01*
X552381Y-796524D02*
X600000Y-796524D01*
X600000Y-796524D02*
X619048Y-806048D01*
X619048Y-806048D02*
X628571Y-815571D01*
X628571Y-815571D02*
X638095Y-834619D01*
X638095Y-834619D02*
X638095Y-853667D01*
X638095Y-853667D02*
X628571Y-882238D01*
X628571Y-882238D02*
X514286Y-996524D01*
X514286Y-996524D02*
X638095Y-996524D01*
X761905Y-796524D02*
X780952Y-796524D01*
X780952Y-796524D02*
X800000Y-806048D01*
X800000Y-806048D02*
X809524Y-815571D01*
X809524Y-815571D02*
X819048Y-834619D01*
X819048Y-834619D02*
X828571Y-872714D01*
X828571Y-872714D02*
X828571Y-920333D01*
X828571Y-920333D02*
X819048Y-958428D01*
X819048Y-958428D02*
X809524Y-977476D01*
X809524Y-977476D02*
X800000Y-987000D01*
X800000Y-987000D02*
X780952Y-996524D01*
X780952Y-996524D02*
X761905Y-996524D01*
X761905Y-996524D02*
X742857Y-987000D01*
X742857Y-987000D02*
X733333Y-977476D01*
X733333Y-977476D02*
X723809Y-958428D01*
X723809Y-958428D02*
X714286Y-920333D01*
X714286Y-920333D02*
X714286Y-872714D01*
X714286Y-872714D02*
X723809Y-834619D01*
X723809Y-834619D02*
X733333Y-815571D01*
X733333Y-815571D02*
X742857Y-806048D01*
X742857Y-806048D02*
X761905Y-796524D01*
X952381Y-796524D02*
X971429Y-796524D01*
X971429Y-796524D02*
X990476Y-806048D01*
X990476Y-806048D02*
X1000000Y-815571D01*
X1000000Y-815571D02*
X1009524Y-834619D01*
X1009524Y-834619D02*
X1019048Y-872714D01*
X1019048Y-872714D02*
X1019048Y-920333D01*
X1019048Y-920333D02*
X1009524Y-958428D01*
X1009524Y-958428D02*
X1000000Y-977476D01*
X1000000Y-977476D02*
X990476Y-987000D01*
X990476Y-987000D02*
X971429Y-996524D01*
X971429Y-996524D02*
X952381Y-996524D01*
X952381Y-996524D02*
X933333Y-987000D01*
X933333Y-987000D02*
X923809Y-977476D01*
X923809Y-977476D02*
X914286Y-958428D01*
X914286Y-958428D02*
X904762Y-920333D01*
X904762Y-920333D02*
X904762Y-872714D01*
X904762Y-872714D02*
X914286Y-834619D01*
X914286Y-834619D02*
X923809Y-815571D01*
X923809Y-815571D02*
X933333Y-806048D01*
X933333Y-806048D02*
X952381Y-796524D01*
X1104762Y-996524D02*
X1104762Y-863190D01*
X1104762Y-882238D02*
X1114286Y-872714D01*
X1114286Y-872714D02*
X1133333Y-863190D01*
X1133333Y-863190D02*
X1161905Y-863190D01*
X1161905Y-863190D02*
X1180952Y-872714D01*
X1180952Y-872714D02*
X1190476Y-891762D01*
X1190476Y-891762D02*
X1190476Y-996524D01*
X1190476Y-891762D02*
X1200000Y-872714D01*
X1200000Y-872714D02*
X1219048Y-863190D01*
X1219048Y-863190D02*
X1247619Y-863190D01*
X1247619Y-863190D02*
X1266667Y-872714D01*
X1266667Y-872714D02*
X1276191Y-891762D01*
X1276191Y-891762D02*
X1276191Y-996524D01*
X1371429Y-996524D02*
X1371429Y-863190D01*
X1371429Y-882238D02*
X1380952Y-872714D01*
X1380952Y-872714D02*
X1400000Y-863190D01*
X1400000Y-863190D02*
X1428571Y-863190D01*
X1428571Y-863190D02*
X1447619Y-872714D01*
X1447619Y-872714D02*
X1457143Y-891762D01*
X1457143Y-891762D02*
X1457143Y-996524D01*
X1457143Y-891762D02*
X1466667Y-872714D01*
X1466667Y-872714D02*
X1485714Y-863190D01*
X1485714Y-863190D02*
X1514286Y-863190D01*
X1514286Y-863190D02*
X1533333Y-872714D01*
X1533333Y-872714D02*
X1542857Y-891762D01*
X1542857Y-891762D02*
X1542857Y-996524D01*
X1933333Y-787000D02*
X1761905Y-1044143D01*
X2190476Y-796524D02*
X2209524Y-796524D01*
X2209524Y-796524D02*
X2228572Y-806048D01*
X2228572Y-806048D02*
X2238095Y-815571D01*
X2238095Y-815571D02*
X2247619Y-834619D01*
X2247619Y-834619D02*
X2257143Y-872714D01*
X2257143Y-872714D02*
X2257143Y-920333D01*
X2257143Y-920333D02*
X2247619Y-958428D01*
X2247619Y-958428D02*
X2238095Y-977476D01*
X2238095Y-977476D02*
X2228572Y-987000D01*
X2228572Y-987000D02*
X2209524Y-996524D01*
X2209524Y-996524D02*
X2190476Y-996524D01*
X2190476Y-996524D02*
X2171429Y-987000D01*
X2171429Y-987000D02*
X2161905Y-977476D01*
X2161905Y-977476D02*
X2152381Y-958428D01*
X2152381Y-958428D02*
X2142857Y-920333D01*
X2142857Y-920333D02*
X2142857Y-872714D01*
X2142857Y-872714D02*
X2152381Y-834619D01*
X2152381Y-834619D02*
X2161905Y-815571D01*
X2161905Y-815571D02*
X2171429Y-806048D01*
X2171429Y-806048D02*
X2190476Y-796524D01*
X2342857Y-977476D02*
X2352381Y-987000D01*
X2352381Y-987000D02*
X2342857Y-996524D01*
X2342857Y-996524D02*
X2333334Y-987000D01*
X2333334Y-987000D02*
X2342857Y-977476D01*
X2342857Y-977476D02*
X2342857Y-996524D01*
X2542857Y-996524D02*
X2428572Y-996524D01*
X2485714Y-996524D02*
X2485714Y-796524D01*
X2485714Y-796524D02*
X2466667Y-825095D01*
X2466667Y-825095D02*
X2447619Y-844143D01*
X2447619Y-844143D02*
X2428572Y-853667D01*
X2619048Y-815571D02*
X2628572Y-806048D01*
X2628572Y-806048D02*
X2647619Y-796524D01*
X2647619Y-796524D02*
X2695238Y-796524D01*
X2695238Y-796524D02*
X2714286Y-806048D01*
X2714286Y-806048D02*
X2723810Y-815571D01*
X2723810Y-815571D02*
X2733334Y-834619D01*
X2733334Y-834619D02*
X2733334Y-853667D01*
X2733334Y-853667D02*
X2723810Y-882238D01*
X2723810Y-882238D02*
X2609524Y-996524D01*
X2609524Y-996524D02*
X2733334Y-996524D01*
X2904762Y-796524D02*
X2866667Y-796524D01*
X2866667Y-796524D02*
X2847619Y-806048D01*
X2847619Y-806048D02*
X2838095Y-815571D01*
X2838095Y-815571D02*
X2819048Y-844143D01*
X2819048Y-844143D02*
X2809524Y-882238D01*
X2809524Y-882238D02*
X2809524Y-958428D01*
X2809524Y-958428D02*
X2819048Y-977476D01*
X2819048Y-977476D02*
X2828572Y-987000D01*
X2828572Y-987000D02*
X2847619Y-996524D01*
X2847619Y-996524D02*
X2885714Y-996524D01*
X2885714Y-996524D02*
X2904762Y-987000D01*
X2904762Y-987000D02*
X2914286Y-977476D01*
X2914286Y-977476D02*
X2923810Y-958428D01*
X2923810Y-958428D02*
X2923810Y-910809D01*
X2923810Y-910809D02*
X2914286Y-891762D01*
X2914286Y-891762D02*
X2904762Y-882238D01*
X2904762Y-882238D02*
X2885714Y-872714D01*
X2885714Y-872714D02*
X2847619Y-872714D01*
X2847619Y-872714D02*
X2828572Y-882238D01*
X2828572Y-882238D02*
X2819048Y-891762D01*
X2819048Y-891762D02*
X2809524Y-910809D01*
X3047619Y-796524D02*
X3066667Y-796524D01*
X3066667Y-796524D02*
X3085714Y-806048D01*
X3085714Y-806048D02*
X3095238Y-815571D01*
X3095238Y-815571D02*
X3104762Y-834619D01*
X3104762Y-834619D02*
X3114286Y-872714D01*
X3114286Y-872714D02*
X3114286Y-920333D01*
X3114286Y-920333D02*
X3104762Y-958428D01*
X3104762Y-958428D02*
X3095238Y-977476D01*
X3095238Y-977476D02*
X3085714Y-987000D01*
X3085714Y-987000D02*
X3066667Y-996524D01*
X3066667Y-996524D02*
X3047619Y-996524D01*
X3047619Y-996524D02*
X3028572Y-987000D01*
X3028572Y-987000D02*
X3019048Y-977476D01*
X3019048Y-977476D02*
X3009524Y-958428D01*
X3009524Y-958428D02*
X3000000Y-920333D01*
X3000000Y-920333D02*
X3000000Y-872714D01*
X3000000Y-872714D02*
X3009524Y-834619D01*
X3009524Y-834619D02*
X3019048Y-815571D01*
X3019048Y-815571D02*
X3028572Y-806048D01*
X3028572Y-806048D02*
X3047619Y-796524D01*
X3190476Y-796524D02*
X3190476Y-834619D01*
X3266667Y-796524D02*
X3266667Y-834619D01*
X3561905Y-1072714D02*
X3552381Y-1063190D01*
X3552381Y-1063190D02*
X3533334Y-1034619D01*
X3533334Y-1034619D02*
X3523810Y-1015571D01*
X3523810Y-1015571D02*
X3514286Y-987000D01*
X3514286Y-987000D02*
X3504762Y-939381D01*
X3504762Y-939381D02*
X3504762Y-901286D01*
X3504762Y-901286D02*
X3514286Y-853667D01*
X3514286Y-853667D02*
X3523810Y-825095D01*
X3523810Y-825095D02*
X3533334Y-806048D01*
X3533334Y-806048D02*
X3552381Y-777476D01*
X3552381Y-777476D02*
X3561905Y-767952D01*
X3723810Y-863190D02*
X3723810Y-996524D01*
X3676191Y-787000D02*
X3628572Y-929857D01*
X3628572Y-929857D02*
X3752381Y-929857D01*
X3980953Y-996524D02*
X3980953Y-796524D01*
X4066667Y-996524D02*
X4066667Y-891762D01*
X4066667Y-891762D02*
X4057143Y-872714D01*
X4057143Y-872714D02*
X4038096Y-863190D01*
X4038096Y-863190D02*
X4009524Y-863190D01*
X4009524Y-863190D02*
X3990476Y-872714D01*
X3990476Y-872714D02*
X3980953Y-882238D01*
X4190476Y-996524D02*
X4171429Y-987000D01*
X4171429Y-987000D02*
X4161905Y-977476D01*
X4161905Y-977476D02*
X4152381Y-958428D01*
X4152381Y-958428D02*
X4152381Y-901286D01*
X4152381Y-901286D02*
X4161905Y-882238D01*
X4161905Y-882238D02*
X4171429Y-872714D01*
X4171429Y-872714D02*
X4190476Y-863190D01*
X4190476Y-863190D02*
X4219048Y-863190D01*
X4219048Y-863190D02*
X4238096Y-872714D01*
X4238096Y-872714D02*
X4247619Y-882238D01*
X4247619Y-882238D02*
X4257143Y-901286D01*
X4257143Y-901286D02*
X4257143Y-958428D01*
X4257143Y-958428D02*
X4247619Y-977476D01*
X4247619Y-977476D02*
X4238096Y-987000D01*
X4238096Y-987000D02*
X4219048Y-996524D01*
X4219048Y-996524D02*
X4190476Y-996524D01*
X4371429Y-996524D02*
X4352381Y-987000D01*
X4352381Y-987000D02*
X4342858Y-967952D01*
X4342858Y-967952D02*
X4342858Y-796524D01*
X4523810Y-987000D02*
X4504762Y-996524D01*
X4504762Y-996524D02*
X4466667Y-996524D01*
X4466667Y-996524D02*
X4447619Y-987000D01*
X4447619Y-987000D02*
X4438096Y-967952D01*
X4438096Y-967952D02*
X4438096Y-891762D01*
X4438096Y-891762D02*
X4447619Y-872714D01*
X4447619Y-872714D02*
X4466667Y-863190D01*
X4466667Y-863190D02*
X4504762Y-863190D01*
X4504762Y-863190D02*
X4523810Y-872714D01*
X4523810Y-872714D02*
X4533334Y-891762D01*
X4533334Y-891762D02*
X4533334Y-910809D01*
X4533334Y-910809D02*
X4438096Y-929857D01*
X4609524Y-987000D02*
X4628572Y-996524D01*
X4628572Y-996524D02*
X4666667Y-996524D01*
X4666667Y-996524D02*
X4685715Y-987000D01*
X4685715Y-987000D02*
X4695239Y-967952D01*
X4695239Y-967952D02*
X4695239Y-958428D01*
X4695239Y-958428D02*
X4685715Y-939381D01*
X4685715Y-939381D02*
X4666667Y-929857D01*
X4666667Y-929857D02*
X4638096Y-929857D01*
X4638096Y-929857D02*
X4619048Y-920333D01*
X4619048Y-920333D02*
X4609524Y-901286D01*
X4609524Y-901286D02*
X4609524Y-891762D01*
X4609524Y-891762D02*
X4619048Y-872714D01*
X4619048Y-872714D02*
X4638096Y-863190D01*
X4638096Y-863190D02*
X4666667Y-863190D01*
X4666667Y-863190D02*
X4685715Y-872714D01*
X4761905Y-1072714D02*
X4771429Y-1063190D01*
X4771429Y-1063190D02*
X4790477Y-1034619D01*
X4790477Y-1034619D02*
X4800000Y-1015571D01*
X4800000Y-1015571D02*
X4809524Y-987000D01*
X4809524Y-987000D02*
X4819048Y-939381D01*
X4819048Y-939381D02*
X4819048Y-901286D01*
X4819048Y-901286D02*
X4809524Y-853667D01*
X4809524Y-853667D02*
X4800000Y-825095D01*
X4800000Y-825095D02*
X4790477Y-806048D01*
X4790477Y-806048D02*
X4771429Y-777476D01*
X4771429Y-777476D02*
X4761905Y-767952D01*
X5123810Y-1072714D02*
X5114286Y-1063190D01*
X5114286Y-1063190D02*
X5095239Y-1034619D01*
X5095239Y-1034619D02*
X5085715Y-1015571D01*
X5085715Y-1015571D02*
X5076191Y-987000D01*
X5076191Y-987000D02*
X5066667Y-939381D01*
X5066667Y-939381D02*
X5066667Y-901286D01*
X5066667Y-901286D02*
X5076191Y-853667D01*
X5076191Y-853667D02*
X5085715Y-825095D01*
X5085715Y-825095D02*
X5095239Y-806048D01*
X5095239Y-806048D02*
X5114286Y-777476D01*
X5114286Y-777476D02*
X5123810Y-767952D01*
X5200000Y-863190D02*
X5200000Y-996524D01*
X5200000Y-882238D02*
X5209524Y-872714D01*
X5209524Y-872714D02*
X5228572Y-863190D01*
X5228572Y-863190D02*
X5257143Y-863190D01*
X5257143Y-863190D02*
X5276191Y-872714D01*
X5276191Y-872714D02*
X5285715Y-891762D01*
X5285715Y-891762D02*
X5285715Y-996524D01*
X5409524Y-996524D02*
X5390477Y-987000D01*
X5390477Y-987000D02*
X5380953Y-977476D01*
X5380953Y-977476D02*
X5371429Y-958428D01*
X5371429Y-958428D02*
X5371429Y-901286D01*
X5371429Y-901286D02*
X5380953Y-882238D01*
X5380953Y-882238D02*
X5390477Y-872714D01*
X5390477Y-872714D02*
X5409524Y-863190D01*
X5409524Y-863190D02*
X5438096Y-863190D01*
X5438096Y-863190D02*
X5457143Y-872714D01*
X5457143Y-872714D02*
X5466667Y-882238D01*
X5466667Y-882238D02*
X5476191Y-901286D01*
X5476191Y-901286D02*
X5476191Y-958428D01*
X5476191Y-958428D02*
X5466667Y-977476D01*
X5466667Y-977476D02*
X5457143Y-987000D01*
X5457143Y-987000D02*
X5438096Y-996524D01*
X5438096Y-996524D02*
X5409524Y-996524D01*
X5533334Y-863190D02*
X5609524Y-863190D01*
X5561905Y-796524D02*
X5561905Y-967952D01*
X5561905Y-967952D02*
X5571429Y-987000D01*
X5571429Y-987000D02*
X5590477Y-996524D01*
X5590477Y-996524D02*
X5609524Y-996524D01*
X5828572Y-863190D02*
X5828572Y-1063190D01*
X5828572Y-872714D02*
X5847619Y-863190D01*
X5847619Y-863190D02*
X5885715Y-863190D01*
X5885715Y-863190D02*
X5904762Y-872714D01*
X5904762Y-872714D02*
X5914286Y-882238D01*
X5914286Y-882238D02*
X5923810Y-901286D01*
X5923810Y-901286D02*
X5923810Y-958428D01*
X5923810Y-958428D02*
X5914286Y-977476D01*
X5914286Y-977476D02*
X5904762Y-987000D01*
X5904762Y-987000D02*
X5885715Y-996524D01*
X5885715Y-996524D02*
X5847619Y-996524D01*
X5847619Y-996524D02*
X5828572Y-987000D01*
X6038096Y-996524D02*
X6019048Y-987000D01*
X6019048Y-987000D02*
X6009524Y-967952D01*
X6009524Y-967952D02*
X6009524Y-796524D01*
X6200000Y-996524D02*
X6200000Y-891762D01*
X6200000Y-891762D02*
X6190477Y-872714D01*
X6190477Y-872714D02*
X6171429Y-863190D01*
X6171429Y-863190D02*
X6133334Y-863190D01*
X6133334Y-863190D02*
X6114286Y-872714D01*
X6200000Y-987000D02*
X6180953Y-996524D01*
X6180953Y-996524D02*
X6133334Y-996524D01*
X6133334Y-996524D02*
X6114286Y-987000D01*
X6114286Y-987000D02*
X6104762Y-967952D01*
X6104762Y-967952D02*
X6104762Y-948905D01*
X6104762Y-948905D02*
X6114286Y-929857D01*
X6114286Y-929857D02*
X6133334Y-920333D01*
X6133334Y-920333D02*
X6180953Y-920333D01*
X6180953Y-920333D02*
X6200000Y-910809D01*
X6266667Y-863190D02*
X6342858Y-863190D01*
X6295239Y-796524D02*
X6295239Y-967952D01*
X6295239Y-967952D02*
X6304762Y-987000D01*
X6304762Y-987000D02*
X6323810Y-996524D01*
X6323810Y-996524D02*
X6342858Y-996524D01*
X6485715Y-987000D02*
X6466667Y-996524D01*
X6466667Y-996524D02*
X6428572Y-996524D01*
X6428572Y-996524D02*
X6409524Y-987000D01*
X6409524Y-987000D02*
X6400000Y-967952D01*
X6400000Y-967952D02*
X6400000Y-891762D01*
X6400000Y-891762D02*
X6409524Y-872714D01*
X6409524Y-872714D02*
X6428572Y-863190D01*
X6428572Y-863190D02*
X6466667Y-863190D01*
X6466667Y-863190D02*
X6485715Y-872714D01*
X6485715Y-872714D02*
X6495239Y-891762D01*
X6495239Y-891762D02*
X6495239Y-910809D01*
X6495239Y-910809D02*
X6400000Y-929857D01*
X6666667Y-996524D02*
X6666667Y-796524D01*
X6666667Y-987000D02*
X6647620Y-996524D01*
X6647620Y-996524D02*
X6609524Y-996524D01*
X6609524Y-996524D02*
X6590477Y-987000D01*
X6590477Y-987000D02*
X6580953Y-977476D01*
X6580953Y-977476D02*
X6571429Y-958428D01*
X6571429Y-958428D02*
X6571429Y-901286D01*
X6571429Y-901286D02*
X6580953Y-882238D01*
X6580953Y-882238D02*
X6590477Y-872714D01*
X6590477Y-872714D02*
X6609524Y-863190D01*
X6609524Y-863190D02*
X6647620Y-863190D01*
X6647620Y-863190D02*
X6666667Y-872714D01*
X6742858Y-1072714D02*
X6752381Y-1063190D01*
X6752381Y-1063190D02*
X6771429Y-1034619D01*
X6771429Y-1034619D02*
X6780953Y-1015571D01*
X6780953Y-1015571D02*
X6790477Y-987000D01*
X6790477Y-987000D02*
X6800000Y-939381D01*
X6800000Y-939381D02*
X6800000Y-901286D01*
X6800000Y-901286D02*
X6790477Y-853667D01*
X6790477Y-853667D02*
X6780953Y-825095D01*
X6780953Y-825095D02*
X6771429Y-806048D01*
X6771429Y-806048D02*
X6752381Y-777476D01*
X6752381Y-777476D02*
X6742858Y-767952D01*
M02*
