%TF.GenerationSoftware,KiCad,Pcbnew,7.0.1*%
%TF.CreationDate,2023-09-13T21:21:08+01:00*%
%TF.ProjectId,101 PCB,31303120-5043-4422-9e6b-696361645f70,rev?*%
%TF.SameCoordinates,Original*%
%TF.FileFunction,Copper,L4,Bot*%
%TF.FilePolarity,Positive*%
%FSLAX46Y46*%
G04 Gerber Fmt 4.6, Leading zero omitted, Abs format (unit mm)*
G04 Created by KiCad (PCBNEW 7.0.1) date 2023-09-13 21:21:08*
%MOMM*%
%LPD*%
G01*
G04 APERTURE LIST*
%TA.AperFunction,ComponentPad*%
%ADD10R,1.700000X1.700000*%
%TD*%
%TA.AperFunction,ComponentPad*%
%ADD11O,1.700000X1.700000*%
%TD*%
%TA.AperFunction,ComponentPad*%
%ADD12O,2.000000X0.900000*%
%TD*%
%TA.AperFunction,ComponentPad*%
%ADD13O,1.700000X0.900000*%
%TD*%
%TA.AperFunction,HeatsinkPad*%
%ADD14C,0.600000*%
%TD*%
%TA.AperFunction,ComponentPad*%
%ADD15R,1.600000X1.600000*%
%TD*%
%TA.AperFunction,ComponentPad*%
%ADD16C,1.600000*%
%TD*%
%TA.AperFunction,ComponentPad*%
%ADD17R,3.000000X3.000000*%
%TD*%
%TA.AperFunction,ComponentPad*%
%ADD18C,3.000000*%
%TD*%
%TA.AperFunction,ComponentPad*%
%ADD19R,1.800000X1.800000*%
%TD*%
%TA.AperFunction,ComponentPad*%
%ADD20C,1.800000*%
%TD*%
%TA.AperFunction,ViaPad*%
%ADD21C,0.450000*%
%TD*%
%TA.AperFunction,Conductor*%
%ADD22C,0.250000*%
%TD*%
%TA.AperFunction,Conductor*%
%ADD23C,0.500000*%
%TD*%
%TA.AperFunction,Conductor*%
%ADD24C,1.000000*%
%TD*%
G04 APERTURE END LIST*
D10*
%TO.P,J106,1,Pin_1*%
%TO.N,VDDIO1*%
X166630000Y-75750000D03*
D11*
%TO.P,J106,2,Pin_2*%
X164090000Y-75750000D03*
%TO.P,J106,3,Pin_3*%
X161550000Y-75750000D03*
%TO.P,J106,4,Pin_4*%
X159010000Y-75750000D03*
%TD*%
D12*
%TO.P,J101,S1,SHIELD*%
%TO.N,unconnected-(J101-SHIELD-PadS1)*%
X113970000Y-73375000D03*
%TO.P,J101,S2,SHIELD*%
%TO.N,unconnected-(J101-SHIELD-PadS2)*%
X113970000Y-82025000D03*
D13*
%TO.P,J101,S3,SHIELD*%
%TO.N,unconnected-(J101-SHIELD-PadS3)*%
X109800000Y-73375000D03*
%TO.P,J101,S4,SHIELD*%
%TO.N,unconnected-(J101-SHIELD-PadS4)*%
X109800000Y-82025000D03*
%TD*%
D10*
%TO.P,J108,1,Pin_1*%
%TO.N,GND*%
X166630000Y-73210000D03*
D11*
%TO.P,J108,2,Pin_2*%
X164090000Y-73210000D03*
%TO.P,J108,3,Pin_3*%
X161550000Y-73210000D03*
%TO.P,J108,4,Pin_4*%
X159010000Y-73210000D03*
%TD*%
D10*
%TO.P,J1,1,Pin_1*%
%TO.N,SCL*%
X126460000Y-65001000D03*
D11*
%TO.P,J1,2,Pin_2*%
%TO.N,SDA*%
X129000000Y-65001000D03*
%TO.P,J1,3,Pin_3*%
%TO.N,+3.3V*%
X131540000Y-65001000D03*
%TO.P,J1,4,Pin_4*%
%TO.N,GND*%
X134080000Y-65001000D03*
%TO.P,J1,5,Pin_5*%
%TO.N,GPIO13*%
X136620000Y-65001000D03*
%TO.P,J1,6,Pin_6*%
%TO.N,GPIO2*%
X139160000Y-65001000D03*
%TO.P,J1,7,Pin_7*%
%TO.N,GPIO12*%
X141700000Y-65001000D03*
%TO.P,J1,8,Pin_8*%
%TO.N,GPIO14*%
X144240000Y-65001000D03*
%TO.P,J1,9,Pin_9*%
%TO.N,GPIO4*%
X146780000Y-65001000D03*
%TO.P,J1,10,Pin_10*%
%TO.N,GPIO16*%
X149320000Y-65001000D03*
%TD*%
D10*
%TO.P,J109,1,Pin_1*%
%TO.N,GND*%
X149090000Y-73210000D03*
D11*
%TO.P,J109,2,Pin_2*%
X146550000Y-73210000D03*
%TO.P,J109,3,Pin_3*%
X144010000Y-73210000D03*
%TO.P,J109,4,Pin_4*%
X141470000Y-73210000D03*
%TD*%
D10*
%TO.P,JP102,1,A*%
%TO.N,+5V*%
X137660000Y-78290000D03*
D11*
%TO.P,JP102,2,C*%
%TO.N,VDDIO2*%
X137660000Y-75750000D03*
%TO.P,JP102,3,B*%
%TO.N,VIN*%
X137660000Y-73210000D03*
%TD*%
D14*
%TO.P,U101,39,GND*%
%TO.N,GND*%
X162057500Y-92295000D03*
X160532500Y-92295000D03*
X162820000Y-93057500D03*
X161295000Y-93057500D03*
X159770000Y-93057500D03*
X162057500Y-93820000D03*
X160532500Y-93820000D03*
X162820000Y-94582500D03*
X161295000Y-94582500D03*
X159770000Y-94582500D03*
X162057500Y-95345000D03*
X160532500Y-95345000D03*
%TD*%
D15*
%TO.P,C119,1*%
%TO.N,VIN*%
X119405113Y-91700000D03*
D16*
%TO.P,C119,2*%
%TO.N,GND*%
X116905113Y-91700000D03*
%TD*%
D10*
%TO.P,J5,1,Pin_1*%
%TO.N,GPIO15*%
X158455000Y-113260000D03*
D11*
%TO.P,J5,2,Pin_2*%
%TO.N,GPIO27*%
X160995000Y-113260000D03*
%TO.P,J5,3,Pin_3*%
%TO.N,GPIO26*%
X163535000Y-113260000D03*
%TO.P,J5,4,Pin_4*%
%TO.N,GPIO25*%
X166075000Y-113260000D03*
%TO.P,J5,5,Pin_5*%
%TO.N,GPIO33*%
X168615000Y-113260000D03*
%TO.P,J5,6,Pin_6*%
%TO.N,GPIO32*%
X171155000Y-113260000D03*
%TD*%
D10*
%TO.P,J105,1,Pin_1*%
%TO.N,S4*%
X149090000Y-78290000D03*
D11*
%TO.P,J105,2,Pin_2*%
%TO.N,S5*%
X146550000Y-78290000D03*
%TO.P,J105,3,Pin_3*%
%TO.N,S6*%
X144010000Y-78290000D03*
%TO.P,J105,4,Pin_4*%
%TO.N,S7*%
X141470000Y-78290000D03*
%TD*%
D17*
%TO.P,J102,1,Pin_1*%
%TO.N,/M1_OUT1*%
X110960000Y-111500000D03*
D18*
%TO.P,J102,2,Pin_2*%
%TO.N,/M1_OUT2*%
X116040000Y-111500000D03*
%TD*%
D10*
%TO.P,J107,1,Pin_1*%
%TO.N,VDDIO2*%
X149090000Y-75750000D03*
D11*
%TO.P,J107,2,Pin_2*%
X146550000Y-75750000D03*
%TO.P,J107,3,Pin_3*%
X144010000Y-75750000D03*
%TO.P,J107,4,Pin_4*%
X141470000Y-75750000D03*
%TD*%
D10*
%TO.P,J104,1,Pin_1*%
%TO.N,S0*%
X166630000Y-78290000D03*
D11*
%TO.P,J104,2,Pin_2*%
%TO.N,S1*%
X164090000Y-78290000D03*
%TO.P,J104,3,Pin_3*%
%TO.N,S2*%
X161550000Y-78290000D03*
%TO.P,J104,4,Pin_4*%
%TO.N,S3*%
X159010000Y-78290000D03*
%TD*%
D10*
%TO.P,J3,1,Pin_1*%
%TO.N,GPIO17*%
X153382000Y-65003000D03*
D11*
%TO.P,J3,2,Pin_2*%
%TO.N,GPIO5*%
X155922000Y-65003000D03*
%TO.P,J3,3,Pin_3*%
%TO.N,GPIO18*%
X158462000Y-65003000D03*
%TO.P,J3,4,Pin_4*%
%TO.N,GPIO19*%
X161002000Y-65003000D03*
%TO.P,J3,5,Pin_5*%
%TO.N,GPIO23*%
X163542000Y-65003000D03*
%TO.P,J3,6,Pin_6*%
%TO.N,IO0*%
X166082000Y-65003000D03*
%TO.P,J3,7,Pin_7*%
%TO.N,ESP32_TX*%
X168622000Y-65003000D03*
%TO.P,J3,8,Pin_8*%
%TO.N,ESP32_RX*%
X171162000Y-65003000D03*
%TD*%
D10*
%TO.P,JP101,1,A*%
%TO.N,+5V*%
X155200000Y-78290000D03*
D11*
%TO.P,JP101,2,C*%
%TO.N,VDDIO1*%
X155200000Y-75750000D03*
%TO.P,JP101,3,B*%
%TO.N,VIN*%
X155200000Y-73210000D03*
%TD*%
D10*
%TO.P,J4,1,Pin_1*%
%TO.N,unconnected-(J4-Pin_1-Pad1)*%
X135597000Y-113264000D03*
D11*
%TO.P,J4,2,Pin_2*%
%TO.N,+3.3V*%
X138137000Y-113264000D03*
%TO.P,J4,3,Pin_3*%
%TO.N,EN*%
X140677000Y-113264000D03*
%TO.P,J4,4,Pin_4*%
%TO.N,+3.3V*%
X143217000Y-113264000D03*
%TO.P,J4,5,Pin_5*%
%TO.N,+5V*%
X145757000Y-113264000D03*
%TO.P,J4,6,Pin_6*%
%TO.N,GND*%
X148297000Y-113264000D03*
%TO.P,J4,7,Pin_7*%
X150837000Y-113264000D03*
%TO.P,J4,8,Pin_8*%
%TO.N,VIN*%
X153377000Y-113264000D03*
%TD*%
D17*
%TO.P,J103,1,Pin_1*%
%TO.N,/M2_OUT1*%
X116040000Y-67000000D03*
D18*
%TO.P,J103,2,Pin_2*%
%TO.N,/M2_OUT2*%
X110960000Y-67000000D03*
%TD*%
D17*
%TO.P,J110,1,Pin_1*%
%TO.N,+BATT*%
X112500000Y-97710000D03*
D18*
%TO.P,J110,2,Pin_2*%
%TO.N,GND*%
X112500000Y-102790000D03*
%TD*%
D19*
%TO.P,D1,1,K*%
%TO.N,/STM_LED_K*%
X122000000Y-84100000D03*
D20*
%TO.P,D1,2,A*%
%TO.N,/STM_LED_A*%
X124540000Y-84100000D03*
%TD*%
D21*
%TO.N,CC1*%
X117700000Y-76075500D03*
X119200000Y-76100000D03*
X130000000Y-78800000D03*
X134800000Y-88700000D03*
X130000000Y-83300000D03*
X130000000Y-76800000D03*
%TO.N,CC2*%
X129400000Y-82600000D03*
X134800000Y-88000000D03*
%TO.N,NRST*%
X139400000Y-92700000D03*
X133803000Y-91925000D03*
%TO.N,VBUS{slash}11*%
X149600000Y-85800000D03*
X130800000Y-76200000D03*
X157700000Y-90437844D03*
X163555000Y-84582844D03*
X146500000Y-81800000D03*
%TO.N,GND*%
X117300000Y-73800000D03*
X168635000Y-86926498D03*
X120747361Y-77747361D03*
X127315625Y-86179000D03*
X135720000Y-82755604D03*
X128900000Y-72612500D03*
X134050513Y-90783451D03*
X155300000Y-104950000D03*
X148051000Y-65448000D03*
X125500000Y-97500000D03*
X140800000Y-100500000D03*
X115600000Y-74500000D03*
X130900000Y-100500000D03*
X128600000Y-99000000D03*
X145357567Y-83902916D03*
X146143293Y-88617500D03*
X159100000Y-104950000D03*
X130900000Y-99800000D03*
X155550000Y-110750000D03*
X125500000Y-98500000D03*
X137500000Y-97500000D03*
X154550000Y-109750000D03*
X139400000Y-86200000D03*
X126500000Y-97500000D03*
X129500000Y-100500000D03*
X137901000Y-65398000D03*
X152600000Y-109700000D03*
X152160000Y-99499500D03*
X132750000Y-112179633D03*
X149600000Y-110700000D03*
X137500000Y-98500000D03*
X127330513Y-87449000D03*
X130900000Y-101200000D03*
X149712052Y-88790000D03*
X121250000Y-101965208D03*
X139400000Y-88200000D03*
X138500000Y-97500000D03*
X132426407Y-74330000D03*
X142900000Y-100500000D03*
X129500000Y-72612500D03*
X165462000Y-105596000D03*
X127400000Y-99000000D03*
X148600000Y-109700000D03*
X121800000Y-109300000D03*
X128963229Y-91636771D03*
X168635000Y-104428589D03*
X152000000Y-88790000D03*
X134400000Y-93600000D03*
X154697000Y-65454000D03*
X134400000Y-94200000D03*
X152750000Y-104950000D03*
X141400000Y-88200000D03*
X154050000Y-104950000D03*
X137400000Y-88200000D03*
X159751000Y-65448000D03*
X142900000Y-99800000D03*
X141400000Y-86200000D03*
X165000000Y-87750000D03*
X168635000Y-84569199D03*
X141500000Y-100500000D03*
X146123176Y-84637500D03*
X156600000Y-104950000D03*
X164801000Y-65448000D03*
X130425000Y-69956000D03*
X141400000Y-90200000D03*
X139400000Y-99000000D03*
X139400000Y-90200000D03*
X163750000Y-105250000D03*
X168635000Y-102066274D03*
X135000000Y-93600000D03*
X128800000Y-100500000D03*
X130200000Y-100500000D03*
X157600000Y-110700000D03*
X135000000Y-94200000D03*
X139200000Y-106500000D03*
X123000000Y-87900000D03*
X140600000Y-99000000D03*
X156600000Y-109700000D03*
X157850000Y-104950000D03*
X115600000Y-80900000D03*
X137400000Y-86200000D03*
X150600000Y-109700000D03*
X127659000Y-70041000D03*
X169901000Y-65448000D03*
X146142473Y-85660443D03*
X121800000Y-71100000D03*
X124450000Y-72250000D03*
X142200000Y-100500000D03*
X142900000Y-101200000D03*
X121800000Y-69900000D03*
X137400000Y-90200000D03*
X129677638Y-75592170D03*
X121800000Y-70500000D03*
X151600000Y-110700000D03*
X113933210Y-87250000D03*
X165619000Y-101669000D03*
X153600000Y-110700000D03*
X116049500Y-77800000D03*
X142951000Y-65448000D03*
X121800000Y-108700000D03*
X127200000Y-106500000D03*
X121800000Y-109900000D03*
X131410000Y-80900000D03*
%TO.N,/5V_SW*%
X131258156Y-97520000D03*
X129800000Y-102300000D03*
%TO.N,+5V*%
X148700000Y-71500000D03*
X135100000Y-102300000D03*
X146700000Y-70500000D03*
X147700000Y-70500000D03*
X135100000Y-103300000D03*
X135100000Y-105300000D03*
X135100000Y-104300000D03*
X148700000Y-69500000D03*
X133100000Y-102300000D03*
X146700000Y-71500000D03*
X148700000Y-70500000D03*
X149700000Y-70500000D03*
X147700000Y-71500000D03*
X134100000Y-102300000D03*
X147700000Y-69500000D03*
X146700000Y-69500000D03*
X149700000Y-71500000D03*
%TO.N,/3V3_SW*%
X143258156Y-97520000D03*
X141800000Y-102300000D03*
%TO.N,+3.3V*%
X121800000Y-90200000D03*
X132400000Y-78700000D03*
X146200000Y-100000000D03*
X123000000Y-89600000D03*
X166500000Y-89250000D03*
X145200000Y-108200000D03*
X144400000Y-83900000D03*
X132400000Y-80100000D03*
X160600000Y-104700000D03*
X159000000Y-106000000D03*
X132400000Y-79400000D03*
X134500000Y-82900000D03*
X134500000Y-83900000D03*
X150000000Y-104000000D03*
X121800000Y-89600000D03*
X152000000Y-106000000D03*
X130200000Y-71200000D03*
X131300000Y-75300000D03*
X113952329Y-88250000D03*
X152600000Y-110700000D03*
X149600000Y-109700000D03*
X146145507Y-86619014D03*
X132300000Y-76500000D03*
X133500000Y-83900000D03*
X157000000Y-106000000D03*
X123000000Y-90200000D03*
X164200000Y-87100000D03*
X148600000Y-110700000D03*
X132300000Y-75500000D03*
X133100000Y-80100000D03*
X128720000Y-75592033D03*
X144200000Y-108200000D03*
X154000000Y-106000000D03*
X150600000Y-110700000D03*
X122400000Y-90200000D03*
X131700000Y-79400000D03*
X157600000Y-109700000D03*
X151600000Y-109700000D03*
X146200000Y-99100000D03*
X146200000Y-100900000D03*
X151000000Y-105000000D03*
X132439493Y-73370000D03*
X146200000Y-101800000D03*
X132500000Y-83900000D03*
X156600000Y-110700000D03*
X130700000Y-74800000D03*
X144200000Y-107200000D03*
X133500000Y-82900000D03*
X146200000Y-98200000D03*
X122400000Y-89600000D03*
X136680000Y-82767611D03*
X130600000Y-74100000D03*
X154600000Y-110700000D03*
X163300000Y-87100000D03*
X145200000Y-107200000D03*
X156000000Y-106000000D03*
X151000000Y-106000000D03*
X159900000Y-105500000D03*
X161400000Y-104700000D03*
X146200000Y-106200000D03*
X155600000Y-109700000D03*
X145300000Y-97400000D03*
X114653545Y-88250000D03*
X145200000Y-106200000D03*
X153000000Y-106000000D03*
X165750000Y-88500000D03*
X155000000Y-106000000D03*
X145300000Y-98200000D03*
X150000000Y-105000000D03*
X158000000Y-106000000D03*
X132500000Y-82900000D03*
X144200000Y-106200000D03*
X131700000Y-80100000D03*
X153600000Y-109700000D03*
X131700000Y-78700000D03*
X146200000Y-107200000D03*
%TO.N,USB_DP*%
X121353453Y-78099999D03*
X116000000Y-78700000D03*
%TO.N,USB_DN*%
X121353453Y-77449999D03*
X116000000Y-76800000D03*
%TO.N,EN*%
X166095582Y-84575867D03*
X163000000Y-105600000D03*
X147320000Y-95250000D03*
%TO.N,SDA*%
X125900000Y-79300000D03*
X128700000Y-70000000D03*
X160485000Y-108600000D03*
X134800000Y-89400000D03*
%TO.N,SCL*%
X166095000Y-106200000D03*
X134800000Y-86800000D03*
X125900000Y-80000000D03*
X129587500Y-70000000D03*
%TO.N,IMU_INT1*%
X150100000Y-83700000D03*
X126962500Y-73350000D03*
%TO.N,IMU_INT2*%
X131700000Y-72212500D03*
X150100000Y-84600000D03*
%TO.N,ESP32_RX*%
X163555000Y-104432301D03*
%TO.N,ESP32_TX*%
X164825000Y-101312197D03*
%TO.N,GPIO5*%
X157205000Y-104423128D03*
%TO.N,GPIO23*%
X163000000Y-100500000D03*
%TO.N,GPIO19*%
X159745000Y-104426075D03*
%TO.N,GPIO18*%
X158475000Y-104421663D03*
%TO.N,GPIO14*%
X153395000Y-84570217D03*
%TO.N,GPIO12*%
X152125000Y-84579888D03*
%TO.N,GPIO13*%
X149696709Y-90059341D03*
%TO.N,GPIO2*%
X152045825Y-100220000D03*
%TO.N,IO0*%
X148050000Y-91600000D03*
X152125000Y-104427058D03*
%TO.N,GPIO4*%
X153395000Y-104430948D03*
%TO.N,GPIO16*%
X154665000Y-104426314D03*
%TO.N,GPIO17*%
X155935000Y-104427779D03*
%TO.N,MOTOR_SLEEP*%
X139400000Y-93600000D03*
X126400000Y-71500000D03*
%TO.N,M2_IN2*%
X124900000Y-71600000D03*
X134800000Y-90100000D03*
%TO.N,M2_IN1*%
X134800000Y-90800000D03*
X124500000Y-73100000D03*
%TO.N,S3*%
X143472000Y-83200000D03*
X140861000Y-82582000D03*
%TO.N,/STM_LED_A*%
X139400000Y-94500000D03*
%TO.N,VIN*%
X111500000Y-92500000D03*
X129888850Y-98972203D03*
X140000000Y-101200000D03*
X119250000Y-65500000D03*
X119250000Y-64500000D03*
X114500000Y-92500000D03*
X118250000Y-63500000D03*
X116000000Y-94000000D03*
X120250000Y-64500000D03*
X120250000Y-63500000D03*
X117500000Y-94000000D03*
X113000000Y-94000000D03*
X111500000Y-94000000D03*
X117250000Y-63500000D03*
X120250000Y-65500000D03*
X114500000Y-94000000D03*
X119250000Y-63500000D03*
X113000000Y-92500000D03*
X116250000Y-63500000D03*
X141888850Y-98972203D03*
%TO.N,/STM32_EN*%
X142850000Y-91650000D03*
X145500000Y-94300000D03*
%TO.N,VIN{slash}11*%
X133790000Y-81880000D03*
X164591790Y-84574456D03*
X145800000Y-82500000D03*
X157700000Y-91283123D03*
X149600000Y-86700000D03*
%TD*%
D22*
%TO.N,CC1*%
X130000000Y-87900000D02*
X130800000Y-88700000D01*
X130000000Y-78800000D02*
X130000000Y-76800000D01*
X117724500Y-76100000D02*
X117700000Y-76075500D01*
X130000000Y-83300000D02*
X130000000Y-87900000D01*
X119200000Y-76100000D02*
X117724500Y-76100000D01*
X130800000Y-88700000D02*
X134800000Y-88700000D01*
%TO.N,CC2*%
X130700000Y-87500000D02*
X131200000Y-88000000D01*
X130300000Y-82600000D02*
X130700000Y-83000000D01*
X131200000Y-88000000D02*
X134800000Y-88000000D01*
X129400000Y-82600000D02*
X130300000Y-82600000D01*
X130700000Y-83000000D02*
X130700000Y-87500000D01*
%TO.N,NRST*%
X134578000Y-92700000D02*
X139400000Y-92700000D01*
X133803000Y-91925000D02*
X134578000Y-92700000D01*
%TO.N,VBUS{slash}11*%
X131200000Y-81600000D02*
X130800000Y-81200000D01*
X131800000Y-81600000D02*
X131200000Y-81600000D01*
X148900000Y-85100000D02*
X149600000Y-85800000D01*
X148000000Y-81800000D02*
X148900000Y-82700000D01*
X148900000Y-82700000D02*
X148900000Y-85100000D01*
X157700000Y-90437844D02*
X163555000Y-84582844D01*
X146500000Y-81800000D02*
X148000000Y-81800000D01*
X146500000Y-81800000D02*
X145600000Y-80900000D01*
X130800000Y-81200000D02*
X130800000Y-76200000D01*
X132500000Y-80900000D02*
X131800000Y-81600000D01*
X145600000Y-80900000D02*
X132500000Y-80900000D01*
%TO.N,/5V_SW*%
X130900000Y-102300000D02*
X129800000Y-102300000D01*
X131500000Y-101700000D02*
X130900000Y-102300000D01*
X131500000Y-99400000D02*
X131500000Y-101700000D01*
X131258156Y-99158156D02*
X131500000Y-99400000D01*
X131258156Y-97520000D02*
X131258156Y-99158156D01*
%TO.N,+5V*%
X136900000Y-74500000D02*
X138600000Y-74500000D01*
%TO.N,/3V3_SW*%
X143600000Y-101500000D02*
X142800000Y-102300000D01*
X143600000Y-99500000D02*
X143600000Y-101500000D01*
X143258156Y-99158156D02*
X143600000Y-99500000D01*
X142800000Y-102300000D02*
X141800000Y-102300000D01*
X143258156Y-97520000D02*
X143258156Y-99158156D01*
D23*
%TO.N,+3.3V*%
X121800000Y-90200000D02*
X121800000Y-89900000D01*
D24*
X116303545Y-89900000D02*
X114653545Y-88250000D01*
X121800000Y-89900000D02*
X116303545Y-89900000D01*
D23*
X121800000Y-90200000D02*
X122400000Y-89600000D01*
D24*
X114653545Y-88250000D02*
X113952329Y-88250000D01*
D23*
X123000000Y-90200000D02*
X122400000Y-90200000D01*
X122400000Y-90200000D02*
X121800000Y-90200000D01*
X121800000Y-89600000D02*
X122400000Y-89600000D01*
X123000000Y-89600000D02*
X122400000Y-89600000D01*
X123000000Y-90200000D02*
X123000000Y-89600000D01*
X122400000Y-90200000D02*
X121800000Y-89600000D01*
X121800000Y-89900000D02*
X121800000Y-89600000D01*
X122400000Y-90200000D02*
X123000000Y-89600000D01*
D22*
%TO.N,USB_DP*%
X116300000Y-78400000D02*
X116000000Y-78700000D01*
X121353453Y-78099999D02*
X121053452Y-78400000D01*
X121053452Y-78400000D02*
X116300000Y-78400000D01*
%TO.N,USB_DN*%
X116000000Y-76800000D02*
X116000000Y-76825000D01*
X116300000Y-77100000D02*
X116000000Y-76800000D01*
X121003454Y-77100000D02*
X116300000Y-77100000D01*
X121353453Y-77449999D02*
X121003454Y-77100000D01*
%TO.N,EN*%
X148700000Y-105200000D02*
X148700000Y-96630000D01*
X168000000Y-96800000D02*
X168000000Y-88600000D01*
X166095000Y-86695000D02*
X166095000Y-84505000D01*
X163000000Y-105600000D02*
X161500000Y-105600000D01*
X161500000Y-105600000D02*
X159700000Y-107400000D01*
X163000000Y-101800000D02*
X168000000Y-96800000D01*
X159700000Y-107400000D02*
X150900000Y-107400000D01*
X163000000Y-105600000D02*
X163000000Y-101800000D01*
X168000000Y-88600000D02*
X166095000Y-86695000D01*
X148700000Y-96630000D02*
X147320000Y-95250000D01*
X150900000Y-107400000D02*
X148700000Y-105200000D01*
%TO.N,SDA*%
X126751000Y-70789000D02*
X126181000Y-70219000D01*
X140100000Y-92400000D02*
X139500000Y-91800000D01*
X150300000Y-108600000D02*
X144200000Y-102500000D01*
X160485000Y-108600000D02*
X150300000Y-108600000D01*
X129300000Y-83600000D02*
X128700000Y-83000000D01*
X134877818Y-89400000D02*
X134800000Y-89400000D01*
X137277818Y-91800000D02*
X134877818Y-89400000D01*
X134800000Y-89400000D02*
X130400000Y-89400000D01*
X128700000Y-83000000D02*
X128700000Y-77450000D01*
X140100000Y-95100000D02*
X140100000Y-92400000D01*
X123981000Y-70219000D02*
X123300000Y-70900000D01*
X129300000Y-88300000D02*
X129300000Y-83600000D01*
X144200000Y-99200000D02*
X143900000Y-98900000D01*
X125800000Y-74550000D02*
X125800000Y-72900000D01*
X139500000Y-91800000D02*
X137277818Y-91800000D01*
X126181000Y-70219000D02*
X123981000Y-70219000D01*
X143300000Y-96600000D02*
X141600000Y-96600000D01*
X128700000Y-77450000D02*
X125800000Y-74550000D01*
X144200000Y-102500000D02*
X144200000Y-99200000D01*
X143900000Y-98900000D02*
X143900000Y-97200000D01*
X125800000Y-72900000D02*
X128700000Y-70000000D01*
X123300000Y-75400000D02*
X125900000Y-78000000D01*
X127911000Y-70789000D02*
X126751000Y-70789000D01*
X123300000Y-70900000D02*
X123300000Y-75400000D01*
X125900000Y-78000000D02*
X125900000Y-79300000D01*
X141600000Y-96600000D02*
X140100000Y-95100000D01*
X130400000Y-89400000D02*
X129300000Y-88300000D01*
X128700000Y-70000000D02*
X127911000Y-70789000D01*
X143900000Y-97200000D02*
X143300000Y-96600000D01*
%TO.N,SCL*%
X129037500Y-69450000D02*
X123750000Y-69450000D01*
X131400000Y-86200000D02*
X131400000Y-82700000D01*
X129300000Y-81400000D02*
X129300000Y-77100000D01*
X122800000Y-75700000D02*
X125100000Y-78000000D01*
X141900000Y-96000000D02*
X140700000Y-94800000D01*
X140700000Y-92100000D02*
X139700000Y-91100000D01*
X144500000Y-96900000D02*
X143600000Y-96000000D01*
X161900000Y-106200000D02*
X160100000Y-108000000D01*
X135600000Y-89300000D02*
X135600000Y-87600000D01*
X160100000Y-108000000D02*
X150600000Y-108000000D01*
X125600000Y-80000000D02*
X125900000Y-80000000D01*
X144800000Y-98800000D02*
X144500000Y-98500000D01*
X131400000Y-82700000D02*
X130500000Y-81800000D01*
X123750000Y-69450000D02*
X122800000Y-70400000D01*
X125100000Y-79500000D02*
X125600000Y-80000000D01*
X126412500Y-74212500D02*
X129300000Y-77100000D01*
X129700000Y-81800000D02*
X129300000Y-81400000D01*
X129587500Y-70000000D02*
X129534682Y-70000000D01*
X125100000Y-78000000D02*
X125100000Y-79500000D01*
X126412500Y-73122182D02*
X126412500Y-74212500D01*
X130500000Y-81800000D02*
X129700000Y-81800000D01*
X144500000Y-98500000D02*
X144500000Y-96900000D01*
X129534682Y-70000000D02*
X126412500Y-73122182D01*
X144800000Y-102200000D02*
X144800000Y-98800000D01*
X140700000Y-94800000D02*
X140700000Y-92100000D01*
X137400000Y-91100000D02*
X135600000Y-89300000D01*
X134800000Y-86800000D02*
X132000000Y-86800000D01*
X143600000Y-96000000D02*
X141900000Y-96000000D01*
X122800000Y-70400000D02*
X122800000Y-75700000D01*
X135600000Y-87600000D02*
X134800000Y-86800000D01*
X132000000Y-86800000D02*
X131400000Y-86200000D01*
X139700000Y-91100000D02*
X137400000Y-91100000D01*
X129587500Y-70000000D02*
X129037500Y-69450000D01*
X166095000Y-106200000D02*
X161900000Y-106200000D01*
X150600000Y-108000000D02*
X144800000Y-102200000D01*
%TO.N,IMU_INT1*%
X134500000Y-79700000D02*
X149200000Y-79700000D01*
X133900000Y-79100000D02*
X134500000Y-79700000D01*
X131500000Y-70600000D02*
X133900000Y-73000000D01*
X133900000Y-73000000D02*
X133900000Y-79100000D01*
X149200000Y-79700000D02*
X150100000Y-80600000D01*
X126962500Y-73350000D02*
X129712500Y-70600000D01*
X129712500Y-70600000D02*
X131500000Y-70600000D01*
X150100000Y-80600000D02*
X150100000Y-83700000D01*
%TO.N,IMU_INT2*%
X148900000Y-80300000D02*
X149500000Y-80900000D01*
X149500000Y-84000000D02*
X150100000Y-84600000D01*
X133300000Y-73300000D02*
X133300000Y-79400000D01*
X131700000Y-72212500D02*
X132212500Y-72212500D01*
X134200000Y-80300000D02*
X148900000Y-80300000D01*
X149500000Y-80900000D02*
X149500000Y-84000000D01*
X133300000Y-79400000D02*
X134200000Y-80300000D01*
X132212500Y-72212500D02*
X133300000Y-73300000D01*
%TO.N,ESP32_RX*%
X164761699Y-104432301D02*
X169400000Y-99794000D01*
X169400000Y-99794000D02*
X169400000Y-71146000D01*
X171160000Y-69386000D02*
X171160000Y-65000000D01*
X169400000Y-71146000D02*
X171160000Y-69386000D01*
X163555000Y-104432301D02*
X164761699Y-104432301D01*
%TO.N,ESP32_TX*%
X164825000Y-101312197D02*
X165516197Y-100621000D01*
X168622000Y-68627000D02*
X168622000Y-65003000D01*
X166356000Y-100621000D02*
X168700000Y-98277000D01*
X165516197Y-100621000D02*
X166356000Y-100621000D01*
X168085000Y-69164000D02*
X168622000Y-68627000D01*
X168700000Y-98277000D02*
X168700000Y-88284658D01*
X168085000Y-87669658D02*
X168085000Y-69164000D01*
X168700000Y-88284658D02*
X168085000Y-87669658D01*
%TO.N,GPIO5*%
X157600000Y-79850000D02*
X157600000Y-66681000D01*
X155281000Y-87572000D02*
X155800000Y-87053000D01*
X157600000Y-66681000D02*
X155920000Y-65001000D01*
X155800000Y-81650000D02*
X157600000Y-79850000D01*
X155281000Y-102499128D02*
X155281000Y-87572000D01*
X155800000Y-87053000D02*
X155800000Y-81650000D01*
X157205000Y-104423128D02*
X155281000Y-102499128D01*
%TO.N,GPIO23*%
X165300000Y-66761000D02*
X163542000Y-65003000D01*
X163000000Y-100500000D02*
X167300000Y-96200000D01*
X167300000Y-96200000D02*
X167300000Y-88900000D01*
X167300000Y-88900000D02*
X165300000Y-86900000D01*
X165300000Y-86900000D02*
X165300000Y-66761000D01*
%TO.N,GPIO19*%
X162800000Y-78900000D02*
X157000000Y-84700000D01*
X157000000Y-101681075D02*
X159745000Y-104426075D01*
X161000000Y-65001000D02*
X162800000Y-66801000D01*
X157000000Y-84700000D02*
X157000000Y-101681075D01*
X162800000Y-66801000D02*
X162800000Y-78900000D01*
%TO.N,GPIO18*%
X160300000Y-66841000D02*
X158460000Y-65001000D01*
X156202000Y-88057000D02*
X156400000Y-87859000D01*
X156400000Y-82800000D02*
X160300000Y-78900000D01*
X156400000Y-87859000D02*
X156400000Y-82800000D01*
X160300000Y-78900000D02*
X160300000Y-66841000D01*
X156202000Y-102148663D02*
X156202000Y-88057000D01*
X158475000Y-104421663D02*
X156202000Y-102148663D01*
%TO.N,GPIO14*%
X150100000Y-67200000D02*
X152500000Y-69600000D01*
X144240000Y-65001000D02*
X146439000Y-67200000D01*
X152500000Y-83675217D02*
X153395000Y-84570217D01*
X146439000Y-67200000D02*
X150100000Y-67200000D01*
X152500000Y-69600000D02*
X152500000Y-83675217D01*
%TO.N,GPIO12*%
X151900000Y-69700000D02*
X151900000Y-84354888D01*
X141700000Y-65001000D02*
X144399000Y-67700000D01*
X149900000Y-67700000D02*
X151900000Y-69700000D01*
X151900000Y-84354888D02*
X152125000Y-84579888D01*
X144399000Y-67700000D02*
X149900000Y-67700000D01*
%TO.N,GPIO13*%
X149696709Y-90059341D02*
X150700000Y-89056050D01*
X149500000Y-68700000D02*
X140319000Y-68700000D01*
X140319000Y-68700000D02*
X136620000Y-65001000D01*
X150700000Y-69900000D02*
X149500000Y-68700000D01*
X150700000Y-89056050D02*
X150700000Y-69900000D01*
%TO.N,GPIO2*%
X151300000Y-99474175D02*
X152045825Y-100220000D01*
X149700000Y-68200000D02*
X151300000Y-69800000D01*
X151300000Y-69800000D02*
X151300000Y-99474175D01*
X139160000Y-65001000D02*
X142359000Y-68200000D01*
X142359000Y-68200000D02*
X149700000Y-68200000D01*
%TO.N,IO0*%
X149400000Y-92950000D02*
X148050000Y-91600000D01*
X152125000Y-104427058D02*
X149400000Y-101702058D01*
X149400000Y-101702058D02*
X149400000Y-92950000D01*
%TO.N,GPIO4*%
X152814000Y-103849948D02*
X153395000Y-104430948D01*
X150300000Y-66700000D02*
X153100000Y-69500000D01*
X153100000Y-69500000D02*
X153100000Y-81919000D01*
X154000000Y-85066000D02*
X152814000Y-86252000D01*
X152814000Y-86252000D02*
X152814000Y-103849948D01*
X154000000Y-82819000D02*
X154000000Y-85066000D01*
X153100000Y-81919000D02*
X154000000Y-82819000D01*
X146780000Y-65001000D02*
X148479000Y-66700000D01*
X148479000Y-66700000D02*
X150300000Y-66700000D01*
%TO.N,GPIO16*%
X153700000Y-69381000D02*
X153700000Y-79946000D01*
X153613000Y-103374314D02*
X154665000Y-104426314D01*
X149320000Y-65001000D02*
X153700000Y-69381000D01*
X154600000Y-80846000D02*
X154600000Y-85700000D01*
X153613000Y-86687000D02*
X153613000Y-103374314D01*
X154600000Y-85700000D02*
X153613000Y-86687000D01*
X153700000Y-79946000D02*
X154600000Y-80846000D01*
%TO.N,GPIO17*%
X156600000Y-79500000D02*
X156600000Y-68220000D01*
X155935000Y-104427779D02*
X154430000Y-102922779D01*
X155200000Y-80900000D02*
X156600000Y-79500000D01*
X154430000Y-102922779D02*
X154430000Y-87049000D01*
X154430000Y-87049000D02*
X155200000Y-86279000D01*
X156600000Y-68220000D02*
X153383000Y-65003000D01*
X155200000Y-86279000D02*
X155200000Y-80900000D01*
%TO.N,MOTOR_SLEEP*%
X126600000Y-88496431D02*
X129703569Y-91600000D01*
X135300000Y-94900000D02*
X136600000Y-93600000D01*
X129703569Y-91600000D02*
X132500000Y-91600000D01*
X133700000Y-94500000D02*
X134100000Y-94900000D01*
X132500000Y-91600000D02*
X133700000Y-92800000D01*
X123800000Y-71500000D02*
X123800000Y-75050000D01*
X136600000Y-93600000D02*
X139400000Y-93600000D01*
X126400000Y-71500000D02*
X125800000Y-70900000D01*
X125800000Y-70900000D02*
X124400000Y-70900000D01*
X134100000Y-94900000D02*
X135300000Y-94900000D01*
X123800000Y-75050000D02*
X126600000Y-77850000D01*
X124400000Y-70900000D02*
X123800000Y-71500000D01*
X126600000Y-77850000D02*
X126600000Y-88496431D01*
X133700000Y-92800000D02*
X133700000Y-94500000D01*
%TO.N,M2_IN2*%
X128100000Y-77700000D02*
X125200000Y-74800000D01*
X125200000Y-74800000D02*
X125200000Y-71900000D01*
X128100000Y-83500000D02*
X128100000Y-77700000D01*
X125200000Y-71900000D02*
X124900000Y-71600000D01*
X128600000Y-88600000D02*
X128600000Y-84000000D01*
X130100000Y-90100000D02*
X128600000Y-88600000D01*
X134800000Y-90100000D02*
X130100000Y-90100000D01*
X128600000Y-84000000D02*
X128100000Y-83500000D01*
%TO.N,M2_IN1*%
X124500000Y-74900000D02*
X127500000Y-77900000D01*
X134311216Y-91350000D02*
X134800000Y-90861216D01*
X127500000Y-77900000D02*
X127500000Y-83800000D01*
X133800000Y-91350000D02*
X134311216Y-91350000D01*
X129800000Y-90800000D02*
X133250000Y-90800000D01*
X124500000Y-73100000D02*
X124500000Y-74900000D01*
X128000000Y-89000000D02*
X129800000Y-90800000D01*
X128000000Y-84300000D02*
X128000000Y-89000000D01*
X134800000Y-90861216D02*
X134800000Y-90800000D01*
X127500000Y-83800000D02*
X128000000Y-84300000D01*
X133250000Y-90800000D02*
X133800000Y-91350000D01*
%TO.N,S3*%
X142854000Y-82582000D02*
X140861000Y-82582000D01*
X143472000Y-83200000D02*
X142854000Y-82582000D01*
D23*
%TO.N,/STM_LED_A*%
X128700000Y-92400000D02*
X132100000Y-92400000D01*
X125800000Y-88900000D02*
X128200000Y-91300000D01*
X135700000Y-95700000D02*
X136900000Y-94500000D01*
X132900000Y-93200000D02*
X132900000Y-94900000D01*
X132100000Y-92400000D02*
X132900000Y-93200000D01*
X128200000Y-91300000D02*
X128200000Y-91900000D01*
X133700000Y-95700000D02*
X135700000Y-95700000D01*
X128200000Y-91900000D02*
X128700000Y-92400000D01*
X124540000Y-84100000D02*
X125800000Y-85360000D01*
X132900000Y-94900000D02*
X133700000Y-95700000D01*
X136900000Y-94500000D02*
X139400000Y-94500000D01*
X125800000Y-85360000D02*
X125800000Y-88900000D01*
D22*
%TO.N,VIN*%
X141427797Y-98972203D02*
X141888850Y-98972203D01*
X140000000Y-101200000D02*
X140000000Y-100400000D01*
X129438888Y-98972203D02*
X129888850Y-98972203D01*
X140000000Y-100400000D02*
X141427797Y-98972203D01*
X127605546Y-100805545D02*
X129438888Y-98972203D01*
%TO.N,/STM32_EN*%
X145450000Y-94250000D02*
X145500000Y-94300000D01*
X145450000Y-94250000D02*
X142850000Y-91650000D01*
%TO.N,VIN{slash}11*%
X157700000Y-91283123D02*
X157883123Y-91283123D01*
X157883123Y-91283123D02*
X164591790Y-84574456D01*
X148300000Y-83000000D02*
X148300000Y-85400000D01*
X147800000Y-82500000D02*
X148300000Y-83000000D01*
X145800000Y-82500000D02*
X147800000Y-82500000D01*
X133790000Y-81880000D02*
X145180000Y-81880000D01*
X148300000Y-85400000D02*
X149600000Y-86700000D01*
X145180000Y-81880000D02*
X145800000Y-82500000D01*
%TD*%
%TA.AperFunction,Conductor*%
%TO.N,+3.3V*%
G36*
X133235507Y-82009439D02*
G01*
X133275736Y-82036319D01*
X133302615Y-82076548D01*
X133330975Y-82145018D01*
X133415208Y-82254791D01*
X133524979Y-82339022D01*
X133524982Y-82339024D01*
X133652817Y-82391974D01*
X133790000Y-82410035D01*
X133927183Y-82391974D01*
X134055018Y-82339024D01*
X134060208Y-82335041D01*
X134065314Y-82331124D01*
X134100942Y-82312081D01*
X134140800Y-82305500D01*
X135152062Y-82305500D01*
X135210515Y-82320142D01*
X135255164Y-82360609D01*
X135275465Y-82417345D01*
X135266623Y-82476952D01*
X135208026Y-82618420D01*
X135189965Y-82755604D01*
X135208025Y-82892784D01*
X135208025Y-82892786D01*
X135208026Y-82892787D01*
X135260976Y-83020622D01*
X135260977Y-83020624D01*
X135345208Y-83130395D01*
X135454979Y-83214626D01*
X135454982Y-83214628D01*
X135582817Y-83267578D01*
X135720000Y-83285639D01*
X135857183Y-83267578D01*
X135985018Y-83214628D01*
X136094791Y-83130395D01*
X136179024Y-83020622D01*
X136231974Y-82892787D01*
X136250035Y-82755604D01*
X136231974Y-82618421D01*
X136194263Y-82527377D01*
X136173377Y-82476952D01*
X136164535Y-82417345D01*
X136184836Y-82360609D01*
X136229485Y-82320142D01*
X136287938Y-82305500D01*
X140225973Y-82305500D01*
X140292598Y-82324920D01*
X140338355Y-82377096D01*
X140348911Y-82445684D01*
X140336934Y-82536663D01*
X140330965Y-82582000D01*
X140349025Y-82719180D01*
X140349025Y-82719182D01*
X140349026Y-82719183D01*
X140392943Y-82825209D01*
X140401977Y-82847020D01*
X140486208Y-82956791D01*
X140595979Y-83041022D01*
X140595982Y-83041024D01*
X140723817Y-83093974D01*
X140861000Y-83112035D01*
X140998183Y-83093974D01*
X141126018Y-83041024D01*
X141131208Y-83037041D01*
X141136314Y-83033124D01*
X141171942Y-83014081D01*
X141211800Y-83007500D01*
X142626390Y-83007500D01*
X142673843Y-83016939D01*
X142714071Y-83043819D01*
X142923073Y-83252821D01*
X142946603Y-83285656D01*
X142958330Y-83324312D01*
X142960024Y-83337180D01*
X143012975Y-83465018D01*
X143097208Y-83574791D01*
X143179454Y-83637901D01*
X143206982Y-83659024D01*
X143334817Y-83711974D01*
X143472000Y-83730035D01*
X143609183Y-83711974D01*
X143737018Y-83659024D01*
X143846791Y-83574791D01*
X143931024Y-83465018D01*
X143983974Y-83337183D01*
X144002035Y-83200000D01*
X143983974Y-83062817D01*
X143931024Y-82934983D01*
X143846791Y-82825209D01*
X143846789Y-82825207D01*
X143846788Y-82825206D01*
X143737018Y-82740975D01*
X143609180Y-82688024D01*
X143596312Y-82686330D01*
X143557656Y-82674603D01*
X143524821Y-82651073D01*
X143390929Y-82517181D01*
X143360679Y-82467818D01*
X143356137Y-82410102D01*
X143378292Y-82356615D01*
X143422315Y-82319015D01*
X143478610Y-82305500D01*
X144952390Y-82305500D01*
X144999843Y-82314939D01*
X145040071Y-82341819D01*
X145251073Y-82552821D01*
X145274603Y-82585656D01*
X145286330Y-82624312D01*
X145288024Y-82637180D01*
X145340975Y-82765018D01*
X145425208Y-82874791D01*
X145532072Y-82956791D01*
X145534982Y-82959024D01*
X145662817Y-83011974D01*
X145800000Y-83030035D01*
X145937183Y-83011974D01*
X146065018Y-82959024D01*
X146070208Y-82955041D01*
X146075314Y-82951124D01*
X146110942Y-82932081D01*
X146150800Y-82925500D01*
X147572390Y-82925500D01*
X147619843Y-82934939D01*
X147660071Y-82961819D01*
X147838181Y-83139929D01*
X147865061Y-83180157D01*
X147874500Y-83227610D01*
X147874500Y-85467393D01*
X147881962Y-85490359D01*
X147886502Y-85509270D01*
X147890281Y-85533126D01*
X147890281Y-85533127D01*
X147893354Y-85552525D01*
X147892946Y-85552589D01*
X147900000Y-85581970D01*
X147900000Y-91010481D01*
X147890561Y-91057934D01*
X147863680Y-91098163D01*
X147823454Y-91125040D01*
X147792105Y-91138026D01*
X147784983Y-91140976D01*
X147675209Y-91225209D01*
X147590974Y-91334985D01*
X147538026Y-91462816D01*
X147519965Y-91600000D01*
X147538025Y-91737180D01*
X147538025Y-91737182D01*
X147538026Y-91737183D01*
X147590940Y-91864930D01*
X147590977Y-91865020D01*
X147675206Y-91974788D01*
X147675207Y-91974789D01*
X147675209Y-91974791D01*
X147751489Y-92033323D01*
X147787212Y-92076853D01*
X147800000Y-92131697D01*
X147800000Y-94548638D01*
X147790561Y-94596091D01*
X147763680Y-94636320D01*
X147660577Y-94739421D01*
X147620349Y-94766300D01*
X147572898Y-94775739D01*
X147525446Y-94766301D01*
X147525444Y-94766300D01*
X147457183Y-94738026D01*
X147320000Y-94719965D01*
X147182816Y-94738026D01*
X147054985Y-94790974D01*
X146945209Y-94875209D01*
X146860974Y-94984985D01*
X146808026Y-95112816D01*
X146789965Y-95250000D01*
X146808025Y-95387180D01*
X146860977Y-95515020D01*
X146945208Y-95624791D01*
X147054979Y-95709022D01*
X147054982Y-95709024D01*
X147182817Y-95761974D01*
X147195682Y-95763667D01*
X147234339Y-95775393D01*
X147267177Y-95798925D01*
X148238181Y-96769929D01*
X148265061Y-96810157D01*
X148274500Y-96857610D01*
X148274500Y-102274138D01*
X148265061Y-102321591D01*
X148238181Y-102361819D01*
X148136319Y-102463681D01*
X148096091Y-102490561D01*
X148048638Y-102500000D01*
X145753110Y-102500000D01*
X145705657Y-102490561D01*
X145665429Y-102463681D01*
X145261819Y-102060071D01*
X145234939Y-102019843D01*
X145225500Y-101972390D01*
X145225500Y-98732608D01*
X145218039Y-98709648D01*
X145213495Y-98690719D01*
X145209719Y-98666874D01*
X145198757Y-98645361D01*
X145191308Y-98627377D01*
X145183849Y-98604419D01*
X145178758Y-98597412D01*
X145169655Y-98584883D01*
X145159495Y-98568304D01*
X145148528Y-98546780D01*
X145148526Y-98546778D01*
X145148525Y-98546776D01*
X145038996Y-98437247D01*
X145038989Y-98437242D01*
X144961818Y-98360070D01*
X144934939Y-98319841D01*
X144925500Y-98272389D01*
X144925500Y-96832608D01*
X144925500Y-96832607D01*
X144918037Y-96809642D01*
X144913495Y-96790719D01*
X144909719Y-96766874D01*
X144898757Y-96745361D01*
X144891308Y-96727377D01*
X144883849Y-96704419D01*
X144883848Y-96704418D01*
X144869655Y-96684883D01*
X144859495Y-96668304D01*
X144848528Y-96646780D01*
X144848526Y-96646778D01*
X144848525Y-96646776D01*
X144738995Y-96537246D01*
X144738988Y-96537241D01*
X144310963Y-96109216D01*
X143877194Y-95675446D01*
X143877193Y-95675445D01*
X143853220Y-95651471D01*
X143831703Y-95640508D01*
X143815111Y-95630340D01*
X143795582Y-95616151D01*
X143772616Y-95608689D01*
X143754638Y-95601242D01*
X143733128Y-95590282D01*
X143733127Y-95590281D01*
X143733126Y-95590281D01*
X143709270Y-95586502D01*
X143690359Y-95581962D01*
X143667393Y-95574500D01*
X143633488Y-95574500D01*
X142127610Y-95574500D01*
X142080157Y-95565061D01*
X142039929Y-95538181D01*
X141161819Y-94660071D01*
X141134939Y-94619843D01*
X141125500Y-94572390D01*
X141125500Y-92032609D01*
X141125500Y-92032607D01*
X141118036Y-92009636D01*
X141113495Y-91990720D01*
X141109719Y-91966873D01*
X141098758Y-91945362D01*
X141091313Y-91927390D01*
X141083850Y-91904420D01*
X141083848Y-91904418D01*
X141083848Y-91904416D01*
X141069655Y-91884881D01*
X141059488Y-91868290D01*
X141048529Y-91846781D01*
X141044162Y-91842414D01*
X140970658Y-91768910D01*
X140970656Y-91768907D01*
X140851748Y-91649999D01*
X142319965Y-91649999D01*
X142338025Y-91787180D01*
X142338025Y-91787182D01*
X142338026Y-91787183D01*
X142362712Y-91846781D01*
X142390977Y-91915020D01*
X142475208Y-92024791D01*
X142584979Y-92109022D01*
X142584982Y-92109024D01*
X142712817Y-92161974D01*
X142725682Y-92163667D01*
X142764339Y-92175393D01*
X142797177Y-92198925D01*
X144951073Y-94352821D01*
X144974603Y-94385656D01*
X144986330Y-94424312D01*
X144988024Y-94437180D01*
X145040975Y-94565018D01*
X145125208Y-94674791D01*
X145207617Y-94738026D01*
X145234982Y-94759024D01*
X145362817Y-94811974D01*
X145500000Y-94830035D01*
X145637183Y-94811974D01*
X145765018Y-94759024D01*
X145874791Y-94674791D01*
X145959024Y-94565018D01*
X146011974Y-94437183D01*
X146030035Y-94300000D01*
X146011974Y-94162817D01*
X145959024Y-94034983D01*
X145874791Y-93925209D01*
X145874789Y-93925207D01*
X145874788Y-93925206D01*
X145765018Y-93840975D01*
X145637180Y-93788024D01*
X145624312Y-93786330D01*
X145585656Y-93774603D01*
X145552821Y-93751073D01*
X143398925Y-91597177D01*
X143375393Y-91564339D01*
X143363667Y-91525680D01*
X143361974Y-91512817D01*
X143309024Y-91384983D01*
X143224791Y-91275209D01*
X143224789Y-91275207D01*
X143224788Y-91275206D01*
X143115020Y-91190977D01*
X143113340Y-91190281D01*
X142987183Y-91138026D01*
X142987182Y-91138025D01*
X142987180Y-91138025D01*
X142850000Y-91119965D01*
X142712816Y-91138026D01*
X142584985Y-91190974D01*
X142475209Y-91275209D01*
X142390974Y-91384985D01*
X142338026Y-91512816D01*
X142319965Y-91649999D01*
X140851748Y-91649999D01*
X140503960Y-91302211D01*
X139994634Y-90792886D01*
X139994633Y-90792884D01*
X139977194Y-90775446D01*
X139977194Y-90775445D01*
X139953220Y-90751472D01*
X139931702Y-90740508D01*
X139915111Y-90730340D01*
X139895583Y-90716151D01*
X139878940Y-90710744D01*
X139829005Y-90679917D01*
X139798837Y-90629582D01*
X139795192Y-90571012D01*
X139818883Y-90517328D01*
X139859024Y-90465018D01*
X139911974Y-90337183D01*
X139930035Y-90200000D01*
X140869965Y-90200000D01*
X140888025Y-90337180D01*
X140888025Y-90337182D01*
X140888026Y-90337183D01*
X140935365Y-90451472D01*
X140940977Y-90465020D01*
X141025208Y-90574791D01*
X141134979Y-90659022D01*
X141134982Y-90659024D01*
X141262817Y-90711974D01*
X141400000Y-90730035D01*
X141537183Y-90711974D01*
X141665018Y-90659024D01*
X141774791Y-90574791D01*
X141859024Y-90465018D01*
X141911974Y-90337183D01*
X141930035Y-90200000D01*
X141911974Y-90062817D01*
X141859024Y-89934983D01*
X141774791Y-89825209D01*
X141774789Y-89825207D01*
X141774788Y-89825206D01*
X141665020Y-89740977D01*
X141542627Y-89690281D01*
X141537183Y-89688026D01*
X141537182Y-89688025D01*
X141537180Y-89688025D01*
X141400000Y-89669965D01*
X141262816Y-89688026D01*
X141134985Y-89740974D01*
X141025209Y-89825209D01*
X140940974Y-89934985D01*
X140888026Y-90062816D01*
X140869965Y-90200000D01*
X139930035Y-90200000D01*
X139911974Y-90062817D01*
X139859024Y-89934983D01*
X139774791Y-89825209D01*
X139774789Y-89825207D01*
X139774788Y-89825206D01*
X139665020Y-89740977D01*
X139542627Y-89690281D01*
X139537183Y-89688026D01*
X139537182Y-89688025D01*
X139537180Y-89688025D01*
X139400000Y-89669965D01*
X139262816Y-89688026D01*
X139134985Y-89740974D01*
X139025209Y-89825209D01*
X138940974Y-89934985D01*
X138888026Y-90062816D01*
X138869965Y-90200000D01*
X138888025Y-90337180D01*
X138940976Y-90465018D01*
X138948646Y-90475013D01*
X138973673Y-90538345D01*
X138961482Y-90605344D01*
X138915751Y-90655801D01*
X138850270Y-90674500D01*
X137949730Y-90674500D01*
X137884249Y-90655801D01*
X137838518Y-90605344D01*
X137826327Y-90538345D01*
X137851354Y-90475013D01*
X137859024Y-90465018D01*
X137911974Y-90337183D01*
X137930035Y-90200000D01*
X137911974Y-90062817D01*
X137859024Y-89934983D01*
X137774791Y-89825209D01*
X137774789Y-89825207D01*
X137774788Y-89825206D01*
X137665020Y-89740977D01*
X137542627Y-89690281D01*
X137537183Y-89688026D01*
X137537182Y-89688025D01*
X137537180Y-89688025D01*
X137400000Y-89669965D01*
X137262816Y-89688026D01*
X137134985Y-89740974D01*
X137025206Y-89825211D01*
X136981790Y-89881792D01*
X136925825Y-89922827D01*
X136856576Y-89927366D01*
X136795734Y-89893986D01*
X136061819Y-89160071D01*
X136034939Y-89119843D01*
X136025500Y-89072390D01*
X136025500Y-88200000D01*
X136869965Y-88200000D01*
X136888025Y-88337180D01*
X136888025Y-88337182D01*
X136888026Y-88337183D01*
X136894364Y-88352485D01*
X136940977Y-88465020D01*
X137025208Y-88574791D01*
X137134979Y-88659022D01*
X137134982Y-88659024D01*
X137262817Y-88711974D01*
X137400000Y-88730035D01*
X137537183Y-88711974D01*
X137665018Y-88659024D01*
X137774791Y-88574791D01*
X137859024Y-88465018D01*
X137911974Y-88337183D01*
X137930035Y-88200000D01*
X138869965Y-88200000D01*
X138888025Y-88337180D01*
X138888025Y-88337182D01*
X138888026Y-88337183D01*
X138894364Y-88352485D01*
X138940977Y-88465020D01*
X139025208Y-88574791D01*
X139134979Y-88659022D01*
X139134982Y-88659024D01*
X139262817Y-88711974D01*
X139400000Y-88730035D01*
X139537183Y-88711974D01*
X139665018Y-88659024D01*
X139774791Y-88574791D01*
X139859024Y-88465018D01*
X139911974Y-88337183D01*
X139930035Y-88200000D01*
X140869965Y-88200000D01*
X140888025Y-88337180D01*
X140888025Y-88337182D01*
X140888026Y-88337183D01*
X140894364Y-88352485D01*
X140940977Y-88465020D01*
X141025208Y-88574791D01*
X141134979Y-88659022D01*
X141134982Y-88659024D01*
X141262817Y-88711974D01*
X141400000Y-88730035D01*
X141537183Y-88711974D01*
X141665018Y-88659024D01*
X141719134Y-88617499D01*
X145613258Y-88617499D01*
X145631318Y-88754680D01*
X145684270Y-88882520D01*
X145768501Y-88992291D01*
X145878272Y-89076522D01*
X145878275Y-89076524D01*
X146006110Y-89129474D01*
X146143293Y-89147535D01*
X146280476Y-89129474D01*
X146408311Y-89076524D01*
X146518084Y-88992291D01*
X146602317Y-88882518D01*
X146655267Y-88754683D01*
X146673328Y-88617500D01*
X146655267Y-88480317D01*
X146602317Y-88352483D01*
X146518084Y-88242709D01*
X146518082Y-88242707D01*
X146518081Y-88242706D01*
X146408313Y-88158477D01*
X146408306Y-88158474D01*
X146280476Y-88105526D01*
X146280475Y-88105525D01*
X146280473Y-88105525D01*
X146143293Y-88087465D01*
X146006109Y-88105526D01*
X145878278Y-88158474D01*
X145768502Y-88242709D01*
X145684267Y-88352485D01*
X145631319Y-88480316D01*
X145613258Y-88617499D01*
X141719134Y-88617499D01*
X141774791Y-88574791D01*
X141859024Y-88465018D01*
X141911974Y-88337183D01*
X141930035Y-88200000D01*
X141911974Y-88062817D01*
X141859024Y-87934983D01*
X141774791Y-87825209D01*
X141774789Y-87825207D01*
X141774788Y-87825206D01*
X141665020Y-87740977D01*
X141665013Y-87740974D01*
X141537183Y-87688026D01*
X141537182Y-87688025D01*
X141537180Y-87688025D01*
X141400000Y-87669965D01*
X141262816Y-87688026D01*
X141134985Y-87740974D01*
X141025209Y-87825209D01*
X140940974Y-87934985D01*
X140888026Y-88062816D01*
X140869965Y-88200000D01*
X139930035Y-88200000D01*
X139911974Y-88062817D01*
X139859024Y-87934983D01*
X139774791Y-87825209D01*
X139774789Y-87825207D01*
X139774788Y-87825206D01*
X139665020Y-87740977D01*
X139665013Y-87740974D01*
X139537183Y-87688026D01*
X139537182Y-87688025D01*
X139537180Y-87688025D01*
X139400000Y-87669965D01*
X139262816Y-87688026D01*
X139134985Y-87740974D01*
X139025209Y-87825209D01*
X138940974Y-87934985D01*
X138888026Y-88062816D01*
X138869965Y-88200000D01*
X137930035Y-88200000D01*
X137911974Y-88062817D01*
X137859024Y-87934983D01*
X137774791Y-87825209D01*
X137774789Y-87825207D01*
X137774788Y-87825206D01*
X137665020Y-87740977D01*
X137665013Y-87740974D01*
X137537183Y-87688026D01*
X137537182Y-87688025D01*
X137537180Y-87688025D01*
X137400000Y-87669965D01*
X137262816Y-87688026D01*
X137134985Y-87740974D01*
X137025209Y-87825209D01*
X136940974Y-87934985D01*
X136888026Y-88062816D01*
X136869965Y-88200000D01*
X136025500Y-88200000D01*
X136025500Y-87532608D01*
X136018039Y-87509648D01*
X136013495Y-87490719D01*
X136009719Y-87466874D01*
X135998756Y-87445359D01*
X135991309Y-87427379D01*
X135988698Y-87419344D01*
X135983849Y-87404419D01*
X135969654Y-87384882D01*
X135959490Y-87368295D01*
X135948527Y-87346779D01*
X135348925Y-86747177D01*
X135325393Y-86714339D01*
X135313667Y-86675680D01*
X135311974Y-86662817D01*
X135259024Y-86534983D01*
X135174791Y-86425209D01*
X135174789Y-86425207D01*
X135174788Y-86425206D01*
X135065020Y-86340977D01*
X135065018Y-86340976D01*
X134937183Y-86288026D01*
X134937182Y-86288025D01*
X134937180Y-86288025D01*
X134800000Y-86269965D01*
X134662816Y-86288026D01*
X134534983Y-86340975D01*
X134524687Y-86348876D01*
X134489059Y-86367919D01*
X134449201Y-86374500D01*
X132227609Y-86374500D01*
X132180156Y-86365061D01*
X132139928Y-86338181D01*
X132001747Y-86200000D01*
X136869965Y-86200000D01*
X136888025Y-86337180D01*
X136888025Y-86337182D01*
X136888026Y-86337183D01*
X136898859Y-86363336D01*
X136940977Y-86465020D01*
X137025208Y-86574791D01*
X137100555Y-86632607D01*
X137134982Y-86659024D01*
X137262817Y-86711974D01*
X137400000Y-86730035D01*
X137537183Y-86711974D01*
X137665018Y-86659024D01*
X137774791Y-86574791D01*
X137859024Y-86465018D01*
X137911974Y-86337183D01*
X137930035Y-86200000D01*
X138869965Y-86200000D01*
X138888025Y-86337180D01*
X138888025Y-86337182D01*
X138888026Y-86337183D01*
X138898859Y-86363336D01*
X138940977Y-86465020D01*
X139025208Y-86574791D01*
X139100555Y-86632607D01*
X139134982Y-86659024D01*
X139262817Y-86711974D01*
X139400000Y-86730035D01*
X139537183Y-86711974D01*
X139665018Y-86659024D01*
X139774791Y-86574791D01*
X139859024Y-86465018D01*
X139911974Y-86337183D01*
X139930035Y-86200000D01*
X140869965Y-86200000D01*
X140888025Y-86337180D01*
X140888025Y-86337182D01*
X140888026Y-86337183D01*
X140898859Y-86363336D01*
X140940977Y-86465020D01*
X141025208Y-86574791D01*
X141100555Y-86632607D01*
X141134982Y-86659024D01*
X141262817Y-86711974D01*
X141400000Y-86730035D01*
X141537183Y-86711974D01*
X141665018Y-86659024D01*
X141774791Y-86574791D01*
X141859024Y-86465018D01*
X141911974Y-86337183D01*
X141930035Y-86200000D01*
X141911974Y-86062817D01*
X141859024Y-85934983D01*
X141774791Y-85825209D01*
X141774789Y-85825207D01*
X141774788Y-85825206D01*
X141665020Y-85740977D01*
X141644813Y-85732607D01*
X141537183Y-85688026D01*
X141537182Y-85688025D01*
X141537180Y-85688025D01*
X141400000Y-85669965D01*
X141262816Y-85688026D01*
X141134985Y-85740974D01*
X141025209Y-85825209D01*
X140940974Y-85934985D01*
X140888026Y-86062816D01*
X140869965Y-86200000D01*
X139930035Y-86200000D01*
X139911974Y-86062817D01*
X139859024Y-85934983D01*
X139774791Y-85825209D01*
X139774789Y-85825207D01*
X139774788Y-85825206D01*
X139665020Y-85740977D01*
X139644813Y-85732607D01*
X139537183Y-85688026D01*
X139537182Y-85688025D01*
X139537180Y-85688025D01*
X139400000Y-85669965D01*
X139262816Y-85688026D01*
X139134985Y-85740974D01*
X139025209Y-85825209D01*
X138940974Y-85934985D01*
X138888026Y-86062816D01*
X138869965Y-86200000D01*
X137930035Y-86200000D01*
X137911974Y-86062817D01*
X137859024Y-85934983D01*
X137774791Y-85825209D01*
X137774789Y-85825207D01*
X137774788Y-85825206D01*
X137665020Y-85740977D01*
X137644813Y-85732607D01*
X137537183Y-85688026D01*
X137537182Y-85688025D01*
X137537180Y-85688025D01*
X137400000Y-85669965D01*
X137262816Y-85688026D01*
X137134985Y-85740974D01*
X137025209Y-85825209D01*
X136940974Y-85934985D01*
X136888026Y-86062816D01*
X136869965Y-86200000D01*
X132001747Y-86200000D01*
X131861819Y-86060071D01*
X131834939Y-86019843D01*
X131825500Y-85972390D01*
X131825500Y-83902915D01*
X144827532Y-83902915D01*
X144845592Y-84040096D01*
X144845592Y-84040098D01*
X144845593Y-84040099D01*
X144898543Y-84167934D01*
X144898544Y-84167936D01*
X144982775Y-84277707D01*
X145092546Y-84361938D01*
X145092549Y-84361940D01*
X145220384Y-84414890D01*
X145357567Y-84432951D01*
X145464485Y-84418874D01*
X145520525Y-84424393D01*
X145568349Y-84454131D01*
X145598087Y-84501954D01*
X145603607Y-84557998D01*
X145593140Y-84637498D01*
X145611201Y-84774680D01*
X145664153Y-84902520D01*
X145748384Y-85012291D01*
X145807952Y-85058000D01*
X145843677Y-85101532D01*
X145856465Y-85156375D01*
X145843678Y-85211218D01*
X145807953Y-85254750D01*
X145767683Y-85285651D01*
X145683447Y-85395428D01*
X145630499Y-85523259D01*
X145612438Y-85660443D01*
X145630498Y-85797623D01*
X145683450Y-85925463D01*
X145767681Y-86035234D01*
X145877452Y-86119465D01*
X145877455Y-86119467D01*
X146005290Y-86172417D01*
X146142473Y-86190478D01*
X146279656Y-86172417D01*
X146407491Y-86119467D01*
X146517264Y-86035234D01*
X146601497Y-85925461D01*
X146654447Y-85797626D01*
X146672508Y-85660443D01*
X146654447Y-85523260D01*
X146601497Y-85395426D01*
X146517264Y-85285652D01*
X146517262Y-85285650D01*
X146517261Y-85285649D01*
X146457696Y-85239942D01*
X146421970Y-85196410D01*
X146409183Y-85141566D01*
X146421971Y-85086722D01*
X146457695Y-85043192D01*
X146497967Y-85012291D01*
X146582200Y-84902518D01*
X146635150Y-84774683D01*
X146653211Y-84637500D01*
X146635150Y-84500317D01*
X146582200Y-84372483D01*
X146497967Y-84262709D01*
X146497965Y-84262707D01*
X146497964Y-84262706D01*
X146388196Y-84178477D01*
X146388194Y-84178476D01*
X146260359Y-84125526D01*
X146260358Y-84125525D01*
X146260356Y-84125525D01*
X146123175Y-84107464D01*
X146016260Y-84121541D01*
X145960216Y-84116021D01*
X145912393Y-84086283D01*
X145882654Y-84038460D01*
X145877135Y-83982416D01*
X145887602Y-83902916D01*
X145869541Y-83765733D01*
X145816591Y-83637899D01*
X145732358Y-83528125D01*
X145732356Y-83528123D01*
X145732355Y-83528122D01*
X145622587Y-83443893D01*
X145622580Y-83443890D01*
X145494750Y-83390942D01*
X145494749Y-83390941D01*
X145494747Y-83390941D01*
X145357567Y-83372881D01*
X145220383Y-83390942D01*
X145092552Y-83443890D01*
X144982776Y-83528125D01*
X144898541Y-83637901D01*
X144845593Y-83765732D01*
X144827532Y-83902915D01*
X131825500Y-83902915D01*
X131825500Y-82632608D01*
X131825500Y-82632607D01*
X131818037Y-82609642D01*
X131813495Y-82590719D01*
X131809719Y-82566874D01*
X131798757Y-82545361D01*
X131791308Y-82527377D01*
X131785682Y-82510060D01*
X131783041Y-82442797D01*
X131815930Y-82384069D01*
X132163681Y-82036319D01*
X132203909Y-82009439D01*
X132251362Y-82000000D01*
X133188054Y-82000000D01*
X133235507Y-82009439D01*
G37*
%TD.AperFunction*%
%TD*%
%TA.AperFunction,Conductor*%
%TO.N,+5V*%
G36*
X139694342Y-101509439D02*
G01*
X139734570Y-101536319D01*
X139746778Y-101548527D01*
X139746780Y-101548528D01*
X139866874Y-101609719D01*
X140000000Y-101630804D01*
X140133126Y-101609719D01*
X140253220Y-101548528D01*
X140253221Y-101548526D01*
X140265430Y-101536319D01*
X140305658Y-101509439D01*
X140353111Y-101500000D01*
X140948638Y-101500000D01*
X140996091Y-101509439D01*
X141036319Y-101536319D01*
X141163681Y-101663681D01*
X141190561Y-101703909D01*
X141200000Y-101751362D01*
X141200000Y-102700000D01*
X141400000Y-102900000D01*
X143148638Y-102900000D01*
X143196091Y-102909439D01*
X143236319Y-102936319D01*
X143363681Y-103063681D01*
X143390561Y-103103909D01*
X143400000Y-103151362D01*
X143400000Y-110000000D01*
X143700000Y-110300000D01*
X146548638Y-110300000D01*
X146596091Y-110309439D01*
X146636319Y-110336319D01*
X147263681Y-110963681D01*
X147290561Y-111003909D01*
X147300000Y-111051362D01*
X147300000Y-112913412D01*
X147294661Y-112949407D01*
X147261699Y-113058067D01*
X147241417Y-113264000D01*
X147251251Y-113363846D01*
X147239060Y-113430844D01*
X147193328Y-113481301D01*
X147127848Y-113500000D01*
X144386152Y-113500000D01*
X144320672Y-113481301D01*
X144274940Y-113430844D01*
X144262749Y-113363846D01*
X144263677Y-113354422D01*
X144272583Y-113264000D01*
X144252300Y-113058066D01*
X144238933Y-113014000D01*
X144735590Y-113014000D01*
X145507000Y-113014000D01*
X145507000Y-112242590D01*
X146007000Y-112242590D01*
X146007000Y-113014000D01*
X146778410Y-113014000D01*
X146731766Y-112860235D01*
X146634268Y-112677828D01*
X146503054Y-112517945D01*
X146343171Y-112386731D01*
X146160764Y-112289233D01*
X146007000Y-112242590D01*
X145507000Y-112242590D01*
X145353235Y-112289233D01*
X145170828Y-112386731D01*
X145010945Y-112517945D01*
X144879731Y-112677828D01*
X144782233Y-112860235D01*
X144735590Y-113014000D01*
X144238933Y-113014000D01*
X144192232Y-112860046D01*
X144094685Y-112677550D01*
X144022303Y-112589352D01*
X143963410Y-112517589D01*
X143813121Y-112394252D01*
X143803450Y-112386315D01*
X143620954Y-112288768D01*
X143468724Y-112242590D01*
X143422932Y-112228699D01*
X143217000Y-112208417D01*
X143011067Y-112228699D01*
X142813043Y-112288769D01*
X142630551Y-112386314D01*
X142526320Y-112471854D01*
X142489430Y-112492752D01*
X142447656Y-112500000D01*
X141446344Y-112500000D01*
X141404570Y-112492752D01*
X141367680Y-112471854D01*
X141263450Y-112386315D01*
X141080954Y-112288768D01*
X140928724Y-112242590D01*
X140882932Y-112228699D01*
X140677000Y-112208417D01*
X140471067Y-112228699D01*
X140273043Y-112288769D01*
X140090551Y-112386314D01*
X139986320Y-112471854D01*
X139949430Y-112492752D01*
X139907656Y-112500000D01*
X138906344Y-112500000D01*
X138864570Y-112492752D01*
X138827680Y-112471854D01*
X138723450Y-112386315D01*
X138540954Y-112288768D01*
X138388724Y-112242590D01*
X138342932Y-112228699D01*
X138137000Y-112208417D01*
X137931067Y-112228699D01*
X137733043Y-112288769D01*
X137550551Y-112386314D01*
X137446320Y-112471854D01*
X137409430Y-112492752D01*
X137367656Y-112500000D01*
X136770299Y-112500000D01*
X136715455Y-112487212D01*
X136671924Y-112451487D01*
X136648682Y-112400192D01*
X136635867Y-112335769D01*
X136591552Y-112269447D01*
X136525230Y-112225132D01*
X136466749Y-112213500D01*
X136466748Y-112213500D01*
X134727252Y-112213500D01*
X134727251Y-112213500D01*
X134668769Y-112225133D01*
X134597688Y-112272628D01*
X134546303Y-112292284D01*
X134491472Y-112287775D01*
X134443988Y-112259989D01*
X134410612Y-112228699D01*
X131539190Y-109536740D01*
X131510219Y-109495573D01*
X131500000Y-109446279D01*
X131500000Y-106500000D01*
X138769195Y-106500000D01*
X138790280Y-106633124D01*
X138851472Y-106753221D01*
X138946778Y-106848527D01*
X138946780Y-106848528D01*
X139066874Y-106909719D01*
X139200000Y-106930804D01*
X139333126Y-106909719D01*
X139453220Y-106848528D01*
X139548528Y-106753220D01*
X139609719Y-106633126D01*
X139630804Y-106500000D01*
X139609719Y-106366874D01*
X139548528Y-106246780D01*
X139548527Y-106246778D01*
X139453221Y-106151472D01*
X139333124Y-106090280D01*
X139200000Y-106069195D01*
X139066875Y-106090280D01*
X138946778Y-106151472D01*
X138851472Y-106246778D01*
X138790280Y-106366875D01*
X138769195Y-106500000D01*
X131500000Y-106500000D01*
X131500000Y-102211687D01*
X131509439Y-102164234D01*
X131536319Y-102124006D01*
X131613545Y-102046780D01*
X131716291Y-101944033D01*
X131724258Y-101936734D01*
X131753192Y-101912457D01*
X131753192Y-101912456D01*
X131753194Y-101912455D01*
X131772091Y-101879722D01*
X131777887Y-101870625D01*
X131799554Y-101839684D01*
X131799554Y-101839682D01*
X131800173Y-101838799D01*
X131810398Y-101814112D01*
X131810585Y-101813049D01*
X131810588Y-101813045D01*
X131817150Y-101775822D01*
X131819479Y-101765316D01*
X131829263Y-101728807D01*
X131825971Y-101691188D01*
X131825500Y-101680382D01*
X131825500Y-101500000D01*
X137000000Y-101500000D01*
X139646889Y-101500000D01*
X139694342Y-101509439D01*
G37*
%TD.AperFunction*%
%TD*%
%TA.AperFunction,Conductor*%
%TO.N,+5V*%
G36*
X125453901Y-66110564D02*
G01*
X125540009Y-66148585D01*
X125565135Y-66151500D01*
X127354864Y-66151499D01*
X127354867Y-66151499D01*
X127367427Y-66150041D01*
X127379991Y-66148585D01*
X127466098Y-66110564D01*
X127516184Y-66100000D01*
X128628819Y-66100000D01*
X128673613Y-66108373D01*
X128683802Y-66112321D01*
X128893390Y-66151500D01*
X129106608Y-66151500D01*
X129106610Y-66151500D01*
X129316198Y-66112321D01*
X129326386Y-66108373D01*
X129371181Y-66100000D01*
X131168819Y-66100000D01*
X131213613Y-66108373D01*
X131223802Y-66112321D01*
X131433390Y-66151500D01*
X131646608Y-66151500D01*
X131646610Y-66151500D01*
X131856198Y-66112321D01*
X131866386Y-66108373D01*
X131911181Y-66100000D01*
X133708819Y-66100000D01*
X133753613Y-66108373D01*
X133763802Y-66112321D01*
X133973390Y-66151500D01*
X134186608Y-66151500D01*
X134186610Y-66151500D01*
X134396198Y-66112321D01*
X134406386Y-66108373D01*
X134451181Y-66100000D01*
X136248819Y-66100000D01*
X136293613Y-66108373D01*
X136303802Y-66112321D01*
X136513390Y-66151500D01*
X136726608Y-66151500D01*
X136726610Y-66151500D01*
X136936198Y-66112321D01*
X136946386Y-66108373D01*
X136991181Y-66100000D01*
X137048638Y-66100000D01*
X137096091Y-66109439D01*
X137136319Y-66136319D01*
X140100000Y-69100000D01*
X140137029Y-69100000D01*
X140166407Y-69107053D01*
X140166472Y-69106647D01*
X140209719Y-69113495D01*
X140228642Y-69118037D01*
X140251607Y-69125500D01*
X140285512Y-69125500D01*
X140386393Y-69125500D01*
X149272390Y-69125500D01*
X149319843Y-69134939D01*
X149360071Y-69161819D01*
X150238181Y-70039929D01*
X150265061Y-70080157D01*
X150274500Y-70127610D01*
X150274500Y-71774138D01*
X150265061Y-71821591D01*
X150238181Y-71861819D01*
X150136319Y-71963681D01*
X150096091Y-71990561D01*
X150048638Y-72000000D01*
X140899999Y-72000000D01*
X140300000Y-72599999D01*
X140300000Y-78648638D01*
X140290561Y-78696091D01*
X140263681Y-78736319D01*
X139936319Y-79063681D01*
X139896091Y-79090561D01*
X139848638Y-79100000D01*
X138834000Y-79100000D01*
X138772000Y-79083387D01*
X138726613Y-79038000D01*
X138710000Y-78976000D01*
X138710000Y-78790000D01*
X136610000Y-78790000D01*
X136610000Y-78976000D01*
X136593387Y-79038000D01*
X136548000Y-79083387D01*
X136486000Y-79100000D01*
X134851362Y-79100000D01*
X134803909Y-79090561D01*
X134763681Y-79063681D01*
X134361819Y-78661819D01*
X134334939Y-78621591D01*
X134325500Y-78574138D01*
X134325500Y-77790000D01*
X136610000Y-77790000D01*
X137160000Y-77790000D01*
X137160000Y-77240000D01*
X138160000Y-77240000D01*
X138160000Y-77790000D01*
X138710000Y-77790000D01*
X138710000Y-77420303D01*
X138698395Y-77361963D01*
X138654192Y-77295807D01*
X138588036Y-77251604D01*
X138529697Y-77240000D01*
X138160000Y-77240000D01*
X137160000Y-77240000D01*
X136790303Y-77240000D01*
X136731963Y-77251604D01*
X136665807Y-77295807D01*
X136621604Y-77361963D01*
X136610000Y-77420303D01*
X136610000Y-77790000D01*
X134325500Y-77790000D01*
X134325500Y-75749999D01*
X136504571Y-75749999D01*
X136524243Y-75962310D01*
X136582595Y-76167390D01*
X136677631Y-76358252D01*
X136791251Y-76508707D01*
X136806128Y-76528407D01*
X136963698Y-76672052D01*
X137144981Y-76784298D01*
X137343802Y-76861321D01*
X137553390Y-76900500D01*
X137766608Y-76900500D01*
X137766610Y-76900500D01*
X137976198Y-76861321D01*
X138175019Y-76784298D01*
X138356302Y-76672052D01*
X138513872Y-76528407D01*
X138642366Y-76358255D01*
X138642366Y-76358253D01*
X138642368Y-76358252D01*
X138690080Y-76262430D01*
X138737405Y-76167389D01*
X138795756Y-75962310D01*
X138815429Y-75750000D01*
X138795756Y-75537690D01*
X138737405Y-75332611D01*
X138706581Y-75270707D01*
X138642368Y-75141747D01*
X138513873Y-74971594D01*
X138462991Y-74925209D01*
X138356302Y-74827948D01*
X138356301Y-74827947D01*
X138175017Y-74715701D01*
X138121574Y-74694997D01*
X137976198Y-74638679D01*
X137818837Y-74609263D01*
X137779386Y-74601888D01*
X137718633Y-74571636D01*
X137682905Y-74513933D01*
X137682906Y-74446064D01*
X137718634Y-74388362D01*
X137779382Y-74358112D01*
X137976198Y-74321321D01*
X138175019Y-74244298D01*
X138356302Y-74132052D01*
X138513872Y-73988407D01*
X138642366Y-73818255D01*
X138642366Y-73818253D01*
X138642368Y-73818252D01*
X138718021Y-73666317D01*
X138737405Y-73627389D01*
X138795756Y-73422310D01*
X138815429Y-73210000D01*
X138795756Y-72997690D01*
X138737405Y-72792611D01*
X138714584Y-72746780D01*
X138642368Y-72601747D01*
X138513873Y-72431594D01*
X138356301Y-72287947D01*
X138193645Y-72187235D01*
X138175019Y-72175702D01*
X138175017Y-72175701D01*
X137976198Y-72098679D01*
X137976197Y-72098678D01*
X137766610Y-72059500D01*
X137553390Y-72059500D01*
X137430539Y-72082465D01*
X137343801Y-72098679D01*
X137144982Y-72175701D01*
X136963698Y-72287947D01*
X136806126Y-72431594D01*
X136677631Y-72601747D01*
X136582595Y-72792609D01*
X136524243Y-72997689D01*
X136504571Y-73209999D01*
X136524243Y-73422310D01*
X136582595Y-73627390D01*
X136677631Y-73818252D01*
X136786803Y-73962817D01*
X136806128Y-73988407D01*
X136963698Y-74132052D01*
X137144981Y-74244298D01*
X137343802Y-74321321D01*
X137540616Y-74358112D01*
X137601365Y-74388362D01*
X137637093Y-74446064D01*
X137637094Y-74513933D01*
X137601366Y-74571636D01*
X137540613Y-74601887D01*
X137343805Y-74638678D01*
X137343802Y-74638678D01*
X137343802Y-74638679D01*
X137320273Y-74647794D01*
X137144982Y-74715701D01*
X136963698Y-74827947D01*
X136806126Y-74971594D01*
X136677631Y-75141747D01*
X136582595Y-75332609D01*
X136524243Y-75537689D01*
X136504571Y-75749999D01*
X134325500Y-75749999D01*
X134325500Y-72932609D01*
X134325500Y-72932607D01*
X134318036Y-72909636D01*
X134313495Y-72890720D01*
X134309719Y-72866873D01*
X134298758Y-72845362D01*
X134291313Y-72827390D01*
X134283850Y-72804420D01*
X134283848Y-72804418D01*
X134283848Y-72804416D01*
X134269655Y-72784881D01*
X134259488Y-72768290D01*
X134248529Y-72746781D01*
X134226222Y-72724474D01*
X134153220Y-72651472D01*
X134153219Y-72651471D01*
X131777194Y-70275446D01*
X131777193Y-70275445D01*
X131768622Y-70266874D01*
X131753220Y-70251471D01*
X131731703Y-70240508D01*
X131715111Y-70230340D01*
X131695582Y-70216151D01*
X131672616Y-70208689D01*
X131654638Y-70201242D01*
X131633128Y-70190282D01*
X131633127Y-70190281D01*
X131633126Y-70190281D01*
X131609270Y-70186502D01*
X131590359Y-70181962D01*
X131567393Y-70174500D01*
X131533488Y-70174500D01*
X131067663Y-70174500D01*
X131001038Y-70155080D01*
X130955281Y-70102904D01*
X130944724Y-70034314D01*
X130955035Y-69956000D01*
X130936974Y-69818817D01*
X130884024Y-69690983D01*
X130799791Y-69581209D01*
X130799789Y-69581207D01*
X130799788Y-69581206D01*
X130690020Y-69496977D01*
X130690013Y-69496974D01*
X130562183Y-69444026D01*
X130562182Y-69444025D01*
X130562180Y-69444025D01*
X130425000Y-69425965D01*
X130287816Y-69444026D01*
X130159985Y-69496974D01*
X130110531Y-69534922D01*
X130056241Y-69576581D01*
X130053066Y-69579017D01*
X130004417Y-69601702D01*
X129950740Y-69601702D01*
X129902092Y-69579016D01*
X129844629Y-69534922D01*
X129815373Y-69515373D01*
X129800000Y-69500000D01*
X129778255Y-69500000D01*
X129730805Y-69490561D01*
X129724683Y-69488026D01*
X129724679Y-69488025D01*
X129724676Y-69488024D01*
X129711812Y-69486330D01*
X129673156Y-69474603D01*
X129640321Y-69451073D01*
X129314693Y-69125445D01*
X129290720Y-69101471D01*
X129269203Y-69090508D01*
X129252611Y-69080340D01*
X129233082Y-69066151D01*
X129210116Y-69058689D01*
X129192138Y-69051242D01*
X129170628Y-69040282D01*
X129170627Y-69040281D01*
X129170626Y-69040281D01*
X129146770Y-69036502D01*
X129127859Y-69031962D01*
X129104893Y-69024500D01*
X129070988Y-69024500D01*
X123817393Y-69024500D01*
X123682607Y-69024500D01*
X123682606Y-69024500D01*
X123659639Y-69031962D01*
X123640723Y-69036503D01*
X123616874Y-69040280D01*
X123595356Y-69051244D01*
X123577387Y-69058687D01*
X123554419Y-69066150D01*
X123534880Y-69080346D01*
X123518293Y-69090510D01*
X123496779Y-69101471D01*
X123414224Y-69184023D01*
X123414219Y-69184032D01*
X123000000Y-69598252D01*
X123000000Y-67000000D01*
X123700000Y-67000000D01*
X124563680Y-66136319D01*
X124603909Y-66109439D01*
X124651362Y-66100000D01*
X125403816Y-66100000D01*
X125453901Y-66110564D01*
G37*
%TD.AperFunction*%
%TD*%
%TA.AperFunction,Conductor*%
%TO.N,+3.3V*%
G36*
X146796091Y-105709439D02*
G01*
X146836319Y-105736319D01*
X150100000Y-109000000D01*
X158048638Y-109000000D01*
X158096091Y-109009439D01*
X158136319Y-109036319D01*
X158263681Y-109163681D01*
X158290561Y-109203909D01*
X158300000Y-109251362D01*
X158300000Y-111048638D01*
X158290561Y-111096091D01*
X158263681Y-111136319D01*
X158136319Y-111263681D01*
X158096091Y-111290561D01*
X158048638Y-111300000D01*
X157876176Y-111300000D01*
X157813055Y-111282732D01*
X157767514Y-111235737D01*
X157752237Y-111172105D01*
X157771480Y-111109557D01*
X157819882Y-111065515D01*
X157853220Y-111048528D01*
X157948527Y-110953221D01*
X157948528Y-110953220D01*
X158009719Y-110833126D01*
X158030804Y-110700000D01*
X158009719Y-110566874D01*
X157948528Y-110446780D01*
X157948527Y-110446778D01*
X157853221Y-110351472D01*
X157733124Y-110290280D01*
X157600000Y-110269195D01*
X157466875Y-110290280D01*
X157346778Y-110351472D01*
X157251472Y-110446778D01*
X157190280Y-110566875D01*
X157169195Y-110699999D01*
X157190280Y-110833124D01*
X157251472Y-110953221D01*
X157346779Y-111048528D01*
X157380118Y-111065515D01*
X157428520Y-111109557D01*
X157447763Y-111172105D01*
X157432486Y-111235737D01*
X157386945Y-111282732D01*
X157323824Y-111300000D01*
X155901111Y-111300000D01*
X155844816Y-111286485D01*
X155800793Y-111248885D01*
X155778638Y-111195398D01*
X155783180Y-111137682D01*
X155813430Y-111088319D01*
X155898527Y-111003221D01*
X155898528Y-111003220D01*
X155959719Y-110883126D01*
X155980804Y-110750000D01*
X155959719Y-110616874D01*
X155898528Y-110496780D01*
X155898527Y-110496778D01*
X155803221Y-110401472D01*
X155683124Y-110340280D01*
X155550000Y-110319195D01*
X155416875Y-110340280D01*
X155296778Y-110401472D01*
X155201472Y-110496778D01*
X155140280Y-110616875D01*
X155119195Y-110750000D01*
X155140280Y-110883124D01*
X155201472Y-111003221D01*
X155286570Y-111088319D01*
X155316820Y-111137682D01*
X155321362Y-111195398D01*
X155299207Y-111248885D01*
X155255184Y-111286485D01*
X155198889Y-111300000D01*
X153876176Y-111300000D01*
X153813055Y-111282732D01*
X153767514Y-111235737D01*
X153752237Y-111172105D01*
X153771480Y-111109557D01*
X153819882Y-111065515D01*
X153853220Y-111048528D01*
X153948527Y-110953221D01*
X153948528Y-110953220D01*
X154009719Y-110833126D01*
X154030804Y-110700000D01*
X154009719Y-110566874D01*
X153948528Y-110446780D01*
X153948527Y-110446778D01*
X153853221Y-110351472D01*
X153733124Y-110290280D01*
X153600000Y-110269195D01*
X153466875Y-110290280D01*
X153346778Y-110351472D01*
X153251472Y-110446778D01*
X153190280Y-110566875D01*
X153169195Y-110699999D01*
X153190280Y-110833124D01*
X153251472Y-110953221D01*
X153346779Y-111048528D01*
X153380118Y-111065515D01*
X153428520Y-111109557D01*
X153447763Y-111172105D01*
X153432486Y-111235737D01*
X153386945Y-111282732D01*
X153323824Y-111300000D01*
X151876176Y-111300000D01*
X151813055Y-111282732D01*
X151767514Y-111235737D01*
X151752237Y-111172105D01*
X151771480Y-111109557D01*
X151819882Y-111065515D01*
X151853220Y-111048528D01*
X151948527Y-110953221D01*
X151948528Y-110953220D01*
X152009719Y-110833126D01*
X152030804Y-110700000D01*
X152009719Y-110566874D01*
X151948528Y-110446780D01*
X151948527Y-110446778D01*
X151853221Y-110351472D01*
X151733124Y-110290280D01*
X151600000Y-110269195D01*
X151466875Y-110290280D01*
X151346778Y-110351472D01*
X151251472Y-110446778D01*
X151190280Y-110566875D01*
X151169195Y-110699999D01*
X151190280Y-110833124D01*
X151251472Y-110953221D01*
X151346779Y-111048528D01*
X151380118Y-111065515D01*
X151428520Y-111109557D01*
X151447763Y-111172105D01*
X151432486Y-111235737D01*
X151386945Y-111282732D01*
X151323824Y-111300000D01*
X149876176Y-111300000D01*
X149813055Y-111282732D01*
X149767514Y-111235737D01*
X149752237Y-111172105D01*
X149771480Y-111109557D01*
X149819882Y-111065515D01*
X149853220Y-111048528D01*
X149948527Y-110953221D01*
X149948528Y-110953220D01*
X150009719Y-110833126D01*
X150030804Y-110700000D01*
X150009719Y-110566874D01*
X149948528Y-110446780D01*
X149948527Y-110446778D01*
X149853221Y-110351472D01*
X149733124Y-110290280D01*
X149600000Y-110269195D01*
X149466875Y-110290280D01*
X149346778Y-110351472D01*
X149251472Y-110446778D01*
X149190280Y-110566875D01*
X149169195Y-110699999D01*
X149190280Y-110833124D01*
X149251472Y-110953221D01*
X149346779Y-111048528D01*
X149380118Y-111065515D01*
X149428520Y-111109557D01*
X149447763Y-111172105D01*
X149432486Y-111235737D01*
X149386945Y-111282732D01*
X149323824Y-111300000D01*
X148051362Y-111300000D01*
X148003909Y-111290561D01*
X147963681Y-111263681D01*
X146700000Y-110000000D01*
X143951362Y-110000000D01*
X143903909Y-109990561D01*
X143863681Y-109963681D01*
X143736319Y-109836319D01*
X143709439Y-109796091D01*
X143700000Y-109748638D01*
X143700000Y-109699999D01*
X148169195Y-109699999D01*
X148190280Y-109833124D01*
X148251472Y-109953221D01*
X148346778Y-110048527D01*
X148346780Y-110048528D01*
X148466874Y-110109719D01*
X148600000Y-110130804D01*
X148733126Y-110109719D01*
X148853220Y-110048528D01*
X148948528Y-109953220D01*
X149009719Y-109833126D01*
X149030804Y-109700000D01*
X149030804Y-109699999D01*
X150169195Y-109699999D01*
X150190280Y-109833124D01*
X150251472Y-109953221D01*
X150346778Y-110048527D01*
X150346780Y-110048528D01*
X150466874Y-110109719D01*
X150600000Y-110130804D01*
X150733126Y-110109719D01*
X150853220Y-110048528D01*
X150948528Y-109953220D01*
X151009719Y-109833126D01*
X151030804Y-109700000D01*
X151030804Y-109699999D01*
X152169195Y-109699999D01*
X152190280Y-109833124D01*
X152251472Y-109953221D01*
X152346778Y-110048527D01*
X152346780Y-110048528D01*
X152466874Y-110109719D01*
X152600000Y-110130804D01*
X152733126Y-110109719D01*
X152853220Y-110048528D01*
X152948528Y-109953220D01*
X153009719Y-109833126D01*
X153022885Y-109749999D01*
X154119195Y-109749999D01*
X154140280Y-109883124D01*
X154201472Y-110003221D01*
X154296778Y-110098527D01*
X154296780Y-110098528D01*
X154416874Y-110159719D01*
X154550000Y-110180804D01*
X154683126Y-110159719D01*
X154803220Y-110098528D01*
X154898528Y-110003220D01*
X154959719Y-109883126D01*
X154980804Y-109750000D01*
X154972885Y-109699999D01*
X156169195Y-109699999D01*
X156190280Y-109833124D01*
X156251472Y-109953221D01*
X156346778Y-110048527D01*
X156346780Y-110048528D01*
X156466874Y-110109719D01*
X156600000Y-110130804D01*
X156733126Y-110109719D01*
X156853220Y-110048528D01*
X156948528Y-109953220D01*
X157009719Y-109833126D01*
X157030804Y-109700000D01*
X157009719Y-109566874D01*
X156948528Y-109446780D01*
X156948527Y-109446778D01*
X156853221Y-109351472D01*
X156733124Y-109290280D01*
X156600000Y-109269195D01*
X156466875Y-109290280D01*
X156346778Y-109351472D01*
X156251472Y-109446778D01*
X156190280Y-109566875D01*
X156169195Y-109699999D01*
X154972885Y-109699999D01*
X154959719Y-109616874D01*
X154898528Y-109496780D01*
X154898527Y-109496778D01*
X154803221Y-109401472D01*
X154683124Y-109340280D01*
X154550000Y-109319195D01*
X154416875Y-109340280D01*
X154296778Y-109401472D01*
X154201472Y-109496778D01*
X154140280Y-109616875D01*
X154119195Y-109749999D01*
X153022885Y-109749999D01*
X153030804Y-109700000D01*
X153009719Y-109566874D01*
X152948528Y-109446780D01*
X152948527Y-109446778D01*
X152853221Y-109351472D01*
X152733124Y-109290280D01*
X152600000Y-109269195D01*
X152466875Y-109290280D01*
X152346778Y-109351472D01*
X152251472Y-109446778D01*
X152190280Y-109566875D01*
X152169195Y-109699999D01*
X151030804Y-109699999D01*
X151009719Y-109566874D01*
X150948528Y-109446780D01*
X150948527Y-109446778D01*
X150853221Y-109351472D01*
X150733124Y-109290280D01*
X150600000Y-109269195D01*
X150466875Y-109290280D01*
X150346778Y-109351472D01*
X150251472Y-109446778D01*
X150190280Y-109566875D01*
X150169195Y-109699999D01*
X149030804Y-109699999D01*
X149009719Y-109566874D01*
X148948528Y-109446780D01*
X148948527Y-109446778D01*
X148853221Y-109351472D01*
X148733124Y-109290280D01*
X148600000Y-109269195D01*
X148466875Y-109290280D01*
X148346778Y-109351472D01*
X148251472Y-109446778D01*
X148190280Y-109566875D01*
X148169195Y-109699999D01*
X143700000Y-109699999D01*
X143700000Y-105951362D01*
X143709439Y-105903909D01*
X143736319Y-105863681D01*
X143863681Y-105736319D01*
X143903909Y-105709439D01*
X143951362Y-105700000D01*
X146748638Y-105700000D01*
X146796091Y-105709439D01*
G37*
%TD.AperFunction*%
%TD*%
%TA.AperFunction,Conductor*%
%TO.N,+3.3V*%
G36*
X131021591Y-71034939D02*
G01*
X131061819Y-71061819D01*
X131528967Y-71528967D01*
X131559947Y-71580653D01*
X131562903Y-71640839D01*
X131537140Y-71695312D01*
X131488739Y-71731209D01*
X131434984Y-71753474D01*
X131325209Y-71837709D01*
X131240974Y-71947485D01*
X131188026Y-72075316D01*
X131169965Y-72212499D01*
X131188025Y-72349680D01*
X131188025Y-72349682D01*
X131188026Y-72349683D01*
X131240976Y-72477518D01*
X131240977Y-72477520D01*
X131325208Y-72587291D01*
X131408850Y-72651472D01*
X131434982Y-72671524D01*
X131562817Y-72724474D01*
X131700000Y-72742535D01*
X131837183Y-72724474D01*
X131962551Y-72672545D01*
X132009998Y-72663108D01*
X132057451Y-72672547D01*
X132097679Y-72699427D01*
X132838181Y-73439929D01*
X132865061Y-73480157D01*
X132874500Y-73527610D01*
X132874500Y-73761229D01*
X132859858Y-73819682D01*
X132819391Y-73864331D01*
X132762655Y-73884632D01*
X132703048Y-73875790D01*
X132563590Y-73818026D01*
X132426407Y-73799965D01*
X132289223Y-73818026D01*
X132161392Y-73870974D01*
X132051616Y-73955209D01*
X131967381Y-74064985D01*
X131914433Y-74192816D01*
X131896372Y-74330000D01*
X131914432Y-74467180D01*
X131967384Y-74595020D01*
X132051615Y-74704791D01*
X132143592Y-74775368D01*
X132161389Y-74789024D01*
X132289224Y-74841974D01*
X132426407Y-74860035D01*
X132563590Y-74841974D01*
X132691425Y-74789024D01*
X132691424Y-74789024D01*
X132703048Y-74784210D01*
X132762655Y-74775368D01*
X132819391Y-74795669D01*
X132859858Y-74840318D01*
X132874500Y-74898771D01*
X132874500Y-79467393D01*
X132881962Y-79490359D01*
X132886502Y-79509270D01*
X132890281Y-79533126D01*
X132890281Y-79533127D01*
X132890282Y-79533128D01*
X132901242Y-79554638D01*
X132908689Y-79572616D01*
X132916151Y-79595582D01*
X132930340Y-79615111D01*
X132940508Y-79631703D01*
X132951471Y-79653220D01*
X132975444Y-79677192D01*
X132975445Y-79677193D01*
X132975446Y-79677194D01*
X133345032Y-80046780D01*
X133561072Y-80262819D01*
X133591322Y-80312182D01*
X133595864Y-80369898D01*
X133573709Y-80423385D01*
X133529686Y-80460985D01*
X133473391Y-80474500D01*
X132432606Y-80474500D01*
X132409639Y-80481962D01*
X132390723Y-80486503D01*
X132366874Y-80490280D01*
X132345356Y-80501244D01*
X132327388Y-80508686D01*
X132304420Y-80516149D01*
X132284882Y-80530344D01*
X132268300Y-80540506D01*
X132246778Y-80551472D01*
X132164223Y-80634024D01*
X132164218Y-80634033D01*
X132086430Y-80711821D01*
X132034744Y-80742801D01*
X131974557Y-80745757D01*
X131920084Y-80719993D01*
X131884188Y-80671592D01*
X131869025Y-80634985D01*
X131869024Y-80634984D01*
X131869024Y-80634983D01*
X131784791Y-80525209D01*
X131784789Y-80525207D01*
X131784788Y-80525206D01*
X131675020Y-80440977D01*
X131656066Y-80433126D01*
X131547183Y-80388026D01*
X131547182Y-80388025D01*
X131547180Y-80388025D01*
X131409999Y-80369964D01*
X131365685Y-80375799D01*
X131297095Y-80365242D01*
X131244919Y-80319485D01*
X131225500Y-80252860D01*
X131225500Y-76550800D01*
X131232081Y-76510942D01*
X131251124Y-76475314D01*
X131259022Y-76465020D01*
X131259024Y-76465018D01*
X131311974Y-76337183D01*
X131330035Y-76200000D01*
X131311974Y-76062817D01*
X131259024Y-75934983D01*
X131174791Y-75825209D01*
X131174789Y-75825207D01*
X131174788Y-75825206D01*
X131065020Y-75740977D01*
X131036947Y-75729349D01*
X130937183Y-75688026D01*
X130937182Y-75688025D01*
X130937180Y-75688025D01*
X130800000Y-75669965D01*
X130662816Y-75688026D01*
X130534985Y-75740974D01*
X130425206Y-75825211D01*
X130400344Y-75857612D01*
X130354373Y-75894508D01*
X130296559Y-75906007D01*
X130239968Y-75889512D01*
X130197388Y-75848749D01*
X130178441Y-75792931D01*
X130187407Y-75734675D01*
X130189612Y-75729353D01*
X130207673Y-75592170D01*
X130189612Y-75454987D01*
X130136662Y-75327153D01*
X130052429Y-75217379D01*
X130052427Y-75217377D01*
X130052426Y-75217376D01*
X129942658Y-75133147D01*
X129942651Y-75133144D01*
X129814821Y-75080196D01*
X129814820Y-75080195D01*
X129814818Y-75080195D01*
X129677638Y-75062135D01*
X129540454Y-75080196D01*
X129412623Y-75133144D01*
X129302847Y-75217379D01*
X129218612Y-75327155D01*
X129165664Y-75454986D01*
X129147603Y-75592169D01*
X129165664Y-75729353D01*
X129206751Y-75828548D01*
X129215593Y-75888155D01*
X129195292Y-75944891D01*
X129150643Y-75985358D01*
X129092190Y-76000000D01*
X128853110Y-76000000D01*
X128805657Y-75990561D01*
X128765429Y-75963681D01*
X128036319Y-75234571D01*
X128009439Y-75194343D01*
X128000000Y-75146890D01*
X128000000Y-72965609D01*
X128009439Y-72918156D01*
X128036315Y-72877931D01*
X128191355Y-72722891D01*
X128243037Y-72691915D01*
X128303223Y-72688959D01*
X128357697Y-72714723D01*
X128393593Y-72763124D01*
X128440975Y-72877518D01*
X128525208Y-72987291D01*
X128629412Y-73067250D01*
X128634982Y-73071524D01*
X128762817Y-73124474D01*
X128900000Y-73142535D01*
X129037183Y-73124474D01*
X129152549Y-73076688D01*
X129199999Y-73067250D01*
X129247451Y-73076689D01*
X129283638Y-73091677D01*
X129362817Y-73124474D01*
X129500000Y-73142535D01*
X129637183Y-73124474D01*
X129765018Y-73071524D01*
X129874791Y-72987291D01*
X129959024Y-72877518D01*
X130011974Y-72749683D01*
X130030035Y-72612500D01*
X130011974Y-72475317D01*
X129959024Y-72347483D01*
X129874791Y-72237709D01*
X129874789Y-72237707D01*
X129874788Y-72237706D01*
X129765020Y-72153477D01*
X129752548Y-72148311D01*
X129637183Y-72100526D01*
X129637182Y-72100525D01*
X129637180Y-72100525D01*
X129500000Y-72082465D01*
X129362817Y-72100526D01*
X129349375Y-72106094D01*
X129247451Y-72148311D01*
X129200000Y-72157749D01*
X129152549Y-72148311D01*
X129099377Y-72126287D01*
X129050624Y-72106093D01*
X129002223Y-72070198D01*
X128976459Y-72015724D01*
X128979415Y-71955537D01*
X129010393Y-71903853D01*
X129852428Y-71061819D01*
X129892657Y-71034939D01*
X129940110Y-71025500D01*
X130974138Y-71025500D01*
X131021591Y-71034939D01*
G37*
%TD.AperFunction*%
%TD*%
%TA.AperFunction,Conductor*%
%TO.N,+3.3V*%
G36*
X164396091Y-86709439D02*
G01*
X164436319Y-86736319D01*
X164861066Y-87161066D01*
X164891316Y-87210429D01*
X164895858Y-87268145D01*
X164873703Y-87321632D01*
X164829680Y-87359232D01*
X164746778Y-87401472D01*
X164651472Y-87496778D01*
X164590280Y-87616875D01*
X164569195Y-87750000D01*
X164590280Y-87883124D01*
X164651472Y-88003221D01*
X164746778Y-88098527D01*
X164746780Y-88098528D01*
X164866874Y-88159719D01*
X165000000Y-88180804D01*
X165133126Y-88159719D01*
X165253220Y-88098528D01*
X165348528Y-88003220D01*
X165390768Y-87920317D01*
X165428366Y-87876296D01*
X165481853Y-87854141D01*
X165539570Y-87858683D01*
X165588933Y-87888933D01*
X166763681Y-89063681D01*
X166790561Y-89103909D01*
X166800000Y-89151362D01*
X166800000Y-95848638D01*
X166790561Y-95896091D01*
X166763681Y-95936319D01*
X162600000Y-100099999D01*
X162600000Y-100318030D01*
X162592946Y-100347412D01*
X162593353Y-100347477D01*
X162569195Y-100499999D01*
X162593353Y-100652523D01*
X162592946Y-100652587D01*
X162600000Y-100681970D01*
X162600000Y-104948638D01*
X162590561Y-104996091D01*
X162563681Y-105036319D01*
X162436319Y-105163681D01*
X162396091Y-105190561D01*
X162348638Y-105200000D01*
X161299999Y-105200000D01*
X159536319Y-106963681D01*
X159496091Y-106990561D01*
X159448638Y-107000000D01*
X151051362Y-107000000D01*
X151003909Y-106990561D01*
X150963681Y-106963681D01*
X149061819Y-105061819D01*
X149034939Y-105021591D01*
X149025500Y-104974138D01*
X149025500Y-103225862D01*
X149034939Y-103178409D01*
X149061819Y-103138181D01*
X149163681Y-103036319D01*
X149203909Y-103009439D01*
X149251362Y-103000000D01*
X149948638Y-103000000D01*
X149996091Y-103009439D01*
X150036319Y-103036319D01*
X151850000Y-104850000D01*
X152065604Y-104850000D01*
X152085001Y-104851526D01*
X152125000Y-104857862D01*
X152164998Y-104851526D01*
X152184396Y-104850000D01*
X152197451Y-104850000D01*
X152253746Y-104863515D01*
X152297769Y-104901114D01*
X152319924Y-104954602D01*
X152340280Y-105083124D01*
X152401472Y-105203221D01*
X152496778Y-105298527D01*
X152496780Y-105298528D01*
X152616874Y-105359719D01*
X152750000Y-105380804D01*
X152883126Y-105359719D01*
X153003220Y-105298528D01*
X153098528Y-105203220D01*
X153159719Y-105083126D01*
X153165097Y-105049168D01*
X153180076Y-104954602D01*
X153202231Y-104901114D01*
X153246254Y-104863515D01*
X153302549Y-104850000D01*
X153311043Y-104850000D01*
X153330441Y-104851526D01*
X153395000Y-104861752D01*
X153459558Y-104851526D01*
X153478957Y-104850000D01*
X153497451Y-104850000D01*
X153553746Y-104863515D01*
X153597769Y-104901114D01*
X153619924Y-104954602D01*
X153640280Y-105083124D01*
X153701472Y-105203221D01*
X153796778Y-105298527D01*
X153796780Y-105298528D01*
X153916874Y-105359719D01*
X154050000Y-105380804D01*
X154183126Y-105359719D01*
X154303220Y-105298528D01*
X154398528Y-105203220D01*
X154459719Y-105083126D01*
X154465097Y-105049168D01*
X154480076Y-104954602D01*
X154502231Y-104901114D01*
X154546254Y-104863515D01*
X154602549Y-104850000D01*
X154610301Y-104850000D01*
X154629699Y-104851526D01*
X154665000Y-104857118D01*
X154700300Y-104851526D01*
X154719699Y-104850000D01*
X154747451Y-104850000D01*
X154803746Y-104863515D01*
X154847769Y-104901114D01*
X154869924Y-104954602D01*
X154890280Y-105083124D01*
X154951472Y-105203221D01*
X155046778Y-105298527D01*
X155046780Y-105298528D01*
X155166874Y-105359719D01*
X155300000Y-105380804D01*
X155433126Y-105359719D01*
X155553220Y-105298528D01*
X155648528Y-105203220D01*
X155709719Y-105083126D01*
X155715097Y-105049168D01*
X155730076Y-104954602D01*
X155752231Y-104901114D01*
X155796254Y-104863515D01*
X155852549Y-104850000D01*
X155871052Y-104850000D01*
X155890448Y-104851526D01*
X155935000Y-104858583D01*
X155979551Y-104851526D01*
X155998948Y-104850000D01*
X156047451Y-104850000D01*
X156103746Y-104863515D01*
X156147769Y-104901114D01*
X156169924Y-104954602D01*
X156190280Y-105083124D01*
X156251472Y-105203221D01*
X156346778Y-105298527D01*
X156346780Y-105298528D01*
X156466874Y-105359719D01*
X156600000Y-105380804D01*
X156733126Y-105359719D01*
X156853220Y-105298528D01*
X156948528Y-105203220D01*
X157009719Y-105083126D01*
X157015097Y-105049168D01*
X157030076Y-104954602D01*
X157052231Y-104901114D01*
X157096254Y-104863515D01*
X157152549Y-104850000D01*
X157170416Y-104850000D01*
X157189815Y-104851527D01*
X157205000Y-104853932D01*
X157220185Y-104851527D01*
X157239584Y-104850000D01*
X157297451Y-104850000D01*
X157353746Y-104863515D01*
X157397769Y-104901114D01*
X157419924Y-104954602D01*
X157440280Y-105083124D01*
X157501472Y-105203221D01*
X157596778Y-105298527D01*
X157596780Y-105298528D01*
X157716874Y-105359719D01*
X157850000Y-105380804D01*
X157983126Y-105359719D01*
X158103220Y-105298528D01*
X158198528Y-105203220D01*
X158259719Y-105083126D01*
X158265097Y-105049168D01*
X158280076Y-104954602D01*
X158302231Y-104901114D01*
X158346254Y-104863515D01*
X158402549Y-104850000D01*
X158449666Y-104850000D01*
X158469064Y-104851526D01*
X158475000Y-104852467D01*
X158480935Y-104851526D01*
X158500334Y-104850000D01*
X158547451Y-104850000D01*
X158603746Y-104863515D01*
X158647769Y-104901114D01*
X158669924Y-104954602D01*
X158690280Y-105083124D01*
X158751472Y-105203221D01*
X158846778Y-105298527D01*
X158846780Y-105298528D01*
X158966874Y-105359719D01*
X159100000Y-105380804D01*
X159233126Y-105359719D01*
X159353220Y-105298528D01*
X159448528Y-105203220D01*
X159509719Y-105083126D01*
X159515097Y-105049168D01*
X159530076Y-104954602D01*
X159552231Y-104901114D01*
X159596254Y-104863515D01*
X159652549Y-104850000D01*
X159691811Y-104850000D01*
X159711207Y-104851526D01*
X159745000Y-104856879D01*
X159745000Y-104856878D01*
X159745001Y-104856879D01*
X159789375Y-104849850D01*
X159878126Y-104835794D01*
X159998220Y-104774603D01*
X160093528Y-104679295D01*
X160154719Y-104559201D01*
X160175804Y-104426075D01*
X160154719Y-104292949D01*
X160151647Y-104273552D01*
X160154593Y-104273085D01*
X160150000Y-104253918D01*
X160150000Y-104050001D01*
X160149999Y-104049999D01*
X157536319Y-101436319D01*
X157509439Y-101396091D01*
X157500000Y-101348638D01*
X157500000Y-94582500D01*
X159264353Y-94582500D01*
X159284834Y-94724957D01*
X159344623Y-94855874D01*
X159409496Y-94930741D01*
X159438872Y-94964643D01*
X159559947Y-95042453D01*
X159698039Y-95083000D01*
X159841960Y-95083000D01*
X159841961Y-95083000D01*
X159889202Y-95069128D01*
X159950493Y-95066940D01*
X160005337Y-95094393D01*
X160040317Y-95144772D01*
X160046873Y-95205752D01*
X160026853Y-95344999D01*
X160047334Y-95487457D01*
X160107123Y-95618374D01*
X160201370Y-95727141D01*
X160201372Y-95727143D01*
X160322447Y-95804953D01*
X160460539Y-95845500D01*
X160604461Y-95845500D01*
X160742553Y-95804953D01*
X160863628Y-95727143D01*
X160957877Y-95618373D01*
X161017665Y-95487457D01*
X161038147Y-95345000D01*
X161018126Y-95205750D01*
X161024682Y-95144772D01*
X161059661Y-95094393D01*
X161114506Y-95066940D01*
X161175798Y-95069128D01*
X161223039Y-95083000D01*
X161366960Y-95083000D01*
X161366961Y-95083000D01*
X161414202Y-95069128D01*
X161475493Y-95066940D01*
X161530337Y-95094393D01*
X161565317Y-95144772D01*
X161571873Y-95205752D01*
X161551853Y-95344999D01*
X161572334Y-95487457D01*
X161632123Y-95618374D01*
X161726370Y-95727141D01*
X161726372Y-95727143D01*
X161847447Y-95804953D01*
X161985539Y-95845500D01*
X162129461Y-95845500D01*
X162267553Y-95804953D01*
X162388628Y-95727143D01*
X162482877Y-95618373D01*
X162542665Y-95487457D01*
X162563147Y-95345000D01*
X162543126Y-95205750D01*
X162549682Y-95144772D01*
X162584661Y-95094393D01*
X162639506Y-95066940D01*
X162700798Y-95069128D01*
X162748039Y-95083000D01*
X162891961Y-95083000D01*
X163030053Y-95042453D01*
X163151128Y-94964643D01*
X163245377Y-94855873D01*
X163305165Y-94724957D01*
X163325647Y-94582500D01*
X163305165Y-94440043D01*
X163245377Y-94309127D01*
X163245376Y-94309126D01*
X163245376Y-94309125D01*
X163151129Y-94200358D01*
X163151128Y-94200357D01*
X163030053Y-94122547D01*
X162891961Y-94082000D01*
X162748039Y-94082000D01*
X162726219Y-94088406D01*
X162700797Y-94095871D01*
X162639505Y-94098059D01*
X162584661Y-94070605D01*
X162549682Y-94020226D01*
X162543126Y-93959248D01*
X162563147Y-93820000D01*
X162543126Y-93680750D01*
X162549682Y-93619772D01*
X162584661Y-93569393D01*
X162639506Y-93541940D01*
X162700798Y-93544128D01*
X162748039Y-93558000D01*
X162891961Y-93558000D01*
X163030053Y-93517453D01*
X163151128Y-93439643D01*
X163245377Y-93330873D01*
X163305165Y-93199957D01*
X163325647Y-93057500D01*
X163305165Y-92915043D01*
X163288924Y-92879481D01*
X163245376Y-92784125D01*
X163151129Y-92675358D01*
X163151128Y-92675357D01*
X163030053Y-92597547D01*
X162891961Y-92557000D01*
X162748039Y-92557000D01*
X162726219Y-92563406D01*
X162700797Y-92570871D01*
X162639505Y-92573059D01*
X162584661Y-92545605D01*
X162549682Y-92495226D01*
X162543126Y-92434248D01*
X162563147Y-92295000D01*
X162542665Y-92152543D01*
X162482877Y-92021627D01*
X162482876Y-92021626D01*
X162482876Y-92021625D01*
X162388629Y-91912858D01*
X162388628Y-91912857D01*
X162267553Y-91835047D01*
X162129461Y-91794500D01*
X161985539Y-91794500D01*
X161847447Y-91835047D01*
X161726370Y-91912858D01*
X161632123Y-92021625D01*
X161572334Y-92152542D01*
X161551853Y-92295000D01*
X161571873Y-92434247D01*
X161565317Y-92495227D01*
X161530338Y-92545606D01*
X161475494Y-92573059D01*
X161414201Y-92570870D01*
X161366962Y-92557000D01*
X161366961Y-92557000D01*
X161223039Y-92557000D01*
X161201219Y-92563406D01*
X161175797Y-92570871D01*
X161114505Y-92573059D01*
X161059661Y-92545605D01*
X161024682Y-92495226D01*
X161018126Y-92434248D01*
X161038147Y-92295000D01*
X161017665Y-92152543D01*
X160957877Y-92021627D01*
X160957876Y-92021626D01*
X160957876Y-92021625D01*
X160863629Y-91912858D01*
X160863628Y-91912857D01*
X160742553Y-91835047D01*
X160604461Y-91794500D01*
X160460539Y-91794500D01*
X160322447Y-91835047D01*
X160201370Y-91912858D01*
X160107123Y-92021625D01*
X160047334Y-92152542D01*
X160026853Y-92295000D01*
X160046873Y-92434247D01*
X160040317Y-92495227D01*
X160005338Y-92545606D01*
X159950494Y-92573059D01*
X159889201Y-92570870D01*
X159841962Y-92557000D01*
X159841961Y-92557000D01*
X159698039Y-92557000D01*
X159559947Y-92597547D01*
X159438870Y-92675358D01*
X159344623Y-92784125D01*
X159284834Y-92915042D01*
X159264353Y-93057500D01*
X159284834Y-93199957D01*
X159344623Y-93330874D01*
X159348683Y-93335559D01*
X159438872Y-93439643D01*
X159559947Y-93517453D01*
X159698039Y-93558000D01*
X159841960Y-93558000D01*
X159841961Y-93558000D01*
X159889202Y-93544128D01*
X159950493Y-93541940D01*
X160005337Y-93569393D01*
X160040317Y-93619772D01*
X160046873Y-93680752D01*
X160026853Y-93819999D01*
X160046873Y-93959247D01*
X160040317Y-94020227D01*
X160005338Y-94070606D01*
X159950494Y-94098059D01*
X159889201Y-94095870D01*
X159841962Y-94082000D01*
X159841961Y-94082000D01*
X159698039Y-94082000D01*
X159559947Y-94122547D01*
X159438870Y-94200358D01*
X159344623Y-94309125D01*
X159284834Y-94440042D01*
X159264353Y-94582500D01*
X157500000Y-94582500D01*
X157500000Y-92451362D01*
X157509439Y-92403909D01*
X157536319Y-92363681D01*
X163163681Y-86736319D01*
X163203909Y-86709439D01*
X163251362Y-86700000D01*
X164348638Y-86700000D01*
X164396091Y-86709439D01*
G37*
%TD.AperFunction*%
%TD*%
%TA.AperFunction,Conductor*%
%TO.N,VIN*%
G36*
X120544934Y-62472207D02*
G01*
X120587594Y-62505113D01*
X120971261Y-62965514D01*
X120992594Y-63002681D01*
X121000000Y-63044894D01*
X121000000Y-65948638D01*
X120990561Y-65996091D01*
X120963681Y-66036319D01*
X120536319Y-66463681D01*
X120496091Y-66490561D01*
X120448638Y-66500000D01*
X118499999Y-66500000D01*
X118052180Y-66947819D01*
X118002817Y-66978069D01*
X117945101Y-66982611D01*
X117891614Y-66960456D01*
X117854014Y-66916433D01*
X117840499Y-66860138D01*
X117840499Y-65455133D01*
X117837585Y-65430011D01*
X117837585Y-65430009D01*
X117792206Y-65327235D01*
X117792204Y-65327233D01*
X117792204Y-65327232D01*
X117712767Y-65247795D01*
X117694479Y-65239720D01*
X117609991Y-65202415D01*
X117584865Y-65199500D01*
X117584863Y-65199500D01*
X114495132Y-65199500D01*
X114470011Y-65202414D01*
X114367232Y-65247795D01*
X114287795Y-65327232D01*
X114242415Y-65430009D01*
X114239500Y-65455136D01*
X114239500Y-68544867D01*
X114242414Y-68569988D01*
X114287795Y-68672767D01*
X114367232Y-68752204D01*
X114367233Y-68752204D01*
X114367235Y-68752206D01*
X114470009Y-68797585D01*
X114495135Y-68800500D01*
X117584864Y-68800499D01*
X117584867Y-68800499D01*
X117597427Y-68799042D01*
X117609991Y-68797585D01*
X117712765Y-68752206D01*
X117712767Y-68752203D01*
X117788319Y-68676653D01*
X117837682Y-68646403D01*
X117895398Y-68641861D01*
X117948885Y-68664016D01*
X117986485Y-68708039D01*
X118000000Y-68764334D01*
X118000000Y-73493360D01*
X117981727Y-73558150D01*
X117932295Y-73603845D01*
X117866271Y-73616978D01*
X117803115Y-73593678D01*
X117761439Y-73540813D01*
X117760762Y-73539179D01*
X117759024Y-73534983D01*
X117674791Y-73425209D01*
X117674789Y-73425207D01*
X117674788Y-73425206D01*
X117565020Y-73340977D01*
X117541090Y-73331065D01*
X117437183Y-73288026D01*
X117437182Y-73288025D01*
X117437180Y-73288025D01*
X117300000Y-73269965D01*
X117162816Y-73288026D01*
X117034985Y-73340974D01*
X116925209Y-73425209D01*
X116840974Y-73534985D01*
X116788026Y-73662816D01*
X116769965Y-73799999D01*
X116788025Y-73937180D01*
X116788025Y-73937182D01*
X116788026Y-73937183D01*
X116816664Y-74006323D01*
X116840977Y-74065020D01*
X116925208Y-74174791D01*
X117034979Y-74259022D01*
X117034982Y-74259024D01*
X117162817Y-74311974D01*
X117300000Y-74330035D01*
X117437183Y-74311974D01*
X117565018Y-74259024D01*
X117674791Y-74174791D01*
X117759024Y-74065018D01*
X117761438Y-74059188D01*
X117803115Y-74006323D01*
X117866271Y-73983023D01*
X117932295Y-73996156D01*
X117981727Y-74041851D01*
X118000000Y-74106641D01*
X118000000Y-75445388D01*
X117985359Y-75503840D01*
X117944894Y-75548488D01*
X117888159Y-75568790D01*
X117853628Y-75563669D01*
X117853367Y-75565657D01*
X117837183Y-75563526D01*
X117700000Y-75545465D01*
X117562816Y-75563526D01*
X117434985Y-75616474D01*
X117325209Y-75700709D01*
X117240974Y-75810485D01*
X117188026Y-75938316D01*
X117169965Y-76075499D01*
X117188026Y-76212683D01*
X117236018Y-76328548D01*
X117244860Y-76388155D01*
X117224559Y-76444891D01*
X117179910Y-76485358D01*
X117121457Y-76500000D01*
X116493330Y-76500000D01*
X116438486Y-76487212D01*
X116394955Y-76451487D01*
X116374791Y-76425209D01*
X116265020Y-76340977D01*
X116263912Y-76340518D01*
X116137183Y-76288026D01*
X116137182Y-76288025D01*
X116137180Y-76288025D01*
X116000000Y-76269965D01*
X115862816Y-76288026D01*
X115734985Y-76340974D01*
X115625209Y-76425209D01*
X115540974Y-76534985D01*
X115488026Y-76662816D01*
X115469965Y-76799999D01*
X115488025Y-76937180D01*
X115540977Y-77065020D01*
X115625206Y-77174788D01*
X115625207Y-77174789D01*
X115625209Y-77174791D01*
X115684929Y-77220616D01*
X115720653Y-77264147D01*
X115733441Y-77318989D01*
X115720654Y-77373833D01*
X115684930Y-77417365D01*
X115674711Y-77425206D01*
X115590474Y-77534985D01*
X115537526Y-77662816D01*
X115519465Y-77799999D01*
X115537525Y-77937180D01*
X115537525Y-77937182D01*
X115537526Y-77937183D01*
X115590476Y-78065018D01*
X115590477Y-78065020D01*
X115653523Y-78147182D01*
X115678087Y-78206482D01*
X115669710Y-78270119D01*
X115630637Y-78321043D01*
X115625211Y-78325206D01*
X115540974Y-78434985D01*
X115488026Y-78562816D01*
X115469965Y-78700000D01*
X115488025Y-78837180D01*
X115540977Y-78965020D01*
X115625208Y-79074791D01*
X115734979Y-79159022D01*
X115734982Y-79159024D01*
X115862817Y-79211974D01*
X115892186Y-79215840D01*
X115947123Y-79237204D01*
X115985989Y-79281522D01*
X116000000Y-79338779D01*
X116000000Y-80311309D01*
X115985358Y-80369762D01*
X115944891Y-80414411D01*
X115888155Y-80434712D01*
X115828548Y-80425870D01*
X115789555Y-80409719D01*
X115737183Y-80388026D01*
X115600000Y-80369965D01*
X115462816Y-80388026D01*
X115334985Y-80440974D01*
X115225209Y-80525209D01*
X115140974Y-80634985D01*
X115088026Y-80762816D01*
X115069965Y-80900000D01*
X115088025Y-81037180D01*
X115088025Y-81037182D01*
X115088026Y-81037183D01*
X115136010Y-81153028D01*
X115140977Y-81165020D01*
X115225208Y-81274791D01*
X115322913Y-81349763D01*
X115334982Y-81359024D01*
X115462817Y-81411974D01*
X115600000Y-81430035D01*
X115737183Y-81411974D01*
X115828548Y-81374129D01*
X115888155Y-81365288D01*
X115944891Y-81385589D01*
X115985358Y-81430238D01*
X116000000Y-81488691D01*
X116000000Y-86448638D01*
X115990561Y-86496091D01*
X115963681Y-86536319D01*
X115041955Y-87458044D01*
X114988601Y-87489517D01*
X114926680Y-87491254D01*
X114882283Y-87481120D01*
X114868925Y-87477272D01*
X114832797Y-87464631D01*
X114794764Y-87460345D01*
X114781063Y-87458017D01*
X114743741Y-87449500D01*
X114743739Y-87449500D01*
X114698499Y-87449500D01*
X114578375Y-87449500D01*
X114511750Y-87430080D01*
X114465993Y-87377904D01*
X114455436Y-87309314D01*
X114463245Y-87250000D01*
X114460019Y-87225500D01*
X114445184Y-87112817D01*
X114392234Y-86984983D01*
X114308001Y-86875209D01*
X114307999Y-86875207D01*
X114307998Y-86875206D01*
X114198230Y-86790977D01*
X114198223Y-86790974D01*
X114070393Y-86738026D01*
X114070392Y-86738025D01*
X114070390Y-86738025D01*
X113933210Y-86719965D01*
X113796026Y-86738026D01*
X113668195Y-86790974D01*
X113558419Y-86875209D01*
X113474184Y-86984985D01*
X113421236Y-87112816D01*
X113403175Y-87249999D01*
X113421236Y-87387183D01*
X113466217Y-87495779D01*
X113475656Y-87543231D01*
X113466217Y-87590684D01*
X113439338Y-87630912D01*
X113322512Y-87747738D01*
X113241082Y-87877334D01*
X113226540Y-87900478D01*
X113205372Y-87960974D01*
X113166960Y-88070748D01*
X113146763Y-88249999D01*
X113166960Y-88429251D01*
X113166960Y-88429253D01*
X113166961Y-88429255D01*
X113226540Y-88599522D01*
X113226541Y-88599523D01*
X113322514Y-88752264D01*
X113450064Y-88879814D01*
X113450066Y-88879815D01*
X113450067Y-88879816D01*
X113602807Y-88975789D01*
X113773074Y-89035368D01*
X113840224Y-89042934D01*
X113907372Y-89050500D01*
X113907375Y-89050500D01*
X114270605Y-89050500D01*
X114318058Y-89059939D01*
X114358286Y-89086819D01*
X115673729Y-90402262D01*
X115801283Y-90529816D01*
X115828281Y-90546780D01*
X115833688Y-90550177D01*
X115845031Y-90558225D01*
X115874956Y-90582090D01*
X115874957Y-90582090D01*
X115874958Y-90582091D01*
X115909444Y-90598698D01*
X115921603Y-90605418D01*
X115954023Y-90625789D01*
X115990165Y-90638435D01*
X116003003Y-90643754D01*
X116037484Y-90660359D01*
X116072382Y-90668324D01*
X116074794Y-90668875D01*
X116088153Y-90672724D01*
X116116193Y-90682535D01*
X116168647Y-90718022D01*
X116196737Y-90774782D01*
X116193134Y-90838011D01*
X116158780Y-90891213D01*
X116088350Y-90955419D01*
X115965437Y-91118181D01*
X115874531Y-91300748D01*
X115818715Y-91496916D01*
X115799898Y-91699999D01*
X115818715Y-91903083D01*
X115874531Y-92099251D01*
X115965437Y-92281818D01*
X116088349Y-92444580D01*
X116239071Y-92581981D01*
X116412474Y-92689347D01*
X116412476Y-92689348D01*
X116602657Y-92763024D01*
X116803137Y-92800500D01*
X117007087Y-92800500D01*
X117007089Y-92800500D01*
X117207569Y-92763024D01*
X117397750Y-92689348D01*
X117571154Y-92581981D01*
X117721877Y-92444579D01*
X117844786Y-92281821D01*
X117844786Y-92281819D01*
X117844788Y-92281818D01*
X117885527Y-92200000D01*
X118405113Y-92200000D01*
X118405113Y-92519697D01*
X118416717Y-92578036D01*
X118460920Y-92644192D01*
X118527076Y-92688395D01*
X118585416Y-92700000D01*
X118905113Y-92700000D01*
X118905113Y-92200000D01*
X119905113Y-92200000D01*
X119905113Y-92700000D01*
X120224810Y-92700000D01*
X120283149Y-92688395D01*
X120349305Y-92644192D01*
X120393508Y-92578036D01*
X120405113Y-92519697D01*
X120405113Y-92200000D01*
X119905113Y-92200000D01*
X118905113Y-92200000D01*
X118405113Y-92200000D01*
X117885527Y-92200000D01*
X117890426Y-92190161D01*
X117935695Y-92099250D01*
X117991510Y-91903083D01*
X118010328Y-91700000D01*
X117991510Y-91496917D01*
X117935695Y-91300750D01*
X117911158Y-91251472D01*
X117844788Y-91118181D01*
X117721876Y-90955419D01*
X117678785Y-90916137D01*
X117645888Y-90867150D01*
X117639359Y-90808504D01*
X117660675Y-90753481D01*
X117705010Y-90714540D01*
X117762323Y-90700500D01*
X118289783Y-90700500D01*
X118342800Y-90712405D01*
X118385636Y-90745835D01*
X118410067Y-90794370D01*
X118411401Y-90848690D01*
X118405113Y-90880303D01*
X118405113Y-91200000D01*
X120405113Y-91200000D01*
X120405113Y-90880303D01*
X120398825Y-90848690D01*
X120400159Y-90794370D01*
X120424590Y-90745835D01*
X120467426Y-90712405D01*
X120520443Y-90700500D01*
X121528839Y-90700500D01*
X121562293Y-90705098D01*
X121578617Y-90709671D01*
X121578618Y-90709672D01*
X121629288Y-90723869D01*
X121637339Y-90726424D01*
X121683447Y-90742811D01*
X121690861Y-90745446D01*
X121705461Y-90748221D01*
X121720175Y-90750500D01*
X121724335Y-90750500D01*
X121776945Y-90750500D01*
X121785406Y-90750788D01*
X121837921Y-90754381D01*
X121837922Y-90754380D01*
X121842081Y-90754665D01*
X121856814Y-90753404D01*
X121880999Y-90750500D01*
X122324335Y-90750500D01*
X122365418Y-90750500D01*
X122378098Y-90751149D01*
X122418972Y-90755352D01*
X122425209Y-90754276D01*
X122450506Y-90752546D01*
X122456826Y-90752762D01*
X122456828Y-90752761D01*
X122460982Y-90752903D01*
X122481000Y-90750500D01*
X122699138Y-90750500D01*
X122746591Y-90759939D01*
X122786819Y-90786819D01*
X122963681Y-90963681D01*
X122990561Y-91003909D01*
X123000000Y-91051362D01*
X123000000Y-91500000D01*
X124000000Y-92500000D01*
X124876000Y-92500000D01*
X124938000Y-92516613D01*
X124983387Y-92562000D01*
X125000000Y-92624000D01*
X125000000Y-97309244D01*
X124990562Y-97356694D01*
X124988026Y-97362815D01*
X124969965Y-97500000D01*
X124988025Y-97637180D01*
X125040977Y-97765020D01*
X125125208Y-97874791D01*
X125160178Y-97901625D01*
X125195903Y-97945157D01*
X125208691Y-98000000D01*
X125195903Y-98054843D01*
X125160178Y-98098375D01*
X125125211Y-98125206D01*
X125040974Y-98234985D01*
X124988026Y-98362816D01*
X124969965Y-98500000D01*
X124988025Y-98637180D01*
X124988025Y-98637182D01*
X124988026Y-98637183D01*
X125040976Y-98765018D01*
X125040977Y-98765020D01*
X125125208Y-98874791D01*
X125234979Y-98959022D01*
X125234982Y-98959024D01*
X125362817Y-99011974D01*
X125500000Y-99030035D01*
X125637183Y-99011974D01*
X125765018Y-98959024D01*
X125874791Y-98874791D01*
X125959024Y-98765018D01*
X125977629Y-98720098D01*
X126013524Y-98671700D01*
X126067998Y-98645935D01*
X126128185Y-98648891D01*
X126179871Y-98679871D01*
X129348314Y-101848314D01*
X129378894Y-101898707D01*
X129382749Y-101957527D01*
X129359009Y-102011481D01*
X129340975Y-102034982D01*
X129288026Y-102162816D01*
X129269965Y-102299999D01*
X129288025Y-102437180D01*
X129288025Y-102437182D01*
X129288026Y-102437183D01*
X129312075Y-102495243D01*
X129340977Y-102565020D01*
X129425208Y-102674791D01*
X129534979Y-102759022D01*
X129534982Y-102759024D01*
X129662817Y-102811974D01*
X129800000Y-102830035D01*
X129937183Y-102811974D01*
X130065018Y-102759024D01*
X130070208Y-102755041D01*
X130075314Y-102751124D01*
X130110942Y-102732081D01*
X130150800Y-102725500D01*
X130174138Y-102725500D01*
X130221591Y-102734939D01*
X130261819Y-102761819D01*
X130963681Y-103463681D01*
X130990561Y-103503909D01*
X131000000Y-103551362D01*
X131000000Y-106000000D01*
X127366091Y-106000000D01*
X127337183Y-105988026D01*
X127337182Y-105988025D01*
X127337180Y-105988025D01*
X127200000Y-105969965D01*
X127062816Y-105988026D01*
X127033907Y-106000000D01*
X107700000Y-106000000D01*
X107700000Y-102790000D01*
X110694450Y-102790000D01*
X110714616Y-103059100D01*
X110714617Y-103059103D01*
X110774666Y-103322195D01*
X110873257Y-103573398D01*
X111008185Y-103807102D01*
X111176439Y-104018085D01*
X111374259Y-104201635D01*
X111597226Y-104353651D01*
X111840359Y-104470738D01*
X112098228Y-104550280D01*
X112365071Y-104590500D01*
X112634929Y-104590500D01*
X112901772Y-104550280D01*
X113159641Y-104470738D01*
X113402775Y-104353651D01*
X113625741Y-104201635D01*
X113823561Y-104018085D01*
X113991815Y-103807102D01*
X114126743Y-103573398D01*
X114225334Y-103322195D01*
X114285383Y-103059103D01*
X114305549Y-102790000D01*
X114285383Y-102520897D01*
X114225334Y-102257805D01*
X114126743Y-102006602D01*
X114102844Y-101965208D01*
X120719965Y-101965208D01*
X120738025Y-102102388D01*
X120738025Y-102102390D01*
X120738026Y-102102391D01*
X120763055Y-102162817D01*
X120790977Y-102230228D01*
X120875208Y-102339999D01*
X120984979Y-102424230D01*
X120984982Y-102424232D01*
X121112817Y-102477182D01*
X121250000Y-102495243D01*
X121387183Y-102477182D01*
X121515018Y-102424232D01*
X121624791Y-102339999D01*
X121709024Y-102230226D01*
X121761974Y-102102391D01*
X121780035Y-101965208D01*
X121761974Y-101828025D01*
X121709024Y-101700191D01*
X121624791Y-101590417D01*
X121624789Y-101590415D01*
X121624788Y-101590414D01*
X121515020Y-101506185D01*
X121515013Y-101506182D01*
X121387183Y-101453234D01*
X121387182Y-101453233D01*
X121387180Y-101453233D01*
X121250000Y-101435173D01*
X121112816Y-101453234D01*
X120984985Y-101506182D01*
X120875209Y-101590417D01*
X120790974Y-101700193D01*
X120738026Y-101828024D01*
X120719965Y-101965208D01*
X114102844Y-101965208D01*
X113991815Y-101772898D01*
X113823561Y-101561915D01*
X113823560Y-101561914D01*
X113625743Y-101378366D01*
X113534490Y-101316151D01*
X113402775Y-101226349D01*
X113159641Y-101109262D01*
X113080098Y-101084726D01*
X112901771Y-101029719D01*
X112634929Y-100989500D01*
X112365071Y-100989500D01*
X112098228Y-101029719D01*
X111840359Y-101109262D01*
X111597228Y-101226347D01*
X111374257Y-101378366D01*
X111176439Y-101561915D01*
X111008184Y-101772899D01*
X110873257Y-102006601D01*
X110774666Y-102257804D01*
X110714616Y-102520899D01*
X110694450Y-102790000D01*
X107700000Y-102790000D01*
X107700000Y-99254867D01*
X110699500Y-99254867D01*
X110702414Y-99279988D01*
X110702414Y-99279990D01*
X110702415Y-99279991D01*
X110744273Y-99374791D01*
X110747795Y-99382767D01*
X110827232Y-99462204D01*
X110827233Y-99462204D01*
X110827235Y-99462206D01*
X110930009Y-99507585D01*
X110955135Y-99510500D01*
X114044864Y-99510499D01*
X114044867Y-99510499D01*
X114057427Y-99509041D01*
X114069991Y-99507585D01*
X114172765Y-99462206D01*
X114252206Y-99382765D01*
X114297585Y-99279991D01*
X114300500Y-99254865D01*
X114300499Y-96165136D01*
X114297585Y-96140009D01*
X114252206Y-96037235D01*
X114252204Y-96037233D01*
X114252204Y-96037232D01*
X114172767Y-95957795D01*
X114172765Y-95957794D01*
X114069991Y-95912415D01*
X114044865Y-95909500D01*
X114044863Y-95909500D01*
X110955132Y-95909500D01*
X110930011Y-95912414D01*
X110827232Y-95957795D01*
X110747795Y-96037232D01*
X110702415Y-96140009D01*
X110699500Y-96165136D01*
X110699500Y-99254867D01*
X107700000Y-99254867D01*
X107700000Y-82068934D01*
X108645668Y-82068934D01*
X108649035Y-82088026D01*
X108676135Y-82241711D01*
X108723481Y-82351472D01*
X108745623Y-82402804D01*
X108850390Y-82543530D01*
X108984783Y-82656300D01*
X108984784Y-82656300D01*
X108984786Y-82656302D01*
X109141567Y-82735040D01*
X109141568Y-82735040D01*
X109141570Y-82735041D01*
X109312277Y-82775500D01*
X109312279Y-82775500D01*
X110243704Y-82775500D01*
X110243709Y-82775500D01*
X110374255Y-82760241D01*
X110539117Y-82700237D01*
X110685696Y-82603830D01*
X110806092Y-82476218D01*
X110893812Y-82324281D01*
X110944130Y-82156210D01*
X110949213Y-82068934D01*
X112665668Y-82068934D01*
X112669035Y-82088026D01*
X112696135Y-82241711D01*
X112743481Y-82351472D01*
X112765623Y-82402804D01*
X112870390Y-82543530D01*
X113004783Y-82656300D01*
X113004784Y-82656300D01*
X113004786Y-82656302D01*
X113161567Y-82735040D01*
X113161568Y-82735040D01*
X113161570Y-82735041D01*
X113332277Y-82775500D01*
X113332279Y-82775500D01*
X114563704Y-82775500D01*
X114563709Y-82775500D01*
X114694255Y-82760241D01*
X114859117Y-82700237D01*
X115005696Y-82603830D01*
X115126092Y-82476218D01*
X115213812Y-82324281D01*
X115264130Y-82156210D01*
X115274331Y-81981065D01*
X115243865Y-81808289D01*
X115174377Y-81647196D01*
X115069610Y-81506470D01*
X115048422Y-81488691D01*
X114935216Y-81393699D01*
X114778429Y-81314958D01*
X114607723Y-81274500D01*
X114607721Y-81274500D01*
X113755992Y-81274500D01*
X113691959Y-81256687D01*
X113646322Y-81208367D01*
X113632194Y-81143421D01*
X113653633Y-81080509D01*
X113704480Y-81037706D01*
X113709797Y-81035277D01*
X113753373Y-81015377D01*
X113862143Y-80921128D01*
X113939953Y-80800053D01*
X113980500Y-80661961D01*
X113980500Y-80518039D01*
X113939953Y-80379947D01*
X113862143Y-80258872D01*
X113862141Y-80258870D01*
X113753374Y-80164623D01*
X113622457Y-80104834D01*
X113515799Y-80089500D01*
X113444201Y-80089500D01*
X113337542Y-80104834D01*
X113206625Y-80164623D01*
X113097858Y-80258870D01*
X113097856Y-80258872D01*
X113097857Y-80258872D01*
X113020047Y-80379947D01*
X112979500Y-80518039D01*
X112979500Y-80661961D01*
X113020047Y-80800053D01*
X113084279Y-80900000D01*
X113097858Y-80921129D01*
X113206625Y-81015376D01*
X113206626Y-81015376D01*
X113206627Y-81015377D01*
X113254368Y-81037180D01*
X113289156Y-81053067D01*
X113338346Y-81093507D01*
X113360978Y-81153028D01*
X113351084Y-81215934D01*
X113311273Y-81265635D01*
X113252044Y-81289022D01*
X113245746Y-81289758D01*
X113080883Y-81349762D01*
X112934303Y-81446170D01*
X112813908Y-81573780D01*
X112726188Y-81725718D01*
X112726188Y-81725719D01*
X112675870Y-81893790D01*
X112675869Y-81893792D01*
X112675870Y-81893792D01*
X112665668Y-82068934D01*
X110949213Y-82068934D01*
X110954331Y-81981065D01*
X110923865Y-81808289D01*
X110854377Y-81647196D01*
X110749610Y-81506470D01*
X110728422Y-81488691D01*
X110615216Y-81393699D01*
X110458429Y-81314958D01*
X110287723Y-81274500D01*
X110287721Y-81274500D01*
X109356291Y-81274500D01*
X109274699Y-81284036D01*
X109225742Y-81289759D01*
X109060883Y-81349762D01*
X108914303Y-81446170D01*
X108793908Y-81573780D01*
X108706188Y-81725718D01*
X108706188Y-81725719D01*
X108655870Y-81893790D01*
X108655869Y-81893792D01*
X108655870Y-81893792D01*
X108645668Y-82068934D01*
X107700000Y-82068934D01*
X107700000Y-73418934D01*
X108645668Y-73418934D01*
X108661058Y-73506207D01*
X108676135Y-73591711D01*
X108733720Y-73725209D01*
X108745623Y-73752804D01*
X108850390Y-73893530D01*
X108984783Y-74006300D01*
X108984784Y-74006300D01*
X108984786Y-74006302D01*
X109141567Y-74085040D01*
X109141568Y-74085040D01*
X109141570Y-74085041D01*
X109312277Y-74125500D01*
X109312279Y-74125500D01*
X110243704Y-74125500D01*
X110243709Y-74125500D01*
X110374255Y-74110241D01*
X110539117Y-74050237D01*
X110685696Y-73953830D01*
X110806092Y-73826218D01*
X110893812Y-73674281D01*
X110944130Y-73506210D01*
X110949213Y-73418934D01*
X112665668Y-73418934D01*
X112681058Y-73506207D01*
X112696135Y-73591711D01*
X112753720Y-73725209D01*
X112765623Y-73752804D01*
X112870390Y-73893530D01*
X113004783Y-74006300D01*
X113004784Y-74006300D01*
X113004786Y-74006302D01*
X113161567Y-74085040D01*
X113161568Y-74085040D01*
X113161570Y-74085041D01*
X113271477Y-74111090D01*
X113325462Y-74139247D01*
X113359536Y-74189706D01*
X113365484Y-74250302D01*
X113341872Y-74306424D01*
X113294392Y-74344541D01*
X113206625Y-74384623D01*
X113097858Y-74478870D01*
X113061797Y-74534983D01*
X113020047Y-74599947D01*
X112979500Y-74738039D01*
X112979500Y-74881961D01*
X113020047Y-75020053D01*
X113097857Y-75141128D01*
X113097858Y-75141129D01*
X113206625Y-75235376D01*
X113337542Y-75295165D01*
X113444201Y-75310500D01*
X113515799Y-75310500D01*
X113622457Y-75295165D01*
X113622456Y-75295165D01*
X113753373Y-75235377D01*
X113862143Y-75141128D01*
X113939953Y-75020053D01*
X113980500Y-74881961D01*
X113980500Y-74738039D01*
X113939953Y-74599947D01*
X113875720Y-74499999D01*
X115069965Y-74499999D01*
X115088025Y-74637180D01*
X115140977Y-74765020D01*
X115225208Y-74874791D01*
X115334979Y-74959022D01*
X115334982Y-74959024D01*
X115462817Y-75011974D01*
X115600000Y-75030035D01*
X115737183Y-75011974D01*
X115865018Y-74959024D01*
X115974791Y-74874791D01*
X116059024Y-74765018D01*
X116111974Y-74637183D01*
X116130035Y-74500000D01*
X116111974Y-74362817D01*
X116059024Y-74234983D01*
X115974791Y-74125209D01*
X115974789Y-74125207D01*
X115974788Y-74125206D01*
X115865020Y-74040977D01*
X115853613Y-74036252D01*
X115737183Y-73988026D01*
X115737182Y-73988025D01*
X115737180Y-73988025D01*
X115600000Y-73969965D01*
X115462816Y-73988026D01*
X115334985Y-74040974D01*
X115225209Y-74125209D01*
X115140974Y-74234985D01*
X115088026Y-74362816D01*
X115069965Y-74499999D01*
X113875720Y-74499999D01*
X113862143Y-74478872D01*
X113862141Y-74478870D01*
X113753374Y-74384623D01*
X113704480Y-74362294D01*
X113653633Y-74319491D01*
X113632194Y-74256579D01*
X113646322Y-74191633D01*
X113691959Y-74143313D01*
X113755992Y-74125500D01*
X114563704Y-74125500D01*
X114563709Y-74125500D01*
X114694255Y-74110241D01*
X114859117Y-74050237D01*
X115005696Y-73953830D01*
X115126092Y-73826218D01*
X115213812Y-73674281D01*
X115264130Y-73506210D01*
X115274331Y-73331065D01*
X115243865Y-73158289D01*
X115174377Y-72997196D01*
X115069610Y-72856470D01*
X115069609Y-72856469D01*
X114935216Y-72743699D01*
X114778429Y-72664958D01*
X114607723Y-72624500D01*
X114607721Y-72624500D01*
X113376291Y-72624500D01*
X113294699Y-72634036D01*
X113245742Y-72639759D01*
X113080883Y-72699762D01*
X112934303Y-72796170D01*
X112813908Y-72923780D01*
X112726188Y-73075718D01*
X112726188Y-73075719D01*
X112675870Y-73243790D01*
X112675869Y-73243792D01*
X112675870Y-73243792D01*
X112665668Y-73418934D01*
X110949213Y-73418934D01*
X110954331Y-73331065D01*
X110923865Y-73158289D01*
X110854377Y-72997196D01*
X110749610Y-72856470D01*
X110749609Y-72856469D01*
X110615216Y-72743699D01*
X110458429Y-72664958D01*
X110287723Y-72624500D01*
X110287721Y-72624500D01*
X109356291Y-72624500D01*
X109274699Y-72634036D01*
X109225742Y-72639759D01*
X109060883Y-72699762D01*
X108914303Y-72796170D01*
X108793908Y-72923780D01*
X108706188Y-73075718D01*
X108706188Y-73075719D01*
X108655870Y-73243790D01*
X108655869Y-73243792D01*
X108655870Y-73243792D01*
X108645668Y-73418934D01*
X107700000Y-73418934D01*
X107700000Y-66999999D01*
X109154450Y-66999999D01*
X109174616Y-67269100D01*
X109174617Y-67269103D01*
X109234666Y-67532195D01*
X109333257Y-67783398D01*
X109468185Y-68017102D01*
X109636439Y-68228085D01*
X109834259Y-68411635D01*
X110057226Y-68563651D01*
X110300359Y-68680738D01*
X110558228Y-68760280D01*
X110825071Y-68800500D01*
X111094929Y-68800500D01*
X111361772Y-68760280D01*
X111619641Y-68680738D01*
X111862775Y-68563651D01*
X112085741Y-68411635D01*
X112283561Y-68228085D01*
X112451815Y-68017102D01*
X112586743Y-67783398D01*
X112685334Y-67532195D01*
X112745383Y-67269103D01*
X112765549Y-67000000D01*
X112745383Y-66730897D01*
X112685334Y-66467805D01*
X112586743Y-66216602D01*
X112451815Y-65982898D01*
X112283561Y-65771915D01*
X112283560Y-65771914D01*
X112085743Y-65588366D01*
X112028205Y-65549137D01*
X111862775Y-65436349D01*
X111619641Y-65319262D01*
X111540097Y-65294726D01*
X111361771Y-65239719D01*
X111094929Y-65199500D01*
X110825071Y-65199500D01*
X110558228Y-65239719D01*
X110300359Y-65319262D01*
X110057228Y-65436347D01*
X109834257Y-65588366D01*
X109636439Y-65771915D01*
X109468184Y-65982899D01*
X109333257Y-66216601D01*
X109234666Y-66467804D01*
X109174616Y-66730899D01*
X109154450Y-66999999D01*
X107700000Y-66999999D01*
X107700000Y-63012070D01*
X107709439Y-62964617D01*
X107736319Y-62924389D01*
X108163888Y-62496819D01*
X108204116Y-62469939D01*
X108251569Y-62460500D01*
X120492339Y-62460500D01*
X120544934Y-62472207D01*
G37*
%TD.AperFunction*%
%TD*%
%TA.AperFunction,Conductor*%
%TO.N,+5V*%
G36*
X123000000Y-69598252D02*
G01*
X122546777Y-70051475D01*
X122532505Y-70065746D01*
X122480041Y-70096957D01*
X122419043Y-70099352D01*
X122364293Y-70072351D01*
X122329062Y-70022498D01*
X122321888Y-69961878D01*
X122330035Y-69900000D01*
X122311974Y-69762817D01*
X122259024Y-69634983D01*
X122174791Y-69525209D01*
X122174789Y-69525207D01*
X122174788Y-69525206D01*
X122065020Y-69440977D01*
X122065013Y-69440974D01*
X121937183Y-69388026D01*
X121937182Y-69388025D01*
X121937180Y-69388025D01*
X121824515Y-69373192D01*
X121800000Y-69369965D01*
X121799999Y-69369965D01*
X121662816Y-69388026D01*
X121534985Y-69440974D01*
X121425209Y-69525209D01*
X121340974Y-69634985D01*
X121288026Y-69762816D01*
X121288026Y-69762817D01*
X121269965Y-69900000D01*
X121288026Y-70037183D01*
X121302593Y-70072351D01*
X121335811Y-70152549D01*
X121345249Y-70200000D01*
X121335811Y-70247451D01*
X121313895Y-70300362D01*
X121288026Y-70362817D01*
X121269965Y-70500000D01*
X121288026Y-70637183D01*
X121324139Y-70724370D01*
X121335811Y-70752549D01*
X121345249Y-70800000D01*
X121335811Y-70847451D01*
X121288026Y-70962818D01*
X121269965Y-71100000D01*
X121288025Y-71237180D01*
X121288025Y-71237182D01*
X121288026Y-71237183D01*
X121329447Y-71337183D01*
X121340977Y-71365020D01*
X121425208Y-71474791D01*
X121525140Y-71551472D01*
X121534982Y-71559024D01*
X121662817Y-71611974D01*
X121800000Y-71630035D01*
X121937183Y-71611974D01*
X122065018Y-71559024D01*
X122174791Y-71474791D01*
X122174790Y-71474791D01*
X122175013Y-71474621D01*
X122238345Y-71449593D01*
X122305343Y-71461784D01*
X122355801Y-71507515D01*
X122374500Y-71572996D01*
X122374500Y-75767393D01*
X122381962Y-75790359D01*
X122386502Y-75809270D01*
X122390281Y-75833126D01*
X122390281Y-75833127D01*
X122390282Y-75833128D01*
X122401242Y-75854638D01*
X122408689Y-75872616D01*
X122416151Y-75895582D01*
X122430340Y-75915111D01*
X122440508Y-75931703D01*
X122451471Y-75953220D01*
X122465076Y-75966824D01*
X122475446Y-75977194D01*
X123573460Y-77075208D01*
X124638181Y-78139928D01*
X124665061Y-78180156D01*
X124674500Y-78227609D01*
X124674500Y-79567393D01*
X124681962Y-79590359D01*
X124686502Y-79609270D01*
X124690281Y-79633126D01*
X124690281Y-79633127D01*
X124690282Y-79633128D01*
X124701242Y-79654638D01*
X124708689Y-79672616D01*
X124716151Y-79695582D01*
X124730340Y-79715111D01*
X124740508Y-79731703D01*
X124751471Y-79753220D01*
X124775444Y-79777192D01*
X124775446Y-79777194D01*
X125251472Y-80253220D01*
X125346780Y-80348528D01*
X125368288Y-80359487D01*
X125384876Y-80369652D01*
X125404417Y-80383849D01*
X125404418Y-80383849D01*
X125404419Y-80383850D01*
X125414315Y-80387065D01*
X125458970Y-80412845D01*
X125489279Y-80454561D01*
X125500000Y-80504997D01*
X125500000Y-83069850D01*
X125487000Y-83125122D01*
X125450726Y-83168804D01*
X125398784Y-83191739D01*
X125342065Y-83189116D01*
X125292461Y-83161486D01*
X125266562Y-83137875D01*
X125077404Y-83020754D01*
X124961839Y-82975984D01*
X124869940Y-82940382D01*
X124651243Y-82899500D01*
X124428757Y-82899500D01*
X124210060Y-82940381D01*
X124210060Y-82940382D01*
X124002595Y-83020754D01*
X123813437Y-83137875D01*
X123649019Y-83287762D01*
X123514941Y-83465311D01*
X123435499Y-83624852D01*
X123391713Y-83673783D01*
X123329081Y-83693495D01*
X123265163Y-83678462D01*
X123217884Y-83632898D01*
X123200499Y-83569580D01*
X123200499Y-83155133D01*
X123197585Y-83130011D01*
X123197585Y-83130009D01*
X123152206Y-83027235D01*
X123152204Y-83027233D01*
X123152204Y-83027232D01*
X123072767Y-82947795D01*
X123055978Y-82940382D01*
X122969991Y-82902415D01*
X122944865Y-82899500D01*
X122944863Y-82899500D01*
X121055132Y-82899500D01*
X121030011Y-82902414D01*
X120927232Y-82947795D01*
X120847795Y-83027232D01*
X120802415Y-83130009D01*
X120799500Y-83155136D01*
X120799500Y-85044867D01*
X120802414Y-85069988D01*
X120847795Y-85172767D01*
X120927232Y-85252204D01*
X120927233Y-85252204D01*
X120927235Y-85252206D01*
X121030009Y-85297585D01*
X121055135Y-85300500D01*
X122944864Y-85300499D01*
X122944867Y-85300499D01*
X122957427Y-85299041D01*
X122969991Y-85297585D01*
X123072765Y-85252206D01*
X123152206Y-85172765D01*
X123197585Y-85069991D01*
X123200500Y-85044865D01*
X123200499Y-84630417D01*
X123217884Y-84567102D01*
X123265163Y-84521538D01*
X123329081Y-84506505D01*
X123391713Y-84526217D01*
X123435499Y-84575148D01*
X123514941Y-84734688D01*
X123649019Y-84912237D01*
X123813437Y-85062124D01*
X124002595Y-85179245D01*
X124002597Y-85179245D01*
X124002599Y-85179247D01*
X124210060Y-85259618D01*
X124428757Y-85300500D01*
X124651241Y-85300500D01*
X124651243Y-85300500D01*
X124848792Y-85263571D01*
X124908254Y-85267009D01*
X124959255Y-85297779D01*
X125213181Y-85551705D01*
X125240061Y-85591933D01*
X125249500Y-85639386D01*
X125249500Y-88888478D01*
X125249428Y-88892711D01*
X125247237Y-88956826D01*
X125256963Y-88996733D01*
X125259334Y-89009207D01*
X125264930Y-89049922D01*
X125272079Y-89066380D01*
X125278819Y-89086421D01*
X125283067Y-89103853D01*
X125303206Y-89139672D01*
X125308852Y-89151039D01*
X125325220Y-89188720D01*
X125329428Y-89193892D01*
X125336542Y-89202637D01*
X125348437Y-89220116D01*
X125357232Y-89235757D01*
X125386285Y-89264810D01*
X125394793Y-89274237D01*
X125411878Y-89295238D01*
X125420722Y-89306108D01*
X125428049Y-89311280D01*
X125435378Y-89316453D01*
X125451552Y-89330077D01*
X127613181Y-91491706D01*
X127640061Y-91531934D01*
X127649500Y-91579387D01*
X127649500Y-91888478D01*
X127649428Y-91892711D01*
X127647237Y-91956826D01*
X127656963Y-91996733D01*
X127659334Y-92009207D01*
X127664930Y-92049922D01*
X127672079Y-92066380D01*
X127678819Y-92086421D01*
X127683067Y-92103853D01*
X127703206Y-92139672D01*
X127708852Y-92151039D01*
X127725220Y-92188720D01*
X127729782Y-92194327D01*
X127736542Y-92202637D01*
X127748437Y-92220116D01*
X127757232Y-92235757D01*
X127786285Y-92264810D01*
X127794793Y-92274237D01*
X127820721Y-92306107D01*
X127835378Y-92316453D01*
X127851552Y-92330077D01*
X128302592Y-92781117D01*
X128305534Y-92784161D01*
X128349320Y-92831044D01*
X128384434Y-92852397D01*
X128394914Y-92859530D01*
X128427658Y-92884361D01*
X128444354Y-92890945D01*
X128463281Y-92900345D01*
X128478618Y-92909672D01*
X128478620Y-92909672D01*
X128478621Y-92909673D01*
X128518181Y-92920757D01*
X128530213Y-92924803D01*
X128568436Y-92939876D01*
X128586285Y-92941711D01*
X128607046Y-92945656D01*
X128624335Y-92950500D01*
X128665418Y-92950500D01*
X128678098Y-92951149D01*
X128718972Y-92955352D01*
X128736656Y-92952303D01*
X128757725Y-92950500D01*
X131820613Y-92950500D01*
X131868066Y-92959939D01*
X131908294Y-92986819D01*
X132313181Y-93391706D01*
X132340061Y-93431934D01*
X132349500Y-93479387D01*
X132349500Y-94888478D01*
X132349428Y-94892711D01*
X132347237Y-94956826D01*
X132356963Y-94996733D01*
X132359334Y-95009207D01*
X132364930Y-95049922D01*
X132372079Y-95066380D01*
X132378819Y-95086421D01*
X132383067Y-95103853D01*
X132403206Y-95139672D01*
X132408852Y-95151039D01*
X132425220Y-95188720D01*
X132433009Y-95198294D01*
X132436542Y-95202637D01*
X132448437Y-95220116D01*
X132457232Y-95235757D01*
X132486285Y-95264810D01*
X132494793Y-95274237D01*
X132520721Y-95306107D01*
X132535378Y-95316453D01*
X132551552Y-95330077D01*
X133302592Y-96081117D01*
X133305534Y-96084161D01*
X133349320Y-96131044D01*
X133384434Y-96152397D01*
X133394914Y-96159530D01*
X133427658Y-96184361D01*
X133444354Y-96190945D01*
X133463281Y-96200345D01*
X133478618Y-96209672D01*
X133478620Y-96209672D01*
X133478621Y-96209673D01*
X133518181Y-96220757D01*
X133530213Y-96224803D01*
X133568436Y-96239876D01*
X133586285Y-96241711D01*
X133607046Y-96245656D01*
X133624335Y-96250500D01*
X133665418Y-96250500D01*
X133678098Y-96251149D01*
X133718972Y-96255352D01*
X133736656Y-96252303D01*
X133757725Y-96250500D01*
X135688478Y-96250500D01*
X135692700Y-96250572D01*
X135696977Y-96250717D01*
X135703739Y-96250948D01*
X135748911Y-96261140D01*
X135787195Y-96287195D01*
X136463681Y-96963681D01*
X136490561Y-97003909D01*
X136500000Y-97051362D01*
X136500000Y-101000000D01*
X137000000Y-101500000D01*
X131925500Y-101500000D01*
X131925500Y-99332608D01*
X131918039Y-99309648D01*
X131913495Y-99290719D01*
X131909719Y-99266874D01*
X131898757Y-99245361D01*
X131891308Y-99227377D01*
X131883849Y-99204419D01*
X131883848Y-99204418D01*
X131869655Y-99184883D01*
X131859495Y-99168304D01*
X131848528Y-99146780D01*
X131848526Y-99146778D01*
X131848525Y-99146776D01*
X131738995Y-99037246D01*
X131738988Y-99037241D01*
X131719975Y-99018228D01*
X131693095Y-98978000D01*
X131683656Y-98930547D01*
X131683656Y-97870800D01*
X131690237Y-97830942D01*
X131709280Y-97795314D01*
X131717178Y-97785020D01*
X131717180Y-97785018D01*
X131770130Y-97657183D01*
X131788191Y-97520000D01*
X131770130Y-97382817D01*
X131717180Y-97254983D01*
X131632947Y-97145209D01*
X131632945Y-97145207D01*
X131632944Y-97145206D01*
X131523176Y-97060977D01*
X131474891Y-97040977D01*
X131395339Y-97008026D01*
X131395338Y-97008025D01*
X131395336Y-97008025D01*
X131258156Y-96989965D01*
X131120972Y-97008026D01*
X130993141Y-97060974D01*
X130883365Y-97145209D01*
X130799130Y-97254985D01*
X130746182Y-97382815D01*
X130744949Y-97392184D01*
X130723585Y-97447123D01*
X130679267Y-97485989D01*
X130622010Y-97500000D01*
X127138779Y-97500000D01*
X127081522Y-97485989D01*
X127037204Y-97447123D01*
X127015840Y-97392185D01*
X127014607Y-97382817D01*
X127011974Y-97362817D01*
X126959024Y-97234983D01*
X126874791Y-97125209D01*
X126874789Y-97125207D01*
X126874788Y-97125206D01*
X126765020Y-97040977D01*
X126685468Y-97008026D01*
X126637183Y-96988026D01*
X126637182Y-96988025D01*
X126637180Y-96988025D01*
X126500000Y-96969965D01*
X126362816Y-96988026D01*
X126234985Y-97040974D01*
X126125206Y-97125211D01*
X126098375Y-97160178D01*
X126054843Y-97195903D01*
X126000000Y-97208691D01*
X125945157Y-97195903D01*
X125901625Y-97160178D01*
X125874791Y-97125208D01*
X125765020Y-97040977D01*
X125685468Y-97008026D01*
X125637183Y-96988026D01*
X125637182Y-96988025D01*
X125637180Y-96988025D01*
X125620819Y-96985871D01*
X125607813Y-96984159D01*
X125552877Y-96962796D01*
X125514011Y-96918478D01*
X125500000Y-96861221D01*
X125500000Y-92000000D01*
X124051362Y-92000000D01*
X124003909Y-91990561D01*
X123963681Y-91963681D01*
X123536319Y-91536319D01*
X123509439Y-91496091D01*
X123500000Y-91448638D01*
X123500000Y-90472032D01*
X123509264Y-90438972D01*
X123505073Y-90437798D01*
X123523866Y-90370722D01*
X123526423Y-90362661D01*
X123544054Y-90313056D01*
X123544485Y-90306741D01*
X123548795Y-90281748D01*
X123550500Y-90275665D01*
X123550500Y-90223055D01*
X123550789Y-90214593D01*
X123551787Y-90200000D01*
X123554381Y-90162079D01*
X123553093Y-90155885D01*
X123550500Y-90130656D01*
X123550500Y-89634582D01*
X123551150Y-89621902D01*
X123555778Y-89576879D01*
X123555228Y-89566157D01*
X123551970Y-89550478D01*
X123543669Y-89510536D01*
X123542234Y-89502207D01*
X123534503Y-89445957D01*
X123530260Y-89431750D01*
X123525503Y-89417602D01*
X123499376Y-89367180D01*
X123495739Y-89359533D01*
X123474780Y-89311280D01*
X123474778Y-89311278D01*
X123473125Y-89307471D01*
X123465138Y-89294829D01*
X123456816Y-89282600D01*
X123453971Y-89279554D01*
X123453971Y-89279553D01*
X123418045Y-89241087D01*
X123412487Y-89234711D01*
X123376650Y-89190662D01*
X123365636Y-89180722D01*
X123354226Y-89171112D01*
X123305714Y-89141610D01*
X123298641Y-89136972D01*
X123255647Y-89106623D01*
X123255644Y-89106622D01*
X123252250Y-89104226D01*
X123238958Y-89097623D01*
X123225384Y-89091449D01*
X123170727Y-89076134D01*
X123162662Y-89073574D01*
X123109155Y-89054559D01*
X123089342Y-89050793D01*
X123083210Y-89048847D01*
X123054613Y-89042391D01*
X123016341Y-89016341D01*
X123000000Y-89000000D01*
X118551362Y-89000000D01*
X118503909Y-88990561D01*
X118463681Y-88963681D01*
X118036319Y-88536319D01*
X118009439Y-88496091D01*
X118000000Y-88448638D01*
X118000000Y-87900000D01*
X122469965Y-87900000D01*
X122488025Y-88037180D01*
X122540977Y-88165020D01*
X122625208Y-88274791D01*
X122734979Y-88359022D01*
X122734982Y-88359024D01*
X122862817Y-88411974D01*
X123000000Y-88430035D01*
X123137183Y-88411974D01*
X123265018Y-88359024D01*
X123374791Y-88274791D01*
X123459024Y-88165018D01*
X123511974Y-88037183D01*
X123530035Y-87900000D01*
X123511974Y-87762817D01*
X123459024Y-87634983D01*
X123374791Y-87525209D01*
X123374789Y-87525207D01*
X123374788Y-87525206D01*
X123265020Y-87440977D01*
X123254605Y-87436663D01*
X123137183Y-87388026D01*
X123137182Y-87388025D01*
X123137180Y-87388025D01*
X123000000Y-87369965D01*
X122862816Y-87388026D01*
X122734985Y-87440974D01*
X122625209Y-87525209D01*
X122540974Y-87634985D01*
X122488026Y-87762816D01*
X122469965Y-87900000D01*
X118000000Y-87900000D01*
X118000000Y-79551362D01*
X118009439Y-79503909D01*
X118036319Y-79463681D01*
X118638181Y-78861819D01*
X118678409Y-78834939D01*
X118725862Y-78825500D01*
X121120843Y-78825500D01*
X121120845Y-78825500D01*
X121143815Y-78818035D01*
X121162718Y-78813497D01*
X121186578Y-78809719D01*
X121208099Y-78798752D01*
X121226068Y-78791309D01*
X121249033Y-78783849D01*
X121268563Y-78769658D01*
X121285156Y-78759489D01*
X121306672Y-78748528D01*
X121401980Y-78653220D01*
X121401980Y-78653219D01*
X121406277Y-78648921D01*
X121439113Y-78625392D01*
X121477770Y-78613666D01*
X121490636Y-78611973D01*
X121618471Y-78559023D01*
X121728244Y-78474790D01*
X121812477Y-78365017D01*
X121865427Y-78237182D01*
X121883488Y-78099999D01*
X121865427Y-77962816D01*
X121812477Y-77834982D01*
X121807287Y-77822451D01*
X121797848Y-77774999D01*
X121807287Y-77727547D01*
X121812477Y-77715017D01*
X121865427Y-77587182D01*
X121883488Y-77449999D01*
X121865427Y-77312816D01*
X121812477Y-77184982D01*
X121728244Y-77075208D01*
X121728242Y-77075206D01*
X121728241Y-77075205D01*
X121618471Y-76990974D01*
X121490633Y-76938023D01*
X121477765Y-76936329D01*
X121439109Y-76924602D01*
X121406274Y-76901072D01*
X121280646Y-76775444D01*
X121256674Y-76751471D01*
X121235157Y-76740508D01*
X121218565Y-76730340D01*
X121199036Y-76716151D01*
X121176070Y-76708689D01*
X121158092Y-76701242D01*
X121136582Y-76690282D01*
X121136581Y-76690281D01*
X121136580Y-76690281D01*
X121112724Y-76686502D01*
X121093813Y-76681962D01*
X121070847Y-76674500D01*
X121036942Y-76674500D01*
X119672996Y-76674500D01*
X119607515Y-76655801D01*
X119561784Y-76605343D01*
X119549593Y-76538345D01*
X119574621Y-76475013D01*
X119612837Y-76425209D01*
X119659024Y-76365018D01*
X119711974Y-76237183D01*
X119730035Y-76100000D01*
X119711974Y-75962817D01*
X119659024Y-75834983D01*
X119574791Y-75725209D01*
X119574789Y-75725207D01*
X119574788Y-75725206D01*
X119465020Y-75640977D01*
X119465018Y-75640976D01*
X119337183Y-75588026D01*
X119337182Y-75588025D01*
X119337180Y-75588025D01*
X119200000Y-75569965D01*
X119062816Y-75588026D01*
X118934983Y-75640975D01*
X118924687Y-75648876D01*
X118889059Y-75667919D01*
X118849201Y-75674500D01*
X118624000Y-75674500D01*
X118562000Y-75657887D01*
X118516613Y-75612500D01*
X118500000Y-75550500D01*
X118500000Y-67551362D01*
X118509439Y-67503909D01*
X118536319Y-67463681D01*
X118963681Y-67036319D01*
X119003909Y-67009439D01*
X119051362Y-67000000D01*
X123000000Y-67000000D01*
X123000000Y-69598252D01*
G37*
%TD.AperFunction*%
%TD*%
%TA.AperFunction,Conductor*%
%TO.N,VIN*%
G36*
X131000000Y-110000000D02*
G01*
X132726499Y-111534666D01*
X132738634Y-111545452D01*
X132775435Y-111603900D01*
X132775259Y-111672968D01*
X132738161Y-111731228D01*
X132675651Y-111760604D01*
X132616875Y-111769913D01*
X132496778Y-111831105D01*
X132401472Y-111926411D01*
X132340280Y-112046508D01*
X132319195Y-112179633D01*
X132340280Y-112312757D01*
X132401472Y-112432854D01*
X132496778Y-112528160D01*
X132496780Y-112528161D01*
X132616874Y-112589352D01*
X132750000Y-112610437D01*
X132883126Y-112589352D01*
X133003220Y-112528161D01*
X133098528Y-112432853D01*
X133159719Y-112312759D01*
X133178828Y-112192108D01*
X133205838Y-112132369D01*
X133259535Y-112094752D01*
X133324908Y-112089775D01*
X133383680Y-112118827D01*
X134504882Y-113115451D01*
X134535618Y-113157331D01*
X134546500Y-113208128D01*
X134546500Y-114133749D01*
X134558132Y-114192230D01*
X134602447Y-114258552D01*
X134668769Y-114302867D01*
X134727251Y-114314500D01*
X134727252Y-114314500D01*
X136466748Y-114314500D01*
X136466749Y-114314500D01*
X136495989Y-114308683D01*
X136525231Y-114302867D01*
X136591552Y-114258552D01*
X136635867Y-114192231D01*
X136647500Y-114133748D01*
X136647500Y-114124000D01*
X136664113Y-114062000D01*
X136709500Y-114016613D01*
X136771500Y-114000000D01*
X137333538Y-114000000D01*
X137375312Y-114007248D01*
X137412202Y-114028146D01*
X137550550Y-114141685D01*
X137733046Y-114239232D01*
X137931066Y-114299300D01*
X138137000Y-114319583D01*
X138342934Y-114299300D01*
X138540954Y-114239232D01*
X138723450Y-114141685D01*
X138861797Y-114028146D01*
X138898688Y-114007248D01*
X138940462Y-114000000D01*
X139873538Y-114000000D01*
X139915312Y-114007248D01*
X139952202Y-114028146D01*
X140090550Y-114141685D01*
X140273046Y-114239232D01*
X140471066Y-114299300D01*
X140677000Y-114319583D01*
X140882934Y-114299300D01*
X141080954Y-114239232D01*
X141263450Y-114141685D01*
X141401797Y-114028146D01*
X141438688Y-114007248D01*
X141480462Y-114000000D01*
X142413538Y-114000000D01*
X142455312Y-114007248D01*
X142492202Y-114028146D01*
X142630550Y-114141685D01*
X142813046Y-114239232D01*
X143011066Y-114299300D01*
X143217000Y-114319583D01*
X143422934Y-114299300D01*
X143620954Y-114239232D01*
X143803450Y-114141685D01*
X143941797Y-114028146D01*
X143978688Y-114007248D01*
X144020462Y-114000000D01*
X144953538Y-114000000D01*
X144995312Y-114007248D01*
X145032202Y-114028146D01*
X145170550Y-114141685D01*
X145353046Y-114239232D01*
X145551066Y-114299300D01*
X145757000Y-114319583D01*
X145962934Y-114299300D01*
X146160954Y-114239232D01*
X146343450Y-114141685D01*
X146481797Y-114028146D01*
X146518688Y-114007248D01*
X146560462Y-114000000D01*
X147493538Y-114000000D01*
X147535312Y-114007248D01*
X147572202Y-114028146D01*
X147710550Y-114141685D01*
X147893046Y-114239232D01*
X148091066Y-114299300D01*
X148297000Y-114319583D01*
X148502934Y-114299300D01*
X148700954Y-114239232D01*
X148883450Y-114141685D01*
X149021797Y-114028146D01*
X149058688Y-114007248D01*
X149100462Y-114000000D01*
X150033538Y-114000000D01*
X150075312Y-114007248D01*
X150112202Y-114028146D01*
X150250550Y-114141685D01*
X150433046Y-114239232D01*
X150631066Y-114299300D01*
X150837000Y-114319583D01*
X151042934Y-114299300D01*
X151240954Y-114239232D01*
X151423450Y-114141685D01*
X151561797Y-114028146D01*
X151598688Y-114007248D01*
X151640462Y-114000000D01*
X151800000Y-114000000D01*
X151800000Y-113721899D01*
X151810450Y-113680177D01*
X151808686Y-113679642D01*
X151812230Y-113667956D01*
X151812232Y-113667954D01*
X151858933Y-113514000D01*
X152355590Y-113514000D01*
X152402233Y-113667764D01*
X152499731Y-113850171D01*
X152630945Y-114010054D01*
X152790828Y-114141268D01*
X152973235Y-114238766D01*
X153127000Y-114285410D01*
X153127000Y-113514000D01*
X153627000Y-113514000D01*
X153627000Y-114285410D01*
X153780764Y-114238766D01*
X153963171Y-114141268D01*
X154123054Y-114010054D01*
X154254268Y-113850171D01*
X154351766Y-113667764D01*
X154398410Y-113514000D01*
X153627000Y-113514000D01*
X153127000Y-113514000D01*
X152355590Y-113514000D01*
X151858933Y-113514000D01*
X151872300Y-113469934D01*
X151892583Y-113264000D01*
X151872300Y-113058066D01*
X151858933Y-113014000D01*
X152355590Y-113014000D01*
X153127000Y-113014000D01*
X153127000Y-112242590D01*
X153627000Y-112242590D01*
X153627000Y-113014000D01*
X154398410Y-113014000D01*
X154351766Y-112860235D01*
X154254268Y-112677828D01*
X154123054Y-112517945D01*
X153963171Y-112386731D01*
X153780764Y-112289233D01*
X153627000Y-112242590D01*
X153127000Y-112242590D01*
X152973235Y-112289233D01*
X152790828Y-112386731D01*
X152630945Y-112517945D01*
X152499731Y-112677828D01*
X152402233Y-112860235D01*
X152355590Y-113014000D01*
X151858933Y-113014000D01*
X151812232Y-112860046D01*
X151812230Y-112860043D01*
X151808686Y-112848358D01*
X151810450Y-112847822D01*
X151800000Y-112806101D01*
X151800000Y-111851362D01*
X151809439Y-111803909D01*
X151836319Y-111763681D01*
X151963681Y-111636319D01*
X152003909Y-111609439D01*
X152051362Y-111600000D01*
X154748638Y-111600000D01*
X154796091Y-111609439D01*
X154836319Y-111636319D01*
X154963681Y-111763681D01*
X154990561Y-111803909D01*
X155000000Y-111851362D01*
X155000000Y-115348638D01*
X154990561Y-115396091D01*
X154963681Y-115436319D01*
X154636819Y-115763181D01*
X154596591Y-115790061D01*
X154549138Y-115799500D01*
X108251569Y-115799500D01*
X108204116Y-115790061D01*
X108163888Y-115763181D01*
X107736319Y-115335611D01*
X107709439Y-115295383D01*
X107700000Y-115247930D01*
X107700000Y-113394929D01*
X119829500Y-113394929D01*
X119869719Y-113661771D01*
X119924726Y-113840097D01*
X119949262Y-113919641D01*
X119992803Y-114010054D01*
X120066347Y-114162771D01*
X120066348Y-114162772D01*
X120066349Y-114162774D01*
X120218365Y-114385741D01*
X120401915Y-114583561D01*
X120612898Y-114751815D01*
X120846602Y-114886743D01*
X121097805Y-114985334D01*
X121360897Y-115045383D01*
X121418533Y-115049702D01*
X121562619Y-115060500D01*
X121562624Y-115060500D01*
X121697376Y-115060500D01*
X121697381Y-115060500D01*
X121823455Y-115051051D01*
X121899103Y-115045383D01*
X122162195Y-114985334D01*
X122413398Y-114886743D01*
X122647102Y-114751815D01*
X122858085Y-114583561D01*
X123041635Y-114385741D01*
X123193651Y-114162775D01*
X123310738Y-113919641D01*
X123390280Y-113661772D01*
X123430500Y-113394929D01*
X123430500Y-113125071D01*
X123390280Y-112858228D01*
X123310738Y-112600359D01*
X123193651Y-112357226D01*
X123041635Y-112134259D01*
X122858085Y-111936439D01*
X122647102Y-111768185D01*
X122413398Y-111633257D01*
X122162195Y-111534666D01*
X122162194Y-111534665D01*
X121899100Y-111474616D01*
X121697381Y-111459500D01*
X121697376Y-111459500D01*
X121562624Y-111459500D01*
X121562619Y-111459500D01*
X121360899Y-111474616D01*
X121097804Y-111534666D01*
X120846601Y-111633257D01*
X120612899Y-111768184D01*
X120401914Y-111936439D01*
X120218366Y-112134256D01*
X120164339Y-112213500D01*
X120080978Y-112335769D01*
X120066348Y-112357227D01*
X119949262Y-112600359D01*
X119869719Y-112858228D01*
X119829500Y-113125071D01*
X119829500Y-113394929D01*
X107700000Y-113394929D01*
X107700000Y-113019749D01*
X109259500Y-113019749D01*
X109271132Y-113078230D01*
X109315447Y-113144552D01*
X109381769Y-113188867D01*
X109440251Y-113200500D01*
X109440252Y-113200500D01*
X112479748Y-113200500D01*
X112479749Y-113200500D01*
X112508989Y-113194683D01*
X112538231Y-113188867D01*
X112604552Y-113144552D01*
X112648867Y-113078231D01*
X112660500Y-113019748D01*
X112660500Y-111499999D01*
X114334731Y-111499999D01*
X114353777Y-111754154D01*
X114410492Y-112002637D01*
X114503608Y-112239891D01*
X114588146Y-112386315D01*
X114631041Y-112460612D01*
X114789950Y-112659877D01*
X114976783Y-112833232D01*
X115187366Y-112976805D01*
X115416996Y-113087389D01*
X115660542Y-113162513D01*
X115912565Y-113200500D01*
X116167435Y-113200500D01*
X116419458Y-113162513D01*
X116663004Y-113087389D01*
X116892634Y-112976805D01*
X117103217Y-112833232D01*
X117290050Y-112659877D01*
X117448959Y-112460612D01*
X117576393Y-112239888D01*
X117669508Y-112002637D01*
X117726222Y-111754157D01*
X117745268Y-111500000D01*
X117726222Y-111245843D01*
X117669508Y-110997363D01*
X117576393Y-110760112D01*
X117570554Y-110749999D01*
X117448961Y-110539392D01*
X117448959Y-110539388D01*
X117290050Y-110340123D01*
X117103217Y-110166768D01*
X116892634Y-110023195D01*
X116663004Y-109912611D01*
X116622120Y-109900000D01*
X121369195Y-109900000D01*
X121390280Y-110033124D01*
X121451472Y-110153221D01*
X121546778Y-110248527D01*
X121546780Y-110248528D01*
X121666874Y-110309719D01*
X121800000Y-110330804D01*
X121933126Y-110309719D01*
X122053220Y-110248528D01*
X122148528Y-110153220D01*
X122209719Y-110033126D01*
X122230804Y-109900000D01*
X122219864Y-109830926D01*
X122209719Y-109766873D01*
X122153376Y-109656293D01*
X122139861Y-109599999D01*
X122153376Y-109543705D01*
X122209719Y-109433126D01*
X122230804Y-109300000D01*
X122209719Y-109166874D01*
X122153375Y-109056294D01*
X122139861Y-109000000D01*
X122153376Y-108943705D01*
X122170250Y-108910588D01*
X122209719Y-108833126D01*
X122230804Y-108700000D01*
X122209719Y-108566874D01*
X122148528Y-108446780D01*
X122148527Y-108446778D01*
X122053221Y-108351472D01*
X121933124Y-108290280D01*
X121800000Y-108269195D01*
X121666875Y-108290280D01*
X121546778Y-108351472D01*
X121451472Y-108446778D01*
X121390280Y-108566875D01*
X121369195Y-108699999D01*
X121390280Y-108833126D01*
X121446623Y-108943706D01*
X121460138Y-109000000D01*
X121446623Y-109056294D01*
X121390280Y-109166873D01*
X121369195Y-109300000D01*
X121390280Y-109433126D01*
X121446623Y-109543705D01*
X121460138Y-109599999D01*
X121446623Y-109656293D01*
X121390280Y-109766873D01*
X121369195Y-109900000D01*
X116622120Y-109900000D01*
X116419458Y-109837487D01*
X116167435Y-109799500D01*
X115912565Y-109799500D01*
X115660542Y-109837487D01*
X115416996Y-109912611D01*
X115187366Y-110023195D01*
X115172803Y-110033124D01*
X114976781Y-110166769D01*
X114789949Y-110340123D01*
X114789950Y-110340123D01*
X114646665Y-110519797D01*
X114631038Y-110539392D01*
X114503608Y-110760108D01*
X114410492Y-110997362D01*
X114353777Y-111245845D01*
X114334731Y-111499999D01*
X112660500Y-111499999D01*
X112660500Y-109980252D01*
X112648867Y-109921769D01*
X112634321Y-109900000D01*
X112604552Y-109855447D01*
X112538230Y-109811132D01*
X112479749Y-109799500D01*
X112479748Y-109799500D01*
X109440252Y-109799500D01*
X109440251Y-109799500D01*
X109381769Y-109811132D01*
X109315447Y-109855447D01*
X109271132Y-109921769D01*
X109259500Y-109980251D01*
X109259500Y-113019749D01*
X107700000Y-113019749D01*
X107700000Y-106500000D01*
X126769195Y-106500000D01*
X126790280Y-106633124D01*
X126851472Y-106753221D01*
X126946778Y-106848527D01*
X126946780Y-106848528D01*
X127066874Y-106909719D01*
X127200000Y-106930804D01*
X127333126Y-106909719D01*
X127453220Y-106848528D01*
X127548528Y-106753220D01*
X127609719Y-106633126D01*
X127630804Y-106500000D01*
X127609719Y-106366874D01*
X127548528Y-106246780D01*
X127548527Y-106246778D01*
X127453221Y-106151472D01*
X127333124Y-106090280D01*
X127200000Y-106069195D01*
X127066875Y-106090280D01*
X126946778Y-106151472D01*
X126851472Y-106246778D01*
X126790280Y-106366875D01*
X126769195Y-106500000D01*
X107700000Y-106500000D01*
X107700000Y-106000000D01*
X131000000Y-106000000D01*
X131000000Y-110000000D01*
G37*
%TD.AperFunction*%
%TD*%
M02*
